<?xml version="1.0" encoding="utf-8"?>
<!-- Generator: Adobe Illustrator 25.3.1, SVG Export Plug-In . SVG Version: 6.00 Build 0)  -->
<svg version="1.1" id="圖層_1" xmlns="http://www.w3.org/2000/svg" xmlns:xlink="http://www.w3.org/1999/xlink" x="0px" y="0px"
	 viewBox="0 0 100 100" style="enable-background:new 0 0 100 100;" xml:space="preserve">
<style type="text/css">
	.st0{fill:#EAEAEA;}
	.st1{fill:#262626;}
</style>
<g id="Layer_1_00000107547892620374011940000010164274931547612293_">
</g>
<path class="st0" d="M26.1,61.9c-0.3,3.4,0.3,8.3,4.6,8.9c4.6-1.1,27.8,4,26.7-5.7C60.5,42.7,26.7,39.2,26.1,61.9z"/>
<path class="st0" d="M49.6,36.1c0-10.6-16.3-10.3-16.1,0C33.5,46.1,49.9,46.1,49.6,36.1z"/>
<path class="st0" d="M68.8,36.4c0-7.2-11.5-7.2-11.2,0C57.3,43.2,68.8,43.5,68.8,36.4z"/>
<path class="st0" d="M54.2,48.7c3.4,3.2,5.7,7.7,5.7,12.6c2.9-0.6,14.9,2.3,14.3-3.7C76.3,46.1,61.1,39.2,54.2,48.7z"/>
<path class="st1" d="M67.9,42.7c6-4.3,2.6-14.3-4.9-14.1c-7.5-0.3-10.9,10-4.9,14.3c-2.3,0.9-4.3,2.6-6,4.6c-1.7-1.1-3.2-2-5.2-2.6
	c8.9-5.2,4.6-19.5-5.7-19.2C31,25.5,26.9,40.1,35.8,45c-11.2,2.3-19.2,24.4-5.4,28.7c0.3,0-1.1,0,22.7-0.3c4.6-0.6,7.5-4.9,6.9-9.2
	c12.3,0,11.5,0,11.8,0C81.4,60.7,76,44.7,67.9,42.7z M57.6,36.4c-0.3-7.2,11.2-7.2,11.2,0C68.8,43.5,57.3,43.2,57.6,36.4z
	 M33.5,36.1c-0.3-10.3,16.1-10.6,16.1,0C49.9,46.1,33.5,46.1,33.5,36.1z M57.3,65c1.1,9.7-22.1,4.6-26.7,5.7
	c-4.3-0.6-4.9-5.4-4.6-8.9C26.7,39.2,60.5,42.7,57.3,65z M59.9,61.3c0-4.9-2.3-9.5-5.7-12.6c6.9-9.5,22.1-2.6,20.1,8.9
	C74.8,63.6,62.8,60.7,59.9,61.3z"/>
</svg>
