<?xml version="1.0" encoding="utf-8"?>
<!-- Generator: Adobe Illustrator 25.3.1, SVG Export Plug-In . SVG Version: 6.00 Build 0)  -->
<svg version="1.1" id="圖層_1" xmlns="http://www.w3.org/2000/svg" xmlns:xlink="http://www.w3.org/1999/xlink" x="0px" y="0px"
	 viewBox="0 0 30 30" style="enable-background:new 0 0 30 30;" xml:space="preserve">
<style type="text/css">
	.st0{fill:#DAC050;}
</style>
<path class="st0" d="M16.22,1.86l3.44,6.97c0.2,0.4,0.58,0.68,1.03,0.74l7.69,1.12c1.12,0.16,1.56,1.53,0.75,2.32l-5.57,5.43
	c-0.32,0.31-0.47,0.76-0.39,1.21l1.31,7.66c0.19,1.11-0.98,1.96-1.98,1.44l-6.88-3.62c-0.4-0.21-0.87-0.21-1.27,0l-6.88,3.62
	c-1,0.53-2.17-0.32-1.98-1.44l1.31-7.66c0.08-0.44-0.07-0.89-0.39-1.21l-5.57-5.43c-0.81-0.79-0.36-2.16,0.75-2.32l7.69-1.12
	c0.44-0.06,0.83-0.34,1.03-0.74l3.44-6.97C14.28,0.84,15.72,0.84,16.22,1.86z"/>
</svg>
