<?xml version="1.0" encoding="utf-8"?>
<!-- Generator: Adobe Illustrator 28.0.0, SVG Export Plug-In . SVG Version: 6.00 Build 0)  -->
<svg version="1.1" id="圖層_1" xmlns="http://www.w3.org/2000/svg" xmlns:xlink="http://www.w3.org/1999/xlink" x="0px" y="0px"
	 viewBox="0 0 50 50" style="enable-background:new 0 0 50 50;" xml:space="preserve">
<style type="text/css">
	.st0{fill:#E94C49;}
	.st1{fill:#F6F6F6;}
	.st2{fill:#1C1D1B;}
</style>
<g>
	<path class="st0" d="M45.03,18.62c2.84,8.01,0.59,16.72-5.57,22.52c-6.38,6-15.68,7.24-23.54,3.49
		C7.16,40.45,2.31,30.44,3.94,20.92c0.81-4.69,3.24-9.05,6.85-12.15c3.61-3.09,8.13-4.37,12.7-5.23c4.77-0.34,9.9,2.04,13.75,4.73
		C40.86,10.8,43.57,14.48,45.03,18.62z M35.41,36.45c1.68-0.93,3.38-2.68,3.31-4.74c-0.07-2.2-2.21-3.41-4.12-3.84
		c-3.19-0.72-6.78-0.28-10.02-0.27c-3.01,0.01-6.71-0.53-9.54,0.77c-1.92,0.88-2.77,2.28-2.89,3.8c-0.19,0.09-0.22,0.41-0.01,0.5
		c0.06,1.92,1.24,3.97,2.92,5.35c0.07,0.14,0.19,0.25,0.38,0.26c3.87,0.27,7.73,0.21,11.6-0.13C29.8,37.93,32.93,37.81,35.41,36.45z
		 M35.25,21.78c0.32,0.69,1.34,0.09,1.01-0.59c-0.59-1.25-0.81-2.72-1.9-3.67c-0.85-0.74-2.18-1.19-3.31-1.11
		c-2.64,0.19-3.86,3.33-3.32,5.59c0.08,0.36,0.65,0.28,0.64-0.08c-0.07-2.27,1.2-5.04,3.91-4.22C34.28,18.3,34.48,20.15,35.25,21.78
		z M20.82,22.32c0.22,0.72,1.37,0.41,1.14-0.32c-0.87-2.74-2.15-5.48-5.5-5.33c-2.92,0.14-3.88,3.45-3.57,5.89
		c0.02,0.2,0.31,0.27,0.37,0.05c0.48-1.94,0.74-4.97,3.44-4.86C19.33,17.85,20.16,20.17,20.82,22.32z"/>
	<path class="st1" d="M24.32,28.68c-0.05,0.06-0.08,0.13-0.08,0.22c0,1.11-0.01,2.24,0,3.38c-1.01,0.01-2.02,0.01-3.04,0
		c-0.08-1.09-0.17-2.17-0.22-3.22c-0.01-0.17-0.1-0.28-0.22-0.34c0.15,0,0.3,0,0.44,0C22.23,28.73,23.27,28.7,24.32,28.68z"/>
	<path class="st1" d="M16.91,28.92c1.13-0.22,2.33-0.21,3.46-0.2c-0.12,0.06-0.2,0.17-0.2,0.34c0.01,1.02,0.02,2.11,0.06,3.21
		c-1.07-0.01-2.15-0.02-3.22-0.04c-0.06-1.08-0.09-2.16-0.08-3.25C16.92,28.96,16.91,28.94,16.91,28.92z"/>
	<path class="st1" d="M16.08,29.13c-0.01,1.01,0,2.05,0.05,3.09c-1-0.01-2.01-0.03-3.02-0.05c0.1-0.65,0.39-1.28,0.95-1.85
		C14.64,29.74,15.33,29.37,16.08,29.13z"/>
	<path class="st1" d="M16.2,33.35c0.11,1.38,0.32,2.76,0.66,4.08c-0.47-0.01-0.93-0.01-1.4-0.02c-0.05,0-0.09,0.01-0.13,0.02
		c-1.1-1.2-2.2-2.9-2.26-4.54C14.1,33.07,15.15,33.22,16.2,33.35z"/>
	<path class="st1" d="M20.3,33.68c0.09,1.29,0.26,2.55,0.57,3.73c-1.19,0.03-2.39,0.03-3.58,0.02c-0.05-1.33-0.14-2.66-0.22-3.98
		C18.14,33.55,19.21,33.63,20.3,33.68z"/>
	<path class="st1" d="M24.28,33.72c0.04,1.19,0.11,2.37,0.25,3.53c-1.08,0.07-2.17,0.12-3.25,0.15c0.11-1.2,0.09-2.44,0.02-3.68
		C22.29,33.74,23.28,33.74,24.28,33.72z"/>
	<path class="st1" d="M28.68,36.81c0,0.02,0.01,0.04,0.02,0.06c-1.23,0.14-2.47,0.26-3.71,0.34c0.13-1.15,0.19-2.33,0.2-3.51
		c1.13-0.03,2.26-0.1,3.39-0.18C28.58,34.63,28.6,35.72,28.68,36.81z"/>
	<path class="st2" d="M46.63,21.2c1.87,8.7-1.91,17.51-9.18,22.54c-7.4,5.12-17.33,4.94-24.75-0.08
		C4.46,38.08,0.85,26.92,4.05,17.51C6.98,8.91,14.66,4.2,23.18,2.87c0.07-0.07,0.16-0.13,0.28-0.15c0.41-0.04,0.83-0.06,1.25-0.06
		c0.68-0.07,1.36-0.13,2.04-0.16c0.18-0.01,0.27,0.19,0.23,0.34c4.46,0.68,9.09,3.19,12.27,5.88C43.01,11.9,45.6,16.41,46.63,21.2z
		 M39.46,41.14c6.16-5.8,8.41-14.51,5.57-22.52c-1.47-4.15-4.17-7.83-7.79-10.34c-3.85-2.68-8.98-5.07-13.75-4.73
		c-4.57,0.85-9.09,2.13-12.7,5.23c-3.61,3.1-6.05,7.46-6.85,12.15c-1.63,9.52,3.22,19.53,11.98,23.71
		C23.78,48.38,33.08,47.14,39.46,41.14z"/>
	<path class="st2" d="M38.72,31.72c0.06,2.06-1.64,3.81-3.31,4.74c-2.47,1.36-5.6,1.48-8.35,1.72c-3.87,0.34-7.73,0.41-11.6,0.13
		c-0.2-0.02-0.32-0.12-0.38-0.26c-1.68-1.39-2.86-3.43-2.92-5.35c-0.21-0.09-0.18-0.41,0.01-0.5c0.11-1.52,0.97-2.92,2.89-3.8
		c2.82-1.3,6.53-0.76,9.54-0.77c3.24-0.01,6.83-0.45,10.02,0.27C36.51,28.31,38.65,29.52,38.72,31.72z M37.5,31.29
		c-0.05-0.18-0.12-0.37-0.22-0.56c-0.53-1-1.86-1.5-3.03-1.75c0.05,0.07,0.09,0.15,0.1,0.25c0.05,0.76,0.07,1.6,0.05,2.47
		C35.43,31.58,36.46,31.45,37.5,31.29z M35.12,35.29c0.94-0.57,2.09-1.6,2.39-2.81c-1.05,0.16-2.11,0.31-3.17,0.45
		c-0.09,1.08-0.28,2.13-0.61,3.02C34.21,35.77,34.67,35.56,35.12,35.29z M33.46,29.23c0.01-0.17,0.1-0.29,0.21-0.36
		c-0.14-0.02-0.27-0.04-0.39-0.05c-1.14-0.13-2.31-0.19-3.48-0.22c-0.07,1.17-0.13,2.33-0.2,3.5c1.27-0.07,2.55-0.17,3.82-0.3
		C33.43,30.95,33.42,30.09,33.46,29.23z M33.32,36.08c-0.02-0.03-0.04-0.05-0.05-0.1c-0.1-0.96,0.03-1.96,0.1-2.93
		c-1.28,0.15-2.56,0.29-3.85,0.4c-0.07,1.12-0.14,2.24-0.23,3.36C30.63,36.65,32.02,36.48,33.32,36.08z M28.86,28.59
		c-1.32,0-2.65,0.03-3.96,0.07c0.05,0.06,0.1,0.14,0.1,0.24c0.08,1.1,0.15,2.23,0.17,3.36c1.15-0.02,2.29-0.06,3.44-0.11
		C28.67,30.96,28.75,29.77,28.86,28.59z M28.7,36.87c-0.01-0.02-0.02-0.04-0.02-0.06c-0.08-1.08-0.1-2.18-0.1-3.29
		c-1.13,0.08-2.26,0.15-3.39,0.18c-0.01,1.19-0.07,2.37-0.2,3.51C26.23,37.13,27.46,37.01,28.7,36.87z M24.52,37.25
		c-0.13-1.15-0.2-2.34-0.25-3.53c-0.99,0.02-1.99,0.02-2.98-0.01c0.07,1.25,0.08,2.49-0.02,3.68
		C22.35,37.37,23.44,37.32,24.52,37.25z M24.24,28.9c0-0.1,0.03-0.17,0.08-0.22c-1.05,0.03-2.09,0.05-3.11,0.05
		c-0.15,0-0.29,0-0.44,0c0.12,0.06,0.21,0.17,0.22,0.34c0.05,1.04,0.14,2.12,0.22,3.22c1.02,0,2.03,0,3.04,0
		C24.23,31.14,24.24,30.01,24.24,28.9z M20.36,28.72c-1.12-0.01-2.33-0.02-3.46,0.2c0,0.02,0.01,0.04,0.01,0.06
		c-0.01,1.09,0.02,2.17,0.08,3.25c1.08,0.02,2.15,0.03,3.22,0.04c-0.04-1.1-0.05-2.19-0.06-3.21
		C20.16,28.89,20.25,28.78,20.36,28.72z M20.87,37.41c-0.31-1.18-0.49-2.45-0.57-3.73c-1.08-0.05-2.16-0.12-3.23-0.23
		c0.08,1.33,0.17,2.65,0.22,3.98C18.48,37.44,19.68,37.44,20.87,37.41z M16.86,37.42c-0.34-1.32-0.55-2.69-0.66-4.08
		c-1.05-0.12-2.1-0.28-3.13-0.47c0.06,1.65,1.15,3.34,2.26,4.54c0.04-0.01,0.08-0.02,0.13-0.02C15.93,37.42,16.4,37.42,16.86,37.42z
		 M16.13,32.22c-0.05-1.04-0.06-2.08-0.05-3.09c-0.75,0.24-1.44,0.61-2.01,1.2c-0.56,0.57-0.85,1.2-0.95,1.85
		C14.12,32.19,15.13,32.21,16.13,32.22z"/>
	<path class="st1" d="M37.28,30.73c0.1,0.19,0.17,0.37,0.22,0.56c-1.04,0.17-2.07,0.29-3.1,0.41c0.02-0.86,0-1.71-0.05-2.47
		c0-0.1-0.05-0.18-0.1-0.25C35.42,29.23,36.75,29.73,37.28,30.73z"/>
	<path class="st1" d="M37.51,32.48c-0.3,1.21-1.45,2.24-2.39,2.81c-0.44,0.27-0.91,0.49-1.4,0.66c0.34-0.9,0.52-1.95,0.61-3.02
		C35.4,32.79,36.46,32.64,37.51,32.48z"/>
	<path class="st2" d="M36.27,21.19c0.32,0.68-0.69,1.28-1.01,0.59c-0.77-1.63-0.97-3.48-2.96-4.08c-2.71-0.82-3.98,1.95-3.91,4.22
		c0.01,0.37-0.56,0.44-0.64,0.08c-0.54-2.26,0.69-5.4,3.32-5.59c1.13-0.08,2.46,0.37,3.31,1.11C35.46,18.47,35.67,19.93,36.27,21.19
		z"/>
	<path class="st1" d="M33.67,28.87c-0.11,0.07-0.2,0.18-0.21,0.36c-0.04,0.86-0.03,1.72-0.04,2.58c-1.28,0.13-2.55,0.22-3.82,0.3
		c0.07-1.17,0.13-2.33,0.2-3.5c1.17,0.02,2.33,0.09,3.48,0.22C33.4,28.84,33.53,28.85,33.67,28.87z"/>
	<path class="st1" d="M33.27,35.98c0.01,0.04,0.03,0.07,0.05,0.1c-1.3,0.41-2.69,0.57-4.03,0.73c0.09-1.12,0.16-2.23,0.23-3.36
		c1.29-0.11,2.57-0.25,3.85-0.4C33.3,34.02,33.17,35.02,33.27,35.98z"/>
	<path class="st1" d="M24.9,28.66c1.32-0.03,2.65-0.07,3.96-0.07c-0.11,1.18-0.2,2.37-0.24,3.56c-1.15,0.05-2.3,0.09-3.44,0.11
		C25.15,31.13,25.08,30,25,28.9C25,28.8,24.95,28.72,24.9,28.66z"/>
	<path class="st2" d="M21.96,22c0.23,0.73-0.91,1.03-1.14,0.32c-0.66-2.14-1.5-4.46-4.12-4.57c-2.7-0.11-2.96,2.92-3.44,4.86
		c-0.06,0.22-0.34,0.15-0.37-0.05c-0.31-2.44,0.64-5.75,3.57-5.89C19.81,16.52,21.09,19.26,21.96,22z"/>
</g>
</svg>
