<?xml version="1.0" encoding="utf-8"?>
<!-- Generator: Adobe Illustrator 28.0.0, SVG Export Plug-In . SVG Version: 6.00 Build 0)  -->
<svg version="1.1" id="圖層_1" xmlns="http://www.w3.org/2000/svg" xmlns:xlink="http://www.w3.org/1999/xlink" x="0px" y="0px"
	 viewBox="0 0 50 50" style="enable-background:new 0 0 50 50;" xml:space="preserve">
<style type="text/css">
	.st0{fill:#FFE3E6;}
	.st1{fill:#DB7F86;}
	.st2{opacity:0.15;fill:#212121;}
	.st3{fill:#F27979;}
</style>
<g>
	<circle class="st0" cx="25" cy="25" r="22.5"/>
	<path class="st1" d="M25,5c11,0,20,9,20,20s-9,20-20,20S5,36,5,25S14,5,25,5 M25,0C11.2,0,0,11.2,0,25c0,13.8,11.2,25,25,25
		c13.8,0,25-11.2,25-25C50,11.2,38.8,0,25,0L25,0z"/>
</g>
<polygon class="st2" points="39.8,35.1 31.4,26.7 39.8,18.3 34.9,13.3 26.4,21.7 18,13.3 13,18.3 21.5,26.7 13,35.1 18,40.1 
	26.4,31.6 34.9,40.1 "/>
<polygon class="st3" points="38.8,33.7 30.1,25 38.8,16.3 33.7,11.2 25,19.9 16.3,11.2 11.2,16.3 19.9,25 11.2,33.7 16.3,38.8 
	25,30.1 33.7,38.8 "/>
</svg>
