<svg xmlns="http://www.w3.org/2000/svg" xmlns:xlink="http://www.w3.org/1999/xlink" viewBox="0 0 88.96 58.06"><defs><style>.cls-1{fill:none;}.cls-2{isolation:isolate;}.cls-3{clip-path:url(#clip-path);}.cls-4{fill:url(#_20);}.cls-10,.cls-12,.cls-13,.cls-16,.cls-17,.cls-18,.cls-19,.cls-20,.cls-26,.cls-27,.cls-29,.cls-34,.cls-35,.cls-37,.cls-42,.cls-43,.cls-45,.cls-5,.cls-50,.cls-51,.cls-53,.cls-58,.cls-6,.cls-60,.cls-65,.cls-66,.cls-68,.cls-69,.cls-73,.cls-74,.cls-9{mix-blend-mode:color-dodge;}.cls-13,.cls-20,.cls-26,.cls-27,.cls-34,.cls-35,.cls-42,.cls-43,.cls-5,.cls-50,.cls-51,.cls-58,.cls-65,.cls-66,.cls-73,.cls-74,.cls-9{opacity:0.3;}.cls-5{fill:url(#New_Gradient_Swatch_103);}.cls-6{opacity:0.56;fill:url(#_12);}.cls-7{clip-path:url(#clip-path-2);}.cls-8{fill:url(#_20-2);}.cls-9{fill:url(#New_Gradient_Swatch_103-2);}.cls-10{fill:url(#_12-2);}.cls-11{fill:#fff;}.cls-12,.cls-17,.cls-18,.cls-19{opacity:0.31;}.cls-12{fill:url(#_29);}.cls-13{fill:url(#New_Gradient_Swatch_103-3);}.cls-14,.cls-24,.cls-28,.cls-32,.cls-36,.cls-40,.cls-44,.cls-48,.cls-52,.cls-56,.cls-59,.cls-63,.cls-67,.cls-71,.cls-75{mix-blend-mode:multiply;}.cls-14,.cls-28,.cls-36,.cls-44,.cls-52,.cls-59,.cls-67,.cls-75{opacity:0.61;}.cls-14{fill:url(#_17);}.cls-15{fill:url(#_805);}.cls-16{fill:url(#_814);}.cls-17{fill:url(#_29-2);}.cls-18{fill:url(#_29-3);}.cls-19{fill:url(#_29-4);}.cls-20{fill:url(#New_Gradient_Swatch_103-4);}.cls-21{mix-blend-mode:screen;opacity:0.54;fill:url(#_853);}.cls-22,.cls-30,.cls-38,.cls-46,.cls-54,.cls-61{mix-blend-mode:soft-light;}.cls-22,.cls-30,.cls-38,.cls-46,.cls-54,.cls-61,.cls-69{opacity:0.57;}.cls-22{fill:url(#_26);}.cls-23{fill:url(#_25);}.cls-24,.cls-32,.cls-40,.cls-48,.cls-56,.cls-63,.cls-71{opacity:0.38;}.cls-24{fill:url(#_22);}.cls-25{fill:url(#_20-3);}.cls-26{fill:url(#New_Gradient_Swatch_103-5);}.cls-27{fill:url(#New_Gradient_Swatch_103-6);}.cls-28{fill:url(#_17-2);}.cls-29{fill:url(#_845);}.cls-30{fill:url(#_26-2);}.cls-31{fill:url(#_25-2);}.cls-32{fill:url(#_22-2);}.cls-33{fill:url(#_20-4);}.cls-34{fill:url(#New_Gradient_Swatch_103-7);}.cls-35{fill:url(#New_Gradient_Swatch_103-8);}.cls-36{fill:url(#_17-3);}.cls-37{fill:url(#_12-3);}.cls-38{fill:url(#_26-3);}.cls-39{fill:url(#_25-3);}.cls-40{fill:url(#_22-3);}.cls-41{fill:url(#_20-5);}.cls-42{fill:url(#New_Gradient_Swatch_103-9);}.cls-43{fill:url(#New_Gradient_Swatch_103-10);}.cls-44{fill:url(#_17-4);}.cls-45{fill:url(#_12-4);}.cls-46{fill:url(#_26-4);}.cls-47{fill:url(#_25-4);}.cls-48{fill:url(#_22-4);}.cls-49{fill:url(#_20-6);}.cls-50{fill:url(#New_Gradient_Swatch_103-11);}.cls-51{fill:url(#New_Gradient_Swatch_103-12);}.cls-52{fill:url(#_17-5);}.cls-53{fill:url(#_12-5);}.cls-54{fill:url(#_26-5);}.cls-55{fill:url(#_25-5);}.cls-56{fill:url(#_22-5);}.cls-57{fill:url(#_20-7);}.cls-58{fill:url(#New_Gradient_Swatch_103-13);}.cls-59{fill:url(#_17-6);}.cls-60{fill:url(#_12-6);}.cls-61{fill:url(#_26-6);}.cls-62{fill:url(#_25-6);}.cls-63{fill:url(#_22-6);}.cls-64{fill:url(#_20-8);}.cls-65{fill:url(#New_Gradient_Swatch_103-14);}.cls-66{fill:url(#New_Gradient_Swatch_103-15);}.cls-67{fill:url(#_17-7);}.cls-68{fill:url(#_12-7);}.cls-69{fill:url(#_26-7);}.cls-70{fill:url(#_25-7);}.cls-71{fill:url(#_22-7);}.cls-72{fill:url(#_20-9);}.cls-73{fill:url(#New_Gradient_Swatch_103-16);}.cls-74{fill:url(#New_Gradient_Swatch_103-17);}.cls-75{fill:url(#_17-8);}.cls-76{fill:url(#_847);}.cls-77{fill:url(#_847-2);}.cls-78{fill:url(#_847-3);}</style><clipPath id="clip-path"><path class="cls-1" d="M53.87,51.36c-1.49,3.69,4.34,8.66,9.55,3S57.35,42.75,53.87,51.36Z"/></clipPath><radialGradient id="_20" cx="-2797.27" cy="-693.12" r="8.12" gradientTransform="translate(2885.48 -516.74) rotate(-25.37)" gradientUnits="userSpaceOnUse"><stop offset="0.01" stop-color="#ffb70b"/><stop offset="0.26" stop-color="#ffb50c"/><stop offset="0.39" stop-color="#fead10"/><stop offset="0.48" stop-color="#fca017"/><stop offset="0.57" stop-color="#f98d22"/><stop offset="0.64" stop-color="#f6752f"/><stop offset="0.66" stop-color="#f56d33"/><stop offset="0.72" stop-color="#ee6836"/><stop offset="0.81" stop-color="#db593d"/><stop offset="0.91" stop-color="#bc4049"/><stop offset="0.98" stop-color="#9f2a54"/></radialGradient><radialGradient id="New_Gradient_Swatch_103" cx="58.95" cy="53.7" r="3.68" gradientUnits="userSpaceOnUse"><stop offset="0" stop-color="#ea716d"/><stop offset="1" stop-color="#d6001e"/></radialGradient><radialGradient id="_12" cx="7579.02" cy="-837.58" r="4.57" gradientTransform="matrix(0.4, 0.31, -0.58, 0.75, -3483.81, -1671.38)" gradientUnits="userSpaceOnUse"><stop offset="0.01" stop-color="#ec891d"/><stop offset="0.1" stop-color="#de811b"/><stop offset="0.29" stop-color="#b86b17"/><stop offset="0.55" stop-color="#7b480f"/><stop offset="0.86" stop-color="#281705"/><stop offset="1"/></radialGradient><clipPath id="clip-path-2"><path class="cls-1" d="M21.77,22.86c-7-1.06-14.53,4.44-11.56,11.94S22.8,42,24.45,37.93Z"/></clipPath><radialGradient id="_20-2" cx="-2827.75" cy="-735.1" r="13.27" xlink:href="#_20"/><radialGradient id="New_Gradient_Swatch_103-2" cx="-2826.6" cy="-739.58" r="2.37" gradientTransform="translate(2885.48 -516.74) rotate(-25.37)" xlink:href="#New_Gradient_Swatch_103"/><radialGradient id="_12-2" cx="-2827.61" cy="2898.5" r="4.57" gradientTransform="matrix(0.89, -0.38, 0.25, 0.58, 1802.11, -2734.73)" xlink:href="#_12"/><linearGradient id="_29" x1="-2804.6" y1="-701.32" x2="-2804.6" y2="-696.86" gradientTransform="translate(2885.48 -516.74) rotate(-25.37)" gradientUnits="userSpaceOnUse"><stop offset="0" stop-color="#09abd8"/><stop offset="1" stop-color="#2878c2"/></linearGradient><radialGradient id="New_Gradient_Swatch_103-3" cx="-2828.59" cy="-729.29" r="5.15" gradientTransform="translate(2885.48 -516.74) rotate(-25.37)" xlink:href="#New_Gradient_Swatch_103"/><linearGradient id="_17" x1="16.02" y1="35.85" x2="17.14" y2="39.02" gradientUnits="userSpaceOnUse"><stop offset="0" stop-color="#f0a540"/><stop offset="1" stop-color="#872784"/></linearGradient><radialGradient id="_805" cx="35.4" cy="20.84" r="41.76" gradientUnits="userSpaceOnUse"><stop offset="0" stop-color="#da2ecc"/><stop offset="0.08" stop-color="#d32cc7"/><stop offset="0.21" stop-color="#be28bb"/><stop offset="0.36" stop-color="#9c21a7"/><stop offset="0.53" stop-color="#6d188a"/><stop offset="0.72" stop-color="#320c66"/><stop offset="0.77" stop-color="#21085c"/><stop offset="1" stop-color="#6900ec"/></radialGradient><linearGradient id="_814" x1="18.59" y1="13.85" x2="67.57" y2="13.85" gradientUnits="userSpaceOnUse"><stop offset="0.01" stop-color="#cb00ff"/><stop offset="0.1" stop-color="#c000f1"/><stop offset="0.27" stop-color="#a200cb"/><stop offset="0.51" stop-color="#71008e"/><stop offset="0.81" stop-color="#2f003b"/><stop offset="1"/></linearGradient><linearGradient id="_29-2" x1="4741.15" y1="-1624.65" x2="4741.15" y2="-1594.49" gradientTransform="matrix(0.73, 0.69, -0.69, 0.73, -4504.84, -2056.14)" xlink:href="#_29"/><linearGradient id="_29-3" x1="-2784.13" y1="-708.49" x2="-2784.13" y2="-701.01" xlink:href="#_29"/><linearGradient id="_29-4" x1="-2778.27" y1="-732.04" x2="-2778.27" y2="-728.03" xlink:href="#_29"/><radialGradient id="New_Gradient_Swatch_103-4" cx="-2808.17" cy="-726.31" r="0.88" gradientTransform="translate(2885.48 -516.74) rotate(-25.37)" xlink:href="#New_Gradient_Swatch_103"/><radialGradient id="_853" cx="53.38" cy="46.83" r="28.92" gradientUnits="userSpaceOnUse"><stop offset="0.01" stop-color="#056dff"/><stop offset="0.07" stop-color="#0460e0"/><stop offset="0.22" stop-color="#0347a6"/><stop offset="0.36" stop-color="#023173"/><stop offset="0.5" stop-color="#01204a"/><stop offset="0.64" stop-color="#01122a"/><stop offset="0.77" stop-color="#000813"/><stop offset="0.89" stop-color="#000205"/><stop offset="1"/></radialGradient><radialGradient id="_26" cx="-2798.39" cy="-712.17" r="8.46" gradientTransform="translate(2885.48 -516.74) rotate(-25.37)" gradientUnits="userSpaceOnUse"><stop offset="0" stop-color="#ea6cd5"/><stop offset="1" stop-color="#fbbfeb"/></radialGradient><linearGradient id="_25" x1="-2797.1" y1="-714.81" x2="-2797.1" y2="-701.12" gradientTransform="translate(2885.48 -516.74) rotate(-25.37)" gradientUnits="userSpaceOnUse"><stop offset="0" stop-color="#d83bea"/><stop offset="0.16" stop-color="#a639d2"/><stop offset="0.44" stop-color="#4f36a7"/><stop offset="0.44" stop-color="#5136a8"/><stop offset="0.71" stop-color="#a133c6"/><stop offset="0.91" stop-color="#d432d9"/><stop offset="1" stop-color="#e731e0"/></linearGradient><radialGradient id="_22" cx="-2796.52" cy="-707.94" r="11.67" gradientTransform="translate(2885.48 -516.74) rotate(-25.37)" gradientUnits="userSpaceOnUse"><stop offset="0" stop-color="#651a90"/><stop offset="1" stop-color="#902b76"/></radialGradient><radialGradient id="_20-3" cx="-2797.58" cy="-709.52" r="9.61" xlink:href="#_20"/><radialGradient id="New_Gradient_Swatch_103-5" cx="-2796.79" cy="-705.04" r="4.59" gradientTransform="translate(2885.48 -516.74) rotate(-25.37)" xlink:href="#New_Gradient_Swatch_103"/><radialGradient id="New_Gradient_Swatch_103-6" cx="-2796.89" cy="-712.34" r="2.42" gradientTransform="translate(2885.48 -516.74) rotate(-25.37)" xlink:href="#New_Gradient_Swatch_103"/><linearGradient id="_17-2" x1="-2796.49" y1="-704.36" x2="-2793.94" y2="-697.62" gradientTransform="translate(2885.48 -516.74) rotate(-25.37)" xlink:href="#_17"/><radialGradient id="_845" cx="-2465.61" cy="899.43" r="4.88" gradientTransform="matrix(1, -0.43, 0.31, 0.74, 2232.9, -1674.63)" gradientUnits="userSpaceOnUse"><stop offset="0.01" stop-color="#cb00ff"/><stop offset="0.11" stop-color="#c700fa"/><stop offset="0.23" stop-color="#bc00ec"/><stop offset="0.37" stop-color="#a900d5"/><stop offset="0.5" stop-color="#8f00b4"/><stop offset="0.65" stop-color="#6e008a"/><stop offset="0.79" stop-color="#450056"/><stop offset="0.94" stop-color="#15001b"/><stop offset="1"/></radialGradient><radialGradient id="_26-2" cx="-2824.45" cy="-722.22" r="7.28" xlink:href="#_26"/><linearGradient id="_25-2" x1="-2819.28" y1="-725.06" x2="-2819.28" y2="-704.67" xlink:href="#_25"/><radialGradient id="_22-2" cx="37.63" cy="51.2" r="7.85" gradientTransform="matrix(1, 0, 0, 1, 0, 0)" xlink:href="#_22"/><radialGradient id="_20-4" cx="-2822.62" cy="-717.13" r="13.18" xlink:href="#_20"/><radialGradient id="New_Gradient_Swatch_103-7" cx="-2821.65" cy="-710.2" r="5.88" gradientTransform="translate(2885.48 -516.74) rotate(-25.37)" xlink:href="#New_Gradient_Swatch_103"/><radialGradient id="New_Gradient_Swatch_103-8" cx="-2821" cy="-721.73" r="2.72" gradientTransform="translate(2885.48 -516.74) rotate(-25.37)" xlink:href="#New_Gradient_Swatch_103"/><linearGradient id="_17-3" x1="33.81" y1="49.5" x2="39.95" y2="56.78" xlink:href="#_17"/><radialGradient id="_12-3" cx="-1857.91" cy="-205.94" r="5.93" gradientTransform="matrix(1.33, -0.57, 0.37, 0.86, 2582.52, -841.38)" xlink:href="#_12"/><radialGradient id="_26-3" cx="-2818.98" cy="-736.91" r="7.11" xlink:href="#_26"/><linearGradient id="_25-3" x1="-2818.56" y1="-739.89" x2="-2818.56" y2="-732.18" xlink:href="#_25"/><radialGradient id="_22-3" cx="-2818.62" cy="-735.55" r="7.57" xlink:href="#_22"/><radialGradient id="_20-5" cx="-2819.85" cy="-738.09" r="6.46" xlink:href="#_20"/><radialGradient id="New_Gradient_Swatch_103-9" cx="-2819.22" cy="-734.85" r="3.07" gradientTransform="translate(2885.48 -516.74) rotate(-25.37)" xlink:href="#New_Gradient_Swatch_103"/><radialGradient id="New_Gradient_Swatch_103-10" cx="-2819.98" cy="-740.18" r="1.49" gradientTransform="translate(2885.48 -516.74) rotate(-25.37)" xlink:href="#New_Gradient_Swatch_103"/><linearGradient id="_17-4" x1="23.58" y1="27.5" x2="25.31" y2="31.79" xlink:href="#_17"/><radialGradient id="_12-4" cx="-2818.93" cy="4554.75" r="4.91" gradientTransform="matrix(0.89, -0.38, 0.21, 0.5, 1552.88, -3317.53)" xlink:href="#_12"/><radialGradient id="_26-4" cx="-2812.36" cy="-733.61" r="3.48" xlink:href="#_26"/><linearGradient id="_25-4" x1="-2811.74" y1="-734.75" x2="-2811.74" y2="-731.18" xlink:href="#_25"/><radialGradient id="_22-4" cx="-2811.83" cy="-732.86" r="2.93" xlink:href="#_22"/><radialGradient id="_20-6" cx="-2812.14" cy="-734.37" r="3.11" xlink:href="#_20"/><radialGradient id="New_Gradient_Swatch_103-11" cx="-2811.82" cy="-733.05" r="1.58" gradientTransform="translate(2885.48 -516.74) rotate(-25.37)" xlink:href="#New_Gradient_Swatch_103"/><radialGradient id="New_Gradient_Swatch_103-12" cx="-2811.88" cy="-735.27" r="0.75" gradientTransform="translate(2885.48 -516.74) rotate(-25.37)" xlink:href="#New_Gradient_Swatch_103"/><linearGradient id="_17-5" x1="30.7" y1="25.82" x2="31.52" y2="27.85" xlink:href="#_17"/><radialGradient id="_12-5" cx="-2810.84" cy="5295.94" r="2.47" gradientTransform="matrix(0.89, -0.38, 0.2, 0.47, 1468.94, -3514.53)" xlink:href="#_12"/><radialGradient id="_26-5" cx="-2813.48" cy="-727.59" r="5.18" xlink:href="#_26"/><linearGradient id="_25-5" x1="-2812.93" y1="-729.34" x2="-2812.93" y2="-724.33" xlink:href="#_25"/><radialGradient id="_22-5" cx="-2812.84" cy="-726.48" r="4.98" xlink:href="#_22"/><radialGradient id="_20-7" cx="-2813.56" cy="-727.97" r="3.66" xlink:href="#_20"/><radialGradient id="New_Gradient_Swatch_103-13" cx="-2813.23" cy="-726.33" r="1.79" gradientTransform="translate(2885.48 -516.74) rotate(-25.37)" xlink:href="#New_Gradient_Swatch_103"/><linearGradient id="_17-6" x1="32.24" y1="31.97" x2="35.41" y2="37.44" xlink:href="#_17"/><radialGradient id="_12-6" cx="-2811.59" cy="4264.72" r="3.28" gradientTransform="matrix(0.89, -0.38, 0.22, 0.51, 1599.67, -3208.67)" xlink:href="#_12"/><radialGradient id="_26-6" cx="-2808.29" cy="-729.81" r="2.58" xlink:href="#_26"/><linearGradient id="_25-6" x1="-2807.84" y1="-730.43" x2="-2807.84" y2="-727.85" xlink:href="#_25"/><radialGradient id="_22-6" cx="-2808.17" cy="-729.3" r="2.69" xlink:href="#_22"/><radialGradient id="_20-8" cx="-2808.32" cy="-730.36" r="2.33" xlink:href="#_20"/><radialGradient id="New_Gradient_Swatch_103-14" cx="-2808.23" cy="-731.08" r="0.47" gradientTransform="translate(2885.48 -516.74) rotate(-25.37)" xlink:href="#New_Gradient_Swatch_103"/><radialGradient id="New_Gradient_Swatch_103-15" cx="-2808.08" cy="-729.37" r="1.16" gradientTransform="translate(2885.48 -516.74) rotate(-25.37)" xlink:href="#New_Gradient_Swatch_103"/><linearGradient id="_17-7" x1="35.78" y1="27.32" x2="36.82" y2="29.91" xlink:href="#_17"/><radialGradient id="_12-7" cx="-2806.71" cy="6053.42" r="2.11" gradientTransform="matrix(0.89, -0.38, 0.19, 0.44, 1393.96, -3690.02)" xlink:href="#_12"/><radialGradient id="_26-7" cx="-2093.98" cy="-427.28" r="5.81" gradientTransform="translate(2158.76 -267.09) rotate(-18.9)" xlink:href="#_26"/><linearGradient id="_25-7" x1="38.98" y1="7.32" x2="52.39" y2="7.32" gradientTransform="matrix(1, 0, 0, 1, 0, 0)" xlink:href="#_25"/><radialGradient id="_22-7" cx="-2087.11" cy="-422.71" r="5.13" gradientTransform="translate(2158.76 -267.09) rotate(-18.9)" xlink:href="#_22"/><radialGradient id="_20-9" cx="-2089.36" cy="-429.02" r="8.96" gradientTransform="translate(2158.76 -267.09) rotate(-18.9)" xlink:href="#_20"/><radialGradient id="New_Gradient_Swatch_103-16" cx="-2088.18" cy="-423.77" r="4.05" gradientTransform="translate(2158.76 -267.09) rotate(-18.9)" xlink:href="#New_Gradient_Swatch_103"/><radialGradient id="New_Gradient_Swatch_103-17" cx="-2087.25" cy="-430.45" r="2.61" gradientTransform="translate(2158.76 -267.09) rotate(-18.9)" xlink:href="#New_Gradient_Swatch_103"/><linearGradient id="_17-8" x1="-2087.67" y1="-422.52" x2="-2088.55" y2="-417.76" gradientTransform="translate(2158.76 -267.09) rotate(-18.9)" xlink:href="#_17"/><radialGradient id="_847" cx="6226.91" cy="-9777.58" r="33.67" gradientTransform="matrix(-0.51, 0.86, -0.86, -0.51, -5278.73, -10280.18)" gradientUnits="userSpaceOnUse"><stop offset="0" stop-color="#1defef"/><stop offset="0.09" stop-color="#27c8f2"/><stop offset="0.22" stop-color="#3494f5"/><stop offset="0.35" stop-color="#3f66f8"/><stop offset="0.48" stop-color="#4941fb"/><stop offset="0.61" stop-color="#5025fd"/><stop offset="0.74" stop-color="#5510fe"/><stop offset="0.87" stop-color="#5804ff"/><stop offset="0.99" stop-color="#5900ff"/></radialGradient><radialGradient id="_847-2" cx="25.86" cy="43.42" r="15.73" gradientTransform="matrix(1, 0, 0, 1, 0, 0)" xlink:href="#_847"/><radialGradient id="_847-3" cx="77.35" cy="19.07" r="19.06" gradientTransform="matrix(1, 0, 0, 1, 0, 0)" xlink:href="#_847"/></defs><g class="cls-2"><g id="圖層_2" data-name="圖層 2"><g id="圖層_6" data-name="圖層 6"><g class="cls-3"><path class="cls-4" d="M53.87,51.36c-1.49,3.69,4.34,8.66,9.55,3S57.35,42.75,53.87,51.36Z"/><path class="cls-5" d="M54.75,54.79c.66.87,2.18,2.4,4.29,1.68s4.67-3,4.13-5.14S53.69,53.41,54.75,54.79Z"/><path class="cls-6" d="M59.87,52.9C58.4,54.81,58,57,59.05,57.78s3-.12,4.51-2,1.83-4.09.81-4.87S61.34,51,59.87,52.9Z"/></g><g class="cls-7"><path class="cls-8" d="M21.77,22.86c-7-1.06-14.53,4.44-11.56,11.94S22.8,42,24.45,37.93Z"/><path class="cls-9" d="M11.94,26.38c-1.07,1.64,3,1,4.47.38s1.21-2.31-.16-2.9C15.65,23.6,13.42,24.11,11.94,26.38Z"/><path class="cls-10" d="M9.7,27.64c.63,1.47,3,1.89,5.19.93s3.55-2.92,2.93-4.4-3-1.89-5.2-.93S9.07,26.17,9.7,27.64Z"/><path class="cls-11" d="M12.65,25.57c-.58.88,1.71.32,1.86-.38S13.25,24.65,12.65,25.57Z"/></g><path class="cls-12" d="M54.93,53.53c-1.19-2.08-2.52-3.51-3.53-2.74S48.77,54.89,50,55,55.48,54.48,54.93,53.53Z"/><path class="cls-13" d="M10.37,34.47c1.28,2.78,3.9,6.5,8.7,5.76s4-5.69,2.73-6.58S9.49,32.54,10.37,34.47Z"/><path class="cls-14" d="M10.4,35.25c4.8,1.92,10.08-2.06,10.08-2.06l.83,7.57s-4.56.48-7.44-1.46A9.37,9.37,0,0,1,10.4,35.25Z"/><circle class="cls-15" cx="44.43" cy="28.49" r="28.49"/><path class="cls-16" d="M28.73,19.55C55.48,8.9,60.17,32.64,66.16,26c5.66-6.23-8.11-18.23,0-15.34,0,0-18.73-22.27-42.06-1.06C18.43,14.81,13.54,25.6,28.73,19.55Z"/><path class="cls-17" d="M65.05,22.31C60.38,15.94,51.83-1,49.11,3.56c-1.74,2.92-7.33,12.76-11.76,18.5s5.8,16.42,9.58,16S69.73,28.68,65.05,22.31Zm-22.3,11c-4.84-3-6.35-6.52-2.1-12.83s8.91-7.58,11.07-6.09c5.37,3.7,2.64,10,.63,12.42S45.5,30,45,29.52s1.45-.48,2.2-3.58-3.63-7-5.22-4.2-1.41,8.77,3.11,10.52,16.75-13,16.75-13,2.09,5.22.63,7.84S47.58,36.31,42.75,33.31Z"/><path class="cls-18" d="M63.77,37.6c1.26,1.52,1.81,7,2.82,6.3s5-8.06,3.38-8.06S62.76,36.38,63.77,37.6Z"/><path class="cls-19" d="M60,14c.93,1.21,2.38,2.35,2.77,1.7s1.12-4.48.65-4.35S58.81,12.44,60,14Z"/><path class="cls-20" d="M35.77,30.4c-.45.41,2.87-.79,2.19-.79A2.9,2.9,0,0,0,35.77,30.4Z"/><path class="cls-21" d="M48.67,35.75c-13.07,10.12-32.16-2.51-29.51,4S26.92,56.66,47,55.4C65.6,54.24,70.45,39,71.81,32.27,73.05,26.13,68.22,20.63,48.67,35.75Z"/><path class="cls-22" d="M57.49,35.38c-5.6-2.9-8.92.94-9.31,3.47S48,43.38,51,46.34c0,0-4.1-3.52-.26-8.61C53.14,34.57,57.49,35.38,57.49,35.38Z"/><path class="cls-23" d="M48.42,41.65c0,4,1.94,7.15,5.57,7s7.46-1.5,7.2-5.34-.78-8-5.21-8.13S48.43,36.2,48.42,41.65Z"/><path class="cls-24" d="M52,48.32c3.65.41,10.11-6.41,4.33-13.15A6.71,6.71,0,0,1,62,37.76c2.56,3,4.41,11.23-.63,12A17.71,17.71,0,0,1,52,48.32Z"/><path class="cls-25" d="M49.42,42.3c.24,9,12.39,6.27,12.29-.12S49.16,32.56,49.42,42.3Z"/><path class="cls-26" d="M49.94,44.09a5.21,5.21,0,0,0,6.58,3.54c3.75-1,5.14-4.84,4.64-6.19s-3.58.68-6.26,1.76S49.64,43.15,49.94,44.09Z"/><path class="cls-27" d="M50.23,39.28c.91.14,6.88-1.88,6-2.29a4.45,4.45,0,0,0-3.82,0C50.78,37.7,49.62,39.19,50.23,39.28Z"/><path class="cls-28" d="M49.88,44.79c-.18,1.15,1.21,3.09,1.21,3.09l-1.54-1.54s4.8,8.66,11.69,4.12-.36-11-.36-11a5.62,5.62,0,0,1,.85,1.68,7.73,7.73,0,0,1-4.8,4.37C52.36,47.12,49.88,44.79,49.88,44.79Z"/><path class="cls-29" d="M48.22,40.3c.84,2,3.71,2.67,6.41,1.52s4.18-3.69,3.34-5.68-3.72-2.66-6.41-1.51S47.37,38.32,48.22,40.3Z"/><path class="cls-30" d="M27,36.27c-3.73-.14-6.72,2.38-6.1,5.6s3.79,5.68,3.79,5.68-4.21-5.65-1.29-8.23S27,36.27,27,36.27Z"/><path class="cls-31" d="M22.49,44.27c-.84-4.75.83-6.86,3.81-7.8s8-.8,11,2.44,4.83,12.38,1.4,14.18-9.13-1.59-11.92-4.46S22.49,44.27,22.49,44.27Z"/><path class="cls-32" d="M34.93,37.14c7.84,4.11,12.9,10.35,11.86,14.58s-6,4.18-11.59,1.82c0,0,2.57-7.14,1.4-11.64S34.93,37.14,34.93,37.14Z"/><path class="cls-33" d="M30.27,37.79c-10.63-1-8.69,12.85-4.25,15.77s12.91,1.19,12.24-5S33.39,38.09,30.27,37.79Z"/><path class="cls-34" d="M24.21,51c1.17,3.13,6.13,5.5,11,2.5s1.32-10.55.19-9.83S23.14,48.16,24.21,51Z"/><path class="cls-35" d="M24.19,41c-1,2.69,8.16-2,6.36-2.42S25.49,37.48,24.19,41Z"/><path class="cls-36" d="M23.62,50.73c6.73,3,13.79-3.18,12.41-8.56a21.13,21.13,0,0,1,3.46,5.72c.49,1.27-.2-5.46-.2-5.46s9.59,11.94,6,14.56a30,30,0,0,1-12.07-2.3,10.39,10.39,0,0,1-5.78-.39A8.44,8.44,0,0,1,23.62,50.73Z"/><path class="cls-37" d="M19,43.38c1.2,2.81,5.72,3.58,10.09,1.71s7-5.66,5.74-8.47S29.12,33,24.74,34.91,17.8,40.56,19,43.38Z"/><path class="cls-38" d="M19.19,24.82C18.08,30.14,24,31.46,26,29.45s2.9-5.59,1.18-7.29S19.79,21.94,19.19,24.82Z"/><path class="cls-39" d="M19.73,25.45c-.16,2.21,1.58,5.93,4.92,3.79a4.3,4.3,0,0,0,1.28-6.53C23.65,20.56,20,22,19.73,25.45Z"/><path class="cls-40" d="M25.64,21.49c2.27.4,3.39,1.92,3.76,5.05S27,32.12,24.47,31.66a8.1,8.1,0,0,1-4.25-2.59,5.49,5.49,0,0,0,5.55-1.46C28.21,25.06,25.64,21.49,25.64,21.49Z"/><path class="cls-41" d="M18.38,23.25c-1.36,3.24,2.45,7.69,5.34,5.86s3.46-4.38,2-6.13S19.43,20.76,18.38,23.25Z"/><path class="cls-42" d="M19.16,27.38c.22,1.39,2.53,2.43,4.11,1.73s3.7-2.89,3-4.8C26,23.6,25.5,23.43,24,25S19.05,26.67,19.16,27.38Z"/><path class="cls-43" d="M18.5,23.18c-.67,1.2,4.41-1,3.69-1.18S19.42,21.53,18.5,23.18Z"/><path class="cls-44" d="M19.16,27.72s3.1,1.34,7.23-3.29h.4a9.18,9.18,0,0,1,.86,2.29c.28,1.27,1,3.91-.7,5.29s-5-.52-6.73-2.94L20,28.61Z"/><path class="cls-45" d="M16.43,24.67c.58,1.35,3,1.62,5.4.59s3.89-3,3.31-4.3-3-1.62-5.4-.59S15.85,23.32,16.43,24.67Z"/><path class="cls-46" d="M28.45,24.59c-1,2.34,1.72,3.57,3.27,2.92A2,2,0,0,0,31.88,24C30.6,23.43,28.9,23.56,28.45,24.59Z"/><path class="cls-47" d="M29,25c.36,1.51.54,2.91,2.14,2.33s2.16-1.94.88-2.73S28.69,23.88,29,25Z"/><path class="cls-48" d="M31.61,23.92c1.66.43,2.39,2.46.86,3.37a2.81,2.81,0,0,1-2.75.19s2,0,2.29-1.44A2.28,2.28,0,0,0,31.61,23.92Z"/><path class="cls-49" d="M28.73,23.68c-1.24,1.59.56,3.78,2.15,3s1.84-2.37,1.09-3.1A2.27,2.27,0,0,0,28.73,23.68Z"/><path class="cls-50" d="M28.73,25.4c-.36.69,1,1.71,2.17,1.15a2.08,2.08,0,0,0,1.22-2.62c-.31-.69-1.4.78-2,1.1S28.82,25.23,28.73,25.4Z"/><path class="cls-51" d="M28.8,23.75c-.43.66,2.16-.33,1.86-.57A1.67,1.67,0,0,0,28.8,23.75Z"/><path class="cls-52" d="M28.69,26c2.48,1.58,3.64-1.75,3.64-1.75l0,.17a1.42,1.42,0,0,1-.08.73,3.25,3.25,0,0,1,.57.65c.17.28.32,2-.54,2.19s-2.81-.12-3.4-1l-.17-.75Z"/><path class="cls-53" d="M27.61,24.61c.27.64,1.48.73,2.69.22s2-1.46,1.7-2.1-1.47-.73-2.69-.21S27.34,24,27.61,24.61Z"/><path class="cls-54" d="M28.75,31.78c.22,1.46,5.06,5,6.4,1.51s-1-5.07-2.65-4.85S28.47,29.93,28.75,31.78Z"/><path class="cls-55" d="M30,30.59c-.88,1.88.78,4.32,2.69,3.54s2.8-2.94,1.71-4.12A2.61,2.61,0,0,0,30,30.59Z"/><path class="cls-56" d="M33.88,28.64A4.2,4.2,0,0,1,36,32.06c.13,2.43.2,3.57-1.68,3.4a7.19,7.19,0,0,1-3.42-1.37,3.13,3.13,0,0,0,3-1.59A4.37,4.37,0,0,0,33.88,28.64Z"/><path class="cls-57" d="M29.7,30.54a2.25,2.25,0,0,0,3.37,2.65,2.41,2.41,0,0,0,.41-3.87C32.5,28.44,30.23,29.08,29.7,30.54Z"/><path class="cls-58" d="M29.93,32.38c.16,1,2.25,1.08,3,.71,1.41-.71,1.4-2.39,1-2.61S29.84,31.81,29.93,32.38Z"/><path class="cls-59" d="M29.63,32.06c1.89,1.64,3.93.62,4.53-1.55l.71.34s2.2,3.06.67,4.94-5.32-1.12-5.91-2.68Z"/><path class="cls-60" d="M29,31.05c.39.93,2,1.12,3.63.43s2.59-2,2.2-2.91-2-1.12-3.63-.43S28.64,30.13,29,31.05Z"/><path class="cls-61" d="M34.05,27.42c.15,1.2,3.33,1.73,3.36.45s-.62-2.26-1.51-2.36A1.85,1.85,0,0,0,34.05,27.42Z"/><path class="cls-62" d="M34.68,27.12c0,1.23,1.67,2.16,2.16.83s-.07-2.21-1.05-1.94S34.67,26.56,34.68,27.12Z"/><path class="cls-63" d="M36.12,25.56c1.72,1.21-1.57,2.28-1.57,2.28a3.85,3.85,0,0,0,2.86,1.33C38.91,29,36.12,25.56,36.12,25.56Z"/><path class="cls-64" d="M35.17,28.15a1.3,1.3,0,0,0,1.43-2c-.86-1-1.87-1.23-2.46-.11A1.51,1.51,0,0,0,35.17,28.15Z"/><path class="cls-65" d="M34.27,26.08c-.17.26,1.47-.61,1-.68S34.58,25.6,34.27,26.08Z"/><path class="cls-66" d="M34.07,27c.11.4,1.36,2,2.48.73.66-.73.1-1.84-.36-1.54S34,26.65,34.07,27Z"/><path class="cls-67" d="M34,26.89a1.56,1.56,0,0,0,2.89-.54,8.58,8.58,0,0,0,.52.71c.11.1,1.8,2.86-.34,3.33s-2.76-2.52-2.76-2.52l-.17-.59Z"/><path class="cls-68" d="M33.12,26.9c.21.51,1.23.57,2.26.13s1.7-1.22,1.48-1.73-1.23-.56-2.27-.12S32.9,26.39,33.12,26.9Z"/><path class="cls-69" d="M39.73,3.44C38.65,4.7,37.37,7,37.85,8.74a4.68,4.68,0,0,0,3.4,2.95,5.09,5.09,0,0,0,2.38-.07,6,6,0,0,1-3.54-3.1C39.45,7.36,38.8,5.87,39,5.36S39.73,3.44,39.73,3.44Z"/><path class="cls-70" d="M40.48,2.8a5.19,5.19,0,0,0-2.07,3.26,6.47,6.47,0,0,0,3.34,5.46c1.86,1,5.68.29,7-.77,2.33-1.87,2.33-4.49,1.89-5.08C49.66,4.34,41.8,2,40.48,2.8Z"/><path class="cls-71" d="M44.46,12.06c3.91.56,6.72-2,7.09-2.8A2.47,2.47,0,0,0,51,6.1a6.17,6.17,0,0,1-1.64,3.21A12.46,12.46,0,0,1,44.46,12.06Z"/><path class="cls-72" d="M41.69,10.5C37.27,8.31,38.61,2.12,43.55.62S52.86,4,50.24,8.08A6.51,6.51,0,0,1,41.69,10.5Z"/><path class="cls-73" d="M47.42,5.09c-4.32,1.4-6.92,3.78-6.53,4.48a5.33,5.33,0,0,0,6,1.11c2.92-1.33,3.91-3.86,3.61-4.41A2.86,2.86,0,0,0,47.42,5.09Z"/><path class="cls-74" d="M41.64,1.87c-1.71,1.4,1.72.38,3.6.14s3.33.17,2.93-.5S44.86-.77,41.64,1.87Z"/><path class="cls-75" d="M40.92,10c1-1,2.71-1.2,6-2.12A11.32,11.32,0,0,0,51,5.84l-.17,1.31s4.51,4.08,0,5.54c-3.68,1.2-8.45-.9-8.45-.9Z"/><path class="cls-11" d="M29.43,7.35c-3.43,3.21-2.66,4,.2,3.14s4.72-3.92,4.06-4.13A4.87,4.87,0,0,0,29.43,7.35Z"/><path class="cls-11" d="M25.66,13.44c.24.77,1.6-.45,1.79-1.26S25,11.46,25.66,13.44Z"/><path class="cls-11" d="M41.58,1.93c-1.67,2,1.29.67,1.51-.14S42.25,1.13,41.58,1.93Z"/><path class="cls-11" d="M28.69,24c-.24.62.45.3.58,0S29,23.2,28.69,24Z"/><path class="cls-11" d="M34.32,26c-.22.49.36.48.48.17S34.58,25.38,34.32,26Z"/><path class="cls-11" d="M30.84,29.88c.31.17,1.35-.41.57-.54C31,29.26,30.57,29.73,30.84,29.88Z"/><path class="cls-11" d="M19.05,23.22c-.62.8-.11.75.28.45S19.29,22.9,19.05,23.22Z"/><path class="cls-11" d="M24.92,39.78c-.64,1.58,3.22-.3,3.31-.87S25.46,38.45,24.92,39.78Z"/><path class="cls-11" d="M51.92,38.32c-.4,1.58,3.29-.82,1.52-1.2A1.55,1.55,0,0,0,51.92,38.32Z"/><path class="cls-76" d="M72.83,25.52c7.41-2.86,17.15-10.19,16-12C86.35,9.44,31.65,16,.75,44.61c-5.48,5.07,20.92,1,20.92,1l-.56-.77s-16.35,2-14.74-1.49c2.1-4.5,33.33-29.67,73.85-27.12,6.66.42-7.54,8.37-7.54,8.37Z"/><path class="cls-77" d="M3.59,41.55A16.6,16.6,0,0,0,0,45.3v.54A56.34,56.34,0,0,1,8.76,38C14.42,33.85,22.47,29.29,35,23.64A117.06,117.06,0,0,0,3.59,41.55Z"/><path class="cls-78" d="M88.77,13.4s-1.9-2.48-15.66-.58A137.25,137.25,0,0,0,45,19.92,168.21,168.21,0,0,1,73.37,13.3C83.44,11.88,88.77,13.4,88.77,13.4Z"/></g></g></g></svg>