<?xml version="1.0" encoding="utf-8"?>
<!-- Generator: Adobe Illustrator 25.3.1, SVG Export Plug-In . SVG Version: 6.00 Build 0)  -->
<svg version="1.1" xmlns="http://www.w3.org/2000/svg" xmlns:xlink="http://www.w3.org/1999/xlink" x="0px" y="0px"
	 viewBox="0 0 300 300" style="enable-background:new 0 0 300 300;" xml:space="preserve">
<style type="text/css">
	.st0{fill:#56BDE9;}
	.st1{fill:#1D7750;}
	.st2{fill:#37A578;}
	.st3{opacity:0.69;fill:#FFFFFF;}
	.st4{fill:#CE7D51;}
</style>
<g id="BACKGROUND">
</g>
<g id="OBJECTS">
	<g>
		<path class="st0" d="M285.62,184.32l-32.29-91.65c-3.67-10.41-13.5-17.37-24.53-17.37H150H71.2c-11.03,0-20.86,6.96-24.53,17.37
			l-32.29,91.65c-8.37,23.75,9.25,48.65,34.44,48.65l0,0c11.27,0,21.9-5.2,28.82-14.1l40.5-52.07H150h31.86l40.5,52.07
			c6.92,8.89,17.55,14.1,28.82,14.1l0,0C276.36,232.97,293.99,208.08,285.62,184.32z"/>
		<path class="st0" d="M253.33,92.68c-3.67-10.41-13.5-17.37-24.53-17.37H150H71.2c-11.03,0-20.86,6.96-24.53,17.37
			c-1.33,3.77-1.06,7.92,0.76,11.48c17.85,35.08,53.17,59.78,94.5,62.64H150h8.07c41.33-2.87,76.64-27.56,94.5-62.64
			C254.38,100.6,254.65,96.45,253.33,92.68z"/>
	</g>
	<path class="st1" d="M285.62,184.32l-32.29-91.65c-3.67-10.41-13.5-17.37-24.53-17.37H150H71.2c-11.03,0-20.86,6.96-24.53,17.37
		l-32.29,91.65c-8.37,23.75,9.25,48.65,34.44,48.65h0c11.27,0,21.9-5.2,28.82-14.1l20.94-26.92c12.34-15.87,31.32-25.15,51.42-25.15
		h0c20.1,0,39.08,9.28,51.42,25.15l20.94,26.92c6.92,8.89,17.55,14.1,28.82,14.1l0,0C276.36,232.97,293.99,208.08,285.62,184.32z"/>
	<path class="st2" d="M285.62,184.32l-32.29-91.65c-0.69-1.95-1.59-3.78-2.68-5.47c-4.72-7.3-12.89-11.9-21.85-11.9H150H71.2
		c-7.58,0-14.6,3.29-19.44,8.73c-2.2,2.47-3.95,5.39-5.09,8.64l-32.29,91.65c-4.28,12.14-1.76,24.56,5.08,33.82l38.54-64.12
		c5.86-9.75,18.68-12.63,28.13-6.3c16.17,10.82,35.23,17.65,55.79,19.08H150h8.07c20.96-1.45,40.37-8.53,56.74-19.72
		c10.15-6.94,24.05-3.59,29.62,7.37l33.81,66.51C286.78,211.51,290.34,197.73,285.62,184.32z"/>
	
		<ellipse transform="matrix(0.3827 -0.9239 0.9239 0.3827 -50.6527 153.2002)" class="st3" cx="89.31" cy="114.5" rx="49.64" ry="49.64"/>
	
		<ellipse transform="matrix(0.1891 -0.982 0.982 0.1891 58.4059 299.7344)" class="st3" cx="210.69" cy="114.5" rx="49.64" ry="49.64"/>
	<path class="st4" d="M89.31,167.31c-29.12,0-52.81-23.69-52.81-52.81c0-29.12,23.69-52.81,52.81-52.81
		c29.12,0,52.81,23.69,52.81,52.81C142.12,143.62,118.43,167.31,89.31,167.31z M89.31,68.03c-25.63,0-46.48,20.85-46.48,46.48
		c0,25.63,20.85,46.47,46.48,46.47c25.63,0,46.48-20.85,46.48-46.47C135.79,88.88,114.94,68.03,89.31,68.03z"/>
	<path class="st4" d="M210.69,167.31c-29.12,0-52.81-23.69-52.81-52.81c0-29.12,23.69-52.81,52.81-52.81s52.81,23.69,52.81,52.81
		C263.5,143.62,239.81,167.31,210.69,167.31z M210.69,68.03c-25.63,0-46.48,20.85-46.48,46.48c0,25.63,20.85,46.47,46.48,46.47
		c25.63,0,46.48-20.85,46.48-46.47C257.16,88.88,236.31,68.03,210.69,68.03z"/>
	<path class="st4" d="M109.59,106.01H97.81V94.23c0-4.69-3.8-8.5-8.5-8.5c-4.69,0-8.5,3.8-8.5,8.5v11.78H69.04
		c-4.69,0-8.5,3.8-8.5,8.5c0,4.69,3.8,8.5,8.5,8.5h11.78v11.78c0,4.69,3.8,8.5,8.5,8.5c4.69,0,8.5-3.8,8.5-8.5V123h11.78
		c4.69,0,8.5-3.8,8.5-8.5C118.09,109.81,114.28,106.01,109.59,106.01z"/>
	<g>
		<circle class="st4" cx="210.69" cy="93.46" r="9.94"/>
		
			<ellipse transform="matrix(0.7071 -0.7071 0.7071 0.7071 -34.1406 188.6794)" class="st4" cx="210.69" cy="135.55" rx="9.94" ry="9.94"/>
		
			<ellipse transform="matrix(0.1602 -0.9871 0.9871 0.1602 81.5885 324.9032)" class="st4" cx="231.73" cy="114.5" rx="9.94" ry="9.94"/>
		<circle class="st4" cx="189.64" cy="114.5" r="9.94"/>
	</g>
	<path class="st4" d="M192.26,197.42c-7.35,16.01-23.52,27.17-42.26,27.17c-18.74,0-34.91-11.16-42.26-27.17h-6.88
		c7.73,19.59,26.83,33.5,49.14,33.5c22.31,0,41.41-13.91,49.14-33.5H192.26z"/>
</g>
</svg>
