<?xml version="1.0" encoding="utf-8"?>
<!-- Generator: Adobe Illustrator 25.3.1, SVG Export Plug-In . SVG Version: 6.00 Build 0)  -->
<svg version="1.1" id="圖層_1" xmlns="http://www.w3.org/2000/svg" xmlns:xlink="http://www.w3.org/1999/xlink" x="0px" y="0px"
	 viewBox="0 0 100 100" style="enable-background:new 0 0 100 100;" xml:space="preserve">
<style type="text/css">
	.st0{fill:#D82A68;}
	.st1{fill:#ED7AA9;}
</style>
<path class="st0" d="M49.9,38.8c-7.7-13-23-14.9-25.5,1.4c0,12,12.5,19.7,25.9,32.2c13-12.5,25.5-20.2,25-32.7
	C72.9,23.4,57.1,26.3,49.9,38.8z"/>
<path class="st1" d="M49.9,10C-4.4,9.5-3.4,93,50.4,92.1C104.1,92.1,103.7,8.5,49.9,10z M48.9,76.7C-2.9,42.1,28.7,9,49.9,32.5
	c3.4-4.8,7.2-8.2,13.9-8.2C97.4,30.1,70,68.1,48.9,76.7z"/>
<path d="M63.8,24.4c-6.7,0-10.6,3.4-13.9,8.2C28.7,9-2.9,42.1,48.9,76.7C70,68.1,97.4,30.1,63.8,24.4z M50.4,72.4
	C36.9,59.9,24.4,52.2,24.4,40.2c2.4-16.3,17.8-14.4,25.5-1.4c7.2-12.5,23-15.4,25.5,1C75.8,52.2,63.3,59.9,50.4,72.4z"/>
<path d="M82,18.6C40.8-22.7-25,42.1,18.2,82.9C59,124.7,125.3,59.4,82,18.6z M50.4,92.1C-3.4,93-4.4,9.5,49.9,10
	C103.7,8.5,104.1,92.1,50.4,92.1z"/>
</svg>
