<?xml version="1.0" encoding="utf-8"?>
<!-- Generator: Adobe Illustrator 28.0.0, SVG Export Plug-In . SVG Version: 6.00 Build 0)  -->
<svg version="1.1" id="圖層_1" xmlns="http://www.w3.org/2000/svg" xmlns:xlink="http://www.w3.org/1999/xlink" x="0px" y="0px"
	 viewBox="0 0 370.58 65.05" style="enable-background:new 0 0 370.58 65.05;" xml:space="preserve">
<style type="text/css">
	.st0{fill:#C15A4F;}
</style>
<g>
	<g id="_x31_079_x2C__Aid_x2C__band_x2C__bandage_x2C__plus">
		<g>
			<path class="st0" d="M51.66,38.14c-1.72,0-3.14,1.4-3.14,3.1c0,1.7,1.42,3.1,3.14,3.1s3.14-1.4,3.14-3.1
				C54.8,39.54,53.38,38.14,51.66,38.14z M51.66,41.94c-0.3,0-0.61-0.3-0.61-0.6c0-0.3,0.3-0.6,0.61-0.6s0.61,0.3,0.61,0.6
				C52.37,41.64,52.07,41.94,51.66,41.94z"/>
			<path class="st0" d="M44.07,38.14c-1.72,0-3.14,1.4-3.14,3.1c0,1.7,1.42,3.1,3.14,3.1c1.72,0,3.14-1.4,3.14-3.1
				C47.21,39.54,45.79,38.14,44.07,38.14z M44.07,41.94c-0.3,0-0.61-0.3-0.61-0.6c0-0.3,0.3-0.6,0.61-0.6c0.3,0,0.61,0.3,0.61,0.6
				C44.78,41.64,44.48,41.94,44.07,41.94z"/>
			<path class="st0" d="M51.66,45.64c-1.72,0-3.14,1.4-3.14,3.1c0,1.7,1.42,3.1,3.14,3.1s3.14-1.4,3.14-3.1
				C54.8,47.04,53.38,45.64,51.66,45.64z M51.66,49.44c-0.3,0-0.61-0.3-0.61-0.6c0-0.3,0.3-0.6,0.61-0.6s0.61,0.3,0.61,0.6
				C52.27,49.14,52.07,49.44,51.66,49.44z"/>
			<path class="st0" d="M44.07,45.64c-1.72,0-3.14,1.4-3.14,3.1c0,1.7,1.42,3.1,3.14,3.1c1.72,0,3.14-1.4,3.14-3.1
				C47.21,47.04,45.79,45.64,44.07,45.64z M44.07,49.44c-0.3,0-0.61-0.3-0.61-0.6c0-0.3,0.3-0.6,0.61-0.6c0.3,0,0.61,0.3,0.61,0.6
				C44.68,49.14,44.48,49.44,44.07,49.44z"/>
			<path class="st0" d="M27.69,41.94h-3.14v-3.1c0-0.7-0.61-1.3-1.32-1.3h-3.84c-0.71,0-1.32,0.6-1.32,1.3v3.1h-3.14
				c-0.71,0-1.31,0.6-1.31,1.3v3.8c0,0.7,0.61,1.3,1.31,1.3h3.14v3.1c0,0.7,0.61,1.3,1.32,1.3h3.84c0.71,0,1.32-0.6,1.32-1.3v-3.1
				h3.14c0.71,0,1.32-0.6,1.32-1.3v-3.8C28.9,42.44,28.39,41.94,27.69,41.94z M26.37,45.64h-3.14c-0.71,0-1.31,0.6-1.31,1.3v3.1
				h-1.21v-3.1c0-0.7-0.61-1.3-1.32-1.3h-3.14v-1.3h3.14c0.71,0,1.32-0.6,1.32-1.3v-3h1.31v3.1c0,0.7,0.61,1.3,1.32,1.3h3.14v1.2
				H26.37z"/>
			<path class="st0" d="M47.31,30.04H23.23c-8.4,0-15.17,6.7-15.17,15s6.78,15,15.17,15h24.08c8.4,0,15.17-6.7,15.17-15
				S55.61,30.04,47.31,30.04z M47.31,57.54H23.23c-6.98,0-12.64-5.6-12.64-12.5s5.66-12.5,12.64-12.5h24.08
				c6.98,0,12.64,5.6,12.64,12.5S54.19,57.54,47.31,57.54z"/>
		</g>
	</g>
	<g id="Layer_1_00000055678549952305545850000013399797384984367490_">
	</g>
</g>
<g>
	<g id="_x31_079_x2C__Aid_x2C__band_x2C__bandage_x2C__plus_1_">
		<g>
			<path class="st0" d="M132.86,38.66c-1.47-0.89-3.41-0.43-4.29,1.02c-0.88,1.45-0.4,3.38,1.07,4.28s3.41,0.43,4.29-1.02
				C134.81,41.48,134.33,39.55,132.86,38.66z M130.89,41.9c-0.26-0.16-0.36-0.57-0.21-0.83c0.16-0.26,0.57-0.36,0.83-0.2
				c0.26,0.16,0.36,0.57,0.21,0.83C131.65,42.01,131.23,42.11,130.89,41.9z"/>
			<path class="st0" d="M126.38,34.72c-1.47-0.89-3.41-0.43-4.29,1.02c-0.88,1.45-0.4,3.38,1.07,4.28c1.47,0.89,3.41,0.43,4.29-1.02
				C128.33,37.54,127.85,35.61,126.38,34.72z M124.4,37.96c-0.26-0.16-0.36-0.57-0.21-0.83c0.16-0.26,0.57-0.36,0.83-0.2
				c0.26,0.16,0.36,0.57,0.21,0.83C125.16,38.07,124.75,38.17,124.4,37.96z"/>
			<path class="st0" d="M128.97,45.06c-1.47-0.89-3.41-0.43-4.29,1.02c-0.88,1.45-0.4,3.38,1.07,4.28c1.47,0.89,3.41,0.43,4.29-1.02
				C130.92,47.89,130.44,45.96,128.97,45.06z M126.99,48.31c-0.26-0.16-0.36-0.57-0.21-0.83c0.16-0.26,0.57-0.36,0.83-0.2
				c0.26,0.16,0.36,0.57,0.21,0.83C127.67,48.37,127.34,48.52,126.99,48.31z"/>
			<path class="st0" d="M122.48,41.12c-1.47-0.89-3.41-0.43-4.29,1.02c-0.88,1.45-0.4,3.38,1.07,4.28c1.47,0.89,3.41,0.43,4.29-1.02
				C124.43,43.95,123.95,42.02,122.48,41.12z M120.51,44.37c-0.26-0.16-0.36-0.57-0.21-0.83c0.16-0.26,0.57-0.36,0.83-0.2
				c0.26,0.16,0.36,0.57,0.21,0.83C121.18,44.43,120.85,44.58,120.51,44.37z"/>
			<path class="st0" d="M110.4,29.45l-2.68-1.63l1.61-2.65c0.36-0.6,0.16-1.43-0.45-1.79l-3.28-2c-0.61-0.37-1.44-0.17-1.8,0.43
				l-1.61,2.65l-2.68-1.63c-0.61-0.37-1.43-0.17-1.8,0.43l-1.97,3.25c-0.36,0.6-0.16,1.43,0.45,1.79l2.68,1.63l-1.61,2.65
				c-0.36,0.6-0.16,1.43,0.45,1.79l3.28,2c0.61,0.37,1.44,0.17,1.8-0.43l1.61-2.65l2.68,1.63c0.61,0.37,1.44,0.17,1.8-0.43
				l1.97-3.25C111.18,30.51,111,29.82,110.4,29.45z M107.35,31.93l-2.68-1.63c-0.61-0.37-1.43-0.17-1.8,0.43l-1.61,2.65l-1.04-0.63
				l1.61-2.65c0.36-0.6,0.16-1.43-0.45-1.79l-2.68-1.63l0.68-1.11l2.68,1.63c0.61,0.37,1.44,0.17,1.8-0.43l1.56-2.56l1.12,0.68
				l-1.61,2.65c-0.36,0.6-0.16,1.43,0.45,1.79l2.68,1.63l-0.62,1.03L107.35,31.93z"/>
			<path class="st0" d="M133.35,29.47l-20.58-12.5c-7.17-4.36-16.45-2.15-20.76,4.94s-2,16.34,5.18,20.7l20.58,12.5
				c7.18,4.36,16.45,2.15,20.76-4.94S140.44,33.78,133.35,29.47z M119.07,52.98l-20.58-12.5c-5.96-3.62-7.9-11.35-4.31-17.25
				s11.33-7.74,17.3-4.12l20.58,12.5c5.96,3.62,7.9,11.35,4.31,17.25C132.78,54.76,124.95,56.55,119.07,52.98z"/>
		</g>
	</g>
	<g id="Layer_1_2_">
	</g>
</g>
<g>
	<g id="_x31_079_x2C__Aid_x2C__band_x2C__bandage_x2C__plus_2_">
		<g>
			<path class="st0" d="M199.55,43.87c-0.74-1.55-2.61-2.23-4.15-1.5c-1.53,0.73-2.19,2.61-1.45,4.16s2.61,2.23,4.15,1.5
				C199.64,47.3,200.29,45.42,199.55,43.87z M196.12,45.5c-0.13-0.27,0.01-0.68,0.28-0.81c0.27-0.13,0.67,0.02,0.8,0.29
				c0.13,0.27-0.01,0.68-0.28,0.81C196.7,46.01,196.29,45.87,196.12,45.5z"/>
			<path class="st0" d="M196.29,37.02c-0.74-1.55-2.61-2.23-4.15-1.5c-1.53,0.73-2.19,2.61-1.45,4.16c0.74,1.55,2.61,2.23,4.15,1.5
				C196.37,40.45,197.03,38.57,196.29,37.02z M192.86,38.65c-0.13-0.27,0.01-0.68,0.28-0.81c0.27-0.13,0.67,0.02,0.8,0.29
				c0.13,0.27-0.01,0.68-0.28,0.81C193.43,39.16,193.03,39.02,192.86,38.65z"/>
			<path class="st0" d="M192.78,47.09c-0.74-1.55-2.61-2.23-4.15-1.5c-1.53,0.73-2.19,2.61-1.45,4.16s2.61,2.23,4.15,1.5
				C192.87,50.53,193.52,48.65,192.78,47.09z M189.35,48.73c-0.13-0.27,0.01-0.68,0.28-0.81c0.27-0.13,0.67,0.02,0.8,0.29
				c0.13,0.27-0.01,0.68-0.28,0.81C189.88,49.15,189.52,49.09,189.35,48.73z"/>
			<path class="st0" d="M189.52,40.24c-0.74-1.55-2.61-2.23-4.15-1.5c-1.53,0.73-2.19,2.61-1.45,4.16c0.74,1.55,2.61,2.23,4.15,1.5
				C189.6,43.68,190.26,41.8,189.52,40.24z M186.09,41.88c-0.13-0.27,0.01-0.68,0.28-0.81c0.27-0.13,0.67,0.02,0.8,0.29
				c0.13,0.27-0.01,0.68-0.28,0.81C186.62,42.3,186.26,42.24,186.09,41.88z"/>
			<path class="st0" d="M185.81,23.86l-1.35-2.83l2.8-1.33c0.63-0.3,0.91-1.11,0.61-1.75l-1.65-3.47c-0.3-0.64-1.11-0.93-1.74-0.63
				l-2.8,1.33l-1.35-2.83c-0.3-0.64-1.11-0.93-1.74-0.63l-3.43,1.63c-0.63,0.3-0.91,1.11-0.61,1.75l1.35,2.83l-2.8,1.33
				c-0.63,0.3-0.91,1.11-0.61,1.75l1.65,3.47c0.3,0.64,1.11,0.93,1.74,0.63l2.8-1.33l1.35,2.83c0.3,0.64,1.11,0.93,1.74,0.63
				l3.43-1.63C185.88,25.17,186.11,24.5,185.81,23.86z M181.9,24.26l-1.35-2.83c-0.3-0.64-1.11-0.93-1.74-0.63l-2.8,1.33l-0.52-1.1
				l2.8-1.33c0.63-0.3,0.91-1.11,0.61-1.75l-1.35-2.83l1.17-0.56l1.35,2.83c0.3,0.64,1.11,0.93,1.74,0.63l2.71-1.29l0.57,1.19
				l-2.8,1.33c-0.63,0.3-0.91,1.11-0.61,1.75l1.35,2.83l-1.08,0.52L181.9,24.26z"/>
			<path class="st0" d="M204.99,36.46l-10.36-21.73c-3.61-7.58-12.58-10.82-20.07-7.25s-10.63,12.57-7.01,20.15l10.36,21.73
				c3.61,7.58,12.58,10.82,20.07,7.25C205.47,53.04,208.56,43.94,204.99,36.46z M180.17,48.29l-10.36-21.73
				c-3-6.3-0.38-13.82,5.85-16.79c6.23-2.97,13.72-0.26,16.72,6.04l10.36,21.73c3,6.3,0.38,13.82-5.85,16.79
				C190.66,57.29,183.13,54.5,180.17,48.29z"/>
		</g>
	</g>
	<g id="Layer_1_3_">
	</g>
</g>
<g>
	<g id="_x31_079_x2C__Aid_x2C__band_x2C__bandage_x2C__plus_3_">
		<g>
			<path class="st0" d="M262.5,49.78c0.56-1.63-0.31-3.42-1.92-3.97c-1.61-0.55-3.39,0.34-3.95,1.96s0.31,3.42,1.92,3.97
				C260.16,52.29,261.94,51.41,262.5,49.78z M258.9,48.55c0.1-0.29,0.48-0.48,0.76-0.38c0.28,0.1,0.47,0.48,0.37,0.77
				c-0.1,0.29-0.48,0.48-0.76,0.38C258.96,49.32,258.77,48.93,258.9,48.55z"/>
			<path class="st0" d="M264.95,42.6c0.56-1.63-0.31-3.42-1.92-3.97c-1.61-0.55-3.39,0.34-3.95,1.96c-0.56,1.63,0.31,3.42,1.92,3.97
				C262.61,45.12,264.4,44.23,264.95,42.6z M261.36,41.37c0.1-0.29,0.48-0.48,0.76-0.38c0.28,0.1,0.47,0.48,0.37,0.77
				c-0.1,0.29-0.48,0.48-0.76,0.38C261.41,42.14,261.23,41.75,261.36,41.37z"/>
			<path class="st0" d="M255.4,47.35c0.56-1.63-0.31-3.42-1.92-3.97c-1.61-0.55-3.39,0.34-3.95,1.96c-0.56,1.63,0.31,3.42,1.92,3.97
				C253.06,49.87,254.85,48.98,255.4,47.35z M251.81,46.12c0.1-0.29,0.48-0.48,0.76-0.38c0.28,0.1,0.47,0.48,0.37,0.77
				c-0.1,0.29-0.48,0.48-0.76,0.38C251.89,46.8,251.68,46.51,251.81,46.12z"/>
			<path class="st0" d="M257.86,40.17c0.56-1.63-0.31-3.42-1.92-3.97c-1.61-0.55-3.39,0.34-3.95,1.96
				c-0.56,1.63,0.31,3.42,1.92,3.97C255.52,42.69,257.3,41.8,257.86,40.17z M254.26,38.95c0.1-0.29,0.48-0.48,0.76-0.38
				c0.28,0.1,0.47,0.48,0.37,0.77c-0.1,0.29-0.48,0.48-0.76,0.38C254.35,39.62,254.13,39.33,254.26,38.95z"/>
			<path class="st0" d="M266.66,25.87l1.01-2.97l2.93,1c0.66,0.23,1.43-0.15,1.66-0.82l1.24-3.64c0.23-0.67-0.14-1.44-0.8-1.67
				l-2.93-1l1.01-2.97c0.23-0.67-0.14-1.44-0.81-1.66l-3.6-1.23c-0.66-0.23-1.43,0.15-1.66,0.82l-1.01,2.97l-2.93-1
				c-0.66-0.23-1.43,0.15-1.66,0.82l-1.24,3.64c-0.23,0.67,0.14,1.44,0.8,1.67l2.93,1l-1.01,2.97c-0.23,0.67,0.14,1.44,0.8,1.67
				l3.6,1.23C265.79,26.85,266.43,26.54,266.66,25.87z M263.59,23.42l1.01-2.97c0.23-0.67-0.14-1.44-0.8-1.66l-2.93-1l0.39-1.15
				l2.93,1c0.66,0.23,1.43-0.15,1.66-0.82l1.01-2.97l1.23,0.42l-1.01,2.97c-0.23,0.67,0.14,1.44,0.8,1.67l2.84,0.97l-0.43,1.24
				l-2.93-1c-0.66-0.23-1.43,0.15-1.66,0.82l-1.01,2.97l-1.14-0.39L263.59,23.42z"/>
			<path class="st0" d="M271.57,48.29l7.79-22.78c2.72-7.94-1.43-16.53-9.28-19.21s-16.39,1.56-19.1,9.5l-7.79,22.78
				c-2.72,7.94,1.43,16.53,9.28,19.21C260.32,60.48,268.89,56.13,271.57,48.29z M245.55,39.39l7.79-22.78
				c2.26-6.6,9.39-10.15,15.92-7.92c6.53,2.23,9.99,9.4,7.74,16.01l-7.79,22.78c-2.26,6.6-9.39,10.15-15.92,7.92
				S243.32,45.9,245.55,39.39z"/>
		</g>
	</g>
	<g id="Layer_1_1_">
	</g>
</g>
<g>
	<g id="_x31_079_x2C__Aid_x2C__band_x2C__bandage_x2C__plus_4_">
		<g>
			<path class="st0" d="M322.2,51.96c1.51-0.82,2.08-2.73,1.26-4.22c-0.82-1.49-2.73-2.04-4.24-1.22s-2.08,2.73-1.26,4.22
				C318.78,52.23,320.69,52.78,322.2,51.96z M320.38,48.62c0.27-0.15,0.68-0.03,0.82,0.24c0.14,0.26,0.02,0.67-0.24,0.82
				s-0.68,0.03-0.82-0.23C319.9,49.23,320.03,48.82,320.38,48.62z"/>
			<path class="st0" d="M328.86,48.32c1.51-0.83,2.08-2.73,1.26-4.22c-0.82-1.49-2.73-2.04-4.24-1.22
				c-1.51,0.82-2.08,2.73-1.26,4.22C325.44,48.59,327.35,49.14,328.86,48.32z M327.04,44.98c0.27-0.15,0.68-0.03,0.82,0.24
				c0.14,0.26,0.02,0.67-0.24,0.82s-0.68,0.03-0.82-0.23C326.56,45.59,326.68,45.18,327.04,44.98z"/>
			<path class="st0" d="M318.61,45.38c1.51-0.82,2.08-2.73,1.26-4.22c-0.82-1.49-2.73-2.04-4.24-1.22
				c-1.51,0.82-2.08,2.73-1.26,4.22C315.18,45.65,317.1,46.2,318.61,45.38z M316.78,42.04c0.27-0.15,0.68-0.03,0.82,0.24
				c0.14,0.26,0.02,0.67-0.24,0.82c-0.27,0.15-0.68,0.03-0.82-0.23C316.39,42.6,316.43,42.24,316.78,42.04z"/>
			<path class="st0" d="M325.26,41.74c1.51-0.83,2.08-2.73,1.26-4.22c-0.82-1.49-2.73-2.04-4.24-1.22
				c-1.51,0.82-2.08,2.73-1.26,4.22C321.84,42.01,323.75,42.56,325.26,41.74z M323.44,38.4c0.27-0.15,0.68-0.03,0.82,0.24
				c0.14,0.26,0.02,0.67-0.24,0.82c-0.27,0.15-0.68,0.03-0.82-0.23C323.05,38.96,323.09,38.6,323.44,38.4z"/>
			<path class="st0" d="M341.42,37.12l2.75-1.5l1.49,2.72c0.34,0.61,1.16,0.85,1.78,0.51l3.37-1.84c0.62-0.34,0.87-1.16,0.53-1.77
				l-1.49-2.72l2.75-1.5c0.62-0.34,0.87-1.16,0.53-1.77l-1.82-3.33c-0.34-0.61-1.16-0.85-1.78-0.51l-2.75,1.5l-1.49-2.72
				c-0.34-0.61-1.16-0.85-1.78-0.51l-3.37,1.84c-0.62,0.34-0.87,1.16-0.53,1.77L341.1,30l-2.75,1.5c-0.62,0.34-0.87,1.16-0.53,1.77
				l1.82,3.33C340.11,37.27,340.8,37.46,341.42,37.12z M340.8,33.24l2.75-1.5c0.62-0.34,0.87-1.16,0.53-1.77l-1.49-2.72l1.07-0.58
				l1.49,2.72c0.34,0.61,1.16,0.85,1.78,0.51l2.75-1.5l0.62,1.14l-2.75,1.5c-0.62,0.34-0.87,1.16-0.53,1.77l1.44,2.63l-1.15,0.63
				l-1.49-2.72c-0.34-0.61-1.16-0.85-1.78-0.51l-2.75,1.5l-0.58-1.05L340.8,33.24z"/>
			<path class="st0" d="M329.91,56.98l21.13-11.55c7.37-4.03,10.1-13.16,6.12-20.44s-13.14-9.91-20.51-5.88l-21.13,11.55
				c-7.37,4.03-10.1,13.16-6.12,20.44C313.38,58.38,322.63,60.96,329.91,56.98z M316.71,32.85l21.13-11.55
				c6.12-3.35,13.78-1.15,17.09,4.9c3.31,6.05,1.03,13.69-5.1,17.03l-21.13,11.55c-6.12,3.35-13.78,1.15-17.09-4.9
				C308.31,43.83,310.68,36.15,316.71,32.85z"/>
		</g>
	</g>
	<g id="Layer_1_4_">
	</g>
</g>
</svg>
