<?xml version="1.0" encoding="utf-8"?>
<!-- Generator: Adobe Illustrator 25.3.1, SVG Export Plug-In . SVG Version: 6.00 Build 0)  -->
<svg version="1.1" id="圖層_1" xmlns="http://www.w3.org/2000/svg" xmlns:xlink="http://www.w3.org/1999/xlink" x="0px" y="0px"
	 viewBox="0 0 99 42" style="enable-background:new 0 0 99 42;" xml:space="preserve">
<style type="text/css">
	.st0{fill:#6B86A1;}
	.st1{fill:#4A617C;}
	.st2{fill:#FFECE4;}
	.st3{fill:#001C3B;}
</style>
<g>
	<ellipse class="st0" cx="49.5" cy="21" rx="44.3" ry="18.4"/>
	<path class="st1" d="M49.5,4.5c23.7,0,43,7.7,44.2,17.5c0-0.3,0.1-0.6,0.1-0.9c0-10.2-19.8-18.4-44.3-18.4C25,2.6,5.2,10.8,5.2,21
		c0,0.3,0,0.6,0.1,0.9C6.5,12.2,25.8,4.5,49.5,4.5z"/>
	<path class="st1" d="M1.2,21c0,11.1,21.7,20.1,48.3,20.1c26.6,0,48.3-9,48.3-20.1S76.1,0.9,49.5,0.9C22.9,0.9,1.2,9.9,1.2,21z
		 M49.5,1.7c25.6,0,46.4,8.6,46.4,19.3S75.1,40.3,49.5,40.3S3.1,31.6,3.1,21S23.9,1.7,49.5,1.7z"/>
	<path class="st2" d="M49.4,38.1c-17,0-31.9-3.8-40.2-9.5c7,6.4,22.4,10.8,40.3,10.8c18.5,0,34.4-4.7,41-11.4
		C82.4,34,67,38.1,49.4,38.1z"/>
	<path class="st3" d="M49.5,41.6C76.8,41.6,99,32.3,99,21C99,9.7,76.8,0.4,49.5,0.4C22.2,0.4,0,9.7,0,21C0,32.3,22.2,41.6,49.5,41.6
		z M97.8,21c0,11.1-21.7,20.1-48.3,20.1c-26.6,0-48.3-9-48.3-20.1S22.9,0.9,49.5,0.9C76.1,0.9,97.8,9.9,97.8,21z"/>
	<path class="st3" d="M49.5,40.3c25.6,0,46.4-8.6,46.4-19.3S75.1,1.7,49.5,1.7S3.1,10.4,3.1,21S23.9,40.3,49.5,40.3z M49.5,2.6
		c24.5,0,44.3,8.2,44.3,18.4S73.9,39.4,49.5,39.4C25,39.4,5.2,31.2,5.2,21S25,2.6,49.5,2.6z"/>
</g>
</svg>
