<?xml version="1.0" encoding="utf-8"?>
<!-- Generator: Adobe Illustrator 25.3.1, SVG Export Plug-In . SVG Version: 6.00 Build 0)  -->
<svg version="1.1" id="圖層_1" xmlns="http://www.w3.org/2000/svg" xmlns:xlink="http://www.w3.org/1999/xlink" x="0px" y="0px"
	 viewBox="0 0 100 100" style="enable-background:new 0 0 100 100;" xml:space="preserve">
<style type="text/css">
	.st0{fill:#EFD729;}
	.st1{fill:#FCFF55;}
	.st2{fill:#262626;}
</style>
<g>
	<path class="st0" d="M64.9,9c0-0.5-0.5-1.1-1.1-1.1C63.2,9,8.9,10.1,9.4,12.8c1.1,1.1,3.8,75.4,6.5,74.8C92.9,80.6,66.5,100,64.9,9
		z"/>
	<path class="st0" d="M70.2,14.9l4.8,67.3c-3.8,9.1-0.6,4.3-20.7,7c2.6,0,26.6,5.3,26.1,2.7l10.2-73.2C91.8,16.5,70.8,16,70.2,14.9z
		"/>
</g>
<path class="st1" d="M54.1,89.2c0.1,0,0.2,0,0.2,0C54.2,89.2,54.1,89.2,54.1,89.2z"/>
<path class="st2" d="M90.7,13.3l-21-3.2C65.4-2.3,72.9,4.7,10,6.9c-11.8-3.2,2.2,75.9,0,79.7c0,9.2,16.7,3.8,21.5,4.3
	c18.3,0,50.6,12.9,53.8,1.6C83.7,88.7,103.1,11.2,90.7,13.3z M15.9,87.6c-2.7,0.5-5.4-73.7-6.5-74.8C8.9,10.1,63.2,9,63.8,7.9
	c0.5,0,1.1,0.5,1.1,1.1C66.5,100,92.9,80.6,15.9,87.6z M90.7,18.7L80.5,91.9c0.5,2.6-23.5-2.7-26.1-2.7c-0.1,0-0.2,0-0.2,0
	c0,0,0.1,0,0.2,0c20.2-2.6,17,2.1,20.7-7l-4.8-67.3C70.8,16,91.8,16.5,90.7,18.7z"/>
</svg>
