<?xml version="1.0" encoding="utf-8"?>
<!-- Generator: Adobe Illustrator 25.3.1, SVG Export Plug-In . SVG Version: 6.00 Build 0)  -->
<svg version="1.1" id="圖層_1" xmlns="http://www.w3.org/2000/svg" xmlns:xlink="http://www.w3.org/1999/xlink" x="0px" y="0px"
	 viewBox="0 0 50 50" style="enable-background:new 0 0 50 50;" xml:space="preserve">
<style type="text/css">
	.st0{fill:#E74B4A;}
	.st1{fill:#71454F;}
	.st2{fill:#61A256;}
	.st3{fill:#A9CE8B;}
	.st4{fill:#EC7670;}
	.st5{fill:#CF3536;}
</style>
<g>
	<path class="st0" d="M44.2,22c-0.7-4.1-2.9-8-6.6-10c-1.9-1-4.2-1.6-6.4-1.4c-1.7,0.1-3.1,0.6-4.6,1.2l-0.1-0.1
		c-0.4-0.3-1-0.7-1.4-1c-1-0.5-2-1-3-1.3c-2-0.5-4.2-0.6-6.2-0.1c-4,1-7.3,3.7-9,7.5C5.2,21,5.1,25.6,5.6,30
		c0.3,4.2,1.3,8.7,4.9,11.3c1.7,1.3,3.8,1.9,6.1,1.7c1-0.2,2-0.4,3-0.3c1,0.1,1.8,0.7,2.5,1.2c0.9,0.6,1.7,1.3,2.7,1.7
		c1,0.4,2.2,0.7,3.3,0.8c2.2,0.2,4.4-0.4,6.4-1.5c3.7-2,6.5-5.7,8.3-9.6C44.5,31,45,26.5,44.2,22z"/>
	<path class="st1" d="M28.6,12c0.1-0.5-0.4-0.8-0.3-1.3c0.2-0.9,0.3-1.7,0.6-2.5c0.3-1.2,0.9-2.7,0.1-3.8c-0.9-1.1-2.7-0.8-3.5,0.3
		S25,7.3,25.1,8.6c0.1,0.8,0.2,1.6,0.2,2.3c0.1,1,0,2.1,1,2.4c0.7,0.3,1.7-0.3,2.1-1C28.6,12.3,28.6,12.1,28.6,12z"/>
	<path class="st2" d="M26.5,8.4c-0.2-1.4-1.6-2.4-2.7-3.1c-1.1-0.6-2.4-1-3.7-1.3c-2.6-0.4-5.4,0.1-7.8,1.3
		c-0.6,0.3-0.6,1.5,0.3,1.6c1.4,0,2.1,1.6,3,2.4s2,1.5,3.2,1.7c1.1,0.3,2.4,0.2,3.5-0.3c0.7-0.3,1.2-0.7,1.9-1
		c0.6-0.3,1.4-0.1,1.8-0.5L26,9.1C26.3,9,26.6,8.7,26.5,8.4z"/>
	<path class="st3" d="M26.1,8.6c-0.2-0.6-0.4-0.8-1-1c-0.4-0.3-1-0.5-1.4-0.7l0,0c-0.3-0.4-0.6-0.8-1-1.1c-0.2-0.2-0.3-0.3-0.5-0.5
		c-0.1-0.1-0.2-0.2-0.3-0.2l0,0L22.1,5c0-0.1-0.2-0.2-0.3-0.2c-0.2-0.1-0.3,0.1-0.3,0.2c-0.1,0.3,0.2,0.6,0.3,0.8
		C22,6,22.3,6.2,22.5,6.4c-0.8-0.3-1.5-0.3-2.3-0.5l0,0l0,0c-0.1-0.1-0.2-0.2-0.3-0.3l-0.6-0.5c-0.2-0.2-0.3-0.3-0.5-0.5
		c-0.1-0.1-0.2-0.2-0.3-0.2c-0.1,0-0.1-0.1-0.2-0.1c-0.1,0-0.1,0-0.2,0l0,0c-0.2-0.1-0.3,0.1-0.3,0.3c0,0.1,0,0.1,0,0v0.1
		c0,0.1,0.1,0.1,0.1,0.2c0.1,0,0.2,0.1,0.3,0.2c0.2,0.2,0.3,0.3,0.6,0.5L19,5.7c-0.7-0.1-1.5-0.2-2.2-0.3c-1-0.1-2.3-0.2-3.2,0.3
		C13.4,5.7,13.4,6,13.7,6c1,0.1,2,0.2,3,0.3c-0.1,0.1-0.2,0.1-0.3,0.2c-0.2,0.1-0.5,0.3-0.5,0.5c-0.2,0.3-0.1,0.6,0.2,0.6
		s0.5-0.2,0.7-0.3c0.2-0.1,0.3-0.2,0.4-0.3c0.2-0.1,0.3-0.2,0.5-0.3c0.1,0,0.2-0.1,0.3-0.1c0.6,0.1,1.3,0.2,1.9,0.3
		c0.4,0.1,1,0.2,1.4,0.3c-0.2,0.1-0.3,0.1-0.4,0.2c-0.3,0.2-0.7,0.3-1,0.5c-0.3,0.2-0.7,0.3-1,0.6c-0.3,0.2-0.8,0.4-1,0.8
		c-0.1,0.2,0,0.4,0.2,0.5c0.1,0.1,0.2,0.1,0.3,0l0,0c0.2,0,0.4-0.2,0.6-0.3c0.2-0.1,0.3-0.2,0.5-0.3c0.3-0.2,0.6-0.3,1-0.5
		c0.3-0.2,0.7-0.3,1-0.5c0.2-0.1,0.3-0.2,0.5-0.3c0.2-0.1,0.3-0.2,0.5-0.3c0,0,0.1,0,0.1-0.1c0.3,0.1,0.4,0.2,0.7,0.3
		c0.2,0.1,0.3,0.1,0.4,0.2c-0.3,0.2-0.6,0.3-0.9,0.5c-0.3,0.2-0.5,0.3-0.7,0.4c-0.3,0.2-0.5,0.3-0.8,0.5c-0.1,0.1-0.2,0.3-0.1,0.4
		c0.1,0.2,0.3,0.2,0.4,0.2c0.3-0.1,0.5-0.3,0.8-0.5s0.4-0.3,0.7-0.4c0.4-0.3,0.8-0.5,1.2-0.9c0.1,0.1,0.3,0.1,0.3,0.2
		c0.3,0.2,0.4,0.3,0.7,0.4s0.3,0.1,0.6,0.1C26,9,26.1,8.8,26.1,8.6z"/>
	<path class="st4" d="M40,17.3c-0.8-1.3-3-4.4-4.8-2.6c-1.1,1.1-0.5,3.2-0.4,4.6c0.2,1.9,0.1,4.1,1,5.8c1,2,3.8,1.6,4.9-0.1
		C42.1,23,41.3,19.5,40,17.3z"/>
	<path class="st4" d="M39.6,32.7c0.1-0.6,0.3-1.3,0.3-1.8c0-0.8-0.4-1.6-1-2.2c-0.5-0.5-1.4-0.8-2.1-0.5c-0.7,0.3-1.5,0.7-1.8,1.5
		c-0.3,0.5-0.4,1.2-0.5,1.8c-0.3,1.4,0.6,3,2,3.3C37.6,34.9,39.4,34.1,39.6,32.7z"/>
	<path class="st5" d="M37.2,42.7c-3.2,0.9-6.9,0.8-9.7-1c-1.9-1.3-3.4-3.3-5.5-4.3c-1.7-0.8-3.7-0.7-5.5-1.3c-3.2-1-5.6-3.9-6.7-7.1
		c-1.1-3-1.2-6.5-1-9.9c0.1-1.9,0.2-4,0.7-5.8c-1,1.1-1.9,2.4-2.5,3.7C5.2,21,5.1,25.6,5.6,30c0.3,4.2,1.3,8.7,4.9,11.3
		c1.7,1.3,3.8,1.9,6.1,1.7c1-0.2,2-0.4,3-0.3c1,0.1,1.8,0.7,2.5,1.2c0.9,0.6,1.7,1.3,2.7,1.7c1,0.4,2.2,0.7,3.3,0.8
		c2.2,0.2,4.4-0.4,6.4-1.5c1.1-0.6,2.1-1.3,3-2.2C37.4,42.7,37.3,42.7,37.2,42.7z"/>
</g>
</svg>
