<?xml version="1.0" encoding="utf-8"?>
<!-- Generator: Adobe Illustrator 25.4.1, SVG Export Plug-In . SVG Version: 6.00 Build 0)  -->
<svg version="1.1" id="圖層_1" xmlns="http://www.w3.org/2000/svg" xmlns:xlink="http://www.w3.org/1999/xlink" x="0px" y="0px"
	 viewBox="0 0 50 50" style="enable-background:new 0 0 50 50;" xml:space="preserve">
<style type="text/css">
	.st0{fill:#E74B4A;}
	.st1{fill:#71454F;}
	.st2{fill:#61A256;}
	.st3{fill:#A9CE8B;}
	.st4{fill:#EC7670;}
	.st5{fill:#CF3536;}
</style>
<g>
	<path class="st0" d="M47.1,21.6c-0.8-4.7-3.3-9.2-7.6-11.5c-2.2-1.2-4.8-1.8-7.3-1.6c-1.9,0.1-3.6,0.7-5.3,1.4c0,0-0.1-0.1-0.1-0.1
		c-0.5-0.4-1.1-0.8-1.6-1.1c-1.1-0.6-2.3-1.1-3.5-1.5c-2.3-0.6-4.8-0.7-7.1-0.1C10,8.2,6.2,11.4,4.3,15.7c-2,4.7-2.1,10-1.6,15
		c0.4,4.8,1.5,10,5.6,13c2,1.5,4.4,2.2,7,1.9c1.1-0.2,2.3-0.5,3.4-0.4c1.1,0.1,2.1,0.8,2.9,1.4c1,0.7,2,1.5,3.1,1.9
		c1.2,0.5,2.5,0.8,3.8,0.9c2.5,0.2,5.1-0.5,7.3-1.7c4.3-2.3,7.5-6.6,9.5-11C47.4,31.9,48,26.7,47.1,21.6z"/>
	<path class="st1" d="M29.1,10.1c0.1-0.6-0.5-0.9-0.4-1.5c0.2-1,0.4-1.9,0.7-2.9c0.3-1.4,1-3.1,0.1-4.4c-1-1.3-3.1-0.9-4,0.4
		c-0.9,1.3-0.5,3-0.4,4.5c0.1,0.9,0.2,1.8,0.2,2.6c0.1,1.1,0,2.4,1.2,2.8c0.8,0.3,2-0.3,2.4-1.1C29.1,10.4,29.1,10.2,29.1,10.1z"/>
	<path class="st2" d="M26.7,5.9c-0.2-1.6-1.8-2.8-3.1-3.6c-1.3-0.7-2.8-1.2-4.3-1.5c-3-0.5-6.2,0.1-8.9,1.5C9.7,2.7,9.7,4,10.7,4.1
		c1.6,0,2.4,1.8,3.4,2.8c1,1,2.3,1.7,3.7,2c1.3,0.3,2.8,0.2,4-0.4c0.8-0.3,1.4-0.8,2.2-1.1c0.7-0.3,1.6-0.1,2.1-0.6
		c0,0,0.1-0.1,0.1-0.1C26.5,6.6,26.8,6.3,26.7,5.9z"/>
	<path class="st3" d="M26.3,6.2c-0.2-0.7-0.5-0.9-1.1-1.2c-0.5-0.3-1.1-0.6-1.6-0.8c0,0,0,0,0,0c-0.3-0.5-0.7-0.9-1.1-1.3
		c-0.2-0.2-0.4-0.4-0.6-0.6c-0.1-0.1-0.2-0.2-0.3-0.2c0,0,0,0,0,0c0,0,0.1-0.1,0.1-0.1c0-0.1-0.2-0.2-0.3-0.2C21.2,1.7,21,1.9,21,2
		c-0.1,0.3,0.2,0.7,0.4,0.9c0.2,0.3,0.5,0.5,0.7,0.8c-0.9-0.3-1.7-0.4-2.6-0.6c0,0,0,0,0,0c0,0,0,0,0,0c-0.1-0.1-0.2-0.2-0.4-0.3
		l-0.7-0.6C18.2,2,18,1.8,17.8,1.6c-0.1-0.1-0.2-0.2-0.3-0.2c-0.1,0-0.1-0.1-0.2-0.1c-0.1,0-0.1,0-0.2,0c0,0,0,0,0,0
		c-0.2-0.1-0.3,0.1-0.3,0.3c0,0.1,0,0.1,0,0c0,0,0,0.1,0,0.1c0,0.1,0.1,0.1,0.1,0.2C17,1.9,17.1,2,17.3,2.1c0.2,0.2,0.4,0.4,0.7,0.6
		c0,0,0.1,0.1,0.1,0.1c-0.8-0.1-1.7-0.2-2.5-0.3c-1.2-0.1-2.6-0.2-3.7,0.3c-0.2,0.1-0.2,0.4,0.1,0.4c1.1,0.1,2.3,0.2,3.4,0.3
		c-0.1,0.1-0.2,0.1-0.4,0.2c-0.2,0.1-0.6,0.3-0.6,0.6C14.2,4.7,14.3,5,14.6,5c0.3,0,0.6-0.2,0.8-0.4c0.2-0.1,0.3-0.2,0.5-0.3
		c0.2-0.1,0.4-0.2,0.6-0.3c0.1,0,0.2-0.1,0.3-0.1c0.7,0.1,1.5,0.2,2.2,0.3c0.5,0.1,1.1,0.2,1.6,0.3c-0.2,0.1-0.3,0.1-0.5,0.2
		c-0.4,0.2-0.8,0.4-1.2,0.6c-0.4,0.2-0.8,0.4-1.2,0.7c-0.4,0.2-0.9,0.5-1.1,0.9c-0.1,0.2,0,0.5,0.2,0.6c0.1,0.1,0.2,0.1,0.3,0
		c0,0,0,0,0,0c0.2,0,0.5-0.2,0.7-0.3C18,7.1,18.2,7,18.4,6.8c0.4-0.2,0.7-0.4,1.1-0.6c0.4-0.2,0.8-0.4,1.2-0.6
		c0.2-0.1,0.4-0.2,0.6-0.3c0.2-0.1,0.4-0.2,0.6-0.3C21.9,5,22,5,22,4.9c0.3,0.1,0.5,0.2,0.8,0.3c0.2,0.1,0.4,0.1,0.5,0.2
		c-0.3,0.2-0.7,0.4-1,0.6c-0.3,0.2-0.6,0.3-0.8,0.5c-0.3,0.2-0.6,0.3-0.9,0.6c-0.1,0.1-0.2,0.3-0.1,0.5c0.1,0.2,0.3,0.2,0.5,0.2
		c0.3-0.1,0.6-0.4,0.9-0.6c0.3-0.2,0.5-0.4,0.8-0.5c0.5-0.3,0.9-0.6,1.4-1c0.1,0.1,0.3,0.1,0.4,0.2c0.3,0.2,0.5,0.4,0.8,0.5
		c0.3,0.1,0.4,0.1,0.7,0.1C26.1,6.6,26.3,6.4,26.3,6.2z"/>
	<path class="st4" d="M42.2,16.2c-0.9-1.5-3.5-5-5.5-3c-1.3,1.3-0.6,3.7-0.5,5.3c0.2,2.2,0.1,4.7,1.2,6.7c1.2,2.3,4.4,1.8,5.6-0.1
		C44.6,22.7,43.7,18.7,42.2,16.2z"/>
	<path class="st4" d="M41.8,33.8c0.1-0.7,0.3-1.5,0.3-2.1c0-0.9-0.5-1.8-1.2-2.5c-0.6-0.6-1.6-0.9-2.4-0.6c-0.8,0.3-1.7,0.8-2.1,1.7
		c-0.3,0.6-0.5,1.4-0.6,2.1c-0.4,1.6,0.7,3.5,2.3,3.8C39.5,36.4,41.5,35.5,41.8,33.8z"/>
	<path class="st5" d="M39,45.3c-3.7,1-7.9,0.9-11.1-1.2c-2.2-1.5-3.9-3.8-6.3-4.9c-2-0.9-4.3-0.8-6.3-1.5c-3.7-1.2-6.4-4.5-7.7-8.2
		C6.3,26,6.2,22,6.4,18.1c0.1-2.2,0.2-4.6,0.8-6.7C6,12.7,5,14.1,4.3,15.7c-2,4.7-2.1,10-1.6,15c0.4,4.8,1.5,10,5.6,13
		c2,1.5,4.4,2.2,7,1.9c1.1-0.2,2.3-0.5,3.4-0.4c1.1,0.1,2.1,0.8,2.9,1.4c1,0.7,2,1.5,3.1,1.9c1.2,0.5,2.5,0.8,3.8,0.9
		c2.5,0.2,5.1-0.5,7.3-1.7c1.3-0.7,2.4-1.5,3.5-2.5C39.2,45.3,39.1,45.3,39,45.3z"/>
</g>
</svg>
