<?xml version="1.0" encoding="utf-8"?>
<!-- Generator: Adobe Illustrator 25.3.1, SVG Export Plug-In . SVG Version: 6.00 Build 0)  -->
<svg version="1.1" id="圖層_1" xmlns="http://www.w3.org/2000/svg" xmlns:xlink="http://www.w3.org/1999/xlink" x="0px" y="0px"
	 viewBox="0 0 50 50" style="enable-background:new 0 0 50 50;" xml:space="preserve">
<style type="text/css">
	.st0{fill:#FFDBBB;}
	.st1{fill:#B2BF4E;}
	.st2{fill:#DEAB71;}
	.st3{fill:#D69C63;}
	.st4{fill:#FFDFB8;}
	.st5{fill:#DD6043;}
	.st6{fill:#A15B3A;}
	.st7{fill:#F9D93D;}
	.st8{fill:#534741;}
</style>
<g>
	<path class="st0" d="M6.9,38.7c1.4,0.1,2.8,0.4,4.1,0.6c4.7,0.7,9.4,1.1,14.1,1.1c4.8,0,9.7-0.3,14.4-1c1.5-0.2,3.1-0.5,4.6-1
		c1-0.3,2.1-0.5,2.4-1.5c0.1-0.4,0.2-1.2,0.1-1.8c-0.3-0.7-0.7-1.3-1.5-1.4c0.2,0.9,0.2,2-0.2,2.6c-0.7,1.2-3.1,1.5-4.3,1.8
		c-5.1,1.1-10.6,1-15.7,1c-3.1,0-6.1-0.2-9.2-0.4c-1.6-0.1-3.2-0.3-4.9-0.5C9.8,38,8.4,38,7.1,37.6c-1.3-0.4-2-1.7-2.2-3
		c-0.5,0.2-0.8,0.6-0.9,1.2C4,37.7,5,38.5,6.9,38.7z"/>
	<path class="st1" d="M7.6,31.3c0.7,0.6-0.1,1.5,0.3,2.1c0.5,0.1,1,0.3,1.5,0.4c0.1-0.1,0.1-0.2,0.2-0.3c0.1,0,0.1-0.2,0.2-0.2
		c0.2-0.1,0.3-0.3,0.6-0.3c0.7-0.1,1,1,1.5,1c0.6,0,1.2-1.5,1.8-1.8c0.7-0.4,1.1-0.3,1.8,0.1c1.2,0.6,1.6,1.3,2.9,0.8
		c1.7-0.7,2.3-1.5,3.7,0c0.6,0.6,1.2,1.2,2,1.6c1,0.5,1.5,0.1,2.5-0.3c0.8-0.4,0.7-0.1,1.4,0c1.4,0.1,1.2-2.6,2.6-2.1
		c1.1,0.4,1.3,2.5,2.7,2.3c1.1-0.1,1.9-1.6,2.8-2.2c0.6-0.4,1.2-0.7,1.9-0.5c0.7,0.2,2.4,2.3,2.6,0c0-0.2,0.1-0.4,0.3-0.4
		c0.6-0.1,1.1-0.2,1.7-0.2c0.6,0.1,2.3,1,2.8,0.7c1-0.6-0.6-2.2,0.2-2.9c0.7-0.7,2.7,0.3,2.9-1.1c0-0.1-0.4-1.8-0.5-2
		c-0.7-2.2-2.1-1.3-3.3-0.8c1,0.9,1.5,2.3,0.1,3.3c-1.9,1.3-5.2,1.4-7.4,1.1c-1,0.8-2,1.6-3,2.5c-0.1,0.1-0.3,0.2-0.4,0.1
		c-1.9-0.8-3.9-1.4-5.9-2c-3.2,1.7-7.6,1.9-10.7-0.3c-0.1-0.1-0.1-0.1-0.2-0.2c-2.3,1-5.6,0.4-7.8,0.1C7.6,29.6,5.7,29,5,27.3
		c-0.3-0.7-0.2-1.3,0.2-1.8c0,0-0.1,0-0.1,0c-1.7,0.6-2.2,1.3-1.6,2c0,0,0,0.1,0,0.1c0,0.2,0.2,0.3,0.2,0.5c0,0.2-0.1,0.3-0.2,0.4
		c-0.2,0.3-0.8,0.4-1.1,0.7c-0.5,0.5-0.3,0.1-0.2,0.6C2.6,33,6.1,30,7.6,31.3z"/>
	<path class="st2" d="M47.1,38.5c0-0.1,0-0.3,0-0.5c-0.9,1.1-3,1.3-4.2,1.6c-5.5,1.2-11.4,1.5-17.1,1.6C19.8,41.3,14,40.3,8,39.6
		c-1.6-0.2-3-0.5-3.9-1.2c0.1,0.6,0.2,1.1,0.3,1.4c0.2,0.9,0.6,1.9,1.1,2.6c1.1,1.4,2.9,1.7,4.5,1.8c2.8,0.3,5.6,0.2,8.4,0.5
		c1.3,0.1,2.5,0.4,3.8,0.5c1.5,0.1,3-0.1,4.5-0.1c3.1-0.1,6.1,0.2,9.2-0.3c2.5-0.5,4.9-1.2,7.3-1.7c1.4-0.3,2.8-0.5,3.4-2.1
		C47,40.2,47.1,39.4,47.1,38.5z"/>
	<path class="st3" d="M26.5,26.5c3.9,0.2,7.6-0.4,11.4-0.9c2.7-0.3,7.6-1.2,8.9-4c1.4-3-1.4-7.7-3.3-9.9c-2.3-2.6-5.7-4.3-9-5.4
		C27.4,3.9,19,4.1,12.2,7.6c-2.9,1.5-5.1,3.6-6.5,6.6c-1.1,2.4-2.2,5.5-1.4,8.2c1.3,2.9,6.2,3.4,9,3.8
		C17.7,26.9,22.1,26.3,26.5,26.5z M39.5,18.6c0.5,0.5,0.4,1.6-0.1,2.1c-0.6,0.7-1.5,0.5-2.2,0C36.4,20,36.4,19,36.3,18
		c0-0.1,0-0.2,0.1-0.3c0.1-0.1,0.2-0.2,0.3-0.2c0.5,0,0.9,0.1,1.4,0.3C38.6,18.1,39.1,18.3,39.5,18.6z M33.7,8.8c0,0,0.1,0,0.1,0
		c0.8,0.2,1.9,0.1,2.6,0.7c0.6,0.5,0.6,1.4,0.2,2.1c-0.5,0.8-1.5,0.8-2.2,0.3c-0.8-0.6-1.1-1.5-1.2-2.5C33.2,9.1,33.4,8.7,33.7,8.8z
		 M23.6,9.9c0.6-0.8,1.5-1,2.4-1.2c0.1,0,0.1,0,0.2,0c0.1,0,0.2,0.1,0.2,0.1c0.1,0.1,0.1,0.1,0.1,0.3c0,0.1,0,0.1,0,0.2
		c-0.1,0.9-0.1,2-0.7,2.7c-0.5,0.6-1.5,0.5-2.1,0.2C23.1,11.6,23.1,10.6,23.6,9.9z M22.5,19.4c0.4-0.9,1.4-1.3,2.3-1.6
		c0.2-0.1,0.4,0,0.4,0.1c0,0,0.1,0.1,0.1,0.2c0.2,0.5,0.1,1,0.1,1.5c0,0.5,0,1-0.3,1.4c-0.4,0.7-1.4,0.8-2,0.5
		C22.2,21.2,22.1,20.2,22.5,19.4z M13.5,10.3c0.3-0.9,1.2-1.1,2-0.9c0.9,0.3,1.5,1,2,1.8c0.1,0.1,0.1,0.3,0,0.4
		c0,0.1-0.1,0.2-0.3,0.3c-0.9,0.2-2,0.7-2.9,0.4C13.6,12,13.3,11,13.5,10.3z M11.4,20.7c-0.7,0.4-1.7-0.1-2-0.8
		c-0.4-0.8,0-1.6,0.7-1.9c1-0.5,2-0.3,2.9,0.1c0.1,0,0.1,0.1,0.2,0.1c0.2,0.1,0.3,0.3,0.1,0.5c0,0,0,0,0,0.1c0,0,0,0,0,0
		C12.7,19.5,12.2,20.3,11.4,20.7z"/>
	<path class="st4" d="M16.4,11.2c-0.2-0.3-0.4-0.6-0.8-0.8c-0.4-0.3-1.4-0.4-1.3,0.3C14.3,11.8,15.5,11.4,16.4,11.2z"/>
	<path class="st4" d="M24.6,11.5c0.3,0.1,0.5,0.1,0.7-0.2c0.1-0.2,0.2-0.5,0.2-0.8c0.1-0.3,0.1-0.6,0.1-0.9c-0.3,0.1-0.7,0.2-1,0.4
		C24.2,10.4,23.8,11.3,24.6,11.5z"/>
	<path class="st4" d="M36,10.8c0.1-0.7-0.5-0.8-1.1-0.9c-0.2,0-0.5-0.1-0.7-0.1c0.1,0.4,0.2,0.7,0.4,1C35,11.3,35.8,11.6,36,10.8z"
		/>
	<path class="st4" d="M38.8,20.1c0.1-0.2,0.2-0.5,0.1-0.7c-0.1-0.2-0.3-0.3-0.5-0.4c-0.4-0.2-0.7-0.4-1.1-0.5c0,0.4,0.1,0.8,0.3,1.2
		C37.8,20.1,38.4,20.6,38.8,20.1z"/>
	<path class="st4" d="M23.5,20.8c0.7,0.2,0.9-0.4,0.9-1c0-0.4,0.1-0.7,0-1c-0.3,0.1-0.7,0.3-0.9,0.5C23.2,19.7,22.8,20.6,23.5,20.8z
		"/>
	<path class="st4" d="M10.4,19.7c0.6,0.5,0.9-0.1,1.3-0.5c0.2-0.2,0.3-0.4,0.5-0.6c-0.4-0.1-0.7-0.2-1.1-0.1
		C10.4,18.6,9.7,19.2,10.4,19.7z"/>
	<path class="st5" d="M41.2,28.7c0.8-0.1,2.1-0.2,2.7-0.8c1-0.9,0.4-1.9-0.7-2.3c-0.6,0.2-1.3,0.4-1.9,0.6c-1.1,0.9-2.2,1.8-3.3,2.7
		C39.2,28.9,40.2,28.8,41.2,28.7z"/>
	<path class="st6" d="M5.9,35.3c0.5,1.5,2.1,1.6,3.4,1.8c2.1,0.3,4.2,0.6,6.2,0.7c4,0.3,7.8,0.5,11.8,0.4c3.7-0.1,7.4-0.2,11.1-0.6
		c1.6-0.2,3.4-0.5,4.9-1.1c0.9-0.4,1.1-0.8,1.1-1.8c0-0.6-0.1-1.4-0.5-1.9c0,0,0,0,0,0c-0.6-0.2-1.2-0.4-1.8-0.5
		c-1.1-0.1-0.7,0.1-1.1,0.5c-0.7,0.7-1.2,1.5-2.2,1c-1-0.4-1-1.3-2.4-0.7c-0.8,0.3-1.3,1.3-2,1.7c-0.8,0.6-1.8,1-2.7,0.4
		c-0.4-0.3-1.4-2-1.8-2c-0.2,0-0.6,1.1-0.7,1.3c-0.7,1.1-0.9,1-1.9,0.7c-0.3-0.5-0.6-0.5-0.9-0.1c-0.1,0.1-0.3,0.2-0.4,0.2
		c-0.2,0.1-0.4,0.2-0.6,0.3c-0.6,0.2-1,0.1-1.6-0.1c-0.7-0.3-1.5-0.9-2.1-1.4c-0.5-0.5-0.8-1.2-1.5-1.2c-1.1,0-2.1,1.5-3.3,1.3
		c-0.8-0.1-1.2-1.1-2-1.3c-1.5-0.4-1.6,0.5-2.3,1.3c-0.6,0.7-1,0.6-1.6,0.1c-0.7-0.6-0.5-0.6-1.2-0.1c-0.2,0.1-0.2,0.2-0.4,0.3
		C9.1,35,8.6,35.1,8.2,35c-1.5-0.4-0.9-1.4-1.2-2.5c0-0.1-0.1-0.2-0.1-0.2C6,32.7,5.6,34.3,5.9,35.3z"/>
	<path class="st7" d="M34.1,31c0.8-0.3,1.8-1.5,2.5-2c1-0.8,2.1-1.6,3.1-2.5c-0.3,0.1-0.7,0.1-1,0.1c-2.4,0.3-4.8,0.7-7.3,0.9
		c-2.4,0.2-4.8,0-7.3,0c-0.7,0-1.3,0-2,0c1.9,0.6,3.8,1.1,5.7,1.7c0.1,0,0.2,0,0.2,0.1c1,0.3,2,0.6,3,1C32,30.6,33.2,31.4,34.1,31z"
		/>
	<path class="st5" d="M26.6,29.9c-2.5-0.7-5-1.4-7.4-2.2c0,0-0.1,0-0.1,0c-0.3,0.7-0.7,1.2-1.3,1.6C20.4,31,23.8,31,26.6,29.9z"/>
	<path class="st5" d="M7.2,28.4c0.5,0.2,1,0.4,1.6,0.5c1,0.2,2.1,0.3,3.1,0.3c2.1,0.1,5.1,0.6,6.2-1.5c-2.4,0-4.8-0.2-7.2-0.7
		c-1.4-0.3-3.1-0.6-4.5-1.3C5.8,27,6.1,27.9,7.2,28.4z"/>
	<path class="st8" d="M47.2,29.8c0.8-0.1,2-0.3,2.1-1.4c0-0.8-0.4-1.8-0.6-2.5c-0.2-0.6-0.2-1.2-0.7-1.7c-0.5-0.4-0.9-0.5-1.4-0.5
		c0.3-0.2,0.5-0.5,0.7-0.7c2.2-2.5,0.5-6.5-0.7-8.9c-1.6-3.2-4.4-5.6-7.5-7.2c-7.7-4-17.2-4.5-25.2-1.3C10,7.2,6.9,9.5,5,13.2
		c-1.4,2.8-2.7,6.5-1.7,9.6c0,0,0,0.1,0.1,0.1c0,0,0,0,0,0c0.2,0.6,0.6,1.1,1.1,1.5c-1.2-0.1-2.5,0.6-2.5,2c0,0.7,0.4,0.6,0.5,1.2
		c0.2,0.8,0.3,0.2-0.3,0.8c-0.4,0.4-1.1,0.4-1.4,1.1c-0.1,0.1,0,0.3,0.1,0.4c0.9,0.9,0.8,1.9,2.2,2.2c0.6,0.2,1.3,0.1,2,0.1
		c0.2,0,0.5-0.1,0.7-0.2c-0.4,0.4-0.6,0.8-0.7,1.4c-0.1,0-0.1,0-0.2,0c-3.3,0.8-1.9,6.4-1,8.4c2.1,4.8,9.1,3.9,13.4,4.1
		c1.4,0,2.7,0.3,4,0.4c1.6,0.2,3.2,0.1,4.8,0c3.1-0.1,6.2,0.2,9.3-0.2c2.8-0.4,5.4-1.3,8.2-1.8c2-0.4,3.4-0.9,4.2-2.9
		c0.8-2.3,0.9-7.6-1.8-8.6c0.2-0.2,0.4-0.5,0.4-0.9c0.1-0.5-0.6-1.5-0.4-1.9C46,30,46.8,29.9,47.2,29.8z M43.3,43.1
		c-2.5,0.5-4.9,1.2-7.3,1.7c-3.1,0.6-6.1,0.3-9.2,0.3c-1.5,0-3,0.2-4.5,0.1c-1.3-0.1-2.5-0.3-3.8-0.5c-2.8-0.3-5.6-0.2-8.4-0.5
		c-1.6-0.2-3.5-0.4-4.5-1.8c-0.6-0.8-0.9-1.7-1.1-2.6c-0.1-0.3-0.2-0.9-0.3-1.4C5,39.2,6.4,39.4,8,39.6c6,0.7,11.8,1.7,17.9,1.6
		c5.7-0.1,11.5-0.3,17.1-1.6c1.2-0.3,3.3-0.5,4.2-1.6c0,0.2,0,0.3,0,0.5c0,0.8-0.1,1.7-0.4,2.5C46.1,42.6,44.8,42.8,43.3,43.1z
		 M2.2,29.9c-0.1-0.5-0.3-0.1,0.2-0.6c0.3-0.2,0.9-0.3,1.1-0.7c0.1-0.2,0.2-0.3,0.2-0.4c0-0.2-0.2-0.4-0.2-0.5c0,0,0-0.1,0-0.1
		c-0.6-0.7-0.1-1.4,1.6-2c0,0,0.1,0,0.1,0C4.9,26,4.8,26.7,5,27.3c0.6,1.7,2.6,2.2,4.2,2.5c2.3,0.3,5.6,1,7.8-0.1
		c0,0.1,0.1,0.1,0.2,0.2c3.1,2.2,7.4,2,10.7,0.3c2,0.6,4,1.3,5.9,2c0.1,0.1,0.3,0,0.4-0.1c1-0.9,2-1.7,3-2.5
		c2.3,0.3,5.5,0.2,7.4-1.1c1.4-0.9,1-2.4-0.1-3.3c1.2-0.5,2.5-1.4,3.3,0.8c0.1,0.2,0.5,1.9,0.5,2c-0.2,1.4-2.1,0.5-2.9,1.1
		c-0.8,0.7,0.9,2.3-0.2,2.9c-0.5,0.3-2.3-0.6-2.8-0.7c-0.6-0.1-1.1,0-1.7,0.2c-0.2,0-0.3,0.2-0.3,0.4c-0.2,2.4-1.9,0.2-2.6,0
		c-0.7-0.2-1.3,0.1-1.9,0.5c-0.9,0.6-1.7,2.1-2.8,2.2c-1.5,0.1-1.6-1.9-2.7-2.3c-1.5-0.5-1.2,2.2-2.6,2.1c-0.7-0.1-0.5-0.4-1.4,0
		c-1,0.4-1.4,0.9-2.5,0.3c-0.8-0.4-1.4-1-2-1.6c-1.3-1.5-2-0.6-3.7,0c-1.3,0.5-1.7-0.2-2.9-0.8c-0.7-0.4-1.1-0.5-1.8-0.1
		c-0.6,0.3-1.2,1.9-1.8,1.8c-0.5,0-0.8-1.1-1.5-1c-0.3,0-0.4,0.2-0.6,0.3c-0.1,0-0.1,0.2-0.2,0.2c-0.1,0.1-0.1,0.2-0.2,0.3
		c-0.5-0.1-1-0.3-1.5-0.4c-0.4-0.7,0.4-1.5-0.3-2.1C6.1,30,2.6,33,2.2,29.9z M4.4,22.4c-0.8-2.6,0.2-5.8,1.4-8.2
		c1.4-3,3.6-5.1,6.5-6.6C19,4.1,27.4,3.9,34.5,6.3c3.3,1.1,6.6,2.8,9,5.4c1.9,2.2,4.7,6.9,3.3,9.9c-1.3,2.8-6.2,3.7-8.9,4
		c-3.8,0.5-7.5,1.1-11.4,0.9c-4.4-0.2-8.8,0.4-13.2-0.2C10.6,25.8,5.7,25.3,4.4,22.4z M28.1,29.4c-0.1,0-0.1-0.1-0.2-0.1
		c-1.9-0.6-3.8-1.1-5.7-1.7c0.7,0,1.3,0,2,0c2.4,0,4.8,0.2,7.3,0c2.4-0.2,4.8-0.6,7.3-0.9c0.3,0,0.7-0.1,1-0.1c-1,0.8-2,1.7-3.1,2.5
		c-0.7,0.5-1.7,1.7-2.5,2c-0.9,0.4-2.2-0.4-3-0.7C30.1,30,29.1,29.7,28.1,29.4z M6.3,25.7c1.5,0.7,3.2,1,4.5,1.3
		c2.4,0.5,4.8,0.6,7.2,0.7c-1.1,2.2-4.1,1.7-6.2,1.5c-1-0.1-2.1-0.1-3.1-0.3c-0.5-0.1-1.1-0.3-1.6-0.5C6.1,27.9,5.8,27,6.3,25.7z
		 M19.1,27.7c0,0,0.1,0,0.1,0c2.5,0.8,5,1.5,7.4,2.2c-2.8,1.2-6.3,1.2-8.8-0.6C18.3,28.9,18.8,28.4,19.1,27.7z M41.4,26.1
		c0.6-0.2,1.3-0.4,1.9-0.6C44.4,26,45,27,44,27.9c-0.6,0.5-2,0.6-2.7,0.8c-1,0.2-2.1,0.3-3.1,0.2C39.2,28,40.3,27.1,41.4,26.1z
		 M6.9,32.3C7,32.3,7,32.4,7,32.5c0.3,1.1-0.3,2.2,1.2,2.5c0.3,0.1,0.9,0,1.2-0.1c0.2-0.1,0.3-0.2,0.4-0.3c0.8-0.5,0.5-0.5,1.2,0.1
		c0.7,0.5,1.1,0.5,1.6-0.1c0.8-0.8,0.9-1.8,2.3-1.3c0.8,0.2,1.2,1.2,2,1.3c1.2,0.1,2.1-1.3,3.3-1.3c0.7,0,0.9,0.7,1.5,1.2
		c0.6,0.5,1.4,1.1,2.1,1.4c0.6,0.2,1,0.2,1.6,0.1c0.2-0.1,0.4-0.2,0.6-0.3c0.1-0.1,0.3-0.2,0.4-0.2c0.3-0.4,0.6-0.4,0.9,0.1
		c1,0.3,1.2,0.4,1.9-0.7c0.1-0.2,0.5-1.3,0.7-1.3c0.4,0,1.4,1.7,1.8,2c0.9,0.6,1.9,0.3,2.7-0.4c0.7-0.5,1.2-1.4,2-1.7
		c1.3-0.6,1.4,0.3,2.4,0.7c1,0.4,1.5-0.3,2.2-1c0.4-0.4,0-0.6,1.1-0.5c0.6,0,1.2,0.3,1.8,0.5c0,0,0,0,0,0c0.4,0.5,0.4,1.3,0.5,1.9
		c0,1-0.1,1.4-1.1,1.8c-1.5,0.7-3.3,0.9-4.9,1.1c-3.7,0.4-7.4,0.6-11.1,0.6c-4,0.1-7.9-0.1-11.8-0.4c-2.1-0.2-4.2-0.4-6.2-0.7
		c-1.3-0.2-2.9-0.3-3.4-1.8C5.6,34.3,6,32.7,6.9,32.3z M5,34.6c0.1,1.3,0.9,2.6,2.2,3C8.4,38,9.8,38,11,38.2
		c1.6,0.2,3.2,0.4,4.9,0.5c3.1,0.3,6.1,0.4,9.2,0.4c5.2,0,10.7,0,15.7-1c1.2-0.3,3.6-0.6,4.3-1.8c0.4-0.6,0.4-1.7,0.2-2.6
		c0.7,0.1,1.2,0.7,1.5,1.4c0.1,0.6,0.1,1.3-0.1,1.8c-0.3,1-1.4,1.2-2.4,1.5c-1.5,0.4-3.1,0.7-4.6,1c-4.7,0.7-9.6,0.9-14.4,1
		c-4.7,0-9.5-0.4-14.1-1.1c-1.4-0.2-2.7-0.4-4.1-0.6c-1.9-0.2-2.9-1-2.8-2.9C4.2,35.2,4.5,34.8,5,34.6z"/>
	<path class="st8" d="M13.3,18.7c0.2-0.2,0.1-0.4-0.1-0.5c0,0-0.1-0.1-0.2-0.1c-1-0.4-2-0.6-2.9-0.1c-0.7,0.4-1.1,1.2-0.7,1.9
		c0.4,0.7,1.3,1.2,2,0.8c0.7-0.4,1.3-1.2,1.8-1.9C13.2,18.8,13.2,18.8,13.3,18.7C13.3,18.7,13.3,18.7,13.3,18.7z M11.1,18.5
		c0.4-0.1,0.8,0,1.1,0.1c-0.2,0.2-0.3,0.4-0.5,0.6c-0.4,0.4-0.7,1-1.3,0.5C9.7,19.2,10.4,18.6,11.1,18.5z"/>
	<path class="st8" d="M14.3,12.3c0.9,0.3,2-0.2,2.9-0.4c0.2,0,0.3-0.1,0.3-0.3c0-0.1,0-0.2,0-0.4c-0.5-0.8-1.1-1.6-2-1.8
		c-0.8-0.2-1.8,0-2,0.9C13.3,11,13.6,12,14.3,12.3z M14.3,10.7c0-0.8,0.9-0.6,1.3-0.3c0.3,0.2,0.5,0.5,0.8,0.8
		C15.5,11.4,14.3,11.8,14.3,10.7z"/>
	<path class="st8" d="M36.4,17.7c-0.1,0.1-0.1,0.2-0.1,0.3c0,1,0.1,2,0.9,2.7c0.6,0.6,1.6,0.7,2.2,0c0.5-0.5,0.7-1.6,0.1-2.1
		c-0.4-0.4-0.9-0.5-1.4-0.7c-0.5-0.2-0.9-0.3-1.4-0.3C36.6,17.5,36.5,17.6,36.4,17.7z M37.2,18.5c0.4,0.1,0.8,0.3,1.1,0.5
		c0.2,0.1,0.5,0.2,0.5,0.4c0.1,0.2,0,0.6-0.1,0.7c-0.4,0.6-1,0-1.3-0.4C37.3,19.3,37.2,18.9,37.2,18.5z"/>
	<path class="st8" d="M34.4,11.8c0.7,0.5,1.7,0.5,2.2-0.3c0.4-0.6,0.4-1.6-0.2-2.1c-0.7-0.5-1.8-0.5-2.6-0.7c0,0-0.1,0-0.1,0
		c-0.3,0-0.5,0.3-0.5,0.6C33.4,10.3,33.6,11.2,34.4,11.8z M34.2,9.7c0.2,0,0.5,0.1,0.7,0.1c0.6,0.1,1.2,0.2,1.1,0.9
		c-0.2,0.8-1,0.5-1.4,0C34.4,10.5,34.2,10.1,34.2,9.7z"/>
	<path class="st8" d="M23,21.5c0.7,0.3,1.7,0.1,2-0.5c0.2-0.4,0.2-1,0.3-1.4c0.1-0.5,0.1-1-0.1-1.5c0-0.1-0.1-0.1-0.1-0.2
		c-0.1-0.1-0.2-0.2-0.4-0.1c-0.9,0.3-1.8,0.7-2.3,1.6C22.1,20.2,22.2,21.2,23,21.5z M24.4,19.8c-0.1,0.6-0.2,1.2-0.9,1
		c-0.8-0.2-0.3-1.1,0-1.4c0.3-0.3,0.6-0.4,0.9-0.5C24.5,19.1,24.5,19.4,24.4,19.8z"/>
	<path class="st8" d="M23.9,12.1c0.6,0.4,1.6,0.4,2.1-0.2c0.6-0.7,0.5-1.8,0.7-2.7c0-0.1,0-0.1,0-0.2c0-0.1-0.1-0.2-0.1-0.3
		c-0.1-0.1-0.1-0.1-0.2-0.1c-0.1,0-0.1,0-0.2,0c-0.9,0.2-1.8,0.4-2.4,1.2C23.1,10.6,23.1,11.6,23.9,12.1z M25.7,9.7
		c0,0.3-0.1,0.6-0.1,0.9c0,0.2-0.1,0.6-0.2,0.8c-0.2,0.2-0.4,0.2-0.7,0.2c-0.9-0.2-0.4-1.1,0.1-1.4C25,9.8,25.3,9.7,25.7,9.7z"/>
</g>
</svg>
