<?xml version="1.0" encoding="utf-8"?>
<!-- Generator: Adobe Illustrator 25.4.1, SVG Export Plug-In . SVG Version: 6.00 Build 0)  -->
<svg version="1.1" id="圖層_1" xmlns="http://www.w3.org/2000/svg" xmlns:xlink="http://www.w3.org/1999/xlink" x="0px" y="0px"
	 viewBox="0 0 100 100" style="enable-background:new 0 0 100 100;" xml:space="preserve">
<style type="text/css">
	.st0{fill:#FBC02D;}
	.st1{fill:#FFF59D;}
	.st2{fill:#FDD835;}
</style>
<g>
	<g>
		<path class="st0" d="M76.93,18.33L5,40.92h90C91.65,23.45,76.93,18.33,76.93,18.33z"/>
		<path class="st1" d="M5,40.92v21.84c2.49,0.6,4.35,2.84,4.35,5.52c0,2.68-1.86,4.92-4.35,5.52v7.86h90V40.92H5z"/>
		<path class="st2" d="M28.92,73.39c0,2.45-1.98,4.43-4.43,4.43s-4.43-1.98-4.43-4.43c0-2.45,1.98-4.43,4.43-4.43
			S28.92,70.94,28.92,73.39z"/>
		<circle class="st2" cx="69.24" cy="49.47" r="4.43"/>
		
			<ellipse transform="matrix(0.2357 -0.9718 0.9718 0.2357 -24.233 88.0381)" class="st2" cx="43.85" cy="59.43" rx="7.07" ry="7.07"/>
		<path class="st2" d="M20.06,51.14c0,1.52-1.24,2.76-2.76,2.76c-1.52,0-2.76-1.24-2.76-2.76c0-1.52,1.24-2.76,2.76-2.76
			C18.82,48.38,20.06,49.61,20.06,51.14z"/>
		<path class="st2" d="M69.24,73.39c0,1.52-1.24,2.76-2.76,2.76c-1.52,0-2.76-1.24-2.76-2.76s1.24-2.76,2.76-2.76
			C68,70.63,69.24,71.86,69.24,73.39z"/>
		<path class="st2" d="M87.64,64.65c0,1.02-0.82,1.84-1.84,1.84s-1.84-0.82-1.84-1.84c0-1.02,0.82-1.84,1.84-1.84
			S87.64,63.64,87.64,64.65z"/>
	</g>
	<rect x="92.16" y="40.92" class="st0" width="2.84" height="40.75"/>
</g>
</svg>
