<?xml version="1.0" encoding="utf-8"?>
<!-- Generator: Adobe Illustrator 25.3.1, SVG Export Plug-In . SVG Version: 6.00 Build 0)  -->
<svg version="1.1" id="圖層_1" xmlns="http://www.w3.org/2000/svg" xmlns:xlink="http://www.w3.org/1999/xlink" x="0px" y="0px"
	 viewBox="0 0 50 50" style="enable-background:new 0 0 50 50;" xml:space="preserve">
<style type="text/css">
	.st0{fill:#F9D93D;}
	.st1{fill:#DEA326;}
	.st2{fill:#534741;}
</style>
<g>
	<path class="st0" d="M42.2,37.7c3.2-2.4,3.4-6.7,4-10.4c-1.5-0.2-2.9-1.3-2.8-3c0.1-1.6,1.5-2.5,3-2.6c0-1.6,0.2-3.1-0.8-4.4
		c-0.7-0.8-1.5-1.6-2.3-2.3c-2.2-2-4.9-4-7.7-5.1c-1.5-0.6-3.2-0.7-4.8-0.5c-0.4,0.1-2,0.3-2.3,0.6c-0.2,0.2,0,0.8,0,1.1
		c-0.3,1.6-2.4,2.5-3.9,2.1c-0.5-0.1-0.8-0.5-1.2-0.7c-0.6-0.3-1.3,0.2-2,0.5c-1.4,0.7-2.8,1.4-4.2,2.2c-2.8,1.5-5.6,3.2-8.3,4.9
		c-1.4,0.8-2.8,1.6-4,2.8c-1,1.1-1.2,2.1-1.3,3.5c-0.1,2.6,0.2,5.2,0.3,7.9c0.1,1.5-0.2,3.9,0.8,5.1c1.2,1.3,3.3,0.9,4.8,0.9
		c1.8,0,3.5-0.1,5.3-0.1c0.6,0,1.3,0,1.9,0c0.5,0,1.4,0.2,2,0c0.3-1,0.6-1.7,1.8-2c1.1-0.3,2.2,0,2.8,1c0.2,0.3,0.3,1,0.6,1.2
		c0,0,1.1,0,1.1,0c0.2,0,0.3,0,0.5,0c0.9-0.2,2-0.4,2.2-0.4C31.7,40,38.9,40.2,42.2,37.7z M36.6,36.5c-0.8,0.8-2.4,1.2-3.4,0.5
		c-1-0.7-1.2-2.1-0.4-3c0.9-1,2.4-1,3.5-0.3C37.2,34.3,37.4,35.8,36.6,36.5z M39.3,28.8c-0.5,0.5-1.5,0.7-2.1,0.2
		c-0.6-0.5-0.7-1.4-0.2-1.9c0.5-0.6,1.5-0.7,2.1-0.2c0,0,0,0,0.1,0C39.7,27.4,39.8,28.3,39.3,28.8z M35.2,13
		C35.3,13,35.3,13,35.2,13C35.3,13,35.3,13,35.2,13c1.1-0.4,2.5-0.5,3.4,0.4c0.9,0.8,0.7,2.4-0.3,3c-1.1,0.7-3.1,0.7-3.9-0.5
		C33.7,14.9,34.1,13.6,35.2,13z M28,17.4C28,17.4,28,17.3,28,17.4C28.1,17.3,28.1,17.3,28,17.4c0.8-0.3,1.7-0.3,2.2,0.2
		c0.6,0.6,0.5,1.6-0.2,2.1c-0.7,0.4-2,0.4-2.5-0.3C27,18.6,27.2,17.7,28,17.4z M15.7,18.2C15.7,18.2,15.7,18.2,15.7,18.2
		C15.7,18.2,15.7,18.2,15.7,18.2c0.9-0.3,1.9-0.3,2.6,0.3c0.7,0.7,0.5,1.9-0.3,2.4c-0.8,0.5-2.4,0.5-3-0.4
		C14.5,19.7,14.8,18.7,15.7,18.2z M12.1,35.5c-0.7,0.7-2,1-2.8,0.4c-0.8-0.6-0.9-1.8-0.3-2.6c0.7-0.8,2-0.9,2.8-0.3
		C12.7,33.5,12.8,34.8,12.1,35.5z M24.2,31c-0.8,0.8-2.3,1.1-3.2,0.4c-1-0.7-1.1-2.1-0.3-3c0.8-1,2.3-1,3.3-0.3
		C24.9,28.7,25,30.2,24.2,31z M5.6,24.9c-0.5,0-0.5-0.9,0-0.8c7.4,0.1,14.6-0.7,21.9-1.8c5.4-0.8,11-1.3,16.3-2.8
		c0.5-0.1,0.7,0.7,0.2,0.8c-5.4,1.5-11.2,2-16.8,2.8C20,24.3,12.9,25,5.6,24.9z"/>
	<path class="st1" d="M33,40.4c3.5-0.1,7.4,0.3,10.6-1.4c2.1-1.1,2.7-2.9,2.7-5.2c0.1-2.1,0.1-4.3,0.1-6.4c-0.1,0-0.2,0-0.3,0
		c-0.7,3.7-0.8,8-4,10.4c-3.3,2.5-10.5,2.3-14.4,2.4c-0.2,0-1.3,0.2-2.2,0.4c0.4,0,0.7,0,1.1,0C28.7,40.5,30.9,40.5,33,40.4z"/>
	<path class="st1" d="M38.8,27.5c-0.4-0.3-0.9-0.3-1.2,0c-0.3,0.2-0.3,0.6-0.1,0.9c0.3,0.4,0.8,0.3,1.2,0.1
		C39,28.3,39.2,27.7,38.8,27.5z"/>
	<path class="st1" d="M35.7,16.1c0.8,0.3,2.2,0.2,2.7-0.6c0.7-1.1-0.3-1.9-1.3-2.1c-0.6-0.1-1,0-1.6,0.2
		C34.4,14.1,34.4,15.6,35.7,16.1z"/>
	<path class="st1" d="M36,34.3c-0.7-0.5-1.7-0.6-2.5,0c-0.7,0.5-0.8,1.4-0.2,2.1c0.6,0.7,1.8,0.5,2.5,0.1
		C36.5,35.9,36.8,34.8,36,34.3z"/>
	<path class="st1" d="M28.4,19.2c0.5,0.2,1.2,0.1,1.5-0.3c0.4-0.6-0.2-1-0.7-1.1c-0.3-0.1-0.6,0-0.9,0.1
		C27.7,18.2,27.7,19,28.4,19.2z"/>
	<path class="st1" d="M23.6,28.6c-0.7-0.5-1.7-0.6-2.4,0c-0.5,0.5-0.6,1.3-0.2,1.9c0.5,0.9,1.6,0.7,2.4,0.2
		C24.1,30.4,24.4,29.2,23.6,28.6z"/>
	<path class="st1" d="M16.1,20.5c0.6,0.2,1.5,0.1,1.9-0.4c0.5-0.8-0.2-1.3-0.9-1.4c-0.4-0.1-0.7,0-1.1,0.1
		C15.2,19.2,15.2,20.2,16.1,20.5z"/>
	<path class="st1" d="M11.6,33.5c-0.6-0.4-1.4-0.5-2,0c-0.4,0.4-0.5,1-0.2,1.5c0.4,0.7,1.3,0.5,1.9,0.2
		C11.9,34.9,12.2,33.9,11.6,33.5z"/>
	<path class="st2" d="M46.9,26.5c-1.3,0-2.8-0.7-2.6-2.3c0.1-1.2,1.5-1.7,2.6-1.6c0.2,0,0.4-0.2,0.4-0.4c0-1.4,0.2-2.8-0.3-4.1
		c-0.4-0.9-1.1-1.7-1.8-2.4c-1.9-1.9-4.1-3.6-6.4-5c-2.7-1.6-5.6-2.5-8.7-1.8c-0.7,0.1-2.1,0.3-2.4,1c-0.2,0.4,0.1,1-0.1,1.5
		c-0.5,1.4-2.5,1.6-3.5,0.8c-1-0.7-1-0.7-2.2-0.1c-1.7,0.8-3.5,1.7-5.2,2.6c-3.4,1.9-6.8,3.8-10,5.9c-2.3,1.4-3.8,3.1-3.9,5.8
		c-0.2,3.1,0.2,6.3,0.4,9.5C3.2,37.2,3,38.9,3.9,40c0.9,1,2.3,1.2,3.6,1.3c2.2,0,4.5-0.1,6.7-0.1c1,0,1.9,0,2.9,0
		c0.7,0,1.4,0.1,2-0.2c0.2-0.1,0.2-0.2,0.2-0.3c0.3-1,0.7-1.7,1.9-1.6c1.4,0.1,1.1,1.1,1.7,1.8c0.6,0.8,2.5,0.4,3.3,0.4
		c3.9,0.1,8,0,11.9-0.3c2.7-0.2,6.1-0.6,7.9-2.9c0.9-1.2,1.1-2.6,1.1-4.1c0.1-2.4,0.1-4.7,0.1-7.1C47.3,26.7,47.1,26.5,46.9,26.5z
		 M25,40.5c0,0-1,0-1.1,0c-0.3-0.2-0.4-0.8-0.6-1.2c-0.6-1-1.7-1.2-2.8-1c-1.2,0.3-1.5,1-1.8,2c-0.5,0.2-1.5,0-2,0
		c-0.6,0-1.3,0-1.9,0c-1.8,0-3.5,0-5.3,0.1c-1.5,0-3.7,0.4-4.8-0.9c-1-1.1-0.7-3.6-0.8-5.1c-0.1-2.6-0.4-5.2-0.3-7.9
		c0.1-1.4,0.3-2.5,1.3-3.5c1.1-1.2,2.6-2,4-2.8c2.8-1.7,5.5-3.3,8.3-4.9c1.4-0.8,2.8-1.5,4.2-2.2c0.6-0.3,1.3-0.8,2-0.5
		c0.4,0.2,0.7,0.6,1.2,0.7c1.5,0.4,3.6-0.5,3.9-2.1c0.1-0.3-0.1-0.8,0-1.1c0.3-0.4,1.9-0.6,2.3-0.6c1.6-0.3,3.2-0.1,4.8,0.5
		c2.9,1,5.5,3,7.7,5.1c0.8,0.7,1.6,1.5,2.3,2.3c1,1.3,0.9,2.8,0.8,4.4c-1.5,0.1-3,1-3,2.6c-0.1,1.7,1.3,2.8,2.8,3c0.1,0,0.2,0,0.3,0
		c0,2.1,0,4.3-0.1,6.4c-0.1,2.3-0.6,4.1-2.7,5.2c-3.2,1.6-7.1,1.2-10.6,1.4c-2.2,0.1-4.3,0.1-6.5,0.1c-0.4,0-0.7,0-1.1,0
		C25.3,40.5,25.2,40.5,25,40.5z"/>
	<path class="st2" d="M43.8,19.5c-5.3,1.5-10.9,2-16.3,2.8c-7.3,1.1-14.5,1.9-21.9,1.8c-0.5,0-0.5,0.8,0,0.8
		c7.3,0.1,14.5-0.7,21.7-1.8c5.6-0.8,11.3-1.3,16.8-2.8C44.5,20.2,44.3,19.4,43.8,19.5z"/>
	<path class="st2" d="M36.3,33.7C35.3,33,33.7,33,32.8,34c-0.8,0.9-0.6,2.3,0.4,3c1,0.7,2.6,0.3,3.4-0.5
		C37.4,35.8,37.2,34.3,36.3,33.7z M35.8,36.4c-0.7,0.4-1.9,0.7-2.5-0.1c-0.6-0.6-0.5-1.6,0.2-2.1c0.7-0.6,1.7-0.5,2.5,0
		C36.8,34.8,36.5,35.9,35.8,36.4z"/>
	<path class="st2" d="M11.9,33c-0.9-0.6-2.1-0.6-2.8,0.3c-0.7,0.8-0.5,2,0.3,2.6c0.8,0.6,2.1,0.3,2.8-0.4
		C12.8,34.8,12.7,33.5,11.9,33z M11.4,35.2c-0.6,0.4-1.5,0.5-1.9-0.2c-0.3-0.5-0.2-1.1,0.2-1.5c0.6-0.5,1.4-0.4,2,0
		C12.2,33.9,11.9,34.9,11.4,35.2z"/>
	<path class="st2" d="M23.9,28.1c-1-0.7-2.5-0.7-3.3,0.3c-0.8,0.9-0.6,2.3,0.3,3c0.9,0.7,2.4,0.4,3.2-0.4
		C25,30.2,24.9,28.7,23.9,28.1z M23.4,30.8c-0.7,0.4-1.9,0.6-2.4-0.2c-0.4-0.6-0.3-1.4,0.2-1.9c0.7-0.6,1.7-0.6,2.4,0
		C24.4,29.2,24.1,30.4,23.4,30.8z"/>
	<path class="st2" d="M39.2,27C39.1,26.9,39.1,26.9,39.2,27c-0.7-0.5-1.6-0.5-2.2,0.2c-0.5,0.6-0.4,1.5,0.2,1.9
		c0.6,0.5,1.5,0.3,2.1-0.2C39.8,28.3,39.7,27.4,39.2,27z M38.6,28.5c-0.4,0.2-0.9,0.3-1.2-0.1c-0.2-0.3-0.1-0.7,0.1-0.9
		c0.4-0.3,0.9-0.3,1.2,0C39.2,27.7,39,28.3,38.6,28.5z"/>
	<path class="st2" d="M18,20.8c0.8-0.5,1-1.7,0.3-2.4c-0.7-0.6-1.7-0.6-2.5-0.3c0,0,0,0,0,0c0,0,0,0-0.1,0c-0.9,0.4-1.2,1.4-0.6,2.3
		C15.7,21.4,17.2,21.4,18,20.8z M16,18.8c0.4-0.1,0.7-0.2,1.1-0.1c0.7,0.1,1.4,0.6,0.9,1.4c-0.4,0.6-1.3,0.6-1.9,0.4
		C15.2,20.2,15.2,19.2,16,18.8z"/>
	<path class="st2" d="M38.3,16.4c1-0.6,1.3-2.2,0.3-3c-0.9-0.8-2.3-0.8-3.3-0.4c0,0,0,0,0,0c0,0,0,0-0.1,0c-1.1,0.6-1.6,1.9-0.8,2.9
		C35.2,17.1,37.3,17,38.3,16.4z M35.5,13.6c0.5-0.2,1-0.3,1.6-0.2c1,0.2,2,0.9,1.3,2.1c-0.5,0.8-1.8,0.9-2.7,0.6
		C34.4,15.6,34.4,14.1,35.5,13.6z"/>
	<path class="st2" d="M30,19.6c0.7-0.4,0.9-1.5,0.2-2.1c-0.6-0.5-1.5-0.5-2.2-0.3c0,0,0,0,0,0c0,0,0,0-0.1,0c-0.8,0.4-1,1.3-0.5,2
		C28,20.1,29.3,20.1,30,19.6z M28.3,17.9c0.3-0.1,0.6-0.2,0.9-0.1c0.5,0.1,1.1,0.5,0.7,1.1c-0.3,0.4-1.1,0.5-1.5,0.3
		C27.7,19,27.7,18.2,28.3,17.9z"/>
</g>
</svg>
