<?xml version="1.0" encoding="utf-8"?>
<!-- Generator: Adobe Illustrator 25.3.1, SVG Export Plug-In . SVG Version: 6.00 Build 0)  -->
<svg version="1.1" id="圖層_1" xmlns="http://www.w3.org/2000/svg" xmlns:xlink="http://www.w3.org/1999/xlink" x="0px" y="0px"
	 viewBox="0 0 50 50" style="enable-background:new 0 0 50 50;" xml:space="preserve">
<style type="text/css">
	.st0{fill:#FFFFFF;}
	.st1{fill:#D69C63;}
	.st2{fill:#534741;}
</style>
<g>
	<path class="st0" d="M45.8,5.6c-1.1-2.7-5.6-3.7-6.3-0.2c-0.1,0.5-1,0.7-1.1,0c-0.1-2.3-2-4.2-4.4-3.7c-1.4,0.3-2.6,1.4-2.6,2.9
		c0,1.4,1,2.1,2.1,2.8c0.2,0.2,0.3,0.5,0.1,0.7c-0.9,1.2-1.6,2.5-2.4,3.8c1.7,0.5,2.9,1.4,4,2.7c1-1.4,2-2.9,3.1-4.2
		c0.6-0.8,1.2-1.9,2.3-1.5C41.2,9,41.5,9.4,42,9.6c0.6,0.2,1.3,0.1,1.9-0.1C45.5,8.8,46.4,7.3,45.8,5.6z"/>
	<path class="st1" d="M35.7,17.4c-0.2-1-0.9-1.7-1.5-2.4c-1.4-1.7-3.9-2.7-6.1-2.3c-1.9,0.4-3.2,1.9-4.6,3.2
		c-1.2,1.1-2.4,2.1-3.9,2.8C14.3,20.8,8,24,5.7,29.6c-1.4,3.5-2.3,7.9-1.5,11.6c0.8,4,3.9,6.4,7.8,7c3.3,0.4,6.4-0.1,9.5-1.4
		c2.9-1.2,5.2-4,7.1-6.5c2.3-3,3.1-6.7,3.7-10.3c0.3-1.6,0.7-3.2,1.2-4.8c0.6-1.8,1.7-3.3,2-5.2C35.7,19.2,35.8,18.3,35.7,17.4z
		 M9,38.1C9,38.8,8,38.7,8,38c0-2,0.5-4,1.6-5.7c0.4-0.6,1.2,0,0.9,0.6C9.4,34.5,9,36.3,9,38.1z M12.8,35.8c-0.5,0.6-1,1.3-1.2,2
		c-0.2,0.6-1.2,0.3-1-0.4c0.3-0.8,0.7-1.6,1.3-2.3c0.2-0.2,0.5-0.3,0.7-0.1C12.9,35.2,13,35.6,12.8,35.8z"/>
	<path class="st2" d="M39.1,3.6c-1-2.4-3.7-3.8-6.4-2.6c-1.3,0.6-2.6,2-2.6,3.5c0,1.5,1.2,2.6,2.3,3.4c-0.7,1.2-1.5,2.5-2.3,3.7
		c-4.8-0.7-7,4.3-11,6.1c-5.4,2.2-11.7,5.5-14.2,11.2C2.1,35,1.1,46.1,9.3,48.7c3.3,1,6.9,1,10.2,0c1.6-0.5,3.3-1.1,4.7-2.1
		c1.4-1.1,2.7-2.6,3.9-3.9c2.7-3,4.2-6.5,5-10.4c0.4-2.1,0.7-4.1,1.4-6.1c0.7-2,1.9-3.8,2.3-6c0.3-1.7,0.3-3.2-0.6-4.6
		c0.8-1.2,1.6-2.4,2.5-3.6c0.3-0.4,1.2-1.8,1.7-1.9c0.4-0.1,1,0.4,1.5,0.6c2.2,0.6,4.9-0.9,5.4-3.1C48,2.8,41.4,0.3,39.1,3.6z
		 M42,9.6c-0.5-0.1-0.8-0.6-1.2-0.7c-1.1-0.4-1.7,0.8-2.3,1.5c-1.1,1.4-2.1,2.8-3.1,4.2c-1.1-1.3-2.3-2.2-4-2.7
		c0.8-1.3,1.5-2.6,2.4-3.8c0.2-0.2,0.1-0.6-0.1-0.7c-1.1-0.7-2.1-1.4-2.1-2.8c0-1.5,1.2-2.6,2.6-2.9c2.4-0.5,4.3,1.4,4.4,3.7
		c0,0.6,0.9,0.5,1.1,0c0.7-3.6,5.2-2.6,6.3,0.2c0.7,1.7-0.3,3.3-1.9,3.9C43.2,9.7,42.6,9.8,42,9.6z M32.3,30
		c-0.7,3.6-1.4,7.3-3.7,10.3c-1.9,2.5-4.2,5.2-7.1,6.5c-3.1,1.3-6.2,1.8-9.5,1.4c-3.9-0.5-7-3-7.8-7c-0.8-3.7,0.1-8.1,1.5-11.6
		c2.3-5.6,8.6-8.8,13.9-11c1.5-0.7,2.7-1.7,3.9-2.8c1.3-1.3,2.7-2.8,4.6-3.2c2.2-0.4,4.7,0.6,6.1,2.3c0.6,0.7,1.3,1.5,1.5,2.4
		c0.1,0.8,0,1.8-0.2,2.6c-0.3,1.9-1.4,3.4-2,5.2C33,26.7,32.6,28.4,32.3,30z"/>
	<path class="st2" d="M9.5,32.3C8.5,34.1,7.9,36,8,38C8,38.7,9,38.8,9,38.1c0-1.9,0.4-3.6,1.4-5.2C10.8,32.4,9.9,31.7,9.5,32.3z"/>
	<path class="st2" d="M11.9,35.2c-0.6,0.7-1.1,1.4-1.3,2.3c-0.2,0.6,0.8,1,1,0.4c0.3-0.8,0.7-1.4,1.2-2c0.2-0.2,0.1-0.6-0.1-0.7
		C12.4,34.9,12.1,35,11.9,35.2z"/>
</g>
</svg>
