<?xml version="1.0" encoding="utf-8"?>
<!-- Generator: Adobe Illustrator 25.3.1, SVG Export Plug-In . SVG Version: 6.00 Build 0)  -->
<svg version="1.1" id="圖層_1" xmlns="http://www.w3.org/2000/svg" xmlns:xlink="http://www.w3.org/1999/xlink" x="0px" y="0px"
	 viewBox="0 0 50 50" style="enable-background:new 0 0 50 50;" xml:space="preserve">
<style type="text/css">
	.st0{fill:#F9D93D;}
	.st1{fill:#DD6043;}
	.st2{fill:#FFDFB8;}
	.st3{fill:#534741;}
</style>
<g>
	<path class="st0" d="M34.5,11c-0.3,2.2-0.7,4.4-1.2,6.6c0.9,0,1.8-0.1,2.7-0.1c0.5-3.4,0.8-6.8,1.4-10.2c0.1-0.6,0.2-1.3,0.4-1.9
		c-0.1-0.7-0.3-1.7-1-1.9c-0.6-0.2-1.7,0-2.3,0.1c-0.9,0.2-1.2,0.6-1.3,1.5c0,0.7,0.1,1.3,0.3,2c0,0,0,0,0,0c0,0,0.1,0,0.1,0.1
		C35.3,7.8,34.7,9.5,34.5,11z"/>
	<path class="st0" d="M14.9,4.8c0.1,0.7,0.1,1.3,0.1,2c0.9,0,1.6,0.3,1.9,1.5c0.8,3,1.1,6.3,1.7,9.4c0,0.1,0,0.1,0,0.2
		c0.4,0,0.7,0,1.1,0c0-3.3,0.1-6.7,0.1-10c0-0.8-0.1-1.6,0.5-2.2c0.3-0.2,0.6-0.4,1-0.5c-0.1-1.1,0-2.3-1.4-2.4
		C19,2.7,17.9,2.9,17,3C15.8,3.2,14.8,3.4,14.9,4.8z"/>
	<path class="st0" d="M26.6,7.7c0.1,1.1,0.2,2.3,0.2,3.4c0.5,0,1.1,0,1.7,0.1c0.2-1.2,0.5-2.5,0.7-3.7c0.1-0.4,0.1-1,0.5-1.2
		c0-0.8,0.2-1.6,0.1-2.4c0-0.6-0.1-0.8-0.7-1c-0.4-0.1-0.9-0.1-1.3-0.1c-0.6,0-2-0.1-2.5,0.3c-0.6,0.4-0.3,1.6-0.2,2.3
		c0.3,0.1,0.5,0.2,0.7,0.3C26.5,6.3,26.5,6.9,26.6,7.7z"/>
	<path class="st0" d="M12.6,17.8c-0.3-1.5-0.6-3-0.9-4.4c-0.3-1.5-0.9-3.2-1-4.7c-0.1-1.3,0.7-1.6,1.7-1.7c-0.2-1-0.2-2.3-1.3-2.6
		C10.6,4.2,9.4,4.5,9,4.6C8.1,4.8,7.3,5.4,7,6.3C6.8,6.8,7.1,7.9,7.2,8.5c0.3,3.1,0.7,6.2,1,9.2c0,0.1,0,0.1,0,0.1
		C9.7,17.8,11.1,17.8,12.6,17.8z"/>
	<path class="st0" d="M21.8,5.9c-0.5,0.1-0.9,0.4-1.2,0.9c-0.2,0.4,0,1.3,0,1.7c0,1,0,2,0,3.1c0,2.1-0.1,4.2-0.1,6.2
		c1.7,0,3.4,0,5.1-0.1c0.2-2.2,0.3-4.4,0.3-6.7c0-1,0.1-2.4-0.2-3.4C25.4,6.2,24.4,6,23,5.9C22.7,5.9,22.3,5.9,21.8,5.9
		C21.9,5.9,21.9,5.9,21.8,5.9z"/>
	<path class="st0" d="M29.4,17.6c0.2-1.2,0.4-2.3,0.5-3.5c0.1-0.9-0.1-1.7-1.1-2C28.1,12,27.4,12,26.8,12c0,1.9-0.1,3.9-0.3,5.8
		C27.4,17.7,28.4,17.7,29.4,17.6C29.4,17.7,29.4,17.7,29.4,17.6z"/>
	<path class="st0" d="M37.8,10.8c-0.3,2.2-0.6,4.4-0.9,6.6c1.3-0.1,2.8-0.3,4.2-0.3c0.6-2.5,1-5.1,1.3-7.7c0.1-1,0.5-2.3,0.3-3.3
		C42.5,5,41.3,3.9,40,4.3C37.9,4.8,38,9.2,37.8,10.8z"/>
	<path class="st0" d="M29.9,7.8c-0.5,0.9-0.6,2.6-0.7,3.7c0.6,0.2,1.2,0.6,1.4,1.2c0.2,0.7,0.1,1.4,0,2.1c-0.1,1-0.3,2-0.4,3
		c0.8,0,1.6,0,2.3-0.1c0,0,0,0,0,0c0.3-1.3,0.6-2.7,0.8-4c0.2-1.3,0.7-2.9,0.6-4.3C33.8,8,31,6.1,29.9,7.8z"/>
	<path class="st0" d="M11.7,9.5c0,0.8,0.4,1.9,0.6,2.7c0.4,1.9,0.8,3.8,1.2,5.7c0.7,0,1.4,0,2.1,0c0.8,0,1.6,0,2.4,0
		c-0.4-2-0.7-4-1.1-6c-0.2-0.9-0.3-1.8-0.5-2.7c-0.2-1.2-0.6-1.4-1.8-1.5C13,7.6,11.7,7.7,11.7,9.5z"/>
	<path class="st1" d="M43.9,20.4c0-0.2,0.1-1-0.1-1.3c-0.5-0.9-1.7-0.7-2.5-0.7c-1.1-0.1-2.2,0-3.3,0.1c-7.7,0.4-15.4,0.6-23.1,0.5
		c-2.1,0-4.3-0.1-6.4,0c-1.1,0-2.3-0.3-2.4,1.2c-0.1,0.9,0.2,1.9,0.3,2.7C6.8,26.9,7.2,31,8,35.1c0.3,1.8,0.7,3.7,1.2,5.5
		c0.5,1.9,0.8,5,2.6,6.1c1.6,1,4.7,0.4,6.6,0.3c1.7-0.1,3.5-0.1,5.2-0.2c3.7-0.1,7.5-0.2,11.3-0.1c0.9,0,2,0.1,2.9-0.2
		c1.2-0.4,2.1-1.4,2.7-2.4c0.9-1.5,0.9-3.4,1.2-5.1c0.5-3.9,1.3-7.7,1.8-11.6C43.7,25,43.9,22.7,43.9,20.4z M10.1,21.9
		c-0.4,1.1-0.6,2.3-0.8,3.5c-0.1,0.5-0.9,0.3-0.8-0.2c0.2-1.2,0.4-2.4,0.8-3.5C9.5,21.2,10.2,21.4,10.1,21.9z M12.1,24
		c-0.3,0.5-0.5,1-0.9,1.5c-0.3,0.4-1,0-0.7-0.4c0.3-0.5,0.5-1,0.9-1.5C11.7,23.2,12.4,23.6,12.1,24z M33.7,37.4
		c-1.1,1-2.7,1.4-4.1,1.7c-2,0.5-3.8,0.5-5.9,0.4c-1.8-0.1-3.6,0-5.3-0.8c-1.3-0.6-2.8-1.3-3.6-2.5c-1.2-1.8-1.4-3.8-0.8-5.8
		c1.3-4.2,6.9-5.2,10.7-5.2C29,25.3,36,27,35.9,32.3C35.9,34.3,35.2,36.1,33.7,37.4z"/>
	<path class="st2" d="M32,27.7c-2.1-1.3-4.7-1.7-7.1-1.7c-2.6,0-5.1,0.5-7.4,1.7C15,29,13.8,32.2,15,34.9c1.8,3.8,6.5,3.8,10,4
		c3.2,0.1,7.8-0.5,9.4-3.6C36.1,32.2,34.6,29.4,32,27.7z"/>
	<path class="st3" d="M43.9,17.6c-0.6-0.3-1.3-0.4-2-0.4c0.7-3.2,1.2-6.4,1.5-9.7c0.1-0.9,0.4-2.3-0.3-3.1c-0.6-0.7-1.7-0.7-2.6-0.8
		c-0.8-0.1-1.4-0.4-2,0.3c0,0.1-0.1,0.1-0.1,0.2c-0.1-0.5-0.3-1-0.6-1.2c-0.7-0.6-2.5-0.2-3.3-0.1c-0.8,0.1-1.7,0.4-2,1.3
		c-0.2,0.7-0.1,1.7,0.1,2.6c-0.7-0.3-1.5-0.5-2.2-0.5c0-0.6,0.1-1.3,0.1-1.9c0-0.4,0.1-1-0.2-1.4C29.9,2,28.4,2,27.6,2
		c-0.8,0-2.5,0-3.1,0.7c-0.5,0.5-0.3,1.7-0.2,2.5c-0.5-0.1-1.1-0.2-1.5-0.2c-0.2,0-0.5,0-0.7,0c-0.1-1-0.1-2.3-0.8-2.8
		c-0.9-0.7-2.7-0.2-3.7-0.1c-0.9,0.1-2.6,0.1-3.3,0.9C14.1,3.3,14,3.7,14,4.1c0,0.9,0.3,1.8,0.3,2.8c-0.3,0-0.7,0.1-1,0.1
		c0,0,0,0,0,0c-0.1-0.7-0.2-2.5-0.8-3c-0.4-0.3-0.9-0.3-1.4-0.3c-1.3,0-3.3,0.1-4.3,1.1C5.6,5.8,6.3,8.1,6.5,9.5
		c0.3,2.7,0.6,5.5,0.9,8.2c0,0.1,0,0.1,0.1,0.2c-1.1,0-2.1,0.2-2.4,1.4c-0.2,0.8,0,1.8,0.1,2.6c0.1,1.4,0.3,2.9,0.5,4.3
		c0.2,2.1,0.5,4.3,0.8,6.4C6.9,35,7.4,37.5,8,40c0.5,2.1,0.9,4.9,2.3,6.7c1.4,1.7,3.6,1.4,5.6,1.4c2.6-0.1,5.2-0.2,7.8-0.3
		c4-0.1,8-0.2,12-0.1c1.7,0,3.1-0.2,4.4-1.4c1.1-1.1,2-2.5,2.3-4.1c0.8-4.3,1.4-8.8,2-13.2c0.3-2.3,0.6-4.7,0.7-7
		C44.9,20.8,45.4,18.3,43.9,17.6z M40.4,44c-0.6,1-1.5,2.1-2.7,2.4c-0.9,0.3-1.9,0.2-2.9,0.2c-3.7-0.1-7.5,0-11.3,0.1
		c-1.7,0.1-3.5,0.1-5.2,0.2c-1.9,0.1-5,0.7-6.6-0.3c-1.8-1.1-2.1-4.2-2.6-6.1c-0.5-1.8-0.9-3.6-1.2-5.5C7.2,31,6.8,26.9,6.3,22.8
		c-0.1-0.9-0.4-1.9-0.3-2.7c0.2-1.4,1.3-1.2,2.4-1.2c2.1-0.1,4.3-0.1,6.4,0c7.7,0.1,15.4-0.1,23.1-0.5c1.1-0.1,2.2-0.1,3.3-0.1
		c0.8,0,2-0.1,2.5,0.7c0.1,0.3,0.1,1.1,0.1,1.3c0,2.3-0.2,4.6-0.5,6.8c-0.5,3.9-1.3,7.7-1.8,11.6C41.4,40.6,41.4,42.5,40.4,44z
		 M8.2,17.7c-0.4-3.1-0.7-6.2-1-9.2C7.1,7.9,6.8,6.8,7,6.3c0.3-0.9,1.1-1.5,2-1.7c0.4-0.1,1.6-0.4,2.1-0.2C12.3,4.7,12.3,6,12.4,7
		c-1,0.1-1.8,0.4-1.7,1.7c0.1,1.5,0.7,3.2,1,4.7c0.3,1.5,0.6,3,0.9,4.4c-1.5,0-2.9,0-4.4,0.1C8.2,17.8,8.2,17.7,8.2,17.7z M19.8,2.7
		c1.4,0.2,1.4,1.3,1.4,2.4c-0.4,0.1-0.7,0.2-1,0.5c-0.6,0.6-0.5,1.4-0.5,2.2c0,3.3-0.1,6.7-0.1,10c-0.4,0-0.7,0-1.1,0
		c0-0.1,0-0.1,0-0.2c-0.6-3.1-0.9-6.3-1.7-9.4c-0.3-1.2-1-1.4-1.9-1.5c0-0.7,0-1.3-0.1-2C14.8,3.4,15.8,3.2,17,3
		C17.9,2.9,19,2.7,19.8,2.7z M25.4,3.2c0.5-0.4,1.9-0.3,2.5-0.3c0.4,0,0.9,0,1.3,0.1c0.6,0.2,0.6,0.4,0.7,1c0.1,0.8-0.1,1.6-0.1,2.4
		c-0.3,0.3-0.4,0.9-0.5,1.2c-0.3,1.2-0.5,2.5-0.7,3.7c-0.6-0.1-1.2-0.1-1.7-0.1c0-1.1-0.1-2.3-0.2-3.4c-0.1-0.8-0.1-1.4-0.8-1.9
		c-0.2-0.1-0.4-0.2-0.7-0.3C25,4.7,24.8,3.6,25.4,3.2z M33.5,7c-0.2-0.6-0.3-1.3-0.3-2c0-0.9,0.4-1.3,1.3-1.5
		c0.6-0.1,1.7-0.3,2.3-0.1c0.7,0.2,1,1.2,1,1.9c-0.2,0.7-0.3,1.4-0.4,1.9c-0.6,3.4-1,6.8-1.4,10.2c-0.9,0.1-1.8,0.1-2.7,0.1
		c0.5-2.2,0.9-4.4,1.2-6.6c0.2-1.5,0.8-3.2-0.8-3.9C33.6,7,33.6,7,33.5,7C33.5,7,33.5,7,33.5,7z M42.7,6.1c0.2,1-0.2,2.3-0.3,3.3
		c-0.3,2.6-0.7,5.1-1.3,7.7c-1.4,0-2.9,0.2-4.2,0.3c0.3-2.2,0.6-4.4,0.9-6.6C38,9.2,37.9,4.8,40,4.3C41.3,3.9,42.5,5,42.7,6.1z
		 M14.5,7.7c1.2,0.1,1.6,0.3,1.8,1.5c0.2,0.9,0.3,1.8,0.5,2.7c0.4,2,0.7,4,1.1,6c-0.8,0-1.6,0-2.4,0c-0.7,0-1.4,0-2.1,0
		c-0.4-1.9-0.8-3.8-1.2-5.7c-0.2-0.8-0.6-1.9-0.6-2.7C11.7,7.7,13,7.6,14.5,7.7z M26.8,12c0.7,0,1.4,0,2.1,0.2c1,0.3,1.2,1.1,1.1,2
		c-0.1,1.2-0.3,2.3-0.5,3.5c0,0,0,0,0,0c-1,0-1.9,0-2.9,0.1C26.7,15.8,26.8,13.9,26.8,12z M33.9,9.3c0.1,1.3-0.4,2.9-0.6,4.3
		c-0.2,1.3-0.5,2.7-0.8,4c0,0,0,0,0,0c-0.8,0-1.6,0-2.3,0.1c0.1-1,0.3-2,0.4-3c0.1-0.7,0.3-1.4,0-2.1c-0.2-0.6-0.8-1-1.4-1.2
		c0.2-1.1,0.2-2.8,0.7-3.7C31,6.1,33.8,8,33.9,9.3z M23,5.9c1.4,0.1,2.3,0.4,2.7,1.8c0.3,1,0.2,2.4,0.2,3.4c0,2.2-0.1,4.4-0.3,6.7
		c-1.7,0-3.4,0.1-5.1,0.1c0-2.1,0.1-4.2,0.1-6.2c0-1,0-2,0-3.1c0-0.4-0.2-1.3,0-1.7c0.2-0.5,0.7-0.8,1.2-0.9c0,0,0.1,0,0.1,0
		C22.3,5.9,22.7,5.9,23,5.9z"/>
	<path class="st3" d="M9.3,21.6c-0.4,1.1-0.6,2.3-0.8,3.5c-0.1,0.5,0.7,0.7,0.8,0.2c0.2-1.2,0.4-2.4,0.8-3.5
		C10.2,21.4,9.5,21.2,9.3,21.6z"/>
	<path class="st3" d="M11.4,23.6c-0.3,0.5-0.5,1-0.9,1.5c-0.3,0.4,0.4,0.8,0.7,0.4c0.3-0.5,0.5-1,0.9-1.5
		C12.4,23.6,11.7,23.2,11.4,23.6z"/>
	<path class="st3" d="M24.9,25.2c-3.8,0-9.5,1.1-10.7,5.2c-0.6,2-0.4,4,0.8,5.8c0.8,1.3,2.3,1.9,3.6,2.5c1.7,0.8,3.4,0.8,5.3,0.8
		c2.1,0.1,3.9,0,5.9-0.4c1.4-0.3,3-0.7,4.1-1.7c1.4-1.3,2.2-3.1,2.2-5.1C36,27,29,25.3,24.9,25.2z M34.5,35.2
		c-1.7,3.2-6.2,3.7-9.4,3.6c-3.6-0.1-8.3-0.2-10-4c-1.2-2.6-0.1-5.9,2.5-7.2c2.3-1.2,4.8-1.7,7.4-1.7c2.4,0.1,5,0.4,7.1,1.7
		C34.6,29.4,36.1,32.2,34.5,35.2z"/>
</g>
</svg>
