<?xml version="1.0" encoding="utf-8"?>
<!-- Generator: Adobe Illustrator 25.3.1, SVG Export Plug-In . SVG Version: 6.00 Build 0)  -->
<svg version="1.1" id="圖層_1" xmlns="http://www.w3.org/2000/svg" xmlns:xlink="http://www.w3.org/1999/xlink" x="0px" y="0px"
	 viewBox="0 0 50 50" style="enable-background:new 0 0 50 50;" xml:space="preserve">
<style type="text/css">
	.st0{fill:#D69C63;}
	.st1{fill:#DEAB71;}
	.st2{fill:#FFDFB8;}
	.st3{fill:#534741;}
</style>
<g>
	<path class="st0" d="M18.2,27.4c-0.4-2.6-0.7-5.3-1-7.9c-0.2-1.8-0.7-4.4-0.2-6.2c-2.3-0.8-5.8,0.9-7.6,2.2c-1,0.7-2.4,1.8-2.4,3.2
		c0,1.4,1,3,1.6,4.3c1.1,2.4,2.4,4.7,3.9,6.9c1.8-0.8,3.8-1.4,5.7-1.9C18.3,27.7,18.2,27.6,18.2,27.4z"/>
	<path class="st0" d="M38.6,30.3c1.2-1.7,2.3-3.3,3.4-5.1c0.7-1.3,1.7-2.7,2-4.1c0.4-1.8-0.1-3.1-1.4-4.3c-1-0.9-2.2-1.5-3.3-2.1
		c-1-0.5-2.7-1.8-3.9-1.3c0,0.2,0,0.5,0,0.7c0,3.3-0.8,6.6-1.4,9.8c-0.3,1.4-0.6,2.8-1,4.2c0.7,0.2,1.3,0.3,2,0.5
		C36.2,29,37.5,29.5,38.6,30.3z"/>
	<path class="st1" d="M44.3,23.2c-0.3,0.5-0.5,1-0.8,1.5c-1.1,2-2.3,3.8-3.6,5.6c-0.1,0.2-0.3,0.4-0.4,0.6c0.8,0.7,1.5,1.4,2,2.3
		c1.3,2.2,0.9,4.5,0.3,6.7c0.2,0.1,0.6,0,1-0.2c0.5-0.2,1.1-1.1,1.4-1.6c1.7-2.2,2.6-4.9,2.7-7.7C46.9,28.3,46.2,24.8,44.3,23.2z"/>
	<path class="st1" d="M11.5,30.2c-1.8-2.7-3.3-5.7-4.5-8.5c-0.1-0.2-0.2-0.5-0.3-0.7c-1.4,1.4-2.2,3.4-2.9,5.3
		c-1,2.6-0.9,5.1-0.1,7.7c0.4,1.1,0.8,3.2,1.8,4c0.3,0.3,0.6,0.4,0.9,0.4C7.4,35.2,8.6,31.8,11.5,30.2z"/>
	<path class="st0" d="M27.6,27.2c1.7,0.1,3,0.3,4.4,0.6c0.3-1,0.5-1.9,0.7-2.9c0.7-3.2,1.5-6.6,1.7-9.9c0-0.5,0.1-1.1,0-1.7
		c-0.1-0.1-0.1-0.3,0-0.4c0-0.3-0.1-0.5-0.2-0.7c-0.4-1.1-1.2-1.4-2.1-1.7c-1.6-0.6-3.4-0.8-5.1-0.7c-2.7,0.1-7.3,0.5-8.7,3.3
		c-0.6,1.2-0.2,2.9-0.1,4.2c0.1,1.1,0.2,2.1,0.3,3.2c0.2,2.4,0.5,4.7,0.9,7.1c0,0.1,0,0.1,0,0.2c0.1,0,0.2,0,0.3-0.1
		C22.2,27.2,24.8,27.1,27.6,27.2z M23.4,15.9c0.2,0.2,0.2,0.6,0,0.7c-0.2,0.2-0.5,0.4-0.7,0.6c-0.2,0.2-0.5,0.2-0.7,0
		c-0.2-0.2-0.2-0.6,0-0.7c0.2-0.2,0.5-0.4,0.7-0.6C22.9,15.7,23.2,15.6,23.4,15.9z M20.4,15.9c0.4-0.7,0.9-1.4,1.4-2
		c0.4-0.5,1.1,0.2,0.7,0.7c-0.5,0.6-0.9,1.2-1.3,1.8C20.9,16.9,20,16.4,20.4,15.9z"/>
	<path class="st2" d="M41.5,33.3c-0.5-0.9-1.2-1.6-2-2.3c-0.5,0.7-0.9,1.6-1.5,2.3c1.2,0.7,2.2,1.4,2.7,2.8c0.3,0.8,0.3,1.6,0.4,2.4
		c0.1,0.6,0.1,1.4,0.7,1.5C42.3,37.8,42.8,35.5,41.5,33.3z"/>
	<path class="st2" d="M16.2,33.3c1.1-0.1,2.2-0.6,3-1.3c-0.6-1.2-0.7-2.7-0.9-4c-2,0.4-3.9,1.1-5.7,1.9c0.1,0.2,0.2,0.4,0.4,0.6
		C13.7,31.5,14.6,33.4,16.2,33.3z"/>
	<path class="st2" d="M31.3,29.9c0.3-0.7,0.5-1.4,0.7-2.1c-1.4-0.3-2.7-0.5-4.4-0.6c-2.7-0.1-5.3,0-8,0.4c-0.1,0-0.2,0-0.3,0.1
		c0.2,1.3,0.3,2.9,1,4c1.4,1.5,5.1,1.1,6.9,0.9C29.1,32.5,30.5,31.8,31.3,29.9z"/>
	<path class="st2" d="M11.5,30.2c-2.9,1.5-4.1,4.9-5,8.1c1.3,0,2.2-2.1,2.7-2.8c1-1.4,2.2-2.4,3.7-3.2C12.5,31.6,12,30.9,11.5,30.2z
		"/>
	<path class="st2" d="M37.6,31.8c0.4-0.5,0.7-1,1-1.5c-1.1-0.8-2.4-1.4-3.7-1.7c-0.7-0.2-1.4-0.4-2-0.5c-0.1,0.3-0.2,0.6-0.3,0.9
		c-0.4,1.1-0.7,2.4-1.5,3.3c0.6,0.6,1.6,0.9,2.4,1.3c1,0.4,2,0.8,2.9-0.1C36.9,33,37.2,32.3,37.6,31.8z"/>
	<path class="st3" d="M47.9,29.7c-0.1-2.4-1.1-5.8-3.2-7.4c0.4-0.9,0.6-1.8,0.6-2.7c-0.1-1.5-1.2-2.9-2.3-3.8
		c-1.3-1.1-3-1.8-4.5-2.6c-1-0.5-2.1-1.1-3.2-0.8c-0.1-0.5-0.2-1.1-0.6-1.5c-0.7-0.9-1.9-1.2-3-1.5c-2.7-0.8-5.7-0.7-8.4-0.2
		c-2.1,0.4-4.7,1.3-5.9,3.2c-2.7-0.9-6.4,0.7-8.5,2.2c-1,0.7-2.2,1.7-2.7,3C6,18.3,6.1,19.2,6.3,20c0,0,0,0,0,0
		c-1.8,1.7-2.9,4.2-3.7,6.5c-1.1,3.3-0.5,6.3,0.7,9.5c0.7,1.8,2,4.2,4.3,2.9c1.1-0.6,1.6-1.8,2.3-2.8c1-1.4,2.1-2.4,3.6-3.1
		c0,0,0.1,0.1,0.1,0.1c1.7,2,4.4,1.1,6.1-0.4c1.2,0.9,3.3,1,4.7,1c1.7,0.1,4.2,0.1,5.8-0.9c0.7,0.8,1.8,1.1,2.9,1.6
		c1.1,0.5,2.4,0.9,3.5,0.1c0.2-0.1,0.4-0.3,0.6-0.5c1.3,0.8,2.4,1.5,2.6,3.3c0.1,1,0,2.1,0.5,3c1.5,2.4,3.8-0.4,4.8-1.7
		C47.1,36,48,32.8,47.9,29.7z M46.9,30.6c-0.1,2.8-1,5.4-2.7,7.7c-0.3,0.4-0.9,1.3-1.4,1.6c-0.5,0.2-0.8,0.2-1,0.2
		c-0.6-0.1-0.6-0.9-0.7-1.5c-0.1-0.8-0.1-1.6-0.4-2.4c-0.5-1.4-1.5-2.1-2.7-2.8c0.5-0.7,1-1.6,1.5-2.3c0.1-0.2,0.3-0.4,0.4-0.6
		c1.3-1.8,2.5-3.7,3.6-5.6c0.3-0.5,0.5-1,0.8-1.5C46.2,24.8,46.9,28.3,46.9,30.6z M33.5,33.5c-0.8-0.4-1.8-0.6-2.4-1.3
		c0.8-0.9,1.2-2.2,1.5-3.3c0.1-0.3,0.2-0.6,0.3-0.9c0.4-1.4,0.7-2.8,1-4.2c0.7-3.2,1.5-6.5,1.4-9.8c0-0.2,0-0.4,0-0.7
		c1.2-0.4,2.9,0.8,3.9,1.3c1.2,0.6,2.4,1.2,3.3,2.1c1.3,1.2,1.8,2.6,1.4,4.3c-0.4,1.4-1.3,2.9-2,4.1c-1,1.8-2.2,3.4-3.4,5.1
		c-0.3,0.5-0.7,1-1,1.5c-0.4,0.5-0.7,1.2-1.1,1.6C35.5,34.3,34.5,33.9,33.5,33.5z M9.2,35.5c-0.6,0.8-1.4,2.9-2.7,2.8
		c-0.3,0-0.6-0.1-0.9-0.4c-1-0.8-1.5-2.8-1.8-4c-0.8-2.6-0.9-5.1,0.1-7.7c0.7-1.9,1.5-3.8,2.9-5.3c0.1,0.2,0.2,0.5,0.3,0.7
		c1.2,2.9,2.7,5.9,4.5,8.5c0.5,0.7,0.9,1.4,1.4,2C11.5,33,10.2,34.1,9.2,35.5z M12.9,30.3c-0.1-0.2-0.2-0.4-0.4-0.6
		c-1.5-2.2-2.8-4.5-3.9-6.9c-0.6-1.2-1.5-2.8-1.6-4.3c0-1.4,1.3-2.4,2.4-3.2c1.8-1.3,5.2-2.9,7.6-2.2c-0.5,1.9,0,4.4,0.2,6.2
		c0.2,2.6,0.5,5.3,1,7.9c0,0.2,0.1,0.4,0.1,0.5c0.2,1.3,0.3,2.9,0.9,4c-0.8,0.7-1.9,1.3-3,1.3C14.6,33.4,13.7,31.5,12.9,30.3z
		 M20.2,31.7c-0.7-1.1-0.8-2.8-1-4c0-0.1,0-0.1,0-0.2c-0.4-2.4-0.7-4.7-0.9-7.1c-0.1-1.1-0.2-2.1-0.3-3.2c-0.1-1.3-0.5-3,0.1-4.2
		c1.4-2.8,6.1-3.2,8.7-3.3c1.7,0,3.5,0.1,5.1,0.7c0.9,0.3,1.8,0.6,2.1,1.7c0.1,0.2,0.1,0.5,0.2,0.7c0,0.1,0,0.3,0,0.4
		c0,0.6,0,1.2,0,1.7c-0.1,3.3-0.9,6.7-1.7,9.9c-0.2,1-0.5,2-0.7,2.9c-0.2,0.7-0.4,1.4-0.7,2.1c-0.7,2-2.2,2.6-4.2,2.8
		C25.3,32.8,21.6,33.2,20.2,31.7z"/>
	<path class="st3" d="M21.3,16.4c0.4-0.6,0.8-1.2,1.3-1.8c0.4-0.5-0.3-1.2-0.7-0.7c-0.5,0.6-1,1.3-1.4,2
		C20,16.4,20.9,16.9,21.3,16.4z"/>
	<path class="st3" d="M21.9,16.4c-0.2,0.2-0.2,0.5,0,0.7c0.2,0.2,0.5,0.2,0.7,0c0.2-0.2,0.5-0.4,0.7-0.6c0.2-0.2,0.2-0.5,0-0.7
		c-0.2-0.2-0.5-0.2-0.7,0C22.4,16.1,22.1,16.2,21.9,16.4z"/>
</g>
</svg>
