<?xml version="1.0" encoding="utf-8"?>
<!-- Generator: Adobe Illustrator 25.3.1, SVG Export Plug-In . SVG Version: 6.00 Build 0)  -->
<svg version="1.1" id="圖層_1" xmlns="http://www.w3.org/2000/svg" xmlns:xlink="http://www.w3.org/1999/xlink" x="0px" y="0px"
	 viewBox="0 0 50 50" style="enable-background:new 0 0 50 50;" xml:space="preserve">
<style type="text/css">
	.st0{fill:none;}
	.st1{fill:#D69C63;}
	.st2{fill:#FFB0E4;}
	.st3{fill:#FFDBF3;}
	.st4{fill:#DEAB71;}
	.st5{fill:#534741;}
</style>
<g>
	<path class="st0" d="M23.2,21.5c-1.2,0.5-2.6,1.2-3.1,2.5c1.4-0.1,2.9-0.6,4-1c0.8-0.3,2.5-1.1,3.8-2.2
		C26.9,19.8,24.3,21,23.2,21.5z"/>
	<path class="st1" d="M44.5,21.4c-0.4,0-0.8-0.2-1.2-0.1c-1.3,0.2-1.2,0.7-1.6,1.6c-0.1,0.4-0.3,0.8-0.6,1.1
		c-0.3,0.2-0.8,0.2-1.2,0.3c-1.1,0.1-1.2,0.6-1,1.6c0.2,1.1,1.1,3.7-0.9,3.6c-0.7,0-1.3-0.7-1.8-1.2c-0.3-0.3-0.6-0.7-0.8-1.1
		c-0.1-0.1-0.2-0.4-0.4-0.4c-0.6-0.2-0.6,0.7-0.6,1.1c-0.1,0.7-0.1,1.3-0.8,1.6c-0.9,0.3-1.5-0.4-2.2,1c-0.3,0.5-0.2,1.2-0.5,1.7
		c-1.1,2-4.4,2.3-6.1,1.1c-1.3-0.9-1.7-2.9-3.4-3.1c-1.5-0.1-2.1,0.9-2.5,2.1c-0.1,0.3-0.1,0.6-0.4,0.9c-0.5,0.5-1.2,0.4-1.7,0
		c-0.2-0.1-0.2-0.4-0.4-0.5c-0.6-0.6-0.9-0.4-1.3,0.3c-0.4,0.7-0.1,1.8-0.2,2.6c-0.3,2.2-2.3,1.5-3,0c-0.6-1.2-1.1-3.3-2.3-4.1
		c-2.3-1.6-2.4,1.1-3.6,2c0.5,0.9,1,1.8,1.6,2.5c4.7,5.8,14.4,3.6,20.6,1.8c3.9-1.2,7.6-2.7,10.8-5.3c2.7-2.2,5.4-4.4,6.5-7.8
		c0.4-1.4,0.5-2.8,0.3-4.3C45.5,20.9,45.1,21.4,44.5,21.4z"/>
	<path class="st2" d="M8,30.3c1-0.1,1.9,0.5,2.5,1.3c0.9,1.1,1.1,2.9,2,3.9c0.3,0.7,0.8,0.6,1.6-0.6c0-0.3,0-0.5,0-0.8
		c0-0.3,0-0.6,0.1-0.9c0.1-0.5,0.2-1.1,0.6-1.5c0.4-0.4,0.9-0.6,1.5-0.3c0.3,0.2,0.4,0.6,0.6,0.8c0.1,0.4,0.3,0.4,0.7,0
		c0.2-0.1,0.3-0.1,0.5-0.2c0.1-0.2,0.2-0.8,0.3-1c0.8-1.7,3.1-2.2,4.5-1c0.6,0.5,0.9,1.2,1.4,1.8c0.7,0.8,1.5,1.3,2.6,1.3
		c0.9,0.1,2-0.1,2.7-0.7c1-0.7,0.9-1.5,1.2-2.5c0.3-0.9,0.7-1.2,1.6-1.3c0.6-0.1,0.9,0.4,1.3-0.6c0.1-0.1,0-0.5,0.1-0.7
		c0.1-0.4,0.1-0.8,0.3-1.2c0.9-1.3,1.8,0.4,2.4,1.1c0.3,0.4,0.8,1.1,1.2,1.2c1.1,0.4,0.9-1.1,0.8-1.7c-0.1-0.7-0.6-1.7-0.3-2.4
		c0.2-0.7,0.8-0.8,1.5-0.9c1-0.2,1.3-0.7,1.7-1.6c0.1-0.4,0.3-0.7,0.6-1c0.9-0.8,2.4,0.2,3-0.6c0.3-0.5,0.3-1.6,0.1-2.4
		c-0.4-1.2-1.1-2.4-1.8-3.3c-2.3-3.2-6.8-4.2-10.5-4.2c-4.1-0.1-7.9,0.4-11.8,1.7c-3.6,1.2-7.5,2.6-10.7,4.7c-3.2,2.1-5.6,5.3-6,9.2
		c-0.2,2.3,0.3,4.7,1.2,6.8C6.5,32,6.3,30.5,8,30.3z M38.3,19.5c-0.9,0-0.9-1,0-1C38.9,18.5,38.9,19.5,38.3,19.5z M31.5,11.7
		c2.3-0.1,5.3-0.2,7.3,1.1c1.5,1.1,1.8,2.9,1,4.5c-0.3,0.6-1.2,0.1-0.9-0.5c2.3-4.3-5.2-4.2-7.4-4.1C30.8,12.8,30.8,11.8,31.5,11.7z
		 M21.9,17.5C21.9,17.5,21.9,17.5,21.9,17.5C21.9,17.5,22,17.5,21.9,17.5c2.1-0.9,7.1-2.9,8.2,0.3c0.9,2.7-3.6,4.9-5.4,5.7
		c-1.9,0.8-7.2,2.5-8.2-0.5C15.5,20,19.9,18.4,21.9,17.5z"/>
	<path class="st3" d="M31.5,12.7c2.2-0.1,9.7-0.2,7.4,4.1c-0.3,0.6,0.6,1.1,0.9,0.5c0.8-1.6,0.5-3.4-1-4.5c-2-1.4-5-1.2-7.3-1.1
		C30.8,11.8,30.8,12.8,31.5,12.7z"/>
	<path class="st3" d="M38.3,18.5c-0.9,0-0.9,1,0,1C38.9,19.5,38.9,18.5,38.3,18.5z"/>
	<path class="st4" d="M19.1,23.9c0.6-2,2.7-2.8,4.4-3.6c1.5-0.6,3.7-1.5,5-0.2c0.9-0.9,1.3-1.9,0.5-2.8c-1.4-1.5-5.2,0-6.9,0.7
		c0,0,0,0,0,0c-0.8,0.3-1.6,0.6-2.4,1.1c-0.9,0.5-3.8,2.4-2.5,3.9C17.7,23.6,18.4,23.9,19.1,23.9z"/>
	<path class="st5" d="M45.3,16.3c-1.6-3.4-4.4-5.4-8-6.3c-2.2-0.6-4.5-0.5-6.7-0.5c-2.2,0-4.4,0.2-6.6,0.8c-4.3,1.1-8.9,2.7-12.8,5
		c-3.3,1.9-6.3,4.7-7.4,8.4c-1,3.4-0.4,7.2,1.3,10.4c2.1,4,5.4,6.2,9.9,6.4c4.5,0.3,9-0.6,13.3-1.8c3.8-1.1,7.4-2.5,10.6-5
		c2.7-2,5.5-4.2,6.9-7.4C47.2,23,46.8,19.5,45.3,16.3z M45.4,24.7c-1.1,3.4-3.8,5.6-6.5,7.8c-3.2,2.6-6.9,4.1-10.8,5.3
		c-6.2,1.8-15.9,4.1-20.6-1.8c-0.6-0.8-1.2-1.6-1.6-2.5c1.2-0.9,1.2-3.5,3.6-2c1.2,0.8,1.7,2.8,2.3,4.1c0.7,1.5,2.7,2.1,3,0
		c0.1-0.8-0.2-1.9,0.2-2.6c0.4-0.6,0.7-0.9,1.3-0.3c0.1,0.1,0.2,0.4,0.4,0.5c0.5,0.4,1.2,0.5,1.7,0c0.3-0.3,0.3-0.6,0.4-0.9
		c0.4-1.2,1-2.3,2.5-2.1c1.7,0.2,2.1,2.2,3.4,3.1c1.7,1.1,5.1,0.8,6.1-1.1c0.3-0.5,0.2-1.2,0.5-1.7c0.7-1.4,1.2-0.7,2.2-1
		c0.8-0.3,0.7-0.9,0.8-1.6c0.1-0.4,0.1-1.3,0.6-1.1c0.1,0,0.3,0.3,0.4,0.4c0.3,0.3,0.5,0.7,0.8,1.1c0.5,0.5,1,1.2,1.8,1.2
		c2,0.1,1.1-2.5,0.9-3.6c-0.2-1-0.1-1.5,1-1.6c0.4,0,0.9,0,1.2-0.3c0.3-0.2,0.5-0.7,0.6-1.1c0.3-0.9,0.3-1.5,1.6-1.6
		c0.4,0,0.8,0.1,1.2,0.1c0.6-0.1,1-0.5,1.2-1C45.9,21.8,45.8,23.3,45.4,24.7z M4.3,26c0.4-3.9,2.8-7,6-9.2c3.2-2.2,7-3.5,10.7-4.7
		c3.9-1.3,7.7-1.8,11.8-1.7c3.7,0.1,8.2,1,10.5,4.2c0.7,1,1.3,2.1,1.8,3.3c0.2,0.8,0.2,1.9-0.1,2.4c-0.6,0.9-2.1-0.2-3,0.6
		c-0.3,0.3-0.4,0.6-0.6,1c-0.4,0.9-0.7,1.4-1.7,1.6c-0.7,0.1-1.3,0.2-1.5,0.9c-0.2,0.7,0.2,1.7,0.3,2.4c0.1,0.7,0.3,2.1-0.8,1.7
		c-0.5-0.2-0.9-0.8-1.2-1.2c-0.6-0.7-1.5-2.4-2.4-1.1c-0.2,0.3-0.3,0.8-0.3,1.2c0,0.2,0,0.5-0.1,0.7c-0.4,1-0.7,0.4-1.3,0.6
		c-0.9,0.2-1.3,0.5-1.6,1.3c-0.3,0.9-0.2,1.8-1.2,2.5c-0.7,0.5-1.8,0.7-2.7,0.7c-1.1-0.1-1.9-0.5-2.6-1.3c-0.5-0.6-0.8-1.3-1.4-1.8
		c-1.4-1.2-3.8-0.7-4.5,1c-0.1,0.2-0.1,0.8-0.3,1c-0.2,0.1-0.3,0.1-0.5,0.2c-0.3,0.3-0.6,0.3-0.7,0c-0.3-0.2-0.3-0.6-0.6-0.8
		c-0.5-0.3-1.1-0.1-1.5,0.3c-0.4,0.4-0.5,1-0.6,1.5c-0.1,0.3-0.1,0.6-0.1,0.9c0,0.3,0,0.5,0,0.8c-0.8,1.1-1.4,1.3-1.6,0.6
		c-0.9-1-1.1-2.8-2-3.9C9.9,30.8,9,30.2,8,30.3c-1.6,0.2-1.4,1.7-2.4,2.5C4.6,30.7,4.1,28.3,4.3,26z"/>
	<path class="st5" d="M24.7,23.4c1.8-0.8,6.3-3,5.4-5.7C29,14.6,24,16.6,22,17.5c0,0,0,0,0,0c0,0,0,0,0,0c-2,0.9-6.4,2.5-5.4,5.5
		C17.5,26,22.7,24.3,24.7,23.4z M19.7,19.2c0.8-0.4,1.6-0.7,2.4-1.1c0,0,0,0,0,0c1.7-0.7,5.5-2.3,6.9-0.7c0.8,0.9,0.4,1.9-0.5,2.8
		c-1.3-1.3-3.5-0.4-5,0.2c-1.8,0.7-3.9,1.6-4.4,3.6c-0.7-0.1-1.4-0.4-1.9-0.9C15.9,21.6,18.8,19.7,19.7,19.2z M27.9,20.8
		c-1.3,1-3,1.8-3.8,2.2c-1,0.4-2.6,0.9-4,1c0.5-1.3,1.9-1.9,3.1-2.5C24.3,21,26.9,19.8,27.9,20.8z"/>
</g>
</svg>
