<?xml version="1.0" encoding="utf-8"?>
<!-- Generator: Adobe Illustrator 25.3.1, SVG Export Plug-In . SVG Version: 6.00 Build 0)  -->
<svg version="1.1" id="圖層_1" xmlns="http://www.w3.org/2000/svg" xmlns:xlink="http://www.w3.org/1999/xlink" x="0px" y="0px"
	 viewBox="0 0 50 50" style="enable-background:new 0 0 50 50;" xml:space="preserve">
<style type="text/css">
	.st0{fill:#A9CE8B;stroke:#534741;stroke-miterlimit:10;}
	.st1{fill:#61A256;}
	.st2{fill:#875381;stroke:#534741;stroke-miterlimit:10;}
	.st3{fill:#55425F;}
	.st4{fill:#A480A5;}
</style>
<g>
	<path class="st0" d="M25.2,1.1c-2.9,1.1-5.6,3.8-5.9,6.8c-0.3-0.2-0.5-0.4-0.8-0.6c-1.9-1.3-4.1-1.7-6.3-2c-0.5-0.1-1.1,0.4-0.8,1
		c0.5,1.2-0.2,2.5-0.2,3.8s0.4,2.4,1,3.5c0.2,0.4,0.6,0.8,1,1.2c-0.4,0.1-0.8,0.2-1.1,0.2c-2.1,0.5-4.1,1.6-5,3.7
		c-0.1,0.3,0,0.7,0.3,0.9c0.4,0.2,0.7,0.2,1.1,0.2c1,0,1.6,0,2.5,0.4c1.1,0.4,2.1,0.6,3.3,0.6c1.9-0.1,4-0.8,5.2-2.2v0.1
		c0,0.1,0.1,0.1,0.1,0.1c1.1,0.1,1.2-0.8,1.6-1.6c1.1-2.2,3.2-2,5.3-2.4c3-0.7,5.6-2.7,6.9-5.5c0.2-0.5-0.1-1-0.6-1.1
		c-1.6-0.5-3.9-1-5.8-0.5c0.2-0.6,0.3-1.2,0.3-1.8c0-1.6-1.5-2.6-1.4-4.1C26.3,1.3,25.7,1,25.2,1.1z"/>
	<path class="st1" d="M14.8,17.7c-0.3,0-0.6,0-0.9,0c-0.4,0-0.9,0-1.3,0c-0.1-0.1-0.1-0.2-0.2-0.3c-0.1-0.1-0.2-0.3-0.4-0.4
		c-0.2-0.1-0.3-0.3-0.5-0.4c-0.1,0-0.2-0.1-0.3-0.1c0,0-0.1,0-0.2,0H11c0,0-0.1,0,0,0c-0.1,0-0.1,0.1-0.1,0.1v0.1l0.1,0.1
		c0.1,0.1,0.1,0.1,0.2,0.2s0.3,0.2,0.4,0.4c0.1,0.1,0.1,0.1,0.2,0.2c-0.6,0-1.1,0.1-1.7,0.2c-0.2,0-1.4,0.1-1.3,0.5
		c0.1,0.2,0.4,0.2,0.5,0.2c0.3,0,0.6,0,0.8,0c0.1,0,0.1,0,0.2,0c-0.1,0.1-0.2,0.2-0.3,0.3c-0.2,0.3-0.5,0.5-0.6,0.9
		c-0.1,0.2,0.1,0.3,0.3,0.2c0.2-0.2,0.5-0.4,0.7-0.7c0.1-0.1,0.2-0.2,0.3-0.3c0.1-0.1,0.3-0.2,0.4-0.4l0,0c0.2,0,0.5,0,0.7,0
		c0.6,0,1.1,0,1.7,0c0.3,0,0.6,0,0.9,0c0.1,0,0.3,0,0.4,0c0.1,0,0.1,0,0.2,0H15l0,0h0.1c0.2,0,0.3-0.1,0.3-0.3
		C15.4,17.9,15.2,17.7,14.8,17.7z"/>
	<path class="st1" d="M18.4,8.7C18.3,8.7,18.3,8.7,18.4,8.7c-0.1,0.1-0.1,0.1-0.1,0.2l0,0V9c0,0.1-0.1,0.3-0.1,0.4
		c-0.1,0.3-0.1,0.6-0.2,0.8c-0.1,0.3-0.2,0.5-0.3,0.8c-0.5-0.9-1.1-1.8-1.9-2.4c-0.4-0.4-0.9-0.7-1.4-0.9c-0.4-0.2-0.9-0.5-1.3-0.4
		c0,0,0,0,0,0.1c0.2,0.3,0.4,0.4,0.7,0.6c0.4,0.3,0.8,0.5,1.1,0.8c0.3,0.2,0.5,0.5,0.7,0.8c-0.3-0.2-0.6-0.3-1-0.3
		c-0.2-0.1-0.5-0.1-0.8-0.1c-0.1,0-0.3,0-0.4,0s-0.1,0-0.2,0h-0.1l-0.1,0.1c-0.1,0-0.1,0.1,0,0.1l0.1,0.1h0.1c0.1,0,0.2,0.1,0.3,0.1
		c0.2,0,0.4,0.1,0.6,0.2c0.4,0.1,0.8,0.3,1.2,0.5c0.1,0.1,0.4,0.2,0.6,0.1c0.1,0.2,0.2,0.4,0.4,0.6c0.4,0.8,0.9,1.5,1.3,2.2
		c0,0,0,0.1,0.1,0.1c-0.2,0-0.4,0-0.6,0c-0.4-0.1-0.8-0.2-1.2-0.3c-0.5-0.1-1.1-0.2-1.6-0.4c-0.4-0.1-1-0.3-1.4-0.1c0,0,0,0,0,0.1
		c0.3,0.3,0.8,0.4,1.2,0.6c0.4,0.2,0.9,0.3,1.3,0.4c0.8,0.3,1.7,0.6,2.4,0.5c0.1,0,0.1,0,0.2,0c0,0.1,0.1,0.2,0.1,0.3
		c0.1,0.2,0.6,0.8,0.4,0.9c-0.1,0-0.1,0.2,0,0.2c0.7,0.4,0.9-0.7,0.7-1.1c-0.3-1-0.8-1.9-1.4-2.7c0.1-0.1,0.2-0.3,0.2-0.4
		c0.1-0.3,0.2-0.6,0.3-0.9c0.1-0.3,0.1-0.6,0.1-0.9c0-0.2,0-0.3,0-0.5C18.5,8.8,18.5,8.8,18.4,8.7L18.4,8.7c0-0.1,0-0.1-0.1-0.2
		C18.5,8.6,18.4,8.6,18.4,8.7z"/>
	<path class="st1" d="M25.1,3.3c-0.5,0.2-0.7,0.5-0.9,0.9c-0.2,0.5-0.4,0.9-0.6,1.4c0,0.1,0,0.1-0.1,0.2c-0.1-0.1-0.1-0.2-0.2-0.3
		c-0.1-0.1-0.1-0.3-0.2-0.4C23.1,5,23,5,23,4.9c0,0,0-0.1-0.1-0.1l-0.1-0.1l0,0l0,0l-0.1-0.1c-0.1,0-0.2,0.1-0.3,0.2c0,0,0,0,0,0.1
		V5v0.1c0,0.1,0,0.2,0,0.3c0,0.2,0.1,0.3,0.1,0.5c0,0.1,0.1,0.3,0.2,0.4c0.3,0.1,0.4,0.2,0.5,0.4l0.1,0.1c-0.2,0.6-0.4,1.2-0.5,1.9
		c-0.1,0.5-0.2,1.1-0.3,1.6c-0.1-0.2-0.3-0.4-0.5-0.6c-0.2-0.2-0.3-0.4-0.5-0.6c-0.1-0.3-0.2-0.5-0.5-0.6c-0.3-0.1-0.6,0.4-0.3,0.6
		c0,0,0,0,0,0.1c0,0.1,0.1,0.1,0.1,0.2c0.2,0,0.3,0.1,0.3,0.2c0.1,0.2,0.3,0.4,0.4,0.6c0.1,0.2,0.3,0.4,0.4,0.6
		c0.1,0.1,0.2,0.4,0.4,0.5c0,0.1,0,0.2,0,0.3c-0.1,0.7-0.3,2.1,0.4,2.6h0.1c0.3-0.3,0.3-0.7,0.4-1.1c0-0.5,0-1,0.1-1.5
		c0-0.6,0.1-1.2,0.2-1.8c0.1,0,0.1,0,0.2,0c0.2-0.1,0.5-0.3,0.7-0.4c0.2-0.2,0.4-0.3,0.6-0.5c0.2-0.2,0.4-0.3,0.6-0.5
		c0.1-0.1,0.2-0.2,0.2-0.3c0-0.1,0.1-0.2,0-0.3c-0.1-0.1-0.2-0.1-0.3-0.1c-0.1,0-0.2,0-0.3,0.1c-0.1,0-0.1,0.1-0.2,0.1
		c-0.2,0.1-0.4,0.3-0.6,0.5c-0.2,0.2-0.4,0.3-0.6,0.5c-0.1,0.1-0.2,0.2-0.2,0.3c0-0.2,0.1-0.3,0.1-0.5c0.2-0.9,0.5-1.9,0.8-2.7
		c0-0.1,0.1-0.1,0.1-0.2c0,0,0,0,0.1,0s0.2,0,0.3-0.1c0.1,0,0.2-0.1,0.4-0.1c0.1,0,0.2-0.1,0.3-0.2c0.1-0.1,0.1-0.1,0.1-0.2l0,0
		c0.1-0.1,0-0.2-0.1-0.2c0,0,0,0-0.1,0c0,0-0.1,0-0.2,0l0,0c0.1,0,0,0,0,0h-0.1c-0.1,0-0.2,0-0.2,0.1H25l0,0h-0.1
		c0-0.2,0.1-0.3,0.1-0.5C25.2,4.1,25.3,3.8,25.1,3.3C25.2,3.3,25.2,3.3,25.1,3.3z"/>
	<path class="st1" d="M31.6,8.8c0-0.1,0-0.1,0-0.2s0-0.1-0.1-0.2c-0.1-0.1-0.2,0-0.2,0s0,0-0.1,0l-0.1,0.1l0,0l0,0l0,0
		c0,0-0.1,0-0.1,0.1c0,0,0,0,0,0.1l0,0l0,0l0,0c-0.2,0-0.4,0.1-0.5,0.1c-0.4,0.1-0.9,0.3-1.3,0.5c0.1-0.2,0.1-0.3,0.2-0.5
		c0-0.1,0-0.3-0.1-0.4s-0.3-0.1-0.4,0c-0.3,0.3-0.4,0.6-0.6,1c-0.1,0.1-0.1,0.3-0.1,0.4c-0.4,0.3-0.7,0.5-1.1,0.9s-1.1,1-0.9,1.6
		c0,0.1,0.2,0.2,0.3,0.2c0.5-0.1,0.9-0.8,1.2-1.1c0.4-0.4,0.9-0.8,1.4-1.1c0.1-0.1,0.3-0.2,0.5-0.2c0,0.1,0.1,0.1,0.1,0.2
		c0.1,0.1,0.1,0.1,0.2,0.2c0.2,0.1,0.4,0.2,0.6,0.2c0.2,0.1,0.3,0.1,0.5,0.1c0.1,0,0.2,0,0.3,0.1c0.1,0,0.3,0,0.4,0
		c0.2-0.1,0.2-0.3,0.1-0.5c-0.1-0.1-0.4-0.2-0.6-0.2c-0.2,0-0.4-0.1-0.5-0.1c-0.2,0-0.3-0.1-0.5-0.1h-0.1c0.2-0.1,0.4-0.2,0.6-0.2
		c0.5-0.2,1.2-0.2,1.6-0.6c0.1-0.1,0-0.1,0-0.2C32,8.9,31.8,8.8,31.6,8.8z"/>
	<path class="st2" d="M35.3,14.6c-0.7-2.2-2.8-4-5.2-4c-2.1,0-3.8,1.1-4.8,2.6c-1.5-1.4-3.7-1.9-5.6-1.1c-1.9,0.8-3,2.6-3.1,4.6
		c-0.7-0.1-1.5,0.1-2.1,0.5C13.6,18,13,19,13,20.1c-2.2,0.5-4.1,2.6-4.4,5c-0.3,2.5,1.4,5.1,3.7,6.1c-0.2,3.7,3,7,6.6,7.3
		c-0.1,1.6,0.4,3.2,1.7,4.3c1.3,1.2,3,1.6,4.7,1.3c1.2,2.8,4,5.3,7.1,4.9c1.8-0.2,3-1.7,3.6-3.2c0.5-1.2,0.5-2.5,0.3-3.8
		c1.8-0.4,3.4-1.6,4.2-3.3c0.8-1.7,0.6-3.5-0.3-5.1c1.6-1,2.7-2.7,2.7-4.7S41.9,25,40.2,24c0.9-1.8,1.1-3.8,0.2-5.7
		C39.5,16.3,37.4,14.9,35.3,14.6z"/>
	<path class="st3" d="M33.2,16.5c-1.4,0.9-2.8,1.8-4.5,1.3s-2-2.1-3.2-2.9c-0.1-0.1-0.2,0-0.3,0c-0.2,0-0.5,0.2-0.6,0.4
		c-0.3,0.6-0.2,1.3-0.5,1.9c-0.4,0.8-1.1,1.5-1.9,1.8c-1.5,0.5-3.2-0.2-3.9-1.6c-0.3-0.6-1.2-0.4-1.2,0.3c-0.1,1.8,2.1,2.8,3.9,2.9
		c-0.5,0.7-0.3,1.5,0.1,2.1c-0.2,0-0.3,0-0.5,0.2c-0.8,0.9-1.7,1.5-2.8,1.4c-1.6-0.2-2.9-1.4-3.2-2.9c-0.1-0.7-1.3-0.6-1.2,0.1
		c0.2,2.4,2.1,4.2,4.4,4.6c0.1,0,0.3,0,0.4,0c-0.4,0.5-0.6,1.1-1,1.7c-0.9,1.2-2,1.8-3.3,2c-0.6,0.1-0.6,1,0,1.1
		c1.4,0.3,2.8-0.2,3.9-1.1c0.1-0.1,0.1-0.1,0.2-0.2c0.2,2.2,2.1,4.5,4.2,5.1c0,0.1-0.1,0.1-0.1,0.2c-0.3,0.6-0.8,1.2-1.3,1.7
		c-0.4,0.4-0.9,0.7-1.1,1.3c0,0.1,0,0.2,0.1,0.2c1.1,0.8,3.1-0.8,3.8-2.2c0.3,0.7,1,1.4,1.5,1.9c1,0.8,2.3,1.5,3.6,1.5
		c-0.3,0.8-0.3,1.6-0.8,2.2c-0.6,0.9-1.5,1.2-2.2,1.9c-0.4,0.3-0.1,0.9,0.3,1c1.8,0.2,3.7-1.6,4.2-3.4c0.4,0.3,0.8,0.6,1.1,0.8
		c1.2,0.6,2.7,1.2,3.9,0.3c0.2-0.2,0.3-0.5,0.3-0.8c-0.1-0.3-0.2-0.5-0.5-0.7c-0.1-0.1-0.2,0-0.3,0.1s-1,0.1-1.1,0.1
		c-0.6-0.1-1.2-0.2-1.7-0.5c-0.6-0.3-1-0.8-1.5-1.2c1.7-0.7,3.3-2.2,3.1-3.8c0.2-0.3,0.3-0.6,0.3-0.9c0-0.2-0.1-0.5-0.3-0.6
		c-0.3-0.2-0.6-0.1-0.7,0.1l0,0c-0.1-0.1-0.3,0-0.3,0.1c-0.1,0.9-1.2,2-1.8,2.4c-0.8,0.7-1.8,1.1-2.8,0.9c-1-0.2-1.9-0.7-2.5-1.4
		c-0.3-0.3-0.5-0.7-0.9-1c0.6-0.2,1.1-0.6,1.5-1.2c0.3-0.4,0.4-0.8,0.3-1.1c0.2,0,0.4,0.1,0.6,0.1c1.7,0.2,3.2,0,4.2-1.5
		c0.7,0.8,1.6,1.4,2.1,1.7c1.4,0.7,3.7,1.5,4.8,0c0.4-0.6-0.2-1.4-0.9-1.3c-1.4,0.3-2.5,0.1-3.8-0.6c-0.6-0.3-1.1-0.7-1.5-1.2l0,0
		c0.5-1.1,0.8-2.4,0.6-3.4c0.7,0.2,1.3,0.2,1.9,0.1c1-0.2,2.1-0.8,2.5-1.7c0.9,0.3,1.6,0.1,2.1-0.5c0.2-0.3,0.1-0.6-0.2-0.8
		c-0.6-0.4-1.4-0.6-2.1-0.9l0,0c0-0.1-0.1-0.1-0.2-0.1c-0.1-0.1-0.2-0.1-0.4-0.2c-1-0.7-1.7-1.5-2.1-2.6c-0.1-0.2-0.3-0.4-0.5-0.5
		c0.3-0.3,0.6-0.6,0.7-0.9C34.8,17.1,34.1,15.9,33.2,16.5z M30.9,25.5c-0.3,0.9-0.4,1.9-0.7,2.7c-0.2,0.6-0.4,1.4-0.9,1.8
		c-0.5,0.4-1.4,0.4-2,0.4c-1.6-0.1-2.3-0.9-2.8-2.3c-0.2-0.7,0-1.5-0.3-2.1c0-0.1-0.2-0.1-0.3-0.1c-1.3,0.7-0.8,2.5-0.4,3.6
		c0.4,1,0.9,1.7,1.5,2.1h-0.1c-0.5,0.3-0.9,0.8-1.5,1c-0.9,0.4-1.5,0.2-2.2-0.3c-1.4-0.9-2-2.1-2.4-3.6v-0.1c0.6-0.8,1-1.7,0.7-2.5
		c1.3-0.3,2.5-1,2.3-2.3c0.1,0.1,0.2,0.3,0.4,0.4c1.1,1.1,2.4,1.8,3.9,1.9c1.3,0.1,3-0.6,4.1-1.7c0.3,0.4,0.6,0.7,1,1
		C31,25.2,31,25.4,30.9,25.5z M35.3,23.3c-0.5,0.4-1,0.7-1.5,0.7c-1.2,0.1-2-0.6-2.9-1c0.2-0.6,0.2-1.4-0.4-2.1
		c-0.1-0.1-0.2-0.1-0.3,0c-1.2,1.1-2,2.8-3.7,2.9c-2.1,0.2-3.7-1.4-4.4-3.1c0,0,0-0.1-0.1-0.1c0.1,0,0.3,0,0.4,0
		c1.2-0.2,2.7-1.4,3.5-2.7c0.7,0.9,1.6,1.6,2.5,1.8c1.2,0.4,3.2,0.3,4.7-0.4C32.5,20.5,33.8,22.3,35.3,23.3z"/>
	<path class="st4" d="M16.1,32.7c0.1,0.1,0.1,0.1,0.2,0.2c-0.3-0.3-0.7-0.4-1.1-0.3c-0.4,0.1-0.8,0.4-0.9,0.8s-0.1,0.8,0.1,1.2
		c0.2,0.4,0.5,0.7,1,0.8c0.4,0.1,0.7,0.1,1.1-0.2c0.3-0.2,0.6-0.6,0.5-1c0-0.2,0-0.5-0.1-0.7c0-0.1-0.1-0.1-0.1-0.2
		c-0.1-0.2-0.1-0.3-0.3-0.4C16.3,32.8,16.2,32.8,16.1,32.7z"/>
	<path class="st4" d="M18.4,34.4c-0.1-0.1-0.3-0.2-0.5-0.2c-0.2,0-0.4,0.1-0.5,0.2c-0.1,0.1-0.2,0.3-0.2,0.5c0,0.2,0,0.4,0.2,0.5
		c0,0,0,0,0.1,0.1s0.3,0.2,0.5,0.2c0.2,0,0.4-0.1,0.5-0.2c0.1-0.1,0.2-0.3,0.2-0.5C18.7,34.8,18.6,34.6,18.4,34.4
		C18.5,34.4,18.4,34.4,18.4,34.4z"/>
	<path class="st4" d="M11,23.4c-0.2-0.1-0.4-0.1-0.7,0c-0.4,0.1-0.5,0.7-0.4,1.1c0.1,0.2,0.2,0.4,0.4,0.5s0.5,0.2,0.8,0
		c0.4-0.3,0.5-0.8,0.3-1.2C11.4,23.7,11.2,23.5,11,23.4z"/>
	<path class="st4" d="M22.9,39.5C22.9,39.5,23,39.6,22.9,39.5c-0.5-0.3-1.2,0.1-1.2,0.7c0,0.4,0.1,0.7,0.4,0.9
		c0.1,0.1,0.3,0.2,0.5,0.2c0.2,0,0.4,0,0.6-0.1c0.2-0.1,0.3-0.3,0.4-0.4c0.1-0.2,0.1-0.3,0.1-0.5s-0.2-0.4-0.3-0.6
		C23.1,39.7,23,39.6,22.9,39.5z"/>
	<path class="st4" d="M30,44.8c-0.5,0.4-0.4,1-0.1,1.5c0.2,0.3,0.7,0.5,1,0.6c0.1,0,0.3,0,0.4,0c0.4,0,0.6-0.1,1-0.4
		c0.5-0.4,0.5-1.3,0.1-1.7C31.8,44.2,30.7,44.2,30,44.8z"/>
	<path class="st4" d="M33.9,43.8L33.9,43.8L33.9,43.8L33.9,43.8c-0.2-0.1-0.3-0.1-0.4-0.1c-0.1,0-0.2,0-0.3,0h0.1
		c-0.2,0-0.4,0.1-0.5,0.3c-0.2,0.2-0.2,0.4-0.2,0.6c0,0.4,0.4,0.7,0.7,0.8c0.2,0,0.5,0,0.7-0.1c0.3-0.1,0.5-0.5,0.4-0.8
		c0-0.1-0.1-0.3-0.2-0.4C34.2,43.9,34.1,43.9,33.9,43.8z"/>
	<path class="st4" d="M38,36.2c-0.4-0.2-1-0.2-1.3,0.1c-0.1,0.1-0.2,0.3-0.3,0.4c-0.1,0.2-0.1,0.3-0.1,0.5c0,0.6,0.5,1.1,1,1.1
		c0.6,0,1.1-0.4,1.2-0.9C38.6,37,38.4,36.4,38,36.2z"/>
	<path class="st4" d="M38.5,27.5c-0.1,0.1-0.3,0.2-0.4,0.3c-0.2,0.2-0.3,0.4-0.4,0.7c-0.1,0.2,0,0.7,0.1,0.9
		c0.1,0.2,0.3,0.4,0.6,0.5c0.5,0.2,1.2,0.1,1.5-0.4c0.2-0.3,0.3-0.6,0.3-0.9c0-0.2-0.1-0.4-0.2-0.6C39.6,27.4,38.9,27.1,38.5,27.5z"
		/>
	<g>
		<path class="st4" d="M28.4,33.2L28.4,33.2L28.4,33.2L28.4,33.2z"/>
		<path class="st4" d="M28.8,33.4L28.8,33.4l-0.2-0.1c-0.1,0-0.2,0-0.3,0s-0.2,0.1-0.3,0.2l0,0c-0.3,0.2-0.3,0.8,0,1
			c0.1,0.1,0.2,0.1,0.4,0.1s0.4-0.1,0.5-0.2l0.1-0.1c0-0.1,0.1-0.1,0.1-0.2s0-0.1,0-0.3c0-0.1,0-0.1-0.1-0.2
			C28.9,33.5,28.8,33.4,28.8,33.4z"/>
		<path class="st4" d="M28.5,33.2L28.5,33.2L28.5,33.2z"/>
	</g>
	<path class="st4" d="M21.4,28.8L21.4,28.8C21.3,28.7,21.3,28.7,21.4,28.8c-0.1-0.2-0.2-0.2-0.3-0.3l0,0c-0.1-0.1-0.2-0.1-0.4-0.1
		c-0.2,0.1-0.4,0.3-0.4,0.6c0,0.4,0.2,0.7,0.5,0.9c0.2,0.1,0.5,0.1,0.7-0.1c0.2-0.2,0.3-0.5,0.1-0.7L21.5,29l0,0
		C21.5,28.9,21.4,28.8,21.4,28.8z"/>
	<path class="st4" d="M27.4,27.1c-0.1,0-0.1-0.1-0.2-0.1s-0.2-0.1-0.3-0.1c-0.3,0-0.6,0.2-0.7,0.5c-0.1,0.1-0.1,0.2-0.1,0.4
		c0,0.1,0,0.1,0,0.2s0.1,0.2,0.2,0.3s0.3,0.2,0.4,0.3c0.1,0,0.2,0,0.3,0.1c0.2,0,0.4-0.1,0.6-0.2c0.1-0.1,0.3-0.4,0.3-0.5
		c0-0.2-0.1-0.4-0.2-0.6L27.4,27.1z"/>
	<path class="st4" d="M26,20.9c0-0.1-0.1-0.1-0.2-0.1c-0.1-0.1-0.2-0.1-0.3-0.1c-0.2,0-0.3,0-0.4,0.1s-0.2,0.2-0.3,0.3
		c0,0.1-0.1,0.1-0.1,0.2c0,0.1,0,0.2,0,0.3c0,0.1,0,0.1,0,0.2c0,0.1,0.1,0.2,0.2,0.3c0.1,0,0.1,0.1,0.2,0.1c0.1,0.1,0.3,0.1,0.4,0.1
		c0.2,0,0.4-0.1,0.6-0.2c0-0.1,0.1-0.1,0.1-0.2s0.1-0.1,0.1-0.2c0-0.1,0-0.1,0-0.2s0-0.2-0.1-0.3C26.2,21.1,26.2,21.1,26,20.9
		C26.1,21,26.1,21,26,20.9z"/>
	<path class="st4" d="M39.2,18.8c-0.1-0.1-0.2-0.2-0.3-0.3c-0.2-0.1-0.4-0.2-0.6-0.2c-0.4-0.1-0.8,0-1.1,0.3s-0.4,0.6-0.3,1
		c0,0.2,0.1,0.4,0.3,0.5c0.1,0.1,0.1,0.2,0.2,0.3c0.1,0.1,0.2,0.2,0.4,0.3c0.2,0.1,0.4,0.2,0.7,0.2c0.1,0,0.2,0,0.3,0
		c0.2,0,0.3-0.1,0.4-0.2c0.2-0.1,0.4-0.4,0.5-0.6c0.1-0.2,0.1-0.4,0-0.6C39.6,19.2,39.4,19,39.2,18.8z"/>
	<path class="st4" d="M37.1,17.6c0-0.1,0-0.1,0-0.2c0-0.3-0.3-0.6-0.6-0.6c-0.2,0-0.3,0-0.4,0.1c-0.1,0.1-0.3,0.2-0.3,0.3
		c-0.1,0.2-0.2,0.4-0.2,0.6c0,0.3,0.1,0.5,0.2,0.7c0.2,0.2,0.6,0.4,0.9,0.3c0.4-0.1,0.6-0.4,0.5-0.8l0,0c0-0.1,0-0.1-0.1-0.2
		C37.1,17.7,37.1,17.7,37.1,17.6z"/>
	<path class="st4" d="M29.8,12c-0.1,0-0.2-0.1-0.4-0.1c-0.4,0-0.8,0.2-1,0.6c-0.2,0.4-0.1,0.8,0.1,1.1l0,0l0,0
		c0.1,0.1,0.2,0.2,0.3,0.2c0.1,0.1,0.2,0.1,0.4,0.1c0,0,0,0,0.1,0c0.2,0,0.4,0,0.6-0.1c0.2-0.1,0.4-0.4,0.5-0.6
		c0.1-0.2,0.1-0.5-0.1-0.8C30.3,12.3,30.1,12.1,29.8,12z"/>
	<path class="st4" d="M21.5,13.8c-0.1-0.1-0.3-0.1-0.5-0.1c-0.3,0-0.4,0.1-0.6,0.2c-0.3,0.3-0.4,0.7-0.1,1.1
		c0.4,0.5,1.4,0.2,1.5-0.4C21.9,14.3,21.8,14,21.5,13.8z"/>
	<path class="st4" d="M16.2,19.1L16.2,19.1c-0.1-0.1-0.2-0.2-0.3-0.2c0.1,0,0.1,0,0,0c-0.2-0.1-0.4,0-0.5,0.1
		c-0.1,0.2-0.1,0.3-0.2,0.5c0,0.3,0.1,0.5,0.3,0.7c0.2,0.2,0.6,0.3,0.9,0.1c0.3-0.2,0.3-0.5,0.2-0.8c0-0.1-0.1-0.2-0.2-0.3
		C16.4,19.2,16.3,19.1,16.2,19.1z"/>
</g>
</svg>
