<?xml version="1.0" encoding="utf-8"?>
<!-- Generator: Adobe Illustrator 25.4.1, SVG Export Plug-In . SVG Version: 6.00 Build 0)  -->
<svg version="1.1" id="圖層_1" xmlns="http://www.w3.org/2000/svg" xmlns:xlink="http://www.w3.org/1999/xlink" x="0px" y="0px"
	 viewBox="0 0 50 50" style="enable-background:new 0 0 50 50;" xml:space="preserve">
<style type="text/css">
	.st0{fill:#A9CE8B;}
	.st1{fill:#61A256;}
	.st2{fill:#875381;}
	.st3{fill:#55425F;}
	.st4{fill:#A480A5;}
</style>
<g>
	<path class="st0" d="M25.2,0.5c-3,1.1-5.7,3.9-6,7c-0.3-0.2-0.5-0.4-0.8-0.6c-1.9-1.3-4.2-1.7-6.5-2c-0.5-0.1-1.1,0.4-0.8,1
		c0.5,1.2-0.2,2.6-0.2,3.9c0,1.3,0.4,2.5,1,3.6c0.2,0.4,0.6,0.8,1,1.2c-0.4,0.1-0.8,0.2-1.1,0.2c-2.2,0.5-4.2,1.6-5.1,3.8
		c-0.1,0.3,0,0.7,0.3,0.9c0.4,0.2,0.7,0.2,1.1,0.2c1,0,1.6,0,2.6,0.4c1.1,0.4,2.2,0.6,3.4,0.6c1.9-0.1,4.1-0.8,5.3-2.3
		c0,0,0,0.1,0,0.1c0,0.1,0.1,0.1,0.1,0.1c1.1,0.1,1.2-0.8,1.6-1.6c1.1-2.3,3.3-2,5.4-2.5c3.1-0.7,5.7-2.8,7.1-5.6
		c0.2-0.5-0.1-1-0.6-1.1c-1.6-0.5-4-1-5.9-0.5c0.2-0.6,0.3-1.2,0.3-1.8c0-1.6-1.5-2.7-1.4-4.2C26.3,0.7,25.7,0.4,25.2,0.5z"/>
	<path class="st1" d="M14.6,17.5c-0.3,0-0.6,0-0.9,0c-0.4,0-0.9,0-1.3,0c-0.1-0.1-0.1-0.2-0.2-0.3c-0.1-0.1-0.2-0.3-0.4-0.4
		c-0.2-0.1-0.3-0.3-0.5-0.4c-0.1,0-0.2-0.1-0.3-0.1c0,0-0.1,0-0.2,0c0,0-0.1,0-0.1,0c0,0-0.1,0,0,0c-0.1,0-0.1,0.1-0.1,0.1
		c0,0,0,0.1,0,0.1c0,0,0.1,0.1,0.1,0.1c0.1,0.1,0.1,0.1,0.2,0.2c0.1,0.1,0.3,0.2,0.4,0.4c0.1,0.1,0.1,0.1,0.2,0.2
		c-0.6,0-1.1,0.1-1.7,0.2c-0.2,0-1.4,0.1-1.3,0.5c0.1,0.2,0.4,0.2,0.5,0.2c0.3,0,0.6,0,0.8,0c0.1,0,0.1,0,0.2,0
		c-0.1,0.1-0.2,0.2-0.3,0.3c-0.2,0.3-0.5,0.5-0.6,0.9c-0.1,0.2,0.1,0.3,0.3,0.2c0.2-0.2,0.5-0.4,0.7-0.7c0.1-0.1,0.2-0.2,0.3-0.3
		c0.1-0.1,0.3-0.2,0.4-0.4c0,0,0,0,0,0c0.2,0,0.5,0,0.7,0c0.6,0,1.1,0,1.7,0c0.3,0,0.6,0,0.9,0c0.1,0,0.3,0,0.4,0c0.1,0,0.1,0,0.2,0
		c0,0,0.1,0,0.1,0c0,0,0,0,0,0c0,0,0.1,0,0.1,0c0.2,0,0.3-0.1,0.3-0.3C15.2,17.7,15,17.5,14.6,17.5z"/>
	<path class="st1" d="M18.2,8.3C18.1,8.3,18.1,8.3,18.2,8.3c-0.1,0.1-0.1,0.1-0.1,0.2c0,0,0,0,0,0c0,0,0,0.1,0,0.1
		c0,0.1-0.1,0.3-0.1,0.4c-0.1,0.3-0.1,0.6-0.2,0.8c-0.1,0.3-0.2,0.5-0.3,0.8c-0.5-0.9-1.1-1.8-1.9-2.5c-0.4-0.4-0.9-0.7-1.4-0.9
		c-0.4-0.2-0.9-0.5-1.3-0.4c0,0,0,0,0,0.1c0.2,0.3,0.4,0.4,0.7,0.6c0.4,0.3,0.8,0.5,1.1,0.8c0.3,0.2,0.5,0.5,0.7,0.8
		c-0.3-0.2-0.6-0.3-1-0.3c-0.2-0.1-0.5-0.1-0.8-0.1c-0.1,0-0.3,0-0.4,0c-0.1,0-0.1,0-0.2,0c0,0-0.1,0-0.1,0c0,0-0.1,0.1-0.1,0.1
		c-0.1,0-0.1,0.1,0,0.1c0,0,0.1,0.1,0.1,0.1c0,0,0.1,0,0.1,0c0.1,0,0.2,0.1,0.3,0.1c0.2,0,0.4,0.1,0.6,0.2c0.4,0.1,0.8,0.3,1.2,0.5
		c0.1,0.1,0.4,0.2,0.6,0.1c0.1,0.2,0.2,0.4,0.4,0.6c0.4,0.8,0.9,1.5,1.3,2.3c0,0,0,0.1,0.1,0.1c-0.2,0-0.4,0-0.6,0
		c-0.4-0.1-0.8-0.2-1.2-0.3c-0.5-0.1-1.1-0.2-1.6-0.4c-0.4-0.1-1-0.3-1.4-0.1c0,0,0,0,0,0.1c0.3,0.3,0.8,0.4,1.2,0.6
		c0.4,0.2,0.9,0.3,1.3,0.4c0.8,0.3,1.7,0.6,2.5,0.5c0.1,0,0.1,0,0.2,0c0,0.1,0.1,0.2,0.1,0.3c0.1,0.2,0.6,0.8,0.4,0.9
		c-0.1,0-0.1,0.2,0,0.2c0.7,0.4,0.9-0.7,0.7-1.1c-0.3-1-0.8-1.9-1.4-2.8c0.1-0.1,0.2-0.3,0.2-0.4c0.1-0.3,0.2-0.6,0.3-0.9
		c0.1-0.3,0.1-0.6,0.1-0.9c0-0.2,0-0.3,0-0.5c0-0.1,0-0.1-0.1-0.2c0,0,0-0.1,0-0.1c0,0,0,0-0.1-0.1C18.3,8.2,18.2,8.2,18.2,8.3z"/>
	<path class="st1" d="M25.1,2.8c-0.5,0.2-0.7,0.5-0.9,0.9c-0.2,0.5-0.4,0.9-0.6,1.4c0,0.1,0,0.1-0.1,0.2c-0.1-0.1-0.1-0.2-0.2-0.3
		c-0.1-0.1-0.1-0.3-0.2-0.4c0-0.1-0.1-0.1-0.1-0.2c0,0,0-0.1-0.1-0.1c0,0-0.1-0.1-0.1-0.1c0,0,0,0,0,0c0,0,0,0,0,0
		c0,0-0.1-0.1-0.1-0.1c-0.1,0-0.2,0.1-0.3,0.2c0,0,0,0,0,0.1c0,0,0,0.1,0,0.1c0,0,0,0.1,0,0.1c0,0.1,0,0.2,0,0.3
		c0,0.2,0.1,0.3,0.1,0.5c0,0.1,0.1,0.3,0.2,0.4C23,5.9,23.1,6,23.2,6.2c0,0,0.1,0.1,0.1,0.1c-0.2,0.6-0.4,1.2-0.5,1.9
		c-0.1,0.5-0.2,1.1-0.3,1.6c-0.1-0.2-0.3-0.4-0.5-0.6c-0.2-0.2-0.3-0.4-0.5-0.6C21.4,8.3,21.3,8.1,21,8c-0.3-0.1-0.6,0.4-0.3,0.6
		c0,0,0,0,0,0.1c0,0.1,0.1,0.1,0.1,0.2C21,8.9,21.1,9,21.1,9.1c0.1,0.2,0.3,0.4,0.4,0.6c0.1,0.2,0.3,0.4,0.4,0.6
		c0.1,0.1,0.2,0.4,0.4,0.5c0,0.1,0,0.2,0,0.3c-0.1,0.7-0.3,2.2,0.4,2.7c0,0,0.1,0,0.1,0c0.3-0.3,0.3-0.7,0.4-1.1c0-0.5,0-1,0.1-1.5
		c0-0.6,0.1-1.2,0.2-1.8c0.1,0,0.1,0,0.2,0c0.2-0.1,0.5-0.3,0.7-0.4c0.2-0.2,0.4-0.3,0.6-0.5c0.2-0.2,0.4-0.3,0.6-0.5
		c0.1-0.1,0.2-0.2,0.2-0.3c0-0.1,0.1-0.2,0-0.3c-0.1-0.1-0.2-0.1-0.3-0.1c-0.1,0-0.2,0-0.3,0.1c-0.1,0-0.1,0.1-0.2,0.1
		c-0.2,0.1-0.4,0.3-0.6,0.5c-0.2,0.2-0.4,0.3-0.6,0.5c-0.1,0.1-0.2,0.2-0.2,0.3c0-0.2,0.1-0.3,0.1-0.5c0.2-0.9,0.5-1.9,0.8-2.8
		c0-0.1,0.1-0.1,0.1-0.2c0,0,0,0,0.1,0c0.1,0,0.2,0,0.3-0.1c0.1,0,0.2-0.1,0.4-0.1c0.1,0,0.2-0.1,0.3-0.2c0.1-0.1,0.1-0.1,0.1-0.2
		c0,0,0,0,0,0c0.1-0.1,0-0.2-0.1-0.2c0,0,0,0-0.1,0c0,0-0.1,0-0.2,0c0,0,0,0,0,0c0.1,0,0,0,0,0c0,0-0.1,0-0.1,0
		c-0.1,0-0.2,0-0.2,0.1c0,0-0.1,0-0.1,0c0,0,0,0,0,0c0,0-0.1,0-0.1,0C24.9,4.4,25,4.3,25,4.1C25.2,3.6,25.3,3.3,25.1,2.8
		C25.2,2.8,25.2,2.8,25.1,2.8z"/>
	<path class="st1" d="M31.8,8.4c0-0.1,0-0.1,0-0.2c0-0.1,0-0.1-0.1-0.2c-0.1-0.1-0.2,0-0.2,0c0,0,0,0-0.1,0c0,0-0.1,0.1-0.1,0.1
		c0,0,0,0,0,0c0,0,0,0,0,0c0,0,0,0,0,0c0,0-0.1,0-0.1,0.1c0,0,0,0,0,0.1c0,0,0,0,0,0c0,0,0,0,0,0c0,0,0,0,0,0
		c-0.2,0-0.4,0.1-0.5,0.1c-0.4,0.1-0.9,0.3-1.3,0.5c0.1-0.2,0.1-0.3,0.2-0.5c0-0.1,0-0.3-0.1-0.4c-0.1-0.1-0.3-0.1-0.4,0
		c-0.3,0.3-0.4,0.6-0.6,1c-0.1,0.1-0.1,0.3-0.1,0.4c-0.4,0.3-0.7,0.5-1.1,0.9c-0.4,0.4-1.1,1-0.9,1.6c0,0.1,0.2,0.2,0.3,0.2
		c0.5-0.1,0.9-0.8,1.2-1.1c0.4-0.4,0.9-0.8,1.4-1.1c0.1-0.1,0.3-0.2,0.5-0.2c0,0.1,0.1,0.1,0.1,0.2c0.1,0.1,0.1,0.1,0.2,0.2
		c0.2,0.1,0.4,0.2,0.6,0.2c0.2,0.1,0.3,0.1,0.5,0.1c0.1,0,0.2,0,0.3,0.1c0.1,0,0.3,0,0.4,0c0.2-0.1,0.2-0.3,0.1-0.5
		c-0.1-0.1-0.4-0.2-0.6-0.2c-0.2,0-0.4-0.1-0.5-0.1c-0.2,0-0.3-0.1-0.5-0.1c0,0-0.1,0-0.1,0c0.2-0.1,0.4-0.2,0.6-0.2
		c0.5-0.2,1.2-0.2,1.6-0.6c0.1-0.1,0-0.1,0-0.2C32.2,8.5,32,8.4,31.8,8.4z"/>
	<path class="st2" d="M35.5,14.4c-0.7-2.3-2.9-4.1-5.3-4.1c-2.1,0-3.9,1.1-4.9,2.7c-1.5-1.4-3.8-1.9-5.7-1.1
		c-1.9,0.8-3.1,2.7-3.2,4.7c-0.7-0.1-1.5,0.1-2.1,0.5c-1,0.7-1.6,1.8-1.6,2.9c-2.3,0.5-4.2,2.7-4.5,5.1c-0.3,2.6,1.4,5.2,3.8,6.2
		c-0.2,3.8,3.1,7.2,6.8,7.5c-0.1,1.6,0.4,3.3,1.7,4.4c1.3,1.2,3.1,1.6,4.8,1.3c1.2,2.9,4.1,5.4,7.3,5c1.8-0.2,3.1-1.7,3.7-3.3
		c0.5-1.2,0.5-2.6,0.3-3.9c1.8-0.4,3.5-1.6,4.3-3.4c0.8-1.7,0.6-3.6-0.3-5.2c1.6-1,2.8-2.8,2.8-4.8c0-2-1.1-3.9-2.8-4.9
		c0.9-1.8,1.1-3.9,0.2-5.8C39.8,16.1,37.7,14.7,35.5,14.4z"/>
	<path class="st3" d="M33.4,16.3c-1.4,0.9-2.9,1.8-4.6,1.3c-1.7-0.5-2-2.1-3.3-3c-0.1-0.1-0.2,0-0.3,0c-0.2,0-0.5,0.2-0.6,0.4
		c-0.3,0.6-0.2,1.3-0.5,1.9c-0.4,0.8-1.1,1.5-1.9,1.8c-1.5,0.5-3.3-0.2-4-1.6c-0.3-0.6-1.2-0.4-1.2,0.3c-0.1,1.8,2.2,2.9,4,3
		c-0.5,0.7-0.3,1.5,0.1,2.2c-0.2,0-0.3,0-0.5,0.2c-0.8,0.9-1.7,1.5-2.9,1.4c-1.6-0.2-3-1.4-3.3-3c-0.1-0.7-1.3-0.6-1.2,0.1
		c0.2,2.5,2.1,4.3,4.5,4.7c0.1,0,0.3,0,0.4,0c-0.4,0.5-0.6,1.1-1,1.7c-0.9,1.2-2,1.8-3.4,2c-0.6,0.1-0.6,1,0,1.1
		c1.4,0.3,2.9-0.2,4-1.1c0.1-0.1,0.1-0.1,0.2-0.2c0.2,2.3,2.1,4.6,4.3,5.2c0,0.1-0.1,0.1-0.1,0.2c-0.3,0.6-0.8,1.2-1.3,1.7
		c-0.4,0.4-0.9,0.7-1.1,1.3c0,0.1,0,0.2,0.1,0.2c1.1,0.8,3.2-0.8,3.9-2.3c0.3,0.7,1,1.4,1.5,1.9c1,0.8,2.4,1.5,3.7,1.5
		c-0.3,0.8-0.3,1.6-0.8,2.3c-0.6,0.9-1.5,1.2-2.3,1.9c-0.4,0.3-0.1,0.9,0.3,1c1.8,0.2,3.8-1.6,4.3-3.5c0.4,0.3,0.8,0.6,1.1,0.8
		c1.2,0.6,2.8,1.2,4,0.3c0.2-0.2,0.3-0.5,0.3-0.8c-0.1-0.3-0.2-0.5-0.5-0.7c-0.1-0.1-0.2,0-0.3,0.1c-0.1,0.1-1,0.1-1.1,0.1
		c-0.6-0.1-1.2-0.2-1.7-0.5c-0.6-0.3-1-0.8-1.5-1.2c1.7-0.7,3.4-2.3,3.2-3.9c0.2-0.3,0.3-0.6,0.3-0.9c0-0.2-0.1-0.5-0.3-0.6
		c-0.3-0.2-0.6-0.1-0.7,0.1c0,0,0,0,0,0c-0.1-0.1-0.3,0-0.3,0.1c-0.1,0.9-1.2,2-1.8,2.5c-0.8,0.7-1.8,1.1-2.9,0.9
		c-1-0.2-1.9-0.7-2.6-1.4c-0.3-0.3-0.5-0.7-0.9-1c0.6-0.2,1.1-0.6,1.5-1.2c0.3-0.4,0.4-0.8,0.3-1.1c0.2,0,0.4,0.1,0.6,0.1
		c1.7,0.2,3.3,0,4.3-1.5c0.7,0.8,1.6,1.4,2.2,1.7c1.4,0.7,3.8,1.5,4.9,0c0.4-0.6-0.2-1.4-0.9-1.3c-1.4,0.3-2.6,0.1-3.9-0.6
		c-0.6-0.3-1.1-0.7-1.5-1.2c0,0,0,0,0,0c0.5-1.1,0.8-2.5,0.6-3.5c0.7,0.2,1.3,0.2,1.9,0.1c1-0.2,2.1-0.8,2.6-1.7
		c0.9,0.3,1.6,0.1,2.1-0.5c0.2-0.3,0.1-0.6-0.2-0.8c-0.6-0.4-1.4-0.6-2.1-0.9c0,0,0,0,0,0c0-0.1-0.1-0.1-0.2-0.1
		c-0.1-0.1-0.2-0.1-0.4-0.2c-1-0.7-1.7-1.5-2.1-2.7c-0.1-0.2-0.3-0.4-0.5-0.5c0.3-0.3,0.6-0.6,0.7-0.9C35,16.9,34.3,15.7,33.4,16.3z
		 M31,25.5c-0.3,0.9-0.4,1.9-0.7,2.8c-0.2,0.6-0.4,1.4-0.9,1.8c-0.5,0.4-1.4,0.4-2,0.4c-1.6-0.1-2.4-0.9-2.9-2.4
		c-0.2-0.7,0-1.5-0.3-2.2c0-0.1-0.2-0.1-0.3-0.1c-1.3,0.7-0.8,2.6-0.4,3.7c0.4,1,0.9,1.7,1.5,2.1c0,0-0.1,0-0.1,0
		c-0.5,0.3-0.9,0.8-1.5,1c-0.9,0.4-1.5,0.2-2.3-0.3c-1.4-0.9-2-2.2-2.5-3.7c0,0,0-0.1,0-0.1c0.6-0.8,1-1.7,0.7-2.6
		c1.3-0.3,2.6-1,2.4-2.4c0.1,0.1,0.2,0.3,0.4,0.4c1.1,1.1,2.5,1.8,4,1.9c1.3,0.1,3.1-0.6,4.2-1.7c0.3,0.4,0.6,0.7,1,1
		C31.1,25.2,31.1,25.4,31,25.5z M35.5,23.3c-0.5,0.4-1,0.7-1.5,0.7c-1.2,0.1-2-0.6-3-1c0.2-0.6,0.2-1.4-0.4-2.1
		c-0.1-0.1-0.2-0.1-0.3,0c-1.2,1.1-2,2.9-3.8,3c-2.1,0.2-3.8-1.4-4.5-3.2c0,0,0-0.1-0.1-0.1c0.1,0,0.3,0,0.4,0
		c1.2-0.2,2.8-1.4,3.6-2.8c0.7,0.9,1.6,1.6,2.6,1.8c1.2,0.4,3.3,0.3,4.8-0.4C32.7,20.4,34,22.2,35.5,23.3z"/>
	<path class="st4" d="M15.9,32.9c0.1,0.1,0.1,0.1,0.2,0.2c-0.3-0.3-0.7-0.4-1.1-0.3c-0.4,0.1-0.8,0.4-0.9,0.8
		c-0.1,0.4-0.1,0.8,0.1,1.2c0.2,0.4,0.5,0.7,1,0.8c0.4,0.1,0.7,0.1,1.1-0.2c0.3-0.2,0.6-0.6,0.5-1c0-0.2,0-0.5-0.1-0.7
		c0-0.1-0.1-0.1-0.1-0.2c-0.1-0.2-0.1-0.3-0.3-0.4C16.1,33,16,33,15.9,32.9z"/>
	<path class="st4" d="M18.2,34.6c-0.1-0.1-0.3-0.2-0.5-0.2c-0.2,0-0.4,0.1-0.5,0.2c-0.1,0.1-0.2,0.3-0.2,0.5c0,0.2,0,0.4,0.2,0.5
		c0,0,0,0,0.1,0.1c0.1,0.1,0.3,0.2,0.5,0.2c0.2,0,0.4-0.1,0.5-0.2c0.1-0.1,0.2-0.3,0.2-0.5C18.5,35,18.4,34.8,18.2,34.6
		C18.3,34.6,18.2,34.6,18.2,34.6z"/>
	<path class="st4" d="M10.7,23.4c-0.2-0.1-0.4-0.1-0.7,0c-0.4,0.1-0.5,0.7-0.4,1.1c0.1,0.2,0.2,0.4,0.4,0.5c0.2,0.1,0.5,0.2,0.8,0
		c0.4-0.3,0.5-0.8,0.3-1.2C11.1,23.7,10.9,23.5,10.7,23.4z"/>
	<path class="st4" d="M22.8,39.9C22.8,39.9,23,40,22.8,39.9c-0.5-0.3-1.2,0.1-1.2,0.7c0,0.4,0.1,0.7,0.4,0.9
		c0.1,0.1,0.3,0.2,0.5,0.2c0.2,0,0.4,0,0.6-0.1c0.2-0.1,0.3-0.3,0.4-0.4c0.1-0.2,0.1-0.3,0.1-0.5c0-0.2-0.2-0.4-0.3-0.6
		C23.1,40.1,23,40,22.8,39.9z"/>
	<path class="st4" d="M30.1,45.3c-0.5,0.4-0.4,1-0.1,1.5c0.2,0.3,0.7,0.5,1,0.6c0.1,0,0.3,0,0.4,0c0.4,0,0.6-0.1,1-0.4
		c0.5-0.4,0.5-1.3,0.1-1.7C32,44.7,30.8,44.7,30.1,45.3z"/>
	<path class="st4" d="M34.1,44.3C34.1,44.3,34.1,44.3,34.1,44.3C34.1,44.3,34.1,44.3,34.1,44.3C34.1,44.3,34.1,44.3,34.1,44.3
		c-0.2-0.1-0.3-0.1-0.4-0.1c-0.1,0-0.2,0-0.3,0c0,0,0.1,0,0.1,0c-0.2,0-0.4,0.1-0.5,0.3c-0.2,0.2-0.2,0.4-0.2,0.6
		c0,0.4,0.4,0.7,0.7,0.8c0.2,0,0.5,0,0.7-0.1c0.3-0.1,0.5-0.5,0.4-0.8c0-0.1-0.1-0.3-0.2-0.4C34.4,44.4,34.3,44.4,34.1,44.3z"/>
	<path class="st4" d="M38.3,36.5c-0.4-0.2-1-0.2-1.3,0.1c-0.1,0.1-0.2,0.3-0.3,0.4c-0.1,0.2-0.1,0.3-0.1,0.5c0,0.6,0.5,1.1,1,1.1
		c0.6,0,1.1-0.4,1.2-0.9C38.9,37.3,38.7,36.7,38.3,36.5z"/>
	<path class="st4" d="M38.8,27.6c-0.1,0.1-0.3,0.2-0.4,0.3c-0.2,0.2-0.3,0.4-0.4,0.7c-0.1,0.2,0,0.7,0.1,0.9
		c0.1,0.2,0.3,0.4,0.6,0.5c0.5,0.2,1.2,0.1,1.5-0.4c0.2-0.3,0.3-0.6,0.3-0.9c0-0.2-0.1-0.4-0.2-0.6C40,27.5,39.2,27.2,38.8,27.6z"/>
	<g>
		<path class="st4" d="M28.5,33.4c0,0,0.1,0,0.1,0C28.6,33.4,28.5,33.4,28.5,33.4C28.5,33.4,28.5,33.4,28.5,33.4z"/>
		<path class="st4" d="M28.9,33.6c0,0-0.1-0.1-0.1-0.1c0,0-0.1,0-0.1,0c-0.1,0-0.2,0-0.3,0c-0.1,0-0.2,0.1-0.3,0.2c0,0,0,0,0,0
			c-0.3,0.2-0.3,0.8,0,1c0.1,0.1,0.2,0.1,0.4,0.1c0.2,0,0.4-0.1,0.5-0.2c0,0,0.1-0.1,0.1-0.1c0-0.1,0.1-0.1,0.1-0.2
			c0-0.1,0-0.1,0-0.3c0-0.1,0-0.1-0.1-0.2C29,33.7,28.9,33.6,28.9,33.6z"/>
		<polygon class="st4" points="28.6,33.4 28.6,33.4 28.6,33.4 		"/>
	</g>
	<path class="st4" d="M21.3,28.9L21.3,28.9C21.2,28.8,21.2,28.8,21.3,28.9c-0.1-0.2-0.2-0.2-0.3-0.3c0,0,0,0,0,0
		c-0.1-0.1-0.2-0.1-0.4-0.1c-0.2,0.1-0.4,0.3-0.4,0.6c0,0.4,0.2,0.7,0.5,0.9c0.2,0.1,0.5,0.1,0.7-0.1c0.2-0.2,0.3-0.5,0.1-0.7
		c0,0-0.1-0.1-0.1-0.1c0,0,0,0,0,0C21.4,29,21.3,28.9,21.3,28.9z"/>
	<path class="st4" d="M27.5,27.1c-0.1,0-0.1-0.1-0.2-0.1c-0.1,0-0.2-0.1-0.3-0.1c-0.3,0-0.6,0.2-0.7,0.5c-0.1,0.1-0.1,0.2-0.1,0.4
		c0,0.1,0,0.1,0,0.2c0,0.1,0.1,0.2,0.2,0.3c0.1,0.1,0.3,0.2,0.4,0.3c0.1,0,0.2,0,0.3,0.1c0.2,0,0.4-0.1,0.6-0.2
		c0.1-0.1,0.3-0.4,0.3-0.5c0-0.2-0.1-0.4-0.2-0.6L27.5,27.1z"/>
	<path class="st4" d="M26,20.8c0-0.1-0.1-0.1-0.2-0.1c-0.1-0.1-0.2-0.1-0.3-0.1c-0.2,0-0.3,0-0.4,0.1c-0.1,0.1-0.2,0.2-0.3,0.3
		c0,0.1-0.1,0.1-0.1,0.2c0,0.1,0,0.2,0,0.3c0,0.1,0,0.1,0,0.2c0,0.1,0.1,0.2,0.2,0.3c0.1,0,0.1,0.1,0.2,0.1c0.1,0.1,0.3,0.1,0.4,0.1
		c0.2,0,0.4-0.1,0.6-0.2c0-0.1,0.1-0.1,0.1-0.2c0-0.1,0.1-0.1,0.1-0.2c0-0.1,0-0.1,0-0.2c0-0.1,0-0.2-0.1-0.3c0-0.1,0-0.1-0.1-0.2
		C26.1,20.9,26.1,20.9,26,20.8z"/>
	<path class="st4" d="M39.5,18.7c-0.1-0.1-0.2-0.2-0.3-0.3c-0.2-0.1-0.4-0.2-0.6-0.2c-0.4-0.1-0.8,0-1.1,0.3c-0.3,0.3-0.4,0.6-0.3,1
		c0,0.2,0.1,0.4,0.3,0.5c0.1,0.1,0.1,0.2,0.2,0.3c0.1,0.1,0.2,0.2,0.4,0.3c0.2,0.1,0.4,0.2,0.7,0.2c0.1,0,0.2,0,0.3,0
		c0.2,0,0.3-0.1,0.4-0.2c0.2-0.1,0.4-0.4,0.5-0.6c0.1-0.2,0.1-0.4,0-0.6C39.9,19.1,39.7,18.9,39.5,18.7z"/>
	<path class="st4" d="M37.4,17.4c0-0.1,0-0.1,0-0.2c0-0.3-0.3-0.6-0.6-0.6c-0.2,0-0.3,0-0.4,0.1c-0.1,0.1-0.3,0.2-0.3,0.3
		c-0.1,0.2-0.2,0.4-0.2,0.6c0,0.3,0.1,0.5,0.2,0.7c0.2,0.2,0.6,0.4,0.9,0.3c0.4-0.1,0.6-0.4,0.5-0.8c0,0,0,0,0,0
		c0-0.1,0-0.1-0.1-0.2C37.4,17.5,37.4,17.5,37.4,17.4z"/>
	<path class="st4" d="M29.9,11.7c-0.1,0-0.2-0.1-0.4-0.1c-0.4,0-0.8,0.2-1,0.6c-0.2,0.4-0.1,0.8,0.1,1.1c0,0,0,0,0,0c0,0,0,0,0,0
		c0.1,0.1,0.2,0.2,0.3,0.2c0.1,0.1,0.2,0.1,0.4,0.1c0,0,0,0,0.1,0c0.2,0,0.4,0,0.6-0.1c0.2-0.1,0.4-0.4,0.5-0.6
		c0.1-0.2,0.1-0.5-0.1-0.8C30.4,12,30.2,11.8,29.9,11.7z"/>
	<path class="st4" d="M21.4,13.5c-0.1-0.1-0.3-0.1-0.5-0.1c-0.3,0-0.4,0.1-0.6,0.2c-0.3,0.3-0.4,0.7-0.1,1.1
		c0.4,0.5,1.4,0.2,1.5-0.4C21.8,14,21.7,13.7,21.4,13.5z"/>
	<path class="st4" d="M16,19c0,0-0.1-0.1-0.1-0.1c0,0-0.1-0.1-0.2-0.1c0.1,0,0.1,0,0,0c-0.2-0.1-0.4,0-0.5,0.1
		c-0.1,0.2-0.1,0.3-0.2,0.5c0,0.3,0.1,0.5,0.3,0.7c0.2,0.2,0.6,0.3,0.9,0.1c0.3-0.2,0.3-0.5,0.2-0.8c0-0.1-0.1-0.2-0.2-0.3
		C16.2,19.1,16.1,19,16,19z"/>
</g>
</svg>
