<?xml version="1.0" encoding="utf-8"?>
<!-- Generator: Adobe Illustrator 25.3.1, SVG Export Plug-In . SVG Version: 6.00 Build 0)  -->
<svg version="1.1" id="圖層_1" xmlns="http://www.w3.org/2000/svg" xmlns:xlink="http://www.w3.org/1999/xlink" x="0px" y="0px"
	 viewBox="0 0 50 50" style="enable-background:new 0 0 50 50;" xml:space="preserve">
<style type="text/css">
	.st0{fill:#D69C63;}
	.st1{fill:#FFDBBB;}
	.st2{fill:#DEAB71;}
	.st3{fill:#C96649;}
	.st4{fill:#DD6043;}
	.st5{fill:#FBBE3B;}
	.st6{fill:#534741;}
</style>
<g>
	<path class="st0" d="M18.8,45.8c1.9-0.9,3.8-2,5.6-3.2c3.5-2.4,6.4-5.3,9.5-8.2c4.9-4.7,10.1-9.5,13.4-15.5c1-1.8,1.3-3.7,0.3-5.5
		c-1.3-2.3-3.6-2.3-5.9-1.7c-3.3,0.9-6.3,2.5-9,4.7c-4.7,3.7-9.1,7.9-13.2,12.3c-2.3,2.4-5,4.6-7,7.3c-2.1,3-3.2,7.3-0.4,10.3
		C14.2,48.1,16.5,46.9,18.8,45.8z M15.9,43.8c0.2-0.9,0.5-1.8,0.8-2.7c0.2-0.7,1.3-0.4,1.1,0.3c-0.3,0.9-0.6,1.8-0.8,2.7
		C16.8,44.8,15.8,44.5,15.9,43.8z M14.2,43.8c-0.1-1.5,0.1-3,0.5-4.4c0.2-0.7,1.3-0.4,1.1,0.3c-0.4,1.3-0.6,2.7-0.5,4.1
		C15.4,44.5,14.3,44.5,14.2,43.8z"/>
	<path class="st1" d="M30.5,6.4c-1.7,1-3.3,2.2-5,3.5c-0.3,0.3-0.5,0.5-0.7,0.7c-4.5,3.7-8.5,7.9-12.7,11.9c-2.1,2-3.9,4.4-5.8,6.6
		c-1.9,2.1-4.2,5-2.8,8c0.9-2.5,2.6-4.7,4.2-6.8c1.8-2.4,3.7-4.7,5.7-6.8c4.2-4.5,8.9-8.7,13.7-12.6c2.3-1.8,4.6-3.7,7-5.3
		c0.5-0.3,1-0.6,1.5-0.9c0,0,0,0,0,0c-0.4,0.1-0.8,0.1-1.3,0.2C33,5,31.7,5.6,30.5,6.4z"/>
	<path class="st2" d="M3.5,37c-1.4-3,0.9-5.9,2.8-8c1.9-2.2,3.6-4.6,5.8-6.6c4.2-3.9,8.2-8.2,12.7-11.9c0.3-0.2,0.4-0.4,0.7-0.7
		c1.7-1.3,3.2-2.5,5-3.5C31.7,5.6,33,5,34.4,4.7c0.4-0.1,0.8-0.1,1.3-0.2c-2.5-0.9-5.2,0.8-7.3,2.1c-1.9,1.2-3.6,2.6-5.3,4
		c-2.9,2.6-5.9,5.2-8.7,7.9c-2.6,2.4-5,5-7.5,7.5c-1.6,1.6-2.9,3.3-3.9,5.3c-1.1,2.2-0.9,4.1,0.5,5.9C3.5,37.1,3.5,37.1,3.5,37z"/>
	<path class="st3" d="M46.2,3.7c-0.1-0.1-0.3-0.2-0.4-0.2c-0.3-0.1-0.5-0.2-0.8-0.4c-0.3-0.1-0.6-0.2-0.8-0.3
		c0.1,0.5,0.2,1.1,0.3,1.6c0,0,0,0,0,0c0.4-0.1,0.7-0.3,1.1-0.4C45.7,3.9,45.9,3.8,46.2,3.7C46.1,3.7,46.1,3.7,46.2,3.7z"/>
	<path class="st4" d="M9.6,44.1c-0.7-2.4-0.2-5.2,1-7.5c2.2-3.9,6.1-6.8,9.1-10.1c2.5-2.7,5.3-5.1,8.1-7.6c2.8-2.6,5.7-5.1,9.1-6.8
		c2.2-1,5.1-2.4,7.7-2.1c1-1.2,1-2.9,0.1-4.2c-1-1.4-2.7-1.8-4.3-1.8c-3,0.1-5.6,2.2-7.9,3.9c-4.5,3.4-8.9,7-13,10.8
		c-4.2,3.9-8.2,8.2-11.5,12.8c-1.7,2.3-3.7,4.9-3.9,7.9C3.8,42.6,6.5,46.2,9.6,44.1z M6.7,35.3c0.3-0.2,0.8-0.1,1.1-0.1
		c1.1-0.1,1.9-0.5,2-1.6c0.1-0.8-0.4-1.7-0.2-2.5c0.1-0.6,0.5-1,1.1-1.3c1-0.5,1.8-0.1,2.8-0.8c1.2-0.9,0.9-2.2,1.3-3.5
		c0.2-0.6,0.5-1,1-1.4c1.8-1.1,5,0.4,5-2.8c0-1.5,0-3.3,1.7-4.1c0.7-0.3,1.5-0.2,2.2-0.1c0.5,0,1.5,0.3,1.9,0
		c0.6-0.3,0.5-1.5,0.6-2.1c0.2-1.7,1-2.9,2.8-3.2c1.4-0.2,2.7,0.1,3.5-1.4c0.4-0.6,0.4-1.4,0.9-2C35.7,7,37.6,9,38.8,7.2
		c0.4-0.6,1.3,0,1,0.6c-0.4,0.6-1,1.1-1.7,1.4c-0.7,0.3-0.9,0.1-1.7,0.1c-1.8-0.1-1.4,1.4-2.2,2.5c-0.5,0.6-1.1,0.9-1.9,1
		c-1.4,0.3-3.1-0.1-3.8,1.5c-0.4,0.9,0,2.1-0.4,3c-0.5,1.3-2.2,1.1-3.4,1c-0.9-0.1-1.8-0.1-2.4,0.7c-0.4,0.6-0.4,1.3-0.4,2
		c0,0.8,0,1.6-0.4,2.4c-0.7,1.3-2.2,1.3-3.5,1.5c-1.6,0.2-2.1,0.8-2.4,2.4c-0.2,0.8-0.2,1.8-0.7,2.5c-0.4,0.5-0.9,0.8-1.5,0.9
		c-0.4,0.1-0.9,0-1.3,0.1c-1,0.3-1.4,1-1.3,2c0.2,1.3,0.3,2.5-1,3.2c-0.7,0.4-2,0.2-2.5,0.6C6.6,37,7.3,39,7.6,39.8
		c0.3,0.7-0.8,0.9-1.1,0.3C6.1,39,5.3,36.2,6.7,35.3z"/>
	<path class="st3" d="M3.9,46.1C4,45.5,4,44.9,4.1,44.2c-0.7,0-1.4,0.1-2.1,0.2C2.6,45,3.3,45.5,3.9,46.1z"/>
	<path class="st5" d="M7.6,39.8C7.3,39,6.6,37,7.4,36.4c0.5-0.4,1.8-0.2,2.5-0.6c1.2-0.7,1.1-1.9,1-3.2c-0.1-1,0.3-1.7,1.3-2
		c0.4-0.1,0.9,0,1.3-0.1c0.6-0.1,1.1-0.4,1.5-0.9c0.5-0.7,0.6-1.7,0.7-2.5c0.3-1.6,0.8-2.2,2.4-2.4c1.3-0.1,2.8-0.2,3.5-1.5
		c0.4-0.7,0.4-1.6,0.4-2.4c0-0.7-0.1-1.4,0.4-2c0.6-0.8,1.5-0.7,2.4-0.7c1.1,0.1,2.8,0.3,3.4-1c0.4-0.9,0-2,0.4-3
		c0.7-1.6,2.3-1.3,3.8-1.5c0.7-0.1,1.4-0.4,1.9-1c0.8-1.1,0.4-2.6,2.2-2.5c0.8,0,1,0.3,1.7-0.1c0.7-0.3,1.3-0.8,1.7-1.4
		c0.4-0.6-0.6-1.2-1-0.6C37.6,9,35.7,7,34.4,8.5c-0.5,0.6-0.6,1.4-0.9,2c-0.8,1.4-2.2,1.1-3.5,1.4c-1.7,0.3-2.6,1.5-2.8,3.2
		c-0.1,0.6,0,1.8-0.6,2.1c-0.4,0.2-1.4,0-1.9,0c-0.7-0.1-1.5-0.2-2.2,0.1c-1.7,0.8-1.6,2.6-1.7,4.1c-0.1,3.2-3.2,1.6-5,2.8
		c-0.5,0.3-0.8,0.8-1,1.4c-0.5,1.3-0.2,2.6-1.3,3.5c-0.9,0.7-1.8,0.3-2.8,0.8C10.2,30,9.8,30.4,9.7,31c-0.2,0.9,0.3,1.7,0.2,2.5
		c-0.1,1.2-1,1.5-2,1.6c-0.3,0-0.8-0.1-1.1,0.1c-1.4,0.9-0.7,3.7-0.2,4.8C6.8,40.8,7.9,40.5,7.6,39.8z"/>
	<path class="st6" d="M46.9,11c-0.4-0.3-0.8-0.5-1.2-0.6C47,8.6,46.5,6.5,45.2,5c0.4-0.1,0.7-0.3,1.1-0.5c0.4-0.2,1.1-0.3,1.1-0.9
		c-0.1-0.6-0.9-0.8-1.3-1c-0.7-0.3-1.5-0.6-2.2-0.9c-0.2-0.1-0.6,0.1-0.5,0.4c0.1,0.5,0.2,1.1,0.3,1.6c-0.6-0.3-1.4-0.6-2.1-0.7
		c-1.6-0.2-3.1,0.2-4.5,0.8c0,0,0,0,0,0c-4.4-2.5-9.7,1.9-12.9,4.5c-3.7,3-7.3,6.4-10.8,9.7c-3.1,3-6.6,6.1-9.3,9.5
		C1.3,31-0.2,35,3.1,38.5c-0.3,1.7-0.2,3.5,0.6,4.9c-0.8,0-1.7,0.2-2.5,0.3c-0.3,0-0.5,0.3-0.4,0.6c0.8,1.2,2.1,1.9,3.1,3
		c0.3,0.3,0.7,0,0.7-0.3c0.1-0.7,0.1-1.5,0.2-2.2c1.4,1.2,3.5,1.4,5.1,0.4c0.3,0.6,0.7,1.2,1.1,1.7c0,0,0.1,0.1,0.1,0.1
		c0,0,0.1,0.1,0.1,0.1c2.9,2.4,6.1,0.6,9.1-0.9c4.1-2.1,7.7-5,11.1-8.1c3.3-3.1,6.7-6.1,9.8-9.5c1.3-1.4,2.4-2.9,3.5-4.5
		c1.2-1.7,2.5-3.2,3.5-5C49.7,16.4,49.6,12.9,46.9,11z M4.1,44.2C4,44.9,4,45.5,3.9,46.1C3.3,45.5,2.6,45,2,44.4
		C2.7,44.3,3.4,44.2,4.1,44.2z M2.9,31.3c1-2,2.3-3.7,3.9-5.3c2.5-2.5,4.9-5.1,7.5-7.5c2.9-2.7,5.8-5.3,8.7-7.9
		c1.7-1.5,3.4-2.8,5.3-4c2.1-1.4,4.8-3,7.3-2.1c0,0,0,0,0,0c-0.5,0.3-1,0.6-1.5,0.9c-2.4,1.6-4.7,3.5-7,5.3
		c-4.8,3.9-9.5,8-13.7,12.6c-2,2.2-4,4.5-5.7,6.8c-1.6,2.1-3.3,4.3-4.2,6.8c0,0.1,0,0.1-0.1,0.2C2.1,35.5,1.9,33.5,2.9,31.3z
		 M4,39.6c0.2-2.9,2.2-5.6,3.9-7.9c3.4-4.7,7.3-8.9,11.5-12.8c4.1-3.9,8.5-7.5,13-10.8c2.3-1.7,4.9-3.8,7.9-3.9
		c1.6-0.1,3.4,0.4,4.3,1.8c0.9,1.3,0.9,3-0.1,4.2c-2.6-0.3-5.5,1-7.7,2.1c-3.5,1.7-6.3,4.3-9.1,6.8c-2.7,2.5-5.5,4.9-8.1,7.6
		c-3,3.2-6.9,6.2-9.1,10.1c-1.3,2.3-1.8,5.1-1,7.5C6.5,46.2,3.8,42.6,4,39.6z M44.5,4.4C44.5,4.4,44.5,4.4,44.5,4.4
		c-0.1-0.6-0.3-1.1-0.4-1.6C44.4,2.9,44.7,3,45,3.1c0.3,0.1,0.5,0.2,0.8,0.4c0.1,0,0.2,0.1,0.4,0.2c0,0-0.1,0-0.1,0
		c-0.2,0.1-0.3,0.2-0.5,0.2C45.2,4.1,44.9,4.3,44.5,4.4z M12.4,35.9c2-2.7,4.7-4.9,7-7.3c4.1-4.4,8.5-8.6,13.2-12.3
		c2.7-2.1,5.7-3.8,9-4.7c2.3-0.6,4.6-0.6,5.9,1.7c1,1.8,0.7,3.8-0.3,5.5c-3.3,6.1-8.4,10.9-13.4,15.5c-3.1,2.9-6,5.8-9.5,8.2
		c-1.8,1.2-3.6,2.3-5.6,3.2c-2.3,1.1-4.5,2.3-6.7,0.4C9.2,43.2,10.3,38.9,12.4,35.9z"/>
	<path class="st6" d="M15.3,43.8c-0.1-1.4,0-2.8,0.5-4.1c0.2-0.7-0.8-1-1.1-0.3c-0.5,1.4-0.6,2.9-0.5,4.4
		C14.3,44.5,15.4,44.5,15.3,43.8z"/>
	<path class="st6" d="M17,44.1c0.2-0.9,0.5-1.8,0.8-2.7c0.2-0.7-0.8-1-1.1-0.3c-0.3,0.9-0.6,1.8-0.8,2.7
		C15.8,44.5,16.8,44.8,17,44.1z"/>
</g>
</svg>
