<?xml version="1.0" encoding="utf-8"?>
<!-- Generator: Adobe Illustrator 25.3.1, SVG Export Plug-In . SVG Version: 6.00 Build 0)  -->
<svg version="1.1" id="圖層_1" xmlns="http://www.w3.org/2000/svg" xmlns:xlink="http://www.w3.org/1999/xlink" x="0px" y="0px"
	 viewBox="0 0 50 50" style="enable-background:new 0 0 50 50;" xml:space="preserve">
<style type="text/css">
	.st0{fill:#F7F7F7;}
	.st1{opacity:0.4;}
	.st2{fill:#D83535;}
	.st3{opacity:0.6;}
	.st4{fill:#F77F7F;}
</style>
<rect x="-1" y="-1.2" class="st0" width="51.8" height="51.8"/>
<g class="st1">
	<rect x="-37.6" y="-49.3" class="st2" width="5" height="148.6"/>
	<rect x="82.6" y="-49.3" class="st2" width="5" height="148.6"/>
	<rect x="72.6" y="-49.3" class="st2" width="5" height="148.6"/>
	<rect x="62.5" y="-49.3" class="st2" width="5" height="148.6"/>
	<rect x="52.5" y="-49.3" class="st2" width="5" height="148.6"/>
	<rect x="42.5" y="-49.3" class="st2" width="5" height="148.6"/>
	<rect x="32.5" y="-49.3" class="st2" width="5" height="148.6"/>
	<rect x="22.5" y="-49.3" class="st2" width="5" height="148.6"/>
	<rect x="12.5" y="-49.3" class="st2" width="5" height="148.6"/>
	<rect x="2.5" y="-49.3" class="st2" width="5" height="148.6"/>
	<rect x="-7.5" y="-49.3" class="st2" width="5" height="148.6"/>
	<rect x="-17.6" y="-49.3" class="st2" width="5" height="148.6"/>
	<rect x="-27.6" y="-49.3" class="st2" width="5" height="148.6"/>
</g>
<g class="st3">
	
		<rect x="22.5" y="-112.6" transform="matrix(-1.836970e-16 1 -1 -1.836970e-16 -13.2752 -63.2752)" class="st4" width="5" height="148.6"/>
	
		<rect x="22.5" y="7.6" transform="matrix(-1.836970e-16 1 -1 -1.836970e-16 106.8814 56.8814)" class="st4" width="5" height="148.6"/>
	
		<rect x="22.5" y="-2.4" transform="matrix(-1.836970e-16 1 -1 -1.836970e-16 96.8683 46.8683)" class="st4" width="5" height="148.6"/>
	
		<rect x="22.5" y="-12.4" transform="matrix(-1.836970e-16 1 -1 -1.836970e-16 86.8553 36.8553)" class="st4" width="5" height="148.6"/>
	
		<rect x="22.5" y="-22.4" transform="matrix(-1.836970e-16 1 -1 -1.836970e-16 76.8422 26.8422)" class="st4" width="5" height="148.6"/>
	
		<rect x="22.5" y="-32.5" transform="matrix(-1.836970e-16 1 -1 -1.836970e-16 66.8292 16.8292)" class="st4" width="5" height="148.6"/>
	
		<rect x="22.5" y="-42.5" transform="matrix(-1.836970e-16 1 -1 -1.836970e-16 56.8161 6.8161)" class="st4" width="5" height="148.6"/>
	
		<rect x="22.5" y="-52.5" transform="matrix(-1.836970e-16 1 -1 -1.836970e-16 46.8031 -3.1969)" class="st4" width="5" height="148.6"/>
	
		<rect x="22.5" y="-62.5" transform="matrix(-1.836970e-16 1 -1 -1.836970e-16 36.7901 -13.2099)" class="st4" width="5" height="148.6"/>
	
		<rect x="22.5" y="-72.5" transform="matrix(-1.836970e-16 1 -1 -1.836970e-16 26.777 -23.223)" class="st4" width="5" height="148.6"/>
	
		<rect x="22.5" y="-82.5" transform="matrix(-1.836970e-16 1 -1 -1.836970e-16 16.764 -33.236)" class="st4" width="5" height="148.6"/>
	
		<rect x="22.5" y="-92.5" transform="matrix(-1.836970e-16 1 -1 -1.836970e-16 6.7509 -43.2491)" class="st4" width="5" height="148.6"/>
	
		<rect x="22.5" y="-102.6" transform="matrix(-1.836970e-16 1 -1 -1.836970e-16 -3.2621 -53.2621)" class="st4" width="5" height="148.6"/>
</g>
</svg>
