<?xml version="1.0" encoding="utf-8"?>
<!-- Generator: Adobe Illustrator 25.3.1, SVG Export Plug-In . SVG Version: 6.00 Build 0)  -->
<svg version="1.1" id="圖層_1" xmlns="http://www.w3.org/2000/svg" xmlns:xlink="http://www.w3.org/1999/xlink" x="0px" y="0px"
	 viewBox="0 0 50 50" style="enable-background:new 0 0 50 50;" xml:space="preserve">
<style type="text/css">
	.st0{fill:#EF8810;}
	.st1{fill:#F7AF44;}
	.st2{fill:#E86018;}
	.st3{fill:#71454F;}
	.st4{fill:#534741;}
</style>
<g>
	<g>
		<g>
			<path class="st0" d="M42.8,19.2C39,12.3,29.9,6.8,22,7.8c-2.1,0.3-4.1,1-6,2c-3.9,2.2-7,5.6-8.8,9.6c-1.9,4.1-2.7,8.9-2.1,13.4
				c0.3,2.4,1,4.6,2.3,6.6c1.2,2,2.8,3.5,4.7,4.8c7.7,5.4,18.7,6.8,26.4,0.6c3.8-3.1,5.7-7.7,6.5-12.4C45.6,28,45,23.3,42.8,19.2z"
				/>
		</g>
		<g>
			<path class="st1" d="M36.1,14c0-0.1-0.1-0.1-0.1-0.2c-0.1-0.2-0.2-0.4-0.4-0.6s-0.3-0.3-0.5-0.5c-0.2-0.1-0.4-0.2-0.6-0.3h-0.1
				c-0.2,0-0.3,0-0.5,0.1l-0.1,0.1c-0.1,0-0.1,0-0.2,0c-0.1,0-0.3,0.2-0.3,0.3c0,0,0,0.1,0.1,0.1c0,0.1-0.1,0.2,0,0.4c0,0,0,0,0,0.1
				c0,0.2,0.1,0.4,0.2,0.6c0.1,0.1,0.2,0.2,0.3,0.3c0.1,0.1,0.2,0.2,0.3,0.4c0,0.1,0.1,0.1,0.1,0.2c0.2,0.2,0.3,0.3,0.5,0.4l0,0
				c0.2,0.1,0.3,0.1,0.5,0.1c0.1,0,0.2-0.1,0.3-0.1c0.2-0.1,0.4-0.4,0.5-0.7l0,0C36.2,14.5,36.2,14.2,36.1,14z"/>
		</g>
		<g>
			<path class="st1" d="M37.1,17c0-0.1-0.1-0.2-0.1-0.3s-0.1-0.1-0.1-0.2c-0.1-0.1-0.2-0.2-0.4-0.3c-0.1,0-0.1-0.1-0.2-0.1
				c0.1,0,0.1,0.1,0.2,0.1c-0.1,0-0.1-0.1-0.2-0.1l-0.1-0.1c0,0,0,0-0.1-0.1c0,0,0,0-0.1-0.1l0,0l-0.1-0.1c-0.1-0.1-0.3-0.1-0.4-0.2
				c-0.2,0-0.3,0-0.5,0.1c-0.1,0.1-0.2,0.2-0.3,0.3c-0.1,0.1-0.1,0.3-0.1,0.5s0.1,0.5,0.3,0.6c0.1,0.1,0.2,0.2,0.4,0.3
				c0.2,0.1,0.3,0.2,0.5,0.2h0.1c0.2,0,0.4,0,0.5,0c0.1,0,0.2-0.1,0.2-0.1c0.1-0.1,0.1-0.1,0.2-0.2c0,0,0,0,0.1-0.1
				C37.1,17.3,37.1,17.1,37.1,17z"/>
		</g>
		<g>
			<path class="st1" d="M40.2,17.6C40.1,17.6,40.1,17.5,40.2,17.6c-0.1-0.2-0.1-0.3-0.2-0.4c-0.1-0.1-0.2-0.2-0.3-0.2
				c-0.1-0.1-0.2-0.1-0.3-0.2c-0.1,0-0.2-0.1-0.2-0.1c-0.1,0-0.2,0-0.2,0h-0.1c0,0,0,0-0.1,0s-0.2,0.1-0.3,0.2c0,0-0.1,0-0.1,0.1
				v0.1c0,0.1,0,0.2,0,0.3l0,0c0,0.1,0,0.2,0.1,0.3c0,0.1,0.1,0.2,0.1,0.2c0,0.1,0.1,0.2,0.2,0.3l0.1,0.1c0.1,0.2,0.5,0.4,0.8,0.4
				c0.1,0,0.1,0,0.2,0l0,0H40c0.1,0,0.1-0.1,0.2-0.2l0.1-0.1c0,0,0,0,0-0.1c0-0.1,0.1-0.2,0.1-0.2C40.2,17.8,40.2,17.7,40.2,17.6z"
				/>
		</g>
		<g>
			<path class="st1" d="M40.9,21C40.9,20.9,40.9,20.9,40.9,21C40.9,20.9,40.9,20.9,40.9,21C40.8,20.9,40.8,20.9,40.9,21
				C40.9,20.9,40.9,20.9,40.9,21c-0.1-0.3-0.3-0.5-0.5-0.6c-0.1,0-0.1-0.1-0.2-0.1c-0.1-0.1-0.3-0.1-0.4-0.1h-0.1
				c-0.2,0-0.4,0-0.5,0.1c-0.1,0-0.2,0.1-0.2,0.2c-0.1,0.1-0.1,0.3-0.1,0.4c0,0,0,0,0-0.1c0,0.1,0,0.2,0,0.3c0,0.1,0.1,0.2,0.1,0.3
				c0.1,0.1,0.1,0.1,0.2,0.2l0.1,0.1c0.2,0.1,0.3,0.1,0.5,0.2c0.1,0,0.1,0,0.2,0c0.4,0.1,0.8-0.1,0.9-0.5c0,0.1-0.1,0.1-0.1,0.2l0,0
				c0.1-0.1,0.1-0.3,0.1-0.4C40.9,21.1,40.9,21,40.9,21z"/>
		</g>
		<g>
			<path class="st1" d="M42.9,22.5L42.9,22.5c0-0.1,0-0.2-0.1-0.2c0-0.1-0.1-0.2-0.2-0.3L42.5,22l-0.1-0.1c-0.1-0.1-0.1-0.1-0.2-0.2
				c-0.1-0.1-0.2-0.1-0.3-0.1c0,0,0,0-0.1,0s-0.1,0-0.2,0s-0.2,0.1-0.3,0.1l0,0c-0.1,0.1-0.2,0.1-0.2,0.2c-0.1,0.1-0.2,0.3-0.2,0.4
				s0,0.1,0,0.2c0,0.2,0,0.2,0,0.4c0,0.1,0.1,0.2,0.2,0.3l0,0c0,0,0,0.1,0.1,0.1c0.1,0.1,0.1,0.1,0.2,0.2c0.1,0.1,0.2,0.1,0.3,0.2
				c0.1,0,0.2,0,0.2,0c0.1,0,0.2,0,0.4-0.1c0.1,0,0.1-0.1,0.2-0.1c0.1-0.1,0.1-0.1,0.2-0.2c0.1-0.1,0.1-0.2,0.2-0.3
				C43,22.8,43,22.7,42.9,22.5z"/>
		</g>
		<g>
			<path class="st2" d="M27.6,43.6c-5.5-0.9-10.5-4.2-13.4-8.9c-1.8-2.7-2.7-5.9-3.4-9.1c-0.5-2.3-0.8-4.6-0.5-6.9
				c0.2-2.1,0.9-4,1.8-5.9c-2,1.9-3.6,4.1-4.8,6.7c-1.9,4.1-2.7,8.9-2.1,13.4c0.3,2.4,1,4.6,2.3,6.6c1.2,2,2.8,3.5,4.7,4.8
				c7.7,5.4,18.7,6.8,26.4,0.6c1.9-1.5,3.2-3.3,4.3-5.4C38.4,42.9,32.9,44.4,27.6,43.6z"/>
		</g>
		<g>
			<path class="st0" d="M9.8,33.4c0,0.1,0,0.1-0.1,0.2c0-0.2,0.1-0.3,0.1-0.5V33c0-0.1-0.1-0.2-0.1-0.3c0-0.1-0.1-0.3-0.1-0.4
				s0-0.1,0-0.2c0-0.3-0.1-0.5-0.3-0.6c-0.1-0.1-0.3-0.2-0.5-0.2c-0.2,0-0.3,0-0.5,0.1C8.1,31.6,8,31.8,8,32c0,0.1,0,0.2,0,0.3
				c0,0.1,0,0.2,0,0.2c0,0.2,0,0.3,0.1,0.5c0.1,0.3,0.2,0.7,0.4,0.9C8.7,34,9,34.1,9.3,34.1c0.1,0,0.2,0,0.2-0.1l0,0
				C9.7,33.9,9.8,33.6,9.8,33.4z"/>
		</g>
		<g>
			<path class="st0" d="M10.4,36.6c0-0.1-0.1-0.1-0.1-0.2l0,0l0,0l0,0l0,0c-0.1-0.2-0.2-0.3-0.4-0.4l0,0c-0.1,0-0.1-0.1-0.2-0.1
				c-0.1-0.1-0.2-0.2-0.3-0.2l0,0l0,0l0,0c-0.1-0.2-0.4-0.3-0.6-0.2c-0.1,0-0.2,0.1-0.2,0.1c-0.1,0.1-0.1,0.2-0.2,0.3
				c0,0.1,0,0.2,0,0.3c0,0.1,0,0.2,0,0.3s0.1,0.3,0.2,0.4c0.1,0.1,0.2,0.2,0.3,0.3c0.1,0.1,0.3,0.2,0.5,0.3c0.2,0.1,0.5,0.1,0.7,0
				c0,0,0,0,0.1,0s0.1-0.1,0.2-0.1l0.1-0.1c0.1-0.1,0.1-0.1,0.1-0.2C10.5,36.8,10.5,36.7,10.4,36.6z"/>
		</g>
		<g>
			<path class="st0" d="M12.7,37.9c0.1-0.1,0.2-0.3,0.2-0.6v-0.1c0-0.2-0.1-0.3-0.2-0.4c-0.1-0.1-0.1-0.3-0.3-0.4
				c-0.1-0.1-0.2-0.1-0.2-0.1c-0.1-0.1-0.2-0.1-0.3-0.1c-0.2,0-0.3,0.1-0.4,0.2c-0.1,0.1-0.1,0.2-0.1,0.3c0,0.1,0,0.1,0,0.2
				c0,0.1,0,0.3,0.1,0.4c0.1,0.1,0.1,0.3,0.2,0.4l0.1,0.1c0.1,0.2,0.3,0.2,0.5,0.3l0,0h0.1l0,0h0.1C12.6,38.1,12.7,38.1,12.7,37.9
				L12.7,37.9L12.7,37.9C12.7,38,12.7,37.9,12.7,37.9z"/>
		</g>
		<g>
			<path class="st0" d="M14,40.8c-0.1-0.6-0.7-0.8-1.3-1c-0.2,0-0.4-0.1-0.6-0.1c-0.1,0-0.1,0-0.2,0c-0.1,0-0.3,0.1-0.4,0.2
				s-0.2,0.2-0.2,0.3s0,0.2,0,0.3c0,0.2,0.1,0.3,0.2,0.4c0.2,0.2,0.4,0.3,0.6,0.4c0.4,0.2,1,0.4,1.4,0.1C13.9,41.4,14,41.1,14,40.8z
				"/>
		</g>
		<g>
			<path class="st0" d="M17.3,41.1L17.3,41.1c0-0.1,0-0.2,0-0.2c0-0.1,0-0.2-0.1-0.3c0-0.1-0.1-0.2-0.2-0.2
				c-0.1-0.1-0.1-0.1-0.2-0.2c0,0-0.1,0-0.1-0.1L16.7,40c-0.1-0.1-0.2-0.1-0.3-0.1c-0.1,0-0.1,0-0.2,0h-0.1c-0.1,0-0.1,0-0.2,0
				c-0.3-0.1-0.7,0.1-0.9,0.3c-0.1,0.1-0.2,0.3-0.2,0.5s0,0.3,0.1,0.5c0,0.1,0.1,0.1,0.1,0.2v0.1c0.1,0.2,0.2,0.4,0.4,0.5
				c0.1,0,0.1,0.1,0.2,0.1c0.1,0,0.2,0.1,0.2,0.1c0.1,0,0.2,0.1,0.3,0.1c0.1,0,0.2,0,0.3,0l0,0h0.1c0.1,0,0.3-0.1,0.4-0.1
				c0.1-0.1,0.2-0.1,0.3-0.2C17.3,41.6,17.4,41.4,17.3,41.1z"/>
		</g>
		<g>
			<path class="st0" d="M19.1,43.8c0-0.1,0-0.2,0-0.3S19,43.4,19,43.3c0-0.1-0.1-0.1-0.2-0.2l0,0L18.6,43l-0.2-0.1l0,0h-0.1h-0.1
				c-0.1,0-0.1,0-0.1,0l0,0l0,0H18c-0.1,0-0.2,0-0.2,0h0.1h-0.1c-0.1,0-0.2,0-0.3,0.1c-0.1,0-0.2,0.1-0.2,0.2
				c-0.1,0.2-0.2,0.4-0.2,0.6c0,0,0,0,0,0.1c0,0.1,0,0.2,0.1,0.2l0.1,0.2c0,0.1,0.1,0.1,0.2,0.2c0.1,0.1,0.2,0.2,0.3,0.2h0.1l0,0
				c0,0,0.2,0.1,0.3,0.1c0,0,0.2,0,0.3,0l0,0h0.1c0.1,0,0.2,0,0.2-0.1c0,0,0.1,0,0.1-0.1c0.1,0,0.1-0.1,0.2-0.1
				c0.1-0.1,0.1-0.1,0.2-0.2l0.1-0.1C19.1,43.9,19.1,43.9,19.1,43.8z"/>
		</g>
		<g>
			<path class="st2" d="M26,9.4c-0.6-0.2-1.2-0.3-1.8-0.1c-0.5,0.1-1,0.5-1,1s0.3,0.8,0.7,1.1c1.3,0.9,2.9,1.2,4.5,0.7
				c0.3-0.1,0.7-0.3,0.8-0.7c0.1-0.4-0.2-0.8-0.5-1.1c-0.5-0.4-1.2-0.7-1.9-0.7"/>
		</g>
		<g>
			<path class="st3" d="M29.6,2.3C29,0.9,27.1,0.6,26,1.6c-1.1,1-1.1,2.5-1.1,3.8c0,0.8-0.1,1.6-0.1,2.3c0,0.9,0,2.3,0.8,2.7
				c1.8,1.1,2.6-1.1,2.9-2.3l0.6-2c0.2-0.7,0.4-1.4,0.6-2.1C29.8,3.5,29.8,2.8,29.6,2.3z"/>
			<path class="st4" d="M26.5,11.3c-0.4,0-0.8-0.1-1.2-0.4c-1-0.6-1-2.2-1-3.2c0-0.3,0-0.7,0-1.1c0-0.4,0.1-0.8,0.1-1.2
				c0-1.4,0-3.1,1.2-4.2c0.6-0.6,1.6-0.9,2.5-0.7c0.9,0.2,1.6,0.8,1.9,1.6c0.2,0.5,0.3,1.2,0.1,2.1L29,8.4c-0.4,1.2-0.9,2.4-1.9,2.8
				C26.9,11.2,26.7,11.3,26.5,11.3z M27.6,1.5c-0.5,0-0.9,0.2-1.2,0.5c-0.9,0.8-0.9,2.2-0.9,3.5c0,0.4,0,0.8-0.1,1.2
				c0,0.4,0,0.7,0,1c0,0.7,0,2,0.6,2.3c0.3,0.2,0.6,0.3,0.9,0.2c0.7-0.3,1.1-1.6,1.3-2.2l1.2-4c0.1-0.6,0.1-1.2-0.1-1.5
				c-0.2-0.5-0.6-0.9-1.2-1C27.8,1.5,27.7,1.5,27.6,1.5z"/>
		</g>
	</g>
	<g>
		<path class="st4" d="M26.5,49.4c-5.4,0-10.8-2-14.7-4.8c-2.1-1.4-3.7-3.1-4.9-5c-1.2-1.9-2-4.1-2.3-6.8C4,28.4,4.7,23.5,6.7,19.2
			c2-4.2,5.2-7.7,9-9.9c1.9-1,4.1-1.7,6.2-2c0.8-0.1,1.6-0.1,2.4-0.1c0-0.2,0-0.4,0-0.6c0-0.4,0.1-0.8,0.1-1.2c0-1.4,0-3.1,1.2-4.2
			c0.6-0.6,1.6-0.9,2.5-0.7c0.9,0.2,1.6,0.8,1.9,1.6c0.2,0.5,0.3,1.2,0.1,2.1L29.1,8c5.9,1.7,11.4,6,14.1,11c2.2,4,3,8.8,2.2,13.6
			c-0.9,5.5-3.2,9.8-6.7,12.7C35.1,48.2,30.8,49.4,26.5,49.4z M23.8,8.2c-0.6,0-1.2,0-1.8,0.1c-2,0.3-4,0.9-5.8,1.9
			c-3.7,2-6.7,5.4-8.6,9.4c-1.9,4.1-2.6,8.8-2,13.2c0.3,2.5,1,4.6,2.2,6.4c1,1.7,2.6,3.3,4.6,4.7c6.8,4.8,17.8,7.1,25.8,0.6
			c3.3-2.7,5.4-6.8,6.3-12.1c0.7-4.6,0-9.2-2.1-12.9l0,0c-2.7-4.9-8.2-9.1-14-10.6l-0.5-0.1L28.1,8l1.2-4c0.1-0.6,0.1-1.2-0.1-1.5
			c-0.2-0.5-0.6-0.9-1.2-1c-0.6-0.1-1.2,0.1-1.6,0.5c-0.9,0.8-0.9,2.2-0.9,3.5c0,0.4,0,0.8-0.1,1.2c0,0.4,0,0.7,0,1v0.5l-0.5,0
			C24.4,8.2,24.1,8.2,23.8,8.2z"/>
	</g>
</g>
</svg>
