<?xml version="1.0" encoding="utf-8"?>
<!-- Generator: Adobe Illustrator 25.4.1, SVG Export Plug-In . SVG Version: 6.00 Build 0)  -->
<svg version="1.1" id="圖層_1" xmlns="http://www.w3.org/2000/svg" xmlns:xlink="http://www.w3.org/1999/xlink" x="0px" y="0px"
	 viewBox="0 0 50 50" style="enable-background:new 0 0 50 50;" xml:space="preserve">
<style type="text/css">
	.st0{fill:#EF8810;}
	.st1{fill:#F7AF44;}
	.st2{fill:#E86018;}
	.st3{fill:#71454F;}
</style>
<g>
	<path class="st0" d="M43.1,19.1c-3.8-7-13.1-12.6-21.2-11.6c-2.1,0.3-4.2,1-6.1,2c-4,2.2-7.1,5.7-9,9.8c-1.9,4.2-2.7,9.1-2.1,13.7
		c0.3,2.4,1,4.7,2.3,6.7c1.2,2,2.9,3.6,4.8,4.9c7.8,5.5,19.1,6.9,26.9,0.6c3.9-3.2,5.8-7.8,6.6-12.6C46,28.1,45.4,23.3,43.1,19.1z"
		/>
	<path class="st1" d="M36.3,13.8c0-0.1-0.1-0.1-0.1-0.2c-0.1-0.2-0.2-0.4-0.4-0.6c-0.2-0.2-0.3-0.3-0.5-0.5
		c-0.2-0.1-0.4-0.2-0.6-0.3c0,0-0.1,0-0.1,0c-0.2,0-0.3,0-0.5,0.1c0,0-0.1,0.1-0.1,0.1c-0.1,0-0.1,0-0.2,0c-0.1,0-0.3,0.2-0.3,0.3
		c0,0,0,0.1,0.1,0.1c0,0.1-0.1,0.2,0,0.4c0,0,0,0,0,0.1c0,0.2,0.1,0.4,0.2,0.6c0.1,0.1,0.2,0.2,0.3,0.3c0.1,0.1,0.2,0.2,0.3,0.4
		c0,0.1,0.1,0.1,0.1,0.2c0.2,0.2,0.3,0.3,0.5,0.4c0,0,0,0,0,0c0.2,0.1,0.3,0.1,0.5,0.1c0.1,0,0.2-0.1,0.3-0.1
		c0.2-0.1,0.4-0.4,0.5-0.7c0,0,0,0,0,0C36.4,14.3,36.4,14,36.3,13.8z"/>
	<path class="st1" d="M37.3,16.9c0-0.1-0.1-0.2-0.1-0.3c0-0.1-0.1-0.1-0.1-0.2c-0.1-0.1-0.2-0.2-0.4-0.3c-0.1,0-0.1-0.1-0.2-0.1
		c0.1,0,0.1,0.1,0.2,0.1c-0.1,0-0.1-0.1-0.2-0.1c0,0-0.1-0.1-0.1-0.1c0,0,0,0-0.1-0.1c0,0,0,0-0.1-0.1c0,0,0,0,0,0
		c0,0-0.1-0.1-0.1-0.1c-0.1-0.1-0.3-0.1-0.4-0.2c-0.2,0-0.3,0-0.5,0.1c-0.1,0.1-0.2,0.2-0.3,0.3c-0.1,0.1-0.1,0.3-0.1,0.5
		c0,0.2,0.1,0.5,0.3,0.6c0.1,0.1,0.2,0.2,0.4,0.3c0.2,0.1,0.3,0.2,0.5,0.2c0,0,0.1,0,0.1,0c0.2,0,0.4,0,0.5,0c0.1,0,0.2-0.1,0.2-0.1
		c0.1-0.1,0.1-0.1,0.2-0.2c0,0,0,0,0.1-0.1C37.3,17.2,37.3,17,37.3,16.9z"/>
	<path class="st1" d="M40.5,17.5C40.4,17.5,40.4,17.4,40.5,17.5c-0.1-0.2-0.1-0.3-0.2-0.4c-0.1-0.1-0.2-0.2-0.3-0.2
		c-0.1-0.1-0.2-0.1-0.3-0.2c-0.1,0-0.2-0.1-0.2-0.1c-0.1,0-0.2,0-0.2,0c0,0-0.1,0-0.1,0c0,0,0,0-0.1,0c-0.1,0-0.2,0.1-0.3,0.2
		c0,0-0.1,0-0.1,0.1c0,0,0,0.1,0,0.1c0,0.1,0,0.2,0,0.3c0,0,0,0,0,0c0,0.1,0,0.2,0.1,0.3c0,0.1,0.1,0.2,0.1,0.2
		c0,0.1,0.1,0.2,0.2,0.3c0,0,0.1,0.1,0.1,0.1c0.1,0.2,0.5,0.4,0.8,0.4c0.1,0,0.1,0,0.2,0c0,0,0,0,0,0c0,0,0.1,0,0.1,0
		c0.1,0,0.1-0.1,0.2-0.2c0,0,0.1-0.1,0.1-0.1c0,0,0,0,0-0.1c0-0.1,0.1-0.2,0.1-0.2C40.5,17.7,40.5,17.6,40.5,17.5z"/>
	<path class="st1" d="M41.2,20.9C41.2,20.8,41.2,20.8,41.2,20.9c0-0.1,0-0.1,0-0.1C41.1,20.8,41.1,20.8,41.2,20.9c0-0.1,0-0.1,0-0.1
		c-0.1-0.2-0.3-0.4-0.5-0.5c-0.1,0-0.1-0.1-0.2-0.1c-0.1-0.1-0.3-0.1-0.4-0.1c0,0-0.1,0-0.1,0c-0.2,0-0.4,0-0.5,0.1
		c-0.1,0-0.2,0.1-0.2,0.2c-0.1,0.1-0.1,0.3-0.1,0.4c0,0,0,0,0-0.1c0,0.1,0,0.2,0,0.3c0,0.1,0.1,0.2,0.1,0.3c0.1,0.1,0.1,0.1,0.2,0.2
		c0,0,0.1,0.1,0.1,0.1c0.2,0.1,0.3,0.1,0.5,0.2c0.1,0,0.1,0,0.2,0c0.4,0.1,0.8-0.1,0.9-0.5c0,0.1-0.1,0.1-0.1,0.2c0,0,0,0,0,0
		c0.1-0.1,0.1-0.3,0.1-0.4C41.2,21,41.2,20.9,41.2,20.9z"/>
	<path class="st1" d="M43.2,22.5C43.2,22.5,43.2,22.5,43.2,22.5c0-0.1,0-0.2-0.1-0.2c0-0.1-0.1-0.2-0.2-0.3c0,0-0.1-0.1-0.1-0.1
		c0,0-0.1-0.1-0.1-0.1c-0.1-0.1-0.1-0.1-0.2-0.2c-0.1-0.1-0.2-0.1-0.3-0.1c0,0,0,0-0.1,0c-0.1,0-0.1,0-0.2,0c-0.1,0-0.2,0.1-0.3,0.1
		c0,0,0,0,0,0c-0.1,0.1-0.2,0.1-0.2,0.2c-0.1,0.1-0.2,0.3-0.2,0.4c0,0.1,0,0.1,0,0.2c0,0.2,0,0.2,0,0.4c0,0.1,0.1,0.2,0.2,0.3
		c0,0,0,0,0,0c0,0,0,0.1,0.1,0.1c0.1,0.1,0.1,0.1,0.2,0.2c0.1,0.1,0.2,0.1,0.3,0.2c0.1,0,0.2,0,0.2,0c0.1,0,0.2,0,0.4-0.1
		c0.1,0,0.1-0.1,0.2-0.1c0.1-0.1,0.1-0.1,0.2-0.2c0.1-0.1,0.1-0.2,0.2-0.3C43.3,22.8,43.3,22.7,43.2,22.5z"/>
	<path class="st2" d="M27.6,43.9C22,43,16.9,39.6,13.9,34.8c-1.8-2.8-2.8-6-3.5-9.3c-0.5-2.3-0.8-4.7-0.5-7c0.2-2.1,0.9-4.1,1.8-6
		c-2,1.9-3.7,4.2-4.9,6.8c-1.9,4.2-2.7,9.1-2.1,13.7c0.3,2.4,1,4.7,2.3,6.7c1.2,2,2.9,3.6,4.8,4.9c7.8,5.5,19.1,6.9,26.9,0.6
		c1.9-1.5,3.3-3.4,4.4-5.5C38.7,43.2,33,44.8,27.6,43.9z"/>
	<path class="st0" d="M9.5,33.6c0,0.1,0,0.1-0.1,0.2c0-0.2,0.1-0.3,0.1-0.5c0,0,0-0.1,0-0.1c0-0.1-0.1-0.2-0.1-0.3
		c0-0.1-0.1-0.3-0.1-0.4c0-0.1,0-0.1,0-0.2c0-0.3-0.1-0.5-0.3-0.6c-0.1-0.1-0.3-0.2-0.5-0.2c-0.2,0-0.3,0-0.5,0.1
		c-0.2,0.1-0.3,0.3-0.3,0.5c0,0.1,0,0.2,0,0.3c0,0.1,0,0.2,0,0.2c0,0.2,0,0.3,0.1,0.5c0.1,0.3,0.2,0.7,0.4,0.9
		c0.2,0.2,0.5,0.3,0.8,0.3c0.1,0,0.2,0,0.2-0.1c0,0,0,0,0,0C9.4,34.1,9.5,33.8,9.5,33.6z"/>
	<path class="st0" d="M10.1,36.8c0-0.1-0.1-0.1-0.1-0.2c0,0,0,0,0,0c0,0,0,0,0,0c0,0,0,0,0,0c0,0,0,0,0,0c-0.1-0.2-0.2-0.3-0.4-0.4
		c0,0,0,0,0,0c-0.1,0-0.1-0.1-0.2-0.1c-0.1-0.1-0.2-0.2-0.3-0.2c0,0,0,0,0,0c0,0,0,0,0,0c0,0,0,0,0,0c-0.1-0.2-0.4-0.3-0.6-0.2
		c-0.1,0-0.2,0.1-0.2,0.1c-0.1,0.1-0.1,0.2-0.2,0.3c0,0.1,0,0.2,0,0.3c0,0.1,0,0.2,0,0.3c0,0.1,0.1,0.3,0.2,0.4
		c0.1,0.1,0.2,0.2,0.3,0.3c0.1,0.1,0.3,0.2,0.5,0.3c0.2,0.1,0.5,0.1,0.7,0c0,0,0,0,0.1,0c0.1,0,0.1-0.1,0.2-0.1l0.1-0.1
		c0.1-0.1,0.1-0.1,0.1-0.2C10.2,37,10.2,36.9,10.1,36.8z"/>
	<path class="st0" d="M12.5,38.1c0.1-0.1,0.2-0.3,0.2-0.6c0,0,0-0.1,0-0.1c0-0.2-0.1-0.3-0.2-0.4c-0.1-0.1-0.1-0.3-0.3-0.4
		c-0.1-0.1-0.2-0.1-0.2-0.1c-0.1-0.1-0.2-0.1-0.3-0.1c-0.2,0-0.3,0.1-0.4,0.2c-0.1,0.1-0.1,0.2-0.1,0.3c0,0.1,0,0.1,0,0.2
		c0,0.1,0,0.3,0.1,0.4c0.1,0.1,0.1,0.3,0.2,0.4c0,0,0.1,0.1,0.1,0.1c0.1,0.2,0.3,0.2,0.5,0.3c0,0,0,0,0,0c0,0,0.1,0,0.1,0
		c0,0,0,0,0,0c0,0,0.1,0,0.1,0c0.1,0,0.2,0,0.2-0.1c0,0,0,0,0,0c0,0,0,0,0,0C12.5,38.2,12.5,38.1,12.5,38.1z"/>
	<path class="st0" d="M13.8,41.1c-0.1-0.6-0.7-0.8-1.3-1c-0.2,0-0.4-0.1-0.6-0.1c-0.1,0-0.1,0-0.2,0c-0.1,0-0.3,0.1-0.4,0.2
		c-0.1,0.1-0.2,0.2-0.2,0.3c0,0.1,0,0.2,0,0.3c0,0.2,0.1,0.3,0.2,0.4c0.2,0.2,0.4,0.3,0.6,0.4c0.4,0.2,1,0.4,1.4,0.1
		C13.7,41.7,13.8,41.4,13.8,41.1z"/>
	<path class="st0" d="M17.2,41.4C17.2,41.4,17.2,41.4,17.2,41.4c0-0.1,0-0.2,0-0.2c0-0.1,0-0.2-0.1-0.3c0-0.1-0.1-0.2-0.2-0.2
		c-0.1-0.1-0.1-0.1-0.2-0.2c0,0-0.1,0-0.1-0.1c0,0-0.1-0.1-0.1-0.1c-0.1-0.1-0.2-0.1-0.3-0.1c-0.1,0-0.1,0-0.2,0c0,0-0.1,0-0.1,0
		c-0.1,0-0.1,0-0.2,0c-0.3-0.1-0.7,0.1-0.9,0.3c-0.1,0.1-0.2,0.3-0.2,0.5c0,0.2,0,0.3,0.1,0.5c0,0.1,0.1,0.1,0.1,0.2
		c0,0,0,0.1,0,0.1c0.1,0.2,0.2,0.4,0.4,0.5c0.1,0,0.1,0.1,0.2,0.1c0.1,0,0.2,0.1,0.2,0.1c0.1,0,0.2,0.1,0.3,0.1c0.1,0,0.2,0,0.3,0
		c0,0,0,0,0,0c0,0,0.1,0,0.1,0c0.1,0,0.3-0.1,0.4-0.1c0.1-0.1,0.2-0.1,0.3-0.2C17.2,41.9,17.3,41.7,17.2,41.4z"/>
	<path class="st0" d="M19,44.2c0-0.1,0-0.2,0-0.3c0-0.1-0.1-0.2-0.1-0.3c0-0.1-0.1-0.1-0.2-0.2c0,0,0,0,0,0c0,0-0.2-0.1-0.2-0.1
		c0,0-0.2-0.1-0.2-0.1c0,0,0,0,0,0c0,0-0.1,0-0.1,0c0,0-0.1,0-0.1,0c-0.1,0-0.1,0-0.1,0c0,0,0,0,0,0c0,0,0,0,0,0c0,0-0.1,0-0.1,0
		c-0.1,0-0.2,0-0.2,0c0,0,0.1,0,0.1,0c0,0-0.1,0-0.1,0c-0.1,0-0.2,0-0.3,0.1c-0.1,0-0.2,0.1-0.2,0.2c-0.1,0.2-0.2,0.4-0.2,0.6
		c0,0,0,0,0,0.1c0,0.1,0,0.2,0.1,0.2c0,0,0.1,0.2,0.1,0.2c0,0.1,0.1,0.1,0.2,0.2c0.1,0.1,0.2,0.2,0.3,0.2c0,0,0.1,0,0.1,0
		c0,0,0,0,0,0c0,0,0.2,0.1,0.3,0.1c0,0,0.2,0,0.3,0c0,0,0,0,0,0c0,0,0.1,0,0.1,0c0.1,0,0.2,0,0.2-0.1c0,0,0.1,0,0.1-0.1
		c0.1,0,0.1-0.1,0.2-0.1c0.1-0.1,0.1-0.1,0.2-0.2c0,0,0.1-0.1,0.1-0.1C19,44.3,19,44.3,19,44.2z"/>
	<path class="st2" d="M26,9.1c-0.6-0.2-1.2-0.3-1.8-0.1c-0.5,0.1-1,0.5-1,1c0,0.5,0.3,0.8,0.7,1.1c1.3,0.9,3,1.2,4.6,0.7
		c0.3-0.1,0.7-0.3,0.8-0.7c0.1-0.4-0.2-0.8-0.5-1.1c-0.5-0.4-1.2-0.7-1.9-0.7"/>
	<path class="st3" d="M29.7,1.9c-0.6-1.5-2.6-1.8-3.7-0.7c-1.1,1-1.1,2.5-1.1,3.9c0,0.8-0.1,1.6-0.1,2.3c0,0.9,0,2.3,0.8,2.8
		c1.8,1.1,2.6-1.1,3-2.3l0.6-2c0.2-0.7,0.4-1.4,0.6-2.1C29.9,3.1,29.9,2.4,29.7,1.9z"/>
</g>
</svg>
