<?xml version="1.0" encoding="utf-8"?>
<!-- Generator: Adobe Illustrator 25.4.1, SVG Export Plug-In . SVG Version: 6.00 Build 0)  -->
<svg version="1.1" id="圖層_1" xmlns="http://www.w3.org/2000/svg" xmlns:xlink="http://www.w3.org/1999/xlink" x="0px" y="0px"
	 viewBox="0 0 50 50" style="enable-background:new 0 0 50 50;" xml:space="preserve">
<style type="text/css">
	.st0{fill:#61A256;}
	.st1{fill:#4B8043;}
	.st2{fill:#FBC100;}
	.st3{fill:#F29A00;}
	.st4{fill:#FFE37E;}
</style>
<g>
	<path class="st0" d="M34.6,9.1c-1.1-0.5-2.4-0.7-3.6-0.5c-1.3,0.2-2.5,0.7-3.6,1.3c-0.1,0-0.2,0.1-0.3,0.1c1.1-1.6,2.1-3.4,2.7-5.3
		c0.1-0.2-0.1-0.5-0.3-0.5c-2.6-0.6-4.9,1.4-6.2,3.4c-0.4,0.7-0.8,1.4-1.1,2.2c0-0.6-0.1-1.2-0.3-1.8c-0.7-2.7-2.3-5-3.8-7.2
		c-0.2-0.3-0.7-0.4-0.9-0.1c-1.5,2-1.8,4.5-1.3,6.9c0.3,1.4,0.9,2.7,1.6,3.9c-3.2-1.9-7.1-2.5-10.8-1.4c-0.4,0.1-0.5,0.7-0.2,1
		c1.8,1.6,4,2.8,6.4,3.4c0.2,0.1,0.5,0.1,0.7,0.2c-0.4,0.2-0.9,0.4-1.3,0.7C10,17,8.6,19.7,8.7,22.5c0,0.6,0.9,0.7,1,0.1
		c0.5-2.1,2.7-3.1,4.6-3.7c2-0.7,4.3-1.3,5.7-3c0,0,0.1,0,0.1,0c0.1,0.3,0.4,0.6,0.8,0.3c0.1,0,0.1-0.1,0.2-0.1
		c0.3,0.1,0.6-0.1,0.6-0.4c0.1,0,0.1-0.1,0.2-0.1c1.8,0.2,3.6-0.5,5.2-1.3c1.2-0.6,2.4-1.3,3.6-2c0.6-0.4,1.3-0.7,1.9-1.1
		c0.7-0.4,1.4-0.9,2.1-1.3C34.9,9.7,34.9,9.3,34.6,9.1z"/>
	<path class="st1" d="M20.5,10.8c-0.7-2.3-1.3-5.2-2.9-7.1c-0.1-0.1-0.3-0.1-0.3,0.1c0.1,2.4,1.4,5,2,7.4c0.6,2.1,0.8,4.9,2.2,6.6
		c0.1,0.1,0.3,0,0.4-0.1C22.3,15.5,21.1,12.8,20.5,10.8z"/>
	<path class="st1" d="M31.2,9.9c-2.5,0.4-5.7,1.9-7.1,4.2c0-0.1,0-0.3,0.1-0.4c0.2-1,0.4-2,0.8-3c0.7-1.7,2-2.9,2.9-4.5
		c0.1-0.1-0.1-0.3-0.2-0.3c-1.8,0.5-3.1,2.5-3.8,4.1c-0.7,1.4-1.7,3.9-0.5,5.3c0.1,0.1,0.2,0.1,0.3,0c0.1-0.1,0.2-0.2,0.2-0.3
		c0,0,0.1,0,0.1,0c1.3-0.7,2.3-1.8,3.6-2.6c1.3-0.8,2.6-1.5,3.8-2.4C31.3,10,31.3,9.8,31.2,9.9z"/>
	<path class="st2" d="M42.6,31c-0.8-2-1.8-3.9-2.9-5.8c-0.9-1.6-1.9-3.1-3-4.6c-5.6-7.5-17.3-10.9-21.3,0c-1.3,3.6-1.3,7.5-0.8,11.3
		c0.3,2,0.6,4,1.1,6c0.5,2,1.1,4,2.2,5.7c1.7,2.6,4.5,4.4,7.5,5.2c3,0.8,6.2,0.7,9.2-0.2c3.4-1.1,6.7-3.4,8.2-6.7
		C44.3,38.5,43.9,34.5,42.6,31z"/>
	<path class="st3" d="M43.5,39.2c-1.2,1.2-2.5,2.2-4.1,2.8c-1.9,0.7-4.1,0.5-6.1,0.2c-2.1-0.4-4.2-0.9-6.1-1.9
		c-4.5-2.3-7.8-6.7-9.3-11.5c-1.2-3.7-1.3-7.6-0.8-11.4c-0.7,0.9-1.3,2-1.8,3.3c-1.3,3.6-1.3,7.5-0.8,11.3c0.3,2,0.6,4,1.1,6
		c0.5,2,1.1,4,2.2,5.7c1.7,2.6,4.5,4.4,7.5,5.2c3,0.8,6.2,0.7,9.2-0.2c3.4-1.1,6.7-3.4,8.2-6.7C43.1,41.1,43.4,40.2,43.5,39.2z"/>
	<path class="st1" d="M19.9,16.7c-0.1-0.1-0.3-0.2-0.4-0.3c0-0.1-0.1-0.2-0.1-0.3c-1.2-1.2-2.1-2.5-3.7-3.3c-1.5-0.9-3.3-1.6-5-1.9
		c-0.1,0-0.2,0.2-0.1,0.2c1.7,1,3.5,1.7,5.1,2.9c0.7,0.5,1.3,1.1,1.8,1.7c-2.8-0.4-6.2,1-7.2,3.6c0,0.1,0.1,0.2,0.2,0.2
		c1.5-1,2.7-2.3,4.6-2.5c1.6-0.1,3.1,0.6,4.6,0.4C20,17.4,20.3,16.9,19.9,16.7z"/>
	<path class="st4" d="M40,29.4c-0.8,1.6-1.2,3.4-1.8,5.1C38.1,34.8,38,35,38,35.2c-0.6-0.1-1.3-0.2-1.9-0.4c-2.3-0.5-4.7-1-7-1.4
		c0.9-2,1.8-4,2.7-6c0.2-0.5,0.5-0.9,0.7-1.4c1.9,0.5,3.8,1.4,5.7,1.4c0.6,0,0.7-0.8,0.2-1.1c-1.5-1-3.5-1.2-5.3-1.5
		c0.6-1.3,1.2-2.6,1.3-4c0-0.2-0.1-0.2-0.3-0.1c-1.1,1-1.8,2.4-2.5,3.8c-1.9-0.4-3.7-0.7-5.6-0.9c-0.6-0.1-1.2-0.1-1.8-0.2
		c1-1.8,1.9-3.6,2.8-5.4c1.1,0.1,2.1,0.3,3.2,0.5c0.8,0.2,1.5,0.5,2.3,0.2c0.1,0,0.2-0.2,0.1-0.3c-0.5-1.3-3.3-1.5-5-1.6
		c0.1-0.3,0.3-0.6,0.4-0.9c0.2-0.4-0.3-0.8-0.6-0.4c-0.3,0.4-0.6,0.8-0.9,1.2c-1.8-0.2-3.8-0.4-5.7-0.3c0-0.1,0-0.2,0.1-0.2
		c0-0.2-0.2-0.3-0.3-0.2c-0.2,0.2-0.4,0.3-0.5,0.5c-0.7,0.1-1.3,0.2-1.9,0.4c-0.2,0.1-0.2,0.4,0,0.4c0.4,0.1,0.8,0.1,1.2,0.2
		c-0.2,0.3-0.4,0.6-0.6,0.9c-0.6,0.9-1.2,1.9-1.8,2.8c-0.3,0.5-0.6,1.1-0.9,1.8c-0.5,0.1-1,0.2-1.4,0.4c-0.1,0-0.1,0.2,0,0.2
		c0.3,0.1,0.6,0.2,1,0.3c-0.3,0.8-0.4,1.7,0,2.3c0.1,0.1,0.2,0.1,0.2,0c0.6-0.5,0.6-1.3,0.8-2.1c0,0,0-0.1,0-0.1c1,0.1,2,0,2.9,0.1
		c0.9,0.1,1.8,0.1,2.7,0.2c-0.4,0.9-0.9,1.9-1.3,2.8c-0.8,1.6-1.5,3.2-2.2,4.8c-1.1,0.1-2.2,0.3-3.1,0.7c-0.1,0.1-0.2,0.3,0,0.3
		c0.9,0.1,1.7,0.1,2.6,0.2c0,0,0,0,0,0c-0.6,1.3-1.9,3.2-1.4,4.6c0.1,0.4,0.6,0.6,1,0.3c0.2-0.1,0.2-0.2,0.3-0.4
		c0.2-0.3,0.2-1,0.3-1.3c0.2-0.6,0.5-1.1,0.7-1.7c0.2-0.5,0.4-1.1,0.6-1.6c0.8,0,1.5,0.1,2.3,0.2c1.7,0.2,3.3,0.5,4.9,0.8
		c-0.9,2-1.6,4-2.2,6c-0.1,0.2-0.1,0.5-0.2,0.7c-0.4,0-0.9-0.1-1.3-0.1c-1.8-0.1-3.9-0.5-5.6,0c-0.1,0-0.1,0.2,0,0.2
		c1.4,0.7,3.3,0.8,4.9,0.9c0.6,0.1,1.2,0.1,1.7,0.2c-0.4,1.4-0.7,2.9-0.1,4.1c0.1,0.2,0.5,0.2,0.6,0c0.9-0.9,1.1-2.5,1.3-3.9
		c0.7,0.1,1.5,0.2,2.2,0.4c1.7,0.4,3.4,0.9,5.1,1.4c-0.1,0.2-0.2,0.4-0.3,0.6c-0.2,0.4-0.5,1.3,0.1,1.6c0.7,0.4,1.4-0.4,2.1-1.5
		c0.7,0.2,1.5,0.3,2.1,0c0.1-0.1,0.1-0.3,0.1-0.4c-0.3-0.6-0.8-0.9-1.4-1.1c0.8-1.5,1.4-3.2,1.6-3.6c0.3-0.7,0.6-1.5,0.9-2.3
		c0.9,0.3,1.9,0.5,2.8,0.5c0.6,0,1-0.9,0.5-1.3c-0.7-0.6-1.6-0.9-2.6-1.1c0.7-2,1.2-4.1,1.1-6C40.4,29.3,40.1,29.2,40,29.4z
		 M20.4,23.1c-0.9,0-2.1-0.2-3.1-0.1c0.2-0.6,0.5-1.2,0.8-1.7c0.7-1.2,1.7-2.4,2.3-3.6c1.8,0.1,3.7,0.1,5.5,0.3
		c-1.1,1.7-2,3.6-2.9,5.4C22.2,23.2,21.3,23.2,20.4,23.1z M20.3,32c0.5-1.2,1-2.4,1.5-3.6c0.6-1.3,1.2-2.6,1.9-3.8
		c0.9,0.1,1.9,0.2,2.8,0.3c1.5,0.2,3.1,0.5,4.6,0.8c-0.2,0.4-0.4,0.8-0.5,1.1c-1.1,2.1-2.1,4.2-3.1,6.3C25.4,32.7,22.8,32.1,20.3,32
		z M35.8,40c-0.5,1-1.2,2-1.7,3c-0.1,0-0.2,0-0.3-0.1c-1.8-0.5-3.6-1.1-5.5-1.5c-0.6-0.1-1.3-0.2-1.9-0.3c0-0.2,0.1-0.3,0.1-0.5
		c0.6-2.1,1.3-4.1,2.1-6.1c0,0,0.1,0,0.1,0c2.1,0.4,4.2,1,6.3,1.6c0.7,0.2,1.4,0.5,2.2,0.8C36.8,38,36.3,39,35.8,40z"/>
	<g>
		<path class="st2" d="M15.8,26.3c0.1,0.1,0.2,0.1,0.2,0c0.6-0.5,0.6-1.3,0.8-2.1c0,0,0-0.1,0-0.1c0.1,0,0.1,0,0.2,0
			c-0.1-0.8-0.1-1.7-0.2-2.5c-0.2,0.4-0.5,0.9-0.7,1.4c-0.5,0.1-1,0.2-1.4,0.4c-0.1,0-0.1,0.2,0,0.2c0.3,0.1,0.6,0.2,1,0.3
			C15.5,24.9,15.4,25.7,15.8,26.3z"/>
		<path class="st2" d="M35.3,45c0.7,0.2,1.5,0.3,2.1,0c0.1-0.1,0.1-0.3,0.1-0.4c-0.3-0.6-0.8-0.9-1.4-1.1c0.2-0.3,0.3-0.7,0.5-1
			c-0.7,0-1.5,0-2.2-0.1c-0.1,0.2-0.3,0.4-0.4,0.6c-0.1,0-0.2,0-0.3-0.1c-1.8-0.5-3.6-1.1-5.5-1.5c-0.6-0.1-1.3-0.2-1.9-0.3
			c0-0.2,0.1-0.3,0.1-0.5c0.1-0.2,0.1-0.5,0.2-0.7c-0.5-0.3-1-0.6-1.5-0.9c-0.1,0.4-0.3,0.9-0.4,1.3c-0.1,0.2-0.1,0.5-0.2,0.7
			c-0.4,0-0.9-0.1-1.3-0.1c-1.8-0.1-3.9-0.5-5.6,0c-0.1,0-0.1,0.2,0,0.2c1.4,0.7,3.3,0.8,4.9,0.9c0.6,0.1,1.2,0.1,1.7,0.2
			c-0.4,1.4-0.7,2.9-0.1,4.1c0.1,0.2,0.5,0.2,0.6,0c0.9-0.9,1.1-2.5,1.3-3.9c0.7,0.1,1.5,0.2,2.2,0.4c1.7,0.4,3.4,0.9,5.1,1.4
			c-0.1,0.2-0.2,0.4-0.3,0.6c-0.2,0.4-0.5,1.3,0.1,1.6C33.9,46.8,34.6,46.1,35.3,45z"/>
		<path class="st2" d="M15.9,33c0.9,0.1,1.7,0.1,2.6,0.2c0,0,0,0,0,0c-0.6,1.3-1.9,3.2-1.4,4.6c0.1,0.4,0.6,0.6,1,0.3
			c0.2-0.1,0.2-0.2,0.3-0.4c0.2-0.3,0.2-1,0.3-1.3c0.2-0.6,0.5-1.1,0.7-1.7c0.2-0.5,0.4-1.1,0.6-1.6c0.1,0,0.1,0,0.2,0
			c-0.3-0.5-0.6-1-0.9-1.6C19.1,31.8,19,31.9,19,32c-1.1,0.1-2.2,0.3-3.1,0.7C15.7,32.8,15.7,33,15.9,33z"/>
	</g>
	<path class="st3" d="M22.5,20.1c-0.1-0.2-0.3-0.4-0.6-0.4c-0.6-0.1-1.1,0.6-0.8,1.1c0,0,0,0,0,0.1c0,0,0,0,0,0c0,0,0,0,0,0.1
		c0.1,0.2,0.2,0.4,0.4,0.4c0.2,0.1,0.5,0.1,0.7,0c0,0,0,0,0,0c0.2-0.1,0.4-0.4,0.3-0.7C22.7,20.4,22.7,20.2,22.5,20.1z"/>
	<path class="st3" d="M18.8,26.2c-0.4-0.4-1,0-1,0.5c0,0.2,0,0.4,0.1,0.6c0.1,0.2,0.3,0.4,0.6,0.4c0.4,0.2,0.8-0.3,0.8-0.7
		C19.4,26.7,19.1,26.5,18.8,26.2z"/>
	<path class="st3" d="M26.5,28.6c-0.2-0.2-0.5-0.3-0.8-0.3c-0.4,0-0.6,0.3-0.7,0.6c-0.2,0.6,0.4,1.4,1.1,1.3c0.4,0,0.6-0.3,0.7-0.6
		C26.9,29.2,26.8,28.8,26.5,28.6z"/>
	<g>
		<path class="st3" d="M29.4,20.5c-0.3,0-0.4,0.2-0.5,0.5c0,0,0,0.1,0,0.1c0,0.1,0.1,0.3,0.1,0.3c0.1,0.1,0.2,0.2,0.3,0.3
			c0.3,0.3,0.8,0.1,0.9-0.3C30.3,20.9,30,20.4,29.4,20.5z"/>
		<path class="st3" d="M29,20.9C29,20.9,29,20.9,29,20.9L29,20.9z"/>
		<path class="st3" d="M29,21C29,21,29,21,29,21C29,21,29,21,29,21C29,21,29,21,29,21z"/>
	</g>
	<path class="st2" d="M22.6,37.5c0-0.1-0.1-0.2-0.2-0.3c-0.1-0.1-0.2-0.2-0.3-0.2c-0.4-0.2-0.9,0.1-0.9,0.6c0,0.1,0,0.3,0.1,0.4
		c0,0.1,0.1,0.2,0.2,0.3c0.2,0.2,0.5,0.4,0.7,0.3c0.1,0,0.2-0.1,0.3-0.2C22.8,38.1,22.7,37.7,22.6,37.5z"/>
	<path class="st3" d="M31.5,37.5c-0.4-0.3-0.8-0.1-0.9,0.3c-0.1,0.5,0,1,0.6,1.2c0.2,0.1,0.5,0,0.6-0.2C32,38.4,31.9,37.8,31.5,37.5
		z"/>
	<path class="st2" d="M30.5,45.1C30.5,45.1,30.5,45.1,30.5,45.1c-0.2-0.2-0.4-0.3-0.6-0.4c-0.3-0.1-0.6,0-0.8,0.2
		c-0.2,0.2-0.3,0.5-0.2,0.8c0,0,0,0,0,0.1c0,0.1,0.1,0.2,0.2,0.3c0.1,0.1,0.2,0.2,0.3,0.3c0.1,0,0.1,0,0.2,0.1c0.1,0,0.2,0,0.3,0
		c0.2,0,0.3-0.1,0.5-0.2c0.2-0.2,0.3-0.5,0.2-0.8C30.7,45.3,30.6,45.2,30.5,45.1z"/>
	<path class="st3" d="M35.1,30.4c-0.4-0.2-0.8-0.2-1.1,0.2c-0.3,0.5,0.1,1.1,0.6,1.3c0.4,0.2,1-0.1,0.9-0.6
		C35.5,31,35.4,30.6,35.1,30.4z"/>
	<path class="st3" d="M40.5,40.6c-0.1-0.1-0.2-0.1-0.4-0.2c-0.1,0-0.3,0-0.4,0.1c-0.2,0.2-0.3,0.4-0.3,0.7c0,0.1,0.1,0.2,0.2,0.3
		c0,0,0.1,0.1,0.1,0.1c0.1,0.2,0.4,0.2,0.6,0.1c0.2-0.1,0.3-0.2,0.4-0.4C40.8,41.1,40.7,40.8,40.5,40.6z"/>
	<path class="st3" d="M42.7,33.2C42.5,33,42.3,33,42.1,33c-0.2,0-0.5,0.2-0.5,0.4c0,0.1,0,0.2,0,0.3c0,0.1,0,0.3,0.1,0.4
		c0,0,0,0,0,0.1c0,0,0,0,0,0c0.1,0.2,0.4,0.3,0.6,0.3c0.2,0,0.5-0.2,0.5-0.5C43,33.7,42.9,33.4,42.7,33.2z"/>
	<path class="st3" d="M36.9,22.7c-0.1-0.2-0.3-0.3-0.6-0.3c-0.1,0-0.3,0.1-0.4,0.2c-0.1,0.1-0.1,0.2-0.1,0.3c0,0.2,0,0.4,0.1,0.5
		c0.2,0.3,0.7,0.4,1,0.1C37.1,23.3,37.1,22.9,36.9,22.7z"/>
	<path class="st3" d="M24.9,14.6c-0.1-0.1-0.1-0.1-0.2-0.2c0,0-0.1,0-0.1-0.1c0,0-0.1,0-0.1-0.1c-0.1-0.1-0.3-0.1-0.4-0.1
		c-0.2,0-0.4,0.1-0.5,0.3c-0.1,0.2-0.1,0.4,0,0.6c0.1,0.1,0.1,0.2,0.2,0.2c0.1,0,0.1,0.1,0.2,0.1c0,0,0.1,0,0.1,0
		c0.1,0,0.2,0.1,0.2,0.1c0.1,0,0.2,0,0.3,0c0.3-0.1,0.5-0.4,0.4-0.7C25,14.7,25,14.7,24.9,14.6z"/>
</g>
</svg>
