<?xml version="1.0" encoding="utf-8"?>
<!-- Generator: Adobe Illustrator 25.3.1, SVG Export Plug-In . SVG Version: 6.00 Build 0)  -->
<svg version="1.1" id="圖層_1" xmlns="http://www.w3.org/2000/svg" xmlns:xlink="http://www.w3.org/1999/xlink" x="0px" y="0px"
	 viewBox="0 0 50 50" style="enable-background:new 0 0 50 50;" xml:space="preserve">
<style type="text/css">
	.st0{fill:#61A256;}
	.st1{fill:#4B8043;}
	.st2{fill:#FBC100;}
	.st3{fill:#F29A00;}
	.st4{fill:#FFE37E;}
</style>
<g>
	<path class="st0" d="M37.7,12.3c-0.9-0.7-2.1-1.2-3.3-1.3c-1.3-0.1-2.5,0.1-3.7,0.4c-0.1,0-0.2,0-0.3,0c1.4-1.3,2.8-2.7,3.8-4.4
		c0.1-0.2,0-0.5-0.2-0.5c-2.3-1.2-4.9,0.2-6.6,1.8c-0.5,0.6-1.1,1.1-1.5,1.8C26,9.6,26,9,26,8.4c0-2.7-1-5.2-1.9-7.7
		c-0.1-0.3-0.6-0.5-0.8-0.3c-1.9,1.5-2.7,3.8-2.8,6.2c0,1.4,0.2,2.8,0.6,4c-2.6-2.5-6.1-4-9.9-3.8c-0.4,0-0.6,0.5-0.4,0.9
		c1.3,1.9,3.1,3.6,5.3,4.7c0.2,0.1,0.4,0.2,0.6,0.3c-0.4,0.1-0.9,0.2-1.4,0.4c-2.5,1-4.5,3.2-5,5.9c-0.1,0.6,0.7,0.9,0.9,0.3
		c1-1.9,3.3-2.3,5.2-2.4c2-0.2,4.4-0.2,6.1-1.5l0.1,0c0,0.3,0.2,0.7,0.7,0.5c0.1,0,0.1-0.1,0.2,0c0.3,0.2,0.6,0,0.7-0.2
		c0.1,0,0.1-0.1,0.2,0c1.7,0.6,3.5,0.4,5.2,0c1.3-0.3,2.6-0.7,3.9-1.1c0.7-0.2,1.4-0.4,2-0.6c0.8-0.2,1.5-0.5,2.3-0.7
		C37.9,13,38,12.6,37.7,12.3z"/>
	<path class="st1" d="M24,10.7c-0.1-2.3,0-5.2-1.1-7.4c-0.1-0.1-0.3-0.2-0.3,0c-0.5,2.3,0.2,5,0.2,7.4c0.1,2.1-0.4,4.8,0.6,6.7
		c0.1,0.1,0.3,0.1,0.4,0C24.6,15.5,24.1,12.7,24,10.7z"/>
	<path class="st1" d="M34.3,12.3c-2.5-0.2-5.8,0.5-7.7,2.3c0-0.1,0.1-0.3,0.2-0.4c0.4-0.9,0.8-1.8,1.4-2.6c1.1-1.4,2.6-2.3,3.8-3.6
		c0.1-0.1,0-0.3-0.1-0.3c-1.8,0.1-3.5,1.6-4.5,3c-1,1.2-2.5,3.3-1.7,4.9c0.1,0.1,0.2,0.1,0.3,0.1c0.1-0.1,0.2-0.1,0.3-0.2l0.1,0
		c1.4-0.4,2.6-1.2,4-1.6c1.4-0.5,2.8-0.8,4.1-1.4C34.4,12.4,34.4,12.2,34.3,12.3z"/>
	<path class="st2" d="M40.2,34.8c-0.3-2.1-0.8-4.1-1.4-6.1c-0.5-1.7-1.1-3.4-1.8-5C33.5,15.3,23.2,9.4,17,18.8
		c-2.1,3.1-3,6.8-3.4,10.5c-0.2,2-0.4,3.9-0.3,5.9s0.1,4,0.8,5.9c1,2.8,3.2,5.2,5.9,6.6s5.7,2.1,8.7,1.9c3.5-0.3,7.1-1.7,9.3-4.4
		C40.1,42.3,40.6,38.4,40.2,34.8z"/>
	<path class="st3" d="M39.2,42.8c-1.4,0.9-2.9,1.5-4.5,1.7c-2,0.2-4-0.5-5.8-1.2c-1.9-0.9-3.8-1.8-5.3-3.2c-3.7-3.2-5.8-8.1-6.1-13
		c-0.3-3.8,0.5-7.5,1.9-10.9c-0.9,0.7-1.7,1.6-2.5,2.7c-2.1,3.1-3,6.8-3.4,10.5c-0.2,2-0.4,3.9-0.3,5.9c0,2,0.1,4,0.8,5.9
		c1,2.8,3.2,5.2,5.9,6.6c2.6,1.4,5.7,2.1,8.7,1.9c3.5-0.3,7.1-1.7,9.3-4.4C38.4,44.5,38.9,43.7,39.2,42.8z"/>
	<path class="st1" d="M22.1,16.1c-0.1-0.1-0.2-0.3-0.3-0.4c0-0.1,0-0.2,0-0.3c-0.9-1.4-1.4-2.8-2.7-4c-1.2-1.2-2.7-2.3-4.3-2.9
		c-0.1,0-0.2,0.1-0.1,0.2c1.4,1.3,2.9,2.4,4.1,3.9c0.5,0.6,1,1.3,1.3,2c-2.5-1-6.1-0.5-7.6,1.7c0,0.1,0,0.2,0.1,0.2
		c1.6-0.6,3.1-1.5,4.9-1.3c1.5,0.3,2.8,1.3,4.2,1.4C22,16.8,22.4,16.4,22.1,16.1z"/>
	<path class="st4" d="M38.1,32.7c-1.1,1.3-1.9,2.9-2.9,4.4c-0.2,0.3-0.3,0.4-0.3,0.6c-0.5-0.2-1.2-0.5-1.7-0.8c-2.1-1-4.2-2-6.3-2.9
		c1.3-1.7,2.6-3.4,3.9-5c0.3-0.4,0.7-0.7,1-1.2c1.7,0.9,3.3,2.2,5.1,2.6c0.6,0.1,0.8-0.6,0.4-1c-1.2-1.3-3-1.9-4.7-2.6
		c0.9-1.1,1.7-2.2,2.1-3.5c0-0.2,0-0.2-0.3-0.2c-1.3,0.7-2.3,1.8-3.2,3c-1.7-0.8-3.3-1.5-5.1-2.1c-0.5-0.2-1.1-0.4-1.7-0.6
		c1.4-1.5,2.6-3,3.9-4.4c1,0.3,1.9,0.8,2.9,1.2c0.7,0.4,1.3,0.8,2.1,0.7c0.1,0,0.2-0.1,0.2-0.3c-0.2-1.3-2.8-2.2-4.3-2.7
		c0.2-0.3,0.4-0.5,0.6-0.8c0.3-0.3-0.1-0.8-0.5-0.5c-0.4,0.3-0.8,0.6-1.1,0.9C26.7,17,24.8,16.4,23,16c0-0.1,0-0.2,0.1-0.2
		c0-0.2-0.1-0.3-0.2-0.3c-0.2,0.1-0.4,0.2-0.6,0.4c-0.7-0.1-1.3-0.1-1.9-0.1c-0.2,0-0.3,0.3-0.1,0.4c0.4,0.2,0.7,0.3,1.1,0.5
		c-0.3,0.2-0.5,0.5-0.8,0.7c-0.8,0.7-1.6,1.5-2.3,2.2c-0.4,0.4-0.8,0.9-1.3,1.5c-0.5,0-1,0-1.4,0.1c-0.1,0-0.1,0.2,0,0.2
		c0.3,0.2,0.5,0.3,0.9,0.5c-0.5,0.7-0.8,1.5-0.5,2.2c0.1,0.1,0.2,0.1,0.2,0c0.7-0.3,0.9-1.1,1.2-1.8l0-0.1c0.9,0.3,1.9,0.5,2.7,0.8
		s1.7,0.5,2.5,0.8c-0.6,0.8-1.3,1.6-1.9,2.3c-1.1,1.3-2.2,2.7-3.2,4c-1.1-0.2-2.1-0.2-3.1-0.1c-0.1,0.1-0.3,0.2-0.1,0.3
		c0.8,0.3,1.6,0.5,2.4,0.8l0,0c-0.9,1.1-2.5,2.6-2.4,4c0,0.4,0.4,0.7,0.9,0.5c0.2,0,0.2-0.1,0.4-0.3c0.3-0.2,0.4-0.9,0.6-1.2
		c0.3-0.5,0.7-0.9,1.1-1.4c0.3-0.4,0.6-0.9,0.9-1.4c0.8,0.2,1.4,0.4,2.1,0.7c1.6,0.6,3,1.2,4.4,1.9c-1.3,1.7-2.4,3.4-3.5,5.2
		c-0.1,0.2-0.2,0.4-0.3,0.6c-0.4-0.1-0.8-0.3-1.2-0.4c-1.7-0.5-3.6-1.4-5.3-1.3c-0.1,0-0.1,0.2,0,0.2c1.2,1,2.9,1.5,4.4,2
		c0.5,0.2,1.1,0.4,1.6,0.6c-0.7,1.2-1.3,2.6-1,3.8c0,0.2,0.4,0.3,0.6,0.1c1.1-0.6,1.6-2.1,2.1-3.4c0.6,0.3,1.4,0.5,2,0.9
		c1.5,0.8,3,1.6,4.5,2.5c-0.1,0.2-0.3,0.3-0.4,0.5c-0.3,0.3-0.8,1.1-0.3,1.5c0.6,0.5,1.4-0.1,2.3-0.9c0.6,0.3,1.3,0.6,2,0.5
		c0.1-0.1,0.2-0.3,0.2-0.4c-0.1-0.6-0.5-1-1.1-1.4c1.1-1.2,2.1-2.7,2.3-3c0.4-0.6,0.9-1.3,1.4-2c0.8,0.5,1.7,0.9,2.5,1.1
		c0.6,0.1,1.2-0.6,0.8-1.1c-0.5-0.7-1.3-1.2-2.2-1.6c1.1-1.7,2.1-3.6,2.4-5.4C38.5,32.7,38.3,32.6,38.1,32.7z M21.1,22.3
		c-0.8-0.2-1.9-0.7-2.9-0.8c0.3-0.5,0.7-1,1.1-1.4c0.9-1,2.2-1.9,3-2.9c1.7,0.5,3.5,0.9,5.1,1.6c-1.4,1.4-2.7,2.9-4,4.4
		C22.8,22.8,21.9,22.6,21.1,22.3z M19,30.6c0.7-1,1.5-2,2.2-3.1c0.9-1.1,1.7-2.2,2.7-3.1c0.8,0.3,1.7,0.6,2.6,0.9
		c1.4,0.5,2.8,1.2,4.2,1.8c-0.3,0.3-0.6,0.7-0.7,0.9c-1.5,1.7-2.9,3.5-4.4,5.2C23.6,32.5,21.3,31.3,19,30.6z M31.7,41.8
		c-0.7,0.8-1.6,1.6-2.3,2.4c-0.1,0-0.2,0-0.3-0.2c-1.6-0.9-3.1-1.9-4.8-2.7c-0.5-0.2-1.2-0.5-1.7-0.7c0-0.2,0.2-0.3,0.2-0.4
		c1-1.8,2.2-3.6,3.4-5.3l0.1,0c1.9,0.9,3.7,1.9,5.6,3c0.6,0.3,1.2,0.8,1.9,1.3C33.1,40.1,32.4,40.9,31.7,41.8z"/>
	<g>
		<path class="st2" d="M16,24.2c0.1,0.1,0.2,0.1,0.2,0c0.7-0.3,0.9-1.1,1.2-1.8l0-0.1c0.1,0,0.1,0,0.2,0c0.1-0.8,0.3-1.6,0.4-2.4
			c-0.3,0.3-0.7,0.7-1,1.2c-0.5,0-1,0-1.4,0.1c-0.1,0-0.1,0.2,0,0.2c0.3,0.2,0.5,0.3,0.9,0.5C16.1,22.8,15.8,23.6,16,24.2z"/>
		<path class="st2" d="M30.1,46.4c0.6,0.3,1.3,0.6,2,0.5c0.1-0.1,0.2-0.3,0.2-0.4c-0.1-0.6-0.5-1-1.1-1.4c0.3-0.2,0.4-0.6,0.7-0.8
			c-0.7-0.2-1.4-0.3-2.1-0.6c-0.1,0.2-0.4,0.3-0.5,0.5c-0.1,0-0.2,0-0.3-0.2c-1.6-0.9-3.1-1.9-4.8-2.7c-0.5-0.2-1.2-0.5-1.7-0.7
			c0-0.2,0.2-0.3,0.2-0.4c0.1-0.2,0.2-0.4,0.3-0.6c-0.4-0.4-0.8-0.8-1.2-1.2c-0.2,0.4-0.5,0.8-0.7,1.1c-0.1,0.2-0.2,0.4-0.3,0.6
			c-0.4-0.1-0.8-0.3-1.2-0.4c-1.7-0.5-3.6-1.4-5.3-1.3c-0.1,0-0.1,0.2,0,0.2c1.2,1,2.9,1.5,4.4,2c0.5,0.2,1.1,0.4,1.6,0.6
			c-0.7,1.2-1.3,2.6-1,3.8c0,0.2,0.4,0.3,0.6,0.1c1.1-0.6,1.6-2.1,2.1-3.4c0.6,0.3,1.4,0.5,2,0.9c1.5,0.8,3,1.6,4.5,2.5
			c-0.1,0.2-0.3,0.3-0.4,0.5c-0.3,0.3-0.8,1.1-0.3,1.5C28.4,47.7,29.2,47.2,30.1,46.4z"/>
		<path class="st2" d="M14.6,30.6c0.8,0.3,1.6,0.5,2.4,0.8l0,0c-0.9,1.1-2.5,2.6-2.4,4c0,0.4,0.4,0.7,0.9,0.5c0.2,0,0.2-0.1,0.4-0.3
			c0.3-0.2,0.4-0.9,0.6-1.2c0.3-0.5,0.7-0.9,1.1-1.4c0.3-0.4,0.6-0.9,0.9-1.4c0.1,0,0.1,0,0.2,0c-0.2-0.5-0.3-1.1-0.5-1.7
			c-0.3,0.2-0.4,0.3-0.4,0.4c-1.1-0.2-2.1-0.2-3.1-0.1C14.4,30.3,14.4,30.5,14.6,30.6z"/>
	</g>
	<path class="st3" d="M23.8,19.9c0-0.2-0.2-0.4-0.5-0.5c-0.5-0.2-1.2,0.3-1,0.9c0,0,0,0,0,0.1l0,0c0,0,0,0,0,0.1
		c0,0.2,0.1,0.4,0.3,0.5c0.2,0.1,0.4,0.2,0.7,0.2l0,0c0.2,0,0.5-0.3,0.4-0.6C23.9,20.3,23.9,20.1,23.8,19.9z"/>
	<path class="st3" d="M18.9,24.8c-0.3-0.5-0.9-0.2-1.1,0.2c0,0.2-0.1,0.4,0,0.6c0,0.2,0.2,0.4,0.5,0.5c0.3,0.3,0.8-0.1,0.9-0.5
		C19.3,25.4,19.1,25.2,18.9,24.8z"/>
	<path class="st3" d="M25.6,28.9c-0.1-0.2-0.4-0.4-0.7-0.5c-0.4-0.1-0.6,0.1-0.8,0.4c-0.3,0.5,0.1,1.4,0.7,1.5
		c0.4,0.1,0.6-0.1,0.8-0.4C25.8,29.5,25.8,29.1,25.6,28.9z"/>
	<g>
		<path class="st3" d="M30.2,21.9c-0.3-0.1-0.4,0.1-0.6,0.4l0,0.1c0,0.1,0,0.3,0,0.3c0.1,0.1,0.1,0.2,0.2,0.4
			c0.2,0.4,0.7,0.3,0.9-0.1C30.9,22.5,30.8,21.9,30.2,21.9z"/>
		<path class="st3" d="M29.7,22.2L29.7,22.2L29.7,22.2z"/>
		<path class="st3" d="M29.7,22.3L29.7,22.3L29.7,22.3L29.7,22.3z"/>
	</g>
	<path class="st2" d="M19.9,36.4c0-0.1,0-0.2-0.1-0.3c-0.1-0.1-0.1-0.2-0.2-0.3c-0.3-0.3-0.9-0.1-1,0.4c0,0.1-0.1,0.3,0,0.4
		c0,0.1,0,0.2,0.1,0.3c0.1,0.2,0.4,0.5,0.6,0.4c0.1,0,0.2,0,0.3-0.1C19.9,37,19.9,36.6,19.9,36.4z"/>
	<path class="st3" d="M28.3,38.4c-0.3-0.4-0.7-0.3-0.9,0.1c-0.2,0.4-0.2,0.9,0.3,1.3c0.2,0.1,0.5,0.1,0.6-0.1
		C28.5,39.4,28.6,38.8,28.3,38.4z"/>
	<path class="st2" d="M25.6,45.4L25.6,45.4c-0.1-0.2-0.3-0.4-0.5-0.5c-0.3-0.2-0.6-0.1-0.8,0c-0.2,0.1-0.4,0.4-0.4,0.7
		c0,0,0,0,0,0.1c0,0.1,0,0.2,0.1,0.3c0.1,0.1,0.1,0.2,0.2,0.4c0.1,0,0.1,0,0.2,0.1c0.1,0,0.2,0,0.3,0.1c0.2,0,0.3,0,0.5-0.1
		c0.2-0.1,0.4-0.4,0.4-0.7C25.7,45.6,25.6,45.5,25.6,45.4z"/>
	<path class="st3" d="M33.3,32.5c-0.3-0.3-0.7-0.4-1.1-0.1c-0.4,0.4-0.2,1.1,0.3,1.4c0.3,0.3,1,0.1,1-0.4
		C33.5,33.2,33.5,32.8,33.3,32.5z"/>
	<path class="st3" d="M36,43.4c-0.1-0.1-0.2-0.1-0.3-0.3c-0.1,0-0.3-0.1-0.4,0c-0.2,0.1-0.4,0.3-0.4,0.6c0,0.1,0,0.2,0.1,0.3
		l0.1,0.1c0,0.2,0.3,0.3,0.5,0.2c0.2,0,0.3-0.1,0.5-0.3C36.2,44,36.2,43.7,36,43.4z"/>
	<path class="st3" d="M39.8,36.9c-0.1-0.2-0.3-0.3-0.5-0.3c-0.2,0-0.5,0.1-0.6,0.3c0,0.1,0,0.2-0.1,0.3c0,0.1-0.1,0.3,0,0.4
		c0,0,0,0,0,0.1l0,0c0,0.2,0.3,0.4,0.5,0.4s0.5-0.1,0.6-0.4C40,37.5,40,37.2,39.8,36.9z"/>
	<path class="st3" d="M36.8,25.7c0-0.2-0.2-0.4-0.5-0.4c-0.1,0-0.3,0-0.4,0.1s-0.1,0.2-0.2,0.3c0,0.2-0.1,0.4,0,0.5
		c0.1,0.3,0.6,0.5,0.9,0.3C36.8,26.3,36.9,25.9,36.8,25.7z"/>
	<path class="st3" d="M27.3,15.3c-0.1-0.1-0.1-0.1-0.1-0.2c0,0-0.1,0-0.1-0.1c0,0-0.1,0-0.1-0.1c-0.1-0.1-0.3-0.2-0.4-0.2
		c-0.2,0-0.4,0-0.5,0.2C26,15,25.9,15.2,26,15.4c0.1,0.1,0,0.2,0.1,0.2c0.1,0,0.1,0.1,0.2,0.1l0.1,0c0.1,0,0.2,0.1,0.2,0.1
		c0.1,0,0.2,0,0.3,0.1c0.3,0,0.6-0.3,0.5-0.6C27.4,15.4,27.4,15.4,27.3,15.3z"/>
</g>
</svg>
