<?xml version="1.0" encoding="utf-8"?>
<!-- Generator: Adobe Illustrator 25.3.1, SVG Export Plug-In . SVG Version: 6.00 Build 0)  -->
<svg version="1.1" id="圖層_1" xmlns="http://www.w3.org/2000/svg" xmlns:xlink="http://www.w3.org/1999/xlink" x="0px" y="0px"
	 viewBox="0 0 50 50" style="enable-background:new 0 0 50 50;" xml:space="preserve">
<style type="text/css">
	.st0{fill:#61A256;}
	.st1{fill:#534741;}
	.st2{fill:#4B8043;}
	.st3{fill:#FBC100;}
	.st4{fill:#F29A00;}
	.st5{fill:#FFE37E;}
</style>
<path class="st0" d="M37.4,12.6c-0.9-0.7-2-1.2-3.2-1.3c-1.3-0.1-2.4,0.1-3.6,0.4c-0.1,0-0.2,0-0.3,0c1.4-1.3,2.7-2.6,3.7-4.3
	C34.1,7.3,34,7,33.8,7c-2.2-1.2-4.8,0.2-6.4,1.8c-0.5,0.6-1.1,1.1-1.5,1.8C26,10,26,9.4,26,8.8c0-2.6-1-5.1-1.9-7.5
	C24,1,23.5,0.8,23.4,1c-1.9,1.5-2.6,3.7-2.7,6c0,1.4,0.2,2.7,0.6,3.9c-2.5-2.4-5.9-3.9-9.6-3.7c-0.4,0-0.6,0.5-0.4,0.9
	c1.3,1.9,3,3.5,5.2,4.6c0.2,0.1,0.4,0.2,0.6,0.3c-0.4,0.1-0.9,0.2-1.4,0.4c-2.4,1-4.4,3.1-4.9,5.7c-0.1,0.6,0.7,0.9,0.9,0.3
	c1-1.9,3.2-2.2,5.1-2.3c1.9-0.2,4.3-0.2,5.9-1.5h0.1c0,0.3,0.2,0.7,0.7,0.5c0.1,0,0.1-0.1,0.2,0c0.3,0.2,0.6,0,0.7-0.2
	c0.1,0,0.1-0.1,0.2,0c1.7,0.6,3.4,0.4,5.1,0c1.3-0.3,2.5-0.7,3.8-1.1c0.7-0.2,1.4-0.4,1.9-0.6c0.8-0.2,1.5-0.5,2.2-0.7
	C37.6,13.3,37.7,12.9,37.4,12.6z"/>
<path class="st1" d="M11.2,20.3c-0.1,0-0.2,0-0.2,0c-0.5-0.1-0.8-0.6-0.7-1.2c0.5-2.7,2.5-5.1,5.2-6.1c0.1,0,0.1,0,0.2-0.1
	c-1.9-1-3.5-2.6-4.8-4.4c-0.2-0.4-0.2-0.9,0-1.2c0.2-0.3,0.5-0.5,0.8-0.5c3.1-0.2,6.2,0.8,8.8,2.8c-0.1-0.8-0.2-1.6-0.2-2.5
	c0.1-2.8,1.1-5,2.9-6.4c0.2-0.2,0.4-0.2,0.8-0.2c0.4,0.1,0.7,0.4,0.8,0.7l0.2,0.6c0.8,2.2,1.7,4.6,1.7,7c0,0,0,0.1,0,0.1
	c0.2-0.2,0.3-0.3,0.5-0.5c0.9-0.9,4-3.4,7-1.9c0.2,0,0.3,0.2,0.4,0.3c0.2,0.3,0.2,0.6,0,0.9C33.7,9,32.7,10,31.8,11
	c0.7-0.1,1.5-0.2,2.4-0.1c1.2,0.1,2.5,0.6,3.5,1.4l0,0c0.5,0.5,0.3,1.2,0.2,1.5L37.9,14l-0.3,0.1c-0.4,0.1-0.7,0.2-1.1,0.3
	c-0.4,0.1-0.8,0.3-1.2,0.4c-0.6,0.2-1.2,0.4-1.9,0.6c-1.2,0.4-2.5,0.8-3.8,1.1c-1.4,0.3-3.3,0.6-5.2,0c-0.1,0.1-0.3,0.2-0.4,0.2
	c-0.2,0.1-0.4,0-0.6,0c-0.4,0.1-0.7,0-0.8-0.1c-0.1-0.1-0.1-0.1-0.2-0.2c-1.5,0.9-3.3,1-4.9,1.2c-0.3,0-0.6,0-0.9,0.1
	c-1.6,0.1-3.8,0.4-4.7,2.1C11.9,20,11.6,20.3,11.2,20.3z M11.6,7.8c0,0,0,0.1,0,0.2c1.3,1.9,3,3.4,4.9,4.4l1.8,0.9l-1.5,0.4
	c-0.3,0.1-0.7,0.2-1.1,0.3c-2.3,0.9-4,2.9-4.5,5.2c1.2-2,3.6-2.3,5.4-2.4c0.3,0,0.6-0.1,0.9-0.1c1.7-0.1,3.5-0.3,4.8-1.3l0.1-0.1
	h0.7l0.1,0.5l0.1,0l0,0c0.2-0.1,0.3,0,0.5,0.1l0.1-0.2l0.2,0c0.2-0.1,0.4-0.1,0.5,0.1c1.3,0.4,2.7,0.4,4.7,0
	c1.3-0.3,2.5-0.7,3.8-1.1c0.7-0.2,1.4-0.4,1.9-0.6c0.4-0.1,0.8-0.2,1.1-0.3c0.3-0.1,0.6-0.2,0.9-0.3c0-0.1,0-0.2,0-0.2
	c-0.8-0.6-1.9-1.1-2.9-1.1c-1-0.1-2.1,0-3.4,0.4l-0.1,0H29l0.9-0.9c1.2-1.1,2.5-2.4,3.5-4c-2.4-1.2-5,1-5.8,1.7
	c-0.1,0.2-0.3,0.4-0.5,0.5c-0.3,0.4-0.7,0.7-0.9,1.1l-1.5,2.7l0.6-3c0.1-0.4,0.1-1,0.1-1.6c0-2.3-0.8-4.5-1.6-6.7l-0.2-0.6
	c0,0,0,0-0.1,0c-1.9,1.6-2.4,3.9-2.5,5.6c0,1.3,0.2,2.6,0.6,3.7l0.6,1.9l-1.5-1.4C18.3,8.9,15,7.6,11.6,7.8z M23.3,16.6
	C23.3,16.6,23.3,16.6,23.3,16.6C23.3,16.6,23.3,16.6,23.3,16.6z M24.2,15.4C24.2,15.4,24.2,15.4,24.2,15.4L24.2,15.4z M23.7,1.4
	C23.7,1.4,23.7,1.4,23.7,1.4C23.7,1.4,23.7,1.4,23.7,1.4z"/>
<path class="st2" d="M24,11.1C23.9,8.8,24,6,23,3.9c-0.1-0.1-0.3-0.2-0.3,0c-0.5,2.2,0.2,4.9,0.2,7.2c0.1,2-0.4,4.7,0.6,6.5
	c0.1,0.1,0.3,0.1,0.4,0C24.6,15.7,24.1,13,24,11.1z"/>
<path class="st2" d="M34.1,12.6c-2.4-0.2-5.7,0.5-7.5,2.2c0-0.1,0.1-0.3,0.2-0.4c0.4-0.9,0.8-1.8,1.4-2.5c1.1-1.4,2.5-2.2,3.7-3.5
	c0.1-0.1,0-0.3-0.1-0.3c-1.8,0.1-3.4,1.6-4.4,2.9c-1,1.2-2.4,3.2-1.7,4.8c0.1,0.1,0.2,0.1,0.3,0.1c0.1-0.1,0.2-0.1,0.3-0.2h0.1
	c1.4-0.4,2.5-1.2,3.9-1.6c1.4-0.5,2.7-0.8,4-1.4C34.2,12.7,34.2,12.5,34.1,12.6z"/>
<path class="st2" d="M22.2,16.3c-0.1-0.1-0.2-0.3-0.3-0.4c0-0.1,0-0.2,0-0.3c-0.9-1.4-1.4-2.7-2.6-3.9c-1.2-1.2-2.6-2.2-4.2-2.8
	C15,8.9,14.9,9,15,9.1c1.4,1.3,2.8,2.3,4,3.8c0.5,0.6,1,1.3,1.3,1.9c-2.4-1-5.9-0.5-7.4,1.7c0,0.1,0,0.2,0.1,0.2
	c1.6-0.6,3-1.5,4.8-1.3c1.5,0.3,2.7,1.3,4.1,1.4C22.1,17,22.5,16.6,22.2,16.3z"/>
<path class="st3" d="M39.8,34.5c-0.3-2-0.8-4-1.4-5.9c-0.5-1.7-1.1-3.3-1.8-4.9C33.3,15.6,23.3,9.8,17.2,19c-2,3-2.9,6.6-3.3,10.2
	c-0.2,1.9-0.4,3.8-0.3,5.7s0.1,3.9,0.8,5.7c1,2.7,3.1,5.1,5.7,6.4s5.6,2,8.5,1.9c3.4-0.3,6.9-1.7,9.1-4.3
	C39.7,41.9,40.2,38.1,39.8,34.5z"/>
<path class="st4" d="M38.8,42.3c-1.4,0.9-2.8,1.5-4.4,1.7c-1.9,0.2-3.9-0.5-5.7-1.2c-1.9-0.9-3.7-1.8-5.2-3.1
	C20,36.6,18,31.8,17.7,27c-0.3-3.7,0.5-7.3,1.9-10.6c-0.9,0.7-1.7,1.6-2.4,2.6c-2,3-2.9,6.6-3.3,10.2c-0.2,1.9-0.4,3.8-0.3,5.7
	c0,1.9,0.1,3.9,0.8,5.7c1,2.7,3.1,5.1,5.7,6.4c2.5,1.4,5.6,2,8.5,1.9c3.4-0.3,6.9-1.7,9.1-4.3C38.1,44,38.5,43.2,38.8,42.3z"/>
<path class="st5" d="M37.8,32.5c-1.1,1.3-1.9,2.8-2.8,4.3c-0.2,0.3-0.3,0.4-0.3,0.6c-0.5-0.2-1.2-0.5-1.7-0.8c-2-1-4.1-1.9-6.1-2.8
	c1.3-1.7,2.5-3.3,3.8-4.9c0.3-0.4,0.7-0.7,1-1.2c1.7,0.9,3.2,2.1,5,2.5c0.6,0.1,0.8-0.6,0.4-1c-1.2-1.3-2.9-1.9-4.6-2.5
	c0.9-1.1,1.7-2.1,2-3.4c0-0.2,0-0.2-0.3-0.2c-1.3,0.7-2.2,1.8-3.1,2.9c-1.7-0.8-3.2-1.5-5-2c-0.5-0.2-1.1-0.4-1.7-0.6
	c1.4-1.5,2.5-2.9,3.8-4.3c1,0.3,1.9,0.8,2.8,1.2c0.7,0.4,1.3,0.8,2,0.7c0.1,0,0.2-0.1,0.2-0.3c-0.2-1.3-2.7-2.1-4.2-2.6
	c0.2-0.3,0.4-0.5,0.6-0.8c0.3-0.3-0.1-0.8-0.5-0.5c-0.4,0.3-0.8,0.6-1.1,0.9c-1.5-0.5-3.3-1.1-5.1-1.5c0-0.1,0-0.2,0.1-0.2
	c0-0.2-0.1-0.3-0.2-0.3c-0.2,0.1-0.4,0.2-0.6,0.4C21.7,16,21.1,16,20.5,16c-0.2,0-0.3,0.3-0.1,0.4c0.4,0.2,0.7,0.3,1.1,0.5
	c-0.3,0.2-0.5,0.5-0.8,0.7c-0.8,0.7-1.6,1.5-2.2,2.1c-0.4,0.4-0.8,0.9-1.3,1.5c-0.5,0-1,0-1.4,0.1c-0.1,0-0.1,0.2,0,0.2
	c0.3,0.2,0.5,0.3,0.9,0.5c-0.5,0.7-0.8,1.5-0.5,2.1c0.1,0.1,0.2,0.1,0.2,0c0.7-0.3,0.9-1.1,1.2-1.8v-0.1c0.9,0.3,1.9,0.5,2.6,0.8
	c0.8,0.3,1.7,0.5,2.4,0.8c-0.6,0.8-1.3,1.6-1.9,2.2c-1.1,1.3-2.1,2.6-3.1,3.9c-1.1-0.2-2-0.2-3-0.1c-0.1,0.1-0.3,0.2-0.1,0.3
	c0.8,0.3,1.6,0.5,2.3,0.8l0,0c-0.9,1.1-2.4,2.5-2.3,3.9c0,0.4,0.4,0.7,0.9,0.5c0.2,0,0.2-0.1,0.4-0.3c0.3-0.2,0.4-0.9,0.6-1.2
	c0.3-0.5,0.7-0.9,1.1-1.4c0.3-0.4,0.6-0.9,0.9-1.4c0.8,0.2,1.4,0.4,2,0.7c1.6,0.6,2.9,1.2,4.3,1.9c-1.3,1.7-2.3,3.3-3.4,5.1
	c-0.1,0.2-0.2,0.4-0.3,0.6c-0.4-0.1-0.8-0.3-1.2-0.4c-1.7-0.5-3.5-1.4-5.2-1.3c-0.1,0-0.1,0.2,0,0.2c1.2,1,2.8,1.5,4.3,1.9
	c0.5,0.2,1.1,0.4,1.6,0.6c-0.7,1.2-1.3,2.5-1,3.7c0,0.2,0.4,0.3,0.6,0.1c1.1-0.6,1.6-2,2-3.3c0.6,0.3,1.4,0.5,1.9,0.9
	c1.5,0.8,2.9,1.6,4.4,2.4c-0.1,0.2-0.3,0.3-0.4,0.5c-0.3,0.3-0.8,1.1-0.3,1.5c0.6,0.5,1.4-0.1,2.2-0.9c0.6,0.3,1.3,0.6,1.9,0.5
	c0.1-0.1,0.2-0.3,0.2-0.4c-0.1-0.6-0.5-1-1.1-1.4c1.1-1.2,2-2.6,2.2-2.9c0.4-0.6,0.9-1.3,1.4-1.9c0.8,0.5,1.7,0.9,2.4,1.1
	c0.6,0.1,1.2-0.6,0.8-1.1c-0.5-0.7-1.3-1.2-2.1-1.6c1.1-1.7,2-3.5,2.3-5.3C38.2,32.5,38,32.4,37.8,32.5z M21.2,22.4
	c-0.8-0.2-1.9-0.7-2.8-0.8c0.3-0.5,0.7-1,1.1-1.4c0.9-1,2.1-1.9,2.9-2.8c1.7,0.5,3.4,0.9,5,1.6c-1.4,1.4-2.6,2.8-3.9,4.3
	C22.9,22.9,22,22.7,21.2,22.4z M19.2,30.5c0.7-1,1.5-1.9,2.1-3c0.9-1.1,1.7-2.1,2.6-3c0.8,0.3,1.7,0.6,2.5,0.9
	c1.4,0.5,2.7,1.2,4.1,1.8c-0.3,0.3-0.6,0.7-0.7,0.9c-1.5,1.7-2.8,3.4-4.3,5.1C23.6,32.3,21.4,31.1,19.2,30.5z M31.5,41.4
	c-0.7,0.8-1.6,1.6-2.2,2.3c-0.1,0-0.2,0-0.3-0.2c-1.6-0.9-3-1.9-4.7-2.6c-0.5-0.2-1.2-0.5-1.7-0.7c0-0.2,0.2-0.3,0.2-0.4
	c1-1.8,2.1-3.5,3.3-5.2h0.1c1.9,0.9,3.6,1.9,5.5,2.9c0.6,0.3,1.2,0.8,1.9,1.3C32.9,39.7,32.2,40.5,31.5,41.4z"/>
<path class="st3" d="M16.2,24.2c0.1,0.1,0.2,0.1,0.2,0c0.7-0.3,0.9-1.1,1.2-1.8v-0.1c0.1,0,0.1,0,0.2,0c0.1-0.8,0.3-1.6,0.4-2.3
	c-0.3,0.3-0.7,0.7-1,1.2c-0.5,0-1,0-1.4,0.1c-0.1,0-0.1,0.2,0,0.2c0.3,0.2,0.5,0.3,0.9,0.5C16.3,22.9,16,23.6,16.2,24.2z"/>
<path class="st3" d="M30,45.8c0.6,0.3,1.3,0.6,1.9,0.5c0.1-0.1,0.2-0.3,0.2-0.4c-0.1-0.6-0.5-1-1.1-1.4c0.3-0.2,0.4-0.6,0.7-0.8
	c-0.7-0.2-1.4-0.3-2-0.6c-0.1,0.2-0.4,0.3-0.5,0.5c-0.1,0-0.2,0-0.3-0.2c-1.6-0.9-3-1.9-4.7-2.6c-0.5-0.2-1.2-0.5-1.7-0.7
	c0-0.2,0.2-0.3,0.2-0.4c0.1-0.2,0.2-0.4,0.3-0.6c-0.4-0.4-0.8-0.8-1.2-1.2c-0.2,0.4-0.5,0.8-0.7,1.1c-0.1,0.2-0.2,0.4-0.3,0.6
	c-0.4-0.1-0.8-0.3-1.2-0.4c-1.7-0.5-3.5-1.4-5.2-1.3c-0.1,0-0.1,0.2,0,0.2c1.2,1,2.8,1.5,4.3,1.9c0.5,0.2,1.1,0.4,1.6,0.6
	c-0.7,1.2-1.3,2.5-1,3.7c0,0.2,0.4,0.3,0.6,0.1c1.1-0.6,1.6-2,2-3.3c0.6,0.3,1.4,0.5,1.9,0.9c1.5,0.8,2.9,1.6,4.4,2.4
	c-0.1,0.2-0.3,0.3-0.4,0.5c-0.3,0.3-0.8,1.1-0.3,1.5C28.3,47.1,29.1,46.6,30,45.8z"/>
<path class="st3" d="M14.9,30.5c0.8,0.3,1.6,0.5,2.3,0.8l0,0c-0.9,1.1-2.4,2.5-2.3,3.9c0,0.4,0.4,0.7,0.9,0.5c0.2,0,0.2-0.1,0.4-0.3
	c0.3-0.2,0.4-0.9,0.6-1.2c0.3-0.5,0.7-0.9,1.1-1.4c0.3-0.4,0.6-0.9,0.9-1.4c0.1,0,0.1,0,0.2,0c-0.2-0.5-0.3-1.1-0.5-1.7
	C18.1,30,18,30.1,18,30.2c-1.1-0.2-2-0.2-3-0.1C14.7,30.2,14.7,30.4,14.9,30.5z"/>
<path class="st4" d="M23.8,20c0-0.2-0.2-0.4-0.5-0.5c-0.5-0.2-1.2,0.3-1,0.9c0,0,0,0,0,0.1l0,0c0,0,0,0,0,0.1c0,0.2,0.1,0.4,0.3,0.5
	c0.2,0.1,0.4,0.2,0.7,0.2l0,0c0.2,0,0.5-0.3,0.4-0.6C23.9,20.4,23.9,20.2,23.8,20z"/>
<path class="st4" d="M19.1,24.8c-0.3-0.5-0.9-0.2-1.1,0.2c0,0.2-0.1,0.4,0,0.6c0,0.2,0.2,0.4,0.5,0.5c0.3,0.3,0.8-0.1,0.9-0.5
	C19.5,25.4,19.3,25.2,19.1,24.8z"/>
<path class="st4" d="M25.6,28.8c-0.1-0.2-0.4-0.4-0.7-0.5c-0.4-0.1-0.6,0.1-0.8,0.4c-0.3,0.5,0.1,1.4,0.7,1.5
	c0.4,0.1,0.6-0.1,0.8-0.4C25.8,29.4,25.8,29,25.6,28.8z"/>
<path class="st4" d="M30.1,22c-0.3-0.1-0.4,0.1-0.6,0.4v0.1c0,0.1,0,0.3,0,0.3c0.1,0.1,0.1,0.2,0.2,0.4c0.2,0.4,0.7,0.3,0.9-0.1
	C30.8,22.6,30.7,22,30.1,22z"/>
<path class="st4" d="M29.6,22.3L29.6,22.3L29.6,22.3z"/>
<path class="st4" d="M29.6,22.4L29.6,22.4L29.6,22.4L29.6,22.4z"/>
<path class="st3" d="M20,36.1c0-0.1,0-0.2-0.1-0.3c-0.1-0.1-0.1-0.2-0.2-0.3c-0.3-0.3-0.9-0.1-1,0.4c0,0.1-0.1,0.3,0,0.4
	c0,0.1,0,0.2,0.1,0.3c0.1,0.2,0.4,0.5,0.6,0.4c0.1,0,0.2,0,0.3-0.1C20,36.7,20,36.3,20,36.1z"/>
<path class="st4" d="M28.2,38.1c-0.3-0.4-0.7-0.3-0.9,0.1c-0.2,0.4-0.2,0.9,0.3,1.3c0.2,0.1,0.5,0.1,0.6-0.1
	C28.4,39,28.5,38.4,28.2,38.1z"/>
<path class="st3" d="M25.6,44.9L25.6,44.9c-0.1-0.2-0.3-0.4-0.5-0.5c-0.3-0.2-0.6-0.1-0.8,0c-0.2,0.1-0.4,0.4-0.4,0.7c0,0,0,0,0,0.1
	s0,0.2,0.1,0.3c0.1,0.1,0.1,0.2,0.2,0.4c0.1,0,0.1,0,0.2,0.1c0.1,0,0.2,0,0.3,0.1c0.2,0,0.3,0,0.5-0.1s0.4-0.4,0.4-0.7
	C25.7,45.1,25.6,45,25.6,44.9z"/>
<path class="st4" d="M33.1,32.3c-0.3-0.3-0.7-0.4-1.1-0.1c-0.4,0.4-0.2,1.1,0.3,1.4c0.3,0.3,1,0.1,1-0.4
	C33.3,33,33.3,32.6,33.1,32.3z"/>
<path class="st4" d="M35.7,42.9c-0.1-0.1-0.2-0.1-0.3-0.3c-0.1,0-0.3-0.1-0.4,0c-0.2,0.1-0.4,0.3-0.4,0.6c0,0.1,0,0.2,0.1,0.3
	l0.1,0.1c0,0.2,0.3,0.3,0.5,0.2c0.2,0,0.3-0.1,0.5-0.3C35.9,43.5,35.9,43.2,35.7,42.9z"/>
<path class="st4" d="M39.4,36.6c-0.1-0.2-0.3-0.3-0.5-0.3c-0.2,0-0.5,0.1-0.6,0.3c0,0.1,0,0.2-0.1,0.3c0,0.1-0.1,0.3,0,0.4
	c0,0,0,0,0,0.1l0,0c0,0.2,0.3,0.4,0.5,0.4c0.2,0,0.5-0.1,0.6-0.4C39.6,37.2,39.6,36.9,39.4,36.6z"/>
<path class="st4" d="M36.5,25.7c0-0.2-0.2-0.4-0.5-0.4c-0.1,0-0.3,0-0.4,0.1c-0.1,0.1-0.1,0.2-0.2,0.3c0,0.2-0.1,0.4,0,0.5
	c0.1,0.3,0.6,0.5,0.9,0.3C36.5,26.3,36.6,25.9,36.5,25.7z"/>
<path class="st4" d="M27.2,15.6c-0.1-0.1-0.1-0.1-0.1-0.2c0,0-0.1,0-0.1-0.1c0,0-0.1,0-0.1-0.1c-0.1-0.1-0.3-0.2-0.4-0.2
	c-0.2,0-0.4,0-0.5,0.2c-0.1,0.1-0.2,0.3-0.1,0.5c0.1,0.1,0,0.2,0.1,0.2c0.1,0,0.1,0.1,0.2,0.1h0.1c0.1,0,0.2,0.1,0.2,0.1
	c0.1,0,0.2,0,0.3,0.1C27.2,16.1,27.4,15.8,27.2,15.6C27.3,15.6,27.3,15.6,27.2,15.6z"/>
<path class="st1" d="M27.6,49.5c-2.6,0-5.3-0.7-7.7-1.9c-2.8-1.5-5-3.9-6-6.7c-0.6-1.7-0.7-3.5-0.8-5.2l0-0.7
	c-0.1-1.9,0.1-3.7,0.3-5.6l0-0.2c0.5-4.4,1.6-7.8,3.4-10.5c2.9-4.4,6.4-5.1,8.9-4.9c4.6,0.4,9.3,4.4,11.5,9.7
	c0.7,1.5,1.2,3.1,1.8,4.9c0.7,2.3,1.1,4.2,1.4,6l0,0c0.5,4.1-0.3,7.9-2.2,10.5c-2.1,2.5-5.5,4.2-9.4,4.5
	C28.3,49.5,28,49.5,27.6,49.5z M24.8,14.8c-2.8,0-5.3,1.5-7.2,4.5c-1.7,2.5-2.8,5.8-3.2,10l0,0.2c-0.2,1.9-0.4,3.6-0.3,5.5l0,0.7
	c0.1,1.7,0.1,3.3,0.7,4.9c0.9,2.6,2.9,4.8,5.5,6.2c2.6,1.4,5.5,2,8.2,1.8c3.7-0.3,6.8-1.8,8.7-4.1c1.7-2.4,2.5-5.9,2-9.8
	c-0.3-1.8-0.7-3.7-1.3-5.9c-0.5-1.7-1.1-3.4-1.7-4.8c-2.1-5-6.5-8.7-10.7-9.1C25.3,14.8,25.1,14.8,24.8,14.8z"/>
</svg>
