<?xml version="1.0" encoding="utf-8"?>
<!-- Generator: Adobe Illustrator 25.3.1, SVG Export Plug-In . SVG Version: 6.00 Build 0)  -->
<svg version="1.1" id="圖層_1" xmlns="http://www.w3.org/2000/svg" xmlns:xlink="http://www.w3.org/1999/xlink" x="0px" y="0px"
	 viewBox="0 0 50 50" style="enable-background:new 0 0 50 50;" xml:space="preserve">
<style type="text/css">
	.st0{fill:#C96649;}
	.st1{fill:#DD6043;}
	.st2{fill:#FFDBBB;}
	.st3{fill:#B2BF4E;}
	.st4{fill:#D69C63;}
	.st5{fill:#534741;}
</style>
<g>
	<path class="st0" d="M19.8,40c-0.9-2-4.2-3.2-6-1.8c-2,1.5-1.8,3.8-0.9,5.8c0,0,0,0,0,0C15.2,42.7,17.5,41.4,19.8,40z"/>
	<path class="st0" d="M14.4,18.7c2.5,1.1,4.6-0.4,5.5-2.8c0.9-2.4-1.5-4.6-3.8-4.7c-0.2,0.8-0.4,1.6-0.5,2.3
		C15.2,15.2,14.8,17,14.4,18.7z"/>
	<path class="st1" d="M22.8,30.3c1.3-1.9,1.1-3.6-0.6-5.1c-1.7-1.2-4.1-1.2-5.7,0.3c-1.6,1.6-1,3.9,0.5,5.4
		C18.9,32.7,21.4,32.4,22.8,30.3z"/>
	<path class="st0" d="M29.3,28.8c-2.2,1.5-1.7,3.7-0.3,5.6c2.2-1.4,4.3-2.8,6.5-4.3C34,28.1,31.4,27.3,29.3,28.8z"/>
	<path class="st1" d="M26.5,17.6c0,1.2,0.9,2.6,1.7,3.4c2.5,2.3,4.9,0.8,6.2-1.7c-1.8-1.7-3.8-3.2-5.9-4.6
		C27.6,15.3,26.6,16.3,26.5,17.6z"/>
	<path class="st2" d="M40.9,26.2c-1.8-2.3-3.7-4.4-5.8-6.4c-0.7,1.3-1.7,2.7-3.2,3c-1.5,0.4-3-0.3-4.1-1.3c-2.4-2.3-2.5-5.5,0.2-7.3
		C24.4,12,20.6,10.2,16.6,9c-0.1,0.5-0.2,1-0.3,1.5c2.6,0.2,5.3,2.7,4.4,5.5c-0.9,3-3.6,4.7-6.5,3.5c-0.2,0.8-0.4,1.6-0.6,2.3
		c0.4,0.1,1,0,1.6-0.3c0.2-0.1,0.4,0,0.5,0.2l0.4,0.7c0.1,0.2,0,0.4-0.1,0.5c-1,0.6-2,0.6-2.8,0.5c-0.1,0.5-0.3,1.1-0.4,1.6
		C11,32.3,9,39.7,7.4,47.1c1.6-0.9,3.2-1.8,4.9-2.7c0,0,0,0,0,0c-1.2-2.5-1.1-5.6,1.7-7.1c2.2-1.2,5.5,0.3,6.6,2.4
		c1.3-0.8,2.5-1.5,3.8-2.3c1.4-0.9,2.7-1.7,4.1-2.6c-1.7-2.2-2.1-4.8,0.5-6.6c2.4-1.7,5.6-0.8,7.2,1.5c1-0.7,2-1.4,3.1-2.1
		C39.7,27.1,40.3,26.6,40.9,26.2z M21.2,18.6c1.3-0.9,1.2-2.1,1.1-2.6c0-0.2,0.1-0.4,0.2-0.4c0.3-0.1,0.6-0.2,0.9-0.3
		c0.2-0.1,0.4,0,0.5,0.2c0.3,1.2,0.2,3.3-1.9,4.6c-0.2,0.1-0.4,0.1-0.5-0.1l-0.4-0.7C21,18.9,21,18.7,21.2,18.6z M12.1,35.9
		c-0.2,0.1-0.4,0.1-0.5-0.1L11.2,35c-0.1-0.3-0.1-0.5,0.1-0.6c1.3-0.9,1.2-2.1,1.1-2.6c0-0.2,0.1-0.4,0.2-0.4
		c0.2-0.1,0.6-0.3,0.9-0.4c0.2-0.1,0.4,0,0.5,0.2C14.2,32.5,14.2,34.5,12.1,35.9z M16.8,31.7c-1.9-1.7-2.9-4.4-1.2-6.5
		c1.8-2.1,4.8-2.3,7-0.7c0,0,0,0,0,0c0,0,0,0,0.1,0c2.2,2,2.2,4.3,0.4,6.6C21.5,33.2,18.9,33.5,16.8,31.7z M24.3,36
		c-1,0.7-3,1.3-4.9-0.3c-0.2-0.1-0.2-0.4,0-0.5l0.6-0.6c0.2-0.2,0.4-0.2,0.6-0.1c1.2,1,2.4,0.5,2.8,0.2c0.2-0.1,0.4-0.1,0.5,0.1
		c0.2,0.2,0.4,0.5,0.6,0.7C24.5,35.6,24.5,35.9,24.3,36z M27.8,26.5c-0.1,0.2-0.3,0.3-0.5,0.2c-1.1-0.5-2.7-1.8-2.4-4.3
		c0-0.2,0.2-0.4,0.4-0.3l0.8,0.1c0.3,0.1,0.4,0.2,0.4,0.4c-0.1,1.6,0.8,2.2,1.4,2.5c0.2,0.1,0.2,0.3,0.2,0.4
		C28,25.9,27.9,26.3,27.8,26.5z M37.1,26.2l-0.7,0.4c-0.2,0.2-0.5,0.1-0.6,0c-1-1.2-2.1-1.1-2.7-0.9c-0.2,0.1-0.4,0-0.4-0.2
		c-0.1-0.2-0.3-0.6-0.4-0.8c-0.1-0.2,0-0.4,0.2-0.5c1.2-0.4,3.2-0.5,4.7,1.5C37.3,25.8,37.3,26.1,37.1,26.2z"/>
	<path class="st3" d="M16.2,22.4l-0.4-0.7c-0.2-0.2-0.4-0.3-0.5-0.2c-0.6,0.3-1.1,0.4-1.6,0.3c-0.1,0.5-0.3,1.1-0.4,1.6
		c0.8,0.2,1.8,0.1,2.8-0.5C16.2,22.8,16.3,22.6,16.2,22.4z"/>
	<path class="st3" d="M21.5,19.9c0.1,0.2,0.3,0.3,0.5,0.1c2.1-1.3,2.2-3.4,1.9-4.6c-0.1-0.2-0.3-0.3-0.5-0.2
		c-0.3,0.1-0.6,0.2-0.9,0.3c-0.2,0.1-0.3,0.2-0.2,0.4c0.1,0.6,0.2,1.8-1.1,2.6c-0.2,0.1-0.2,0.3-0.1,0.6L21.5,19.9z"/>
	<path class="st3" d="M27.9,25.2c-0.5-0.2-1.5-0.9-1.4-2.5c0-0.2-0.1-0.4-0.4-0.4l-0.8-0.1c-0.2,0-0.4,0.1-0.4,0.3
		c-0.3,2.5,1.3,3.8,2.4,4.3c0.2,0.1,0.4,0,0.5-0.2c0.1-0.3,0.2-0.6,0.3-0.9C28.1,25.5,28.1,25.3,27.9,25.2z"/>
	<path class="st3" d="M32.5,24.1c-0.2,0.1-0.3,0.3-0.2,0.5c0.1,0.3,0.3,0.6,0.4,0.8c0.1,0.2,0.3,0.2,0.4,0.2
		c0.6-0.2,1.7-0.3,2.7,0.9c0.1,0.2,0.3,0.2,0.6,0l0.7-0.4c0.2-0.1,0.2-0.4,0.1-0.5C35.7,23.7,33.7,23.7,32.5,24.1z"/>
	<path class="st3" d="M23.8,34.7c-0.1-0.1-0.3-0.2-0.5-0.1c-0.5,0.3-1.6,0.8-2.8-0.2c-0.1-0.1-0.4-0.1-0.6,0.1l-0.6,0.6
		c-0.1,0.2-0.1,0.4,0,0.5c1.9,1.5,3.9,1,4.9,0.3c0.2-0.1,0.2-0.4,0.1-0.5C24.2,35.2,23.9,34.9,23.8,34.7z"/>
	<path class="st3" d="M13.4,31c-0.3,0.1-0.6,0.3-0.9,0.4c-0.2,0.1-0.3,0.2-0.2,0.4c0.1,0.6,0.2,1.8-1.1,2.6
		c-0.2,0.1-0.2,0.3-0.1,0.6l0.4,0.7c0.1,0.2,0.4,0.2,0.5,0.1c2.1-1.4,2.1-3.4,1.8-4.6C13.8,31.1,13.6,31,13.4,31z"/>
	<path class="st4" d="M45.1,19.9c-0.6-1.2-1.4-2.4-2.2-3.4c-3.3-4.2-7.6-7.7-12.3-10.2c-2.2-1.2-4.7-2.1-7.1-2.9
		c-1.5-0.4-3.6-1.2-5.2-0.8c-1.5,1-1.5,3.6-1.6,5.4c10.1,2.9,18.8,9.6,25.1,17.8c0.3-0.1,0.7-0.2,1-0.4c1-0.5,1.8-1.3,2.5-2.1
		C46.2,22.1,45.8,21.2,45.1,19.9z"/>
	<path class="st5" d="M44.9,17.6c-3.2-4.9-7.9-8.8-12.9-11.7c-2.5-1.5-5.3-2.6-8.1-3.5c-1.7-0.5-4.2-1.4-6-0.8c0,0-0.1,0-0.1,0.1
		c-1.3,0.8-1.8,2.8-2,4.2c-0.3,1.8-0.3,3.6-0.7,5.4c-0.9,4-1.8,8-2.8,12c-2,8.2-4.3,16.4-6,24.6c-0.1,0.4,0.3,0.8,0.7,0.6
		c6.1-3.2,12-6.7,17.8-10.3c2.9-1.8,5.7-3.6,8.5-5.5c1.4-1,2.9-1.9,4.3-2.9c1.5-1,3-2.3,4.6-3.1c1.8-0.8,3.5-1.9,4.5-3.7
		C47.6,21.3,45.9,19.1,44.9,17.6z M28.9,34.3c-1.4-1.8-1.9-4.1,0.3-5.6c2.1-1.4,4.8-0.7,6.1,1.3C33.3,31.5,31.1,32.9,28.9,34.3z
		 M36,29.6c-1.6-2.3-4.8-3.2-7.2-1.5c-2.5,1.8-2.1,4.4-0.5,6.6c-1.4,0.9-2.7,1.7-4.1,2.6c-1.3,0.8-2.5,1.6-3.8,2.3
		c-1.1-2.1-4.4-3.6-6.6-2.4c-2.8,1.5-2.8,4.6-1.7,7.1c0,0,0,0,0,0c-1.6,0.9-3.2,1.8-4.9,2.7C9,39.7,11,32.3,12.8,25
		c0.1-0.5,0.3-1.1,0.4-1.6c0.1-0.5,0.3-1.1,0.4-1.6c0.2-0.8,0.4-1.5,0.6-2.3c2.9,1.2,5.6-0.5,6.5-3.5c0.9-2.8-1.8-5.3-4.4-5.5
		c0.1-0.5,0.2-1,0.3-1.5c4,1.2,7.8,3,11.4,5.3c-2.7,1.8-2.5,5-0.2,7.3c1.1,1,2.6,1.7,4.1,1.3c1.5-0.3,2.5-1.7,3.2-3
		c2.1,2,4.1,4.1,5.8,6.4c-0.6,0.4-1.2,0.9-1.8,1.3C38.1,28.3,37,28.9,36,29.6z M12.9,44c-1-2-1.1-4.3,0.9-5.8c1.8-1.4,5.1-0.2,6,1.8
		C17.5,41.4,15.2,42.7,12.9,44C12.9,44,12.9,44,12.9,44z M19.9,15.9c-0.9,2.4-3.1,3.9-5.5,2.8c0.4-1.7,0.8-3.4,1.2-5.2
		c0.2-0.8,0.4-1.5,0.5-2.3C18.4,11.3,20.8,13.5,19.9,15.9z M28.3,21c-0.8-0.8-1.8-2.2-1.7-3.4c0-1.3,1-2.3,2.1-2.9
		c2.1,1.4,4,2.9,5.9,4.6C33.2,21.7,30.7,23.3,28.3,21z M42.8,25.4c-0.3,0.2-0.7,0.2-1,0.4C35.4,17.5,26.7,10.9,16.7,8
		c0.1-1.8,0.1-4.4,1.6-5.4c1.6-0.5,3.7,0.3,5.2,0.8c2.4,0.7,4.8,1.7,7.1,2.9c4.7,2.5,9.1,6,12.3,10.2c0.8,1.1,1.6,2.2,2.2,3.4
		c0.7,1.3,1.1,2.2,0.2,3.4C44.6,24.1,43.8,24.9,42.8,25.4z"/>
	<path class="st5" d="M23.1,31.1c1.8-2.3,1.8-4.6-0.4-6.6c0,0,0,0-0.1,0c0,0,0,0,0,0c-2.1-1.6-5.2-1.4-7,0.7
		c-1.8,2.1-0.7,4.8,1.2,6.5C18.9,33.5,21.5,33.2,23.1,31.1z M16.5,25.4c1.6-1.6,4-1.6,5.7-0.3c1.7,1.5,1.9,3.2,0.6,5.1
		c-1.5,2.2-4,2.5-5.9,0.5C15.5,29.3,14.9,27.1,16.5,25.4z"/>
</g>
</svg>
