<?xml version="1.0" encoding="utf-8"?>
<!-- Generator: Adobe Illustrator 25.3.1, SVG Export Plug-In . SVG Version: 6.00 Build 0)  -->
<svg version="1.1" id="圖層_1" xmlns="http://www.w3.org/2000/svg" xmlns:xlink="http://www.w3.org/1999/xlink" x="0px" y="0px"
	 viewBox="0 0 50 50" style="enable-background:new 0 0 50 50;" xml:space="preserve">
<style type="text/css">
	.st0{fill:#F9D93D;}
	.st1{fill:#A15B3A;}
	.st2{fill:#C96649;}
	.st3{fill:#B2BF4E;}
	.st4{fill:#DEAB71;}
	.st5{fill:#D69C63;}
	.st6{fill:#FFDBBB;}
	.st7{fill:#534741;}
</style>
<g>
	<path class="st0" d="M43.8,29.1c-2.3,0.9-4.8,0.7-7.2,0.4c-0.1,0-0.1,0-0.1-0.1c-0.5,0.7-1.4,0.9-2.3,1c-1.8,0.3-3.7,0.2-5.5,0.1
		c-1.3-0.1-2.9,0-3.9-1c0,0,0,0,0,0c-0.4,0.2-0.8,0.3-1.2,0.1c-0.1-0.1-0.2-0.1-0.3-0.2c-1.1,0.2-2.2,0.4-3.3,0.4
		c-0.5,0-1.4,0.1-2-0.2c-0.5,1.8-4.7,1.7-6.1,1.7c-1.1,0-4,0.1-5.8-0.6c-0.2,0.3-0.3,0.5-0.5,0.8c1.4,0.2,2.8,0.1,4.2,0.2
		c1.7,0,3.5-0.2,5.2-0.2c3.8,0,7.5-0.3,11.2-0.5c3.8-0.1,7.5,0.3,11.3-0.2c1.7-0.2,3.4,0,5.1-0.4c1.1-0.2,2.1-0.6,3.2-0.7
		c-0.4-0.4-0.8-0.7-1.2-1.1C44.5,28.7,44.1,29,43.8,29.1z"/>
	<path class="st1" d="M7.8,33.3c0.9-0.1,1.8,0.1,2.7,0.2c0.7,0.1,1.4,0.2,2.2,0c0.8-0.2,1.1-0.8,1.4-1.5C11.5,32,8.9,32.3,6.4,32
		C6,32.5,5.8,33,5.5,33.4C6.3,33.5,7,33.3,7.8,33.3z"/>
	<path class="st1" d="M14.5,32.3c0.5,0.7,1,1.4,1.5,2.1c0.1,0.2,0.4,0.8,0.6,0.8c0.1,0,0.3-0.2,0.5-0.4c0.8-0.5,1.7-0.4,2.6-0.5
		c0.8,0,1.5-0.2,2.1-0.4c0,0-0.1,0-0.1,0c-0.7-0.1-1.3-0.4-1.9-0.7c-1.3-0.6-2.8-0.9-4.2-1.3c0,0,0,0,0,0c-0.4,0-0.7,0-1.1,0
		C14.6,32.1,14.6,32.2,14.5,32.3z"/>
	<path class="st1" d="M17.8,31.9c0.7,0.2,1.4,0.4,2.1,0.7c0.6,0.2,1.1,0.6,1.7,0.7c0.7,0.2,1.5,0,2.2,0.1c1,0.2,2,0.6,3,0.7
		c0.5,0,0.8-0.4,1.2-0.6c0.5-0.3,1-0.6,1.5-0.8c-0.8-0.4-1.7-0.8-2.6-1.1c0,0,0,0-0.1,0c-0.3,0-0.6,0-0.9,0
		C23.2,31.6,20.5,31.8,17.8,31.9z"/>
	<path class="st1" d="M40.5,31.2c-1.1,0.1-2.2,0.1-3.3,0.2c-2.9,0.4-5.8,0.2-8.8,0.1c0.6,0.3,1.2,0.6,1.8,0.9c0.2,0.1,0.2,0.4,0,0.5
		c-0.2,0.1-0.5,0.2-0.7,0.3c2.1,0.4,4.3,0,6.4-0.2c0.5-0.1,1.1-0.1,1.6-0.2c0.5,0,1.5,0.1,1.8-0.1C39.9,32.5,40.2,31.7,40.5,31.2z"
		/>
	<path class="st1" d="M42.1,31c-0.3,0-0.6,0.1-0.9,0.1c0,0,0,0,0,0c-0.4,0.6-0.8,1.2-1,2c0,0.1-0.1,0.2-0.3,0.2c-0.2,0-0.4,0-0.6,0
		c0,0,0.1,0.1,0.1,0.1c0.4,0.4,0.6,0.2,1.1,0.2c0.9,0,1.6-0.2,2.4-0.6c1.1-0.5,2.1-0.7,3.2-0.8c-0.4-0.6-0.8-1.3-1.2-2
		C44,30.6,43.1,30.9,42.1,31z"/>
	<path class="st2" d="M44,26.4c0,0.1,0,0.2,0,0.3c-0.2,0.5-0.7,0.8-1.1,1.2c-0.5,0.3-0.8,0.4-1.4,0.2c-0.4-0.1-0.8-0.3-1.1-0.5
		c-0.2-0.1-0.5-0.6-0.8-0.6c-0.4,0.1-0.6,0.8-1.1,0.8c-0.7,0-0.9-0.5-1.4-0.8c-0.4-0.3-0.7-0.3-1.1-0.2c0.7,0.4,1.1,1.2,0.8,2.1
		c1.3,0.2,2.6,0.3,3.9,0.2c0.8,0,1.6-0.1,2.3-0.4c0.7-0.2,2.7-1.1,1.8-2.1c0,0,0,0,0,0c-0.2-0.1-0.3-0.3-0.4-0.3
		C43.8,26,44.2,26,44,26.4z"/>
	<path class="st2" d="M33.2,29.1c-0.6,0.2-1.3,0-1.8-0.3c-0.4-0.2-0.7-0.6-1-0.9c-0.5-0.6-0.5-0.4-1.1-0.1c-0.7,0.4-1.3,0-2.1,0.2
		c-0.9,0.2-1.3,0.9-1.9,1.3c0.8,0.7,2.1,0.6,3.1,0.7c0.9,0.1,1.8,0.2,2.8,0.2c0.9,0,1.8-0.1,2.7-0.2c0.4,0,1-0.1,1.3-0.2
		c1-0.5,1.5-1.8,0.2-2.5c0,0,0,0,0,0c-0.2,0.1-0.4,0.3-0.6,0.5C34,28.1,34,28.8,33.2,29.1z"/>
	<path class="st2" d="M21.4,28.2c-0.6,0.2-1-0.6-1.6-0.5c-0.1,0-0.4,0.3-0.6,0.4c-0.2,0.1-0.4,0-0.7,0c-0.2,0-0.7-0.3-0.9-0.2
		c0,0,0,0,0,0c0,0,0,0,0,0c0.2,0.4,0.3,0.7,0.4,1c0.4,0.4,2,0.3,2.5,0.2c0.8,0,1.6-0.1,2.4-0.3c-0.2-0.5-0.1-1.2-0.6-1.6
		C22.2,27.7,21.8,28.1,21.4,28.2z"/>
	<path class="st2" d="M11.5,30.7c1.3,0,6.9,0.4,5.9-2.1c0,0.1-0.1,0.1-0.1,0.1c-0.5,0.5-1.5,1.4-2.3,0.7c-0.3-0.2-0.2-0.6-0.4-0.9
		c0,0-0.7-0.3-0.7-0.3c-0.4-0.1-0.6-0.1-0.9,0.1c-0.8,0.4-1.9,1.3-2.8,0.5c-0.1-0.1-0.2-0.2-0.3-0.3c-0.3-0.2-0.4-0.2-0.8-0.3
		c-0.1,0-0.2,0-0.3-0.1c-0.3-0.2-0.1-0.3-0.4-0.6c-0.3-0.2-0.6-0.2-1-0.2c-0.9-0.2-1.1,0-1.8,0.5c-0.1,0.1-0.2,0.2-0.3,0.3
		C4.6,30.8,10.1,30.7,11.5,30.7z"/>
	<path class="st3" d="M46.7,25.8c0.2-0.1,1.2-0.4,1.1-0.7c-0.1-0.2-0.6-0.4-0.7-0.5c-0.3-0.2-0.6-0.4-0.7-0.7
		c-0.2-0.6,0.1-0.8-0.4-1.1c0,0.4-0.1,0.7-0.1,1.1c0,0.2-0.1,0.3-0.3,0.4c-3.1,0.9-6.3,0.7-9.5,0.7c-3.4,0-6.8,0.2-10.2,0.4
		c-6.9,0.5-13.7,1-20.6,0.3c-0.1,0-0.2-0.1-0.3-0.1c-0.1-0.1-0.1-0.1-0.1-0.2c0-0.2,0-0.3-0.1-0.5c-0.1,0-0.2,0-0.4,0.1
		c-0.1,0-0.3,0-0.4,0c-0.7-0.1-0.9,0.1-0.7,0.5c-0.2,0.3-0.1,0.5-0.4,0.8c-0.3,0.3-0.5,0.2-0.4,0.6c0.2,0.6,0.5,0.2,1,0.3
		c0.5,0.1,0.4,0.3,0.8,0.5c0.1,0.4,0.4,0.4,0.9-0.2c0.1-0.1,0.2-0.2,0.2-0.3c0.2-0.2,0.2-0.2,0.5-0.3c0.5-0.2,1.4,0,1.9,0.1
		c0.5,0.1,0.6,0.3,1,0.6c0.4,0.3,0.5,0.2,1,0.4c0.2,0.1,0.3,0.3,0.5,0.5c0.5,0.4,1.1,0.3,1.7,0c0.4-0.2,0.8-0.7,1.4-0.8
		c0.4-0.1,1.3,0.3,1.5,0.6c0.2,0.2,0.2,0.5,0.3,0.6c1.1,1.1,1.6-1,2-1.2c0.4-0.3,0.6-0.1,1-0.1c0.4,0.2,0.8,0.1,1.2-0.1
		c0.1-0.1,0.1-0.2,0.2-0.2c0.1,0,0.2-0.1,0.3-0.1c0.3,0,0.4,0.2,0.6,0.3c0.9,0.3,1.2,0.2,1.5-0.5c0.1-0.1,0.3-0.2,0.4-0.1
		c0.4,0.2,0.8,0.4,1,0.8c0.2,0.6-0.1,0.7,0.6,1.2c0.5,0.4,0.7,0.4,1.2-0.1c0.2-0.2,0.3-0.4,0.5-0.6c0.5-0.5,1.1-0.9,1.8-0.8
		c0.6,0,1,0.3,1.6-0.1c0.3-0.1,0.2-0.3,0.5-0.4c0.3-0.1,0.5,0.1,0.7,0.2c0.4,0.3,0.6,0.7,1,1c0.2,0.2,0.7,0.6,0.9,0.6
		c0.1,0,1.3-0.7,1.4-0.7c0.4-0.3,0.6-0.6,1-0.9c0.7-0.5,1.4-1.7,2.3-1c0.2,0.1,0.3,0.3,0.4,0.5c0.4,0.5,1.1,0.7,1.6,0.3
		c0.3-0.2,0.4-0.5,0.8-0.5c0.5,0.1,1,0.8,1.5,1c0.7,0.3,1.8-0.1,2.2-0.8c0.3-0.6,0-1.5,1-1c0.4,0.2,0.7,0.5,1.3,0.5
		C46,26.1,46.4,25.9,46.7,25.8z"/>
	<path class="st4" d="M41.4,34.1c-0.5,0.1-1.3,0.3-1.8,0.2c-0.5-0.1-0.6-0.6-0.9-1c0,0,0,0,0,0c-3.3,0.1-6.6,1.1-9.8,0.3
		c0,0,0,0,0,0c-0.3,0.2-0.6,0.4-0.9,0.6c-0.4,0.3-0.6,0.6-1,0.6c-0.5-0.1-0.9-0.3-1.4-0.4c-0.5-0.1-0.9-0.2-1.4-0.3
		C23.9,34,23.7,34,23.5,34c-1.2,0.4-2.4,0.9-3.7,1c-1.1,0-1.7,0.2-2.6,0.7c-0.2,0.1-0.3,0.3-0.5,0.3c-0.4,0-0.6-0.5-0.8-0.8
		c-0.5-0.7-1.1-1.4-1.6-2.2c-0.2,0.4-0.4,0.7-0.7,0.9c-0.6,0.4-1.6,0.4-2.3,0.4c-1.2-0.1-2.4-0.4-3.6-0.3C7,33.9,6.3,34,5.7,34
		c0,0.9-0.1,2.2,0.2,3c0.5,1.5,2.1,1.2,3.4,1.2c1.8,0.1,3.7,0.1,5.5,0.2c3.7,0,7.3,0,11-0.2c3.7-0.2,7.5-0.5,11.2-0.9
		c1.8-0.2,3.7-0.5,5.5-0.6c1.1-0.1,2.5,0.3,2.9-1c0.3-0.9,0.3-1.8,0.3-2.7c-0.8,0.1-1.6,0.3-2.4,0.6C42.6,33.9,42.1,34,41.4,34.1z"
		/>
	<path class="st5" d="M25.4,24.6c3.4-0.2,6.8-0.4,10.2-0.5c3.2,0,6.4,0.2,9.5-0.6c0-0.9,0-1.7,0.1-2.6c0-0.6,0.1-1.2,0-1.7
		c-1.6,0.5-3.3,0.5-4.9,0.7c-1.5,0.1-3,0.3-4.6,0.4c-2.7,0.1-5.5,0.1-8.2,0.2c-3,0.1-6.1,0.1-9.1,0.3c-4.2,0.3-8.4,0.9-12.7,0.7
		c-0.1,0.4-0.2,0.8-0.2,1.2c0,0.7,0.1,1.5,0.2,2.2C12.2,25.5,18.8,25.1,25.4,24.6z"/>
	<path class="st6" d="M6.1,20.7c3.9,0.2,7.8-0.4,11.7-0.7c3-0.2,6.1-0.2,9.1-0.3c2.8-0.1,5.6-0.1,8.4-0.2c1.5-0.1,2.9-0.2,4.4-0.3
		c1.7-0.2,3.5-0.2,5.1-0.7c-0.2-0.2-0.4-0.4-0.7-0.5c-1.9-0.9-3.9-1.8-5.9-2.5c-2-0.8-4-1.5-6-2.1c-1.9-0.6-3.9-1.4-5.9-1.7
		c-2.4-0.3-5.1,1.1-7.3,2.1c-1.9,0.9-3.8,1.8-5.6,2.8c-1.9,1-3.7,2.1-5.6,3.1c-0.4,0.2-0.9,0.4-1.3,0.7C6.4,20.5,6.3,20.6,6.1,20.7z
		"/>
	<path class="st7" d="M47.9,24.5c-0.3-0.2-0.8-0.4-1-0.7c-0.2-0.3,0-0.7-0.1-1c-0.2-0.4-0.5-0.5-0.9-0.7c0.1-1.1,0.2-2.3,0-3.4
		c-0.3-1.4-2.2-1.8-3.3-2.3c-3.5-1.5-7.1-2.9-10.8-4.1c-1.7-0.6-3.5-1.3-5.4-1.5c-1.9-0.3-3.7,0.5-5.4,1.2c-3.6,1.5-7,3.3-10.4,5.2
		c-1,0.6-2,1.1-3,1.7c-0.8,0.4-1.7,0.8-2.4,1.4c-0.6,0.6-0.5,1.2-0.6,2c0,0.6,0,1.2,0.1,1.8c-0.5,0.3-1.3-0.1-1.8,0.2
		c-0.4,0.3-0.2,0.5-0.3,0.9c-0.2,0.7-1.6,1.2-0.9,2c0.2,0.3,0.6,0.4,0.9,0.4c0.6,0,0.7-0.1,1.3,0.4C4.1,28,4,28.2,4.2,28.2
		c0.2,0.1,0.3,0.2,0.5,0.2c-0.1,0.9,0.3,1.5,1.1,2c-0.2,0.4-0.5,0.7-0.7,1.1c-0.1,0.1,0,0.4,0.2,0.4c0.2,0,0.4,0.1,0.6,0.1
		c-0.3,0.5-0.6,1-0.9,1.5c-0.1,0.1,0,0.3,0.1,0.4c0,0,0,0,0,0.1c0.1,1.2-0.3,3.8,0.9,4.6c0.5,0.4,1.3,0.3,1.9,0.4
		c1.2,0.1,2.3,0.1,3.5,0.1c4.8,0.2,9.5,0.1,14.3-0.1c4.7-0.2,9.3-0.6,14-1.2c1.2-0.1,2.3-0.3,3.5-0.3c0.7,0,1.7,0.2,2.3-0.2
		c1.2-0.8,1.2-3.2,1.1-4.4c0.1,0,0.1,0,0.2,0c0.2,0,0.4-0.2,0.2-0.4c-0.5-0.7-0.9-1.4-1.4-2.2c0.3-0.1,0.7-0.1,1-0.2
		c0.2,0,0.4-0.3,0.2-0.5c-0.5-0.5-1-1-1.5-1.5c0.3-0.4,0.5-0.9,0.3-1.4c0.5,0,1-0.2,1.3-0.3C47.9,26,49,25.5,47.9,24.5z M45.4,35.7
		c-0.4,1.3-1.8,1-2.9,1c-1.8,0.1-3.7,0.4-5.5,0.6c-3.7,0.4-7.5,0.7-11.2,0.9c-3.7,0.2-7.3,0.2-11,0.2c-1.8,0-3.7-0.1-5.5-0.2
		C8,38.2,6.4,38.5,5.9,37c-0.3-0.8-0.2-2.1-0.2-3c0.7,0,1.3-0.1,2-0.2c1.2-0.1,2.4,0.2,3.6,0.3c0.7,0.1,1.7,0,2.3-0.4
		c0.3-0.2,0.5-0.5,0.7-0.9c0.5,0.7,1,1.4,1.6,2.2c0.2,0.3,0.4,0.8,0.8,0.8c0.2,0,0.3-0.2,0.5-0.3c1-0.6,1.6-0.7,2.6-0.7
		c1.3-0.1,2.5-0.5,3.7-1c0.2,0,0.4,0,0.6,0.1c0.5,0.1,0.9,0.2,1.4,0.3c0.5,0.1,0.9,0.3,1.4,0.4c0.5,0.1,0.6-0.3,1-0.6
		c0.3-0.2,0.6-0.4,0.9-0.6c0,0,0,0,0,0c3.3,0.8,6.5-0.2,9.8-0.3c0,0,0,0,0,0c0.4,0.4,0.4,0.8,0.9,1c0.5,0.1,1.3-0.1,1.8-0.2
		c0.7-0.1,1.2-0.3,1.8-0.5c0.8-0.4,1.6-0.5,2.4-0.6C45.7,33.9,45.6,34.8,45.4,35.7z M37.6,32.8c-0.5,0-1.1,0.1-1.6,0.2
		c-2.1,0.3-4.3,0.6-6.4,0.2c0.2-0.1,0.5-0.2,0.7-0.3c0.2-0.1,0.2-0.4,0-0.5c-0.6-0.3-1.2-0.6-1.8-0.9c2.9,0,5.9,0.2,8.8-0.1
		c1.1-0.1,2.2-0.1,3.3-0.2c-0.3,0.6-0.6,1.3-1.1,1.6C39,32.9,38,32.7,37.6,32.8z M26.8,31.5C26.9,31.5,26.9,31.5,26.8,31.5
		c0.9,0.3,1.8,0.7,2.6,1.1c-0.5,0.2-1,0.5-1.5,0.8c-0.4,0.3-0.7,0.6-1.2,0.6c-1,0-2-0.5-3-0.7c-0.7-0.1-1.5,0.1-2.2-0.1
		c-0.6-0.1-1.2-0.5-1.7-0.7c-0.7-0.3-1.4-0.5-2.1-0.7c2.7-0.1,5.4-0.3,8.1-0.4C26.2,31.5,26.5,31.5,26.8,31.5z M15.8,31.9
		C15.8,31.9,15.8,31.9,15.8,31.9c1.4,0.4,2.9,0.7,4.2,1.3c0.6,0.3,1.2,0.6,1.9,0.7c0,0,0.1,0,0.1,0c-0.7,0.2-1.4,0.4-2.1,0.4
		c-0.9,0-1.8,0-2.6,0.5c-0.2,0.2-0.4,0.4-0.5,0.4c-0.2-0.1-0.5-0.7-0.6-0.8c-0.5-0.7-1.1-1.4-1.5-2.1c0.1-0.1,0.1-0.2,0.2-0.3
		C15.1,31.9,15.4,31.9,15.8,31.9z M14,32c-0.3,0.7-0.6,1.3-1.4,1.5c-0.7,0.2-1.4,0.1-2.2,0c-0.9-0.1-1.8-0.3-2.7-0.2
		c-0.8,0.1-1.5,0.3-2.3,0.2C5.8,33,6,32.5,6.4,32C8.9,32.3,11.5,32,14,32z M42.9,33.1c-0.8,0.3-1.6,0.6-2.4,0.6
		c-0.5,0-0.7,0.1-1.1-0.2c0,0-0.1-0.1-0.1-0.1c0.2,0,0.4,0,0.6,0c0.1,0,0.2-0.1,0.3-0.2c0.2-0.7,0.6-1.4,1-2c0,0,0,0,0,0
		c0.3,0,0.6-0.1,0.9-0.1c1-0.1,1.9-0.4,2.8-0.6c0.4,0.7,0.8,1.3,1.2,2C45,32.4,44,32.6,42.9,33.1z M46,29.6
		c-1.1,0.2-2.1,0.5-3.2,0.7c-1.6,0.4-3.4,0.2-5.1,0.4c-3.7,0.5-7.5,0.1-11.3,0.2c-3.7,0.1-7.5,0.4-11.2,0.5c-1.7,0-3.5,0.2-5.2,0.2
		c-1.4,0-2.8,0-4.2-0.2c0.2-0.3,0.3-0.5,0.5-0.8c1.8,0.7,4.7,0.6,5.8,0.6c1.4,0,5.6,0.1,6.1-1.7c0.6,0.2,1.4,0.1,2,0.2
		c1.1,0,2.2-0.1,3.3-0.4c0.1,0.1,0.2,0.1,0.3,0.2c0.4,0.2,0.8,0.1,1.2-0.1c0,0,0,0,0,0c1,0.9,2.6,0.9,3.9,1c1.9,0.2,3.7,0.2,5.5-0.1
		c0.9-0.1,1.8-0.3,2.3-1c0,0,0.1,0.1,0.1,0.1c2.4,0.3,4.9,0.6,7.2-0.4c0.3-0.1,0.7-0.4,1-0.6C45.2,28.8,45.6,29.2,46,29.6z
		 M44.8,26.6c0.9,1-1.1,1.9-1.8,2.1c-0.7,0.2-1.5,0.3-2.3,0.4c-1.3,0.1-2.6-0.1-3.9-0.2c0.3-0.8-0.1-1.6-0.8-2.1
		c0.4-0.1,0.8-0.1,1.1,0.2c0.5,0.3,0.7,0.8,1.4,0.8c0.6,0,0.7-0.7,1.1-0.8c0.3,0,0.6,0.4,0.8,0.6c0.3,0.2,0.7,0.4,1.1,0.5
		c0.5,0.1,0.9,0.1,1.4-0.2c0.4-0.3,1-0.6,1.1-1.2c0-0.1,0-0.2,0-0.3c0.2-0.4-0.2-0.4,0.3-0.2C44.5,26.3,44.6,26.5,44.8,26.6
		C44.8,26.6,44.8,26.6,44.8,26.6z M35.3,27.1C35.3,27.2,35.3,27.2,35.3,27.1c1.4,0.7,0.9,2-0.1,2.5c-0.3,0.2-1,0.2-1.3,0.2
		C32.9,30,32,30,31.1,30c-0.9,0-1.8-0.1-2.8-0.2c-1-0.1-2.3,0-3.1-0.7c0.6-0.4,1.1-1.1,1.9-1.3c0.8-0.2,1.4,0.2,2.1-0.2
		c0.6-0.3,0.5-0.5,1.1,0.1c0.3,0.3,0.6,0.7,1,0.9c0.5,0.3,1.2,0.5,1.8,0.3c0.8-0.3,0.8-1,1.4-1.5C34.8,27.4,35,27.3,35.3,27.1z
		 M23,28.8c-0.8,0.2-1.6,0.3-2.4,0.3c-0.5,0-2.1,0.2-2.5-0.2c-0.1-0.3-0.2-0.6-0.4-1c0,0,0,0,0,0c0,0,0,0,0,0
		c0.2-0.1,0.7,0.1,0.9,0.2c0.2,0,0.4,0.1,0.7,0c0.2,0,0.4-0.4,0.6-0.4c0.6-0.1,0.9,0.6,1.6,0.5c0.4-0.1,0.8-0.5,1-0.9
		C22.8,27.7,22.8,28.3,23,28.8z M5.3,28.2c0.1-0.1,0.2-0.2,0.3-0.3c0.7-0.5,0.9-0.7,1.8-0.5c0.3,0.1,0.7,0,1,0.2
		c0.3,0.3,0.2,0.4,0.4,0.6c0.1,0.1,0.2,0,0.3,0.1c0.3,0.1,0.5,0.1,0.8,0.3c0.1,0.1,0.2,0.2,0.3,0.3c0.9,0.8,2-0.1,2.8-0.5
		c0.3-0.2,0.6-0.3,0.9-0.1c0,0,0.7,0.3,0.7,0.3c0.2,0.2,0.1,0.6,0.4,0.9c0.7,0.7,1.8-0.2,2.3-0.7c0,0,0.1-0.1,0.1-0.1
		c1,2.5-4.6,2.2-5.9,2.1C10.1,30.7,4.6,30.8,5.3,28.2z M44.4,25.5c-1-0.4-0.7,0.4-1,1c-0.4,0.7-1.5,1.1-2.2,0.8
		c-0.5-0.2-0.9-1-1.5-1c-0.4,0-0.5,0.3-0.8,0.5c-0.6,0.4-1.2,0.2-1.6-0.3c-0.1-0.2-0.2-0.4-0.4-0.5c-1-0.7-1.6,0.5-2.3,1
		c-0.4,0.3-0.6,0.6-1,0.9c0,0-1.3,0.7-1.4,0.7c-0.2,0-0.7-0.4-0.9-0.6c-0.4-0.3-0.6-0.8-1-1c-0.2-0.1-0.4-0.3-0.7-0.2
		c-0.4,0.1-0.3,0.3-0.5,0.4c-0.6,0.3-1,0.1-1.6,0.1c-0.7,0-1.3,0.4-1.8,0.8c-0.2,0.2-0.3,0.4-0.5,0.6C24.7,29,24.5,29,24,28.6
		c-0.6-0.5-0.3-0.6-0.6-1.2c-0.2-0.4-0.5-0.6-1-0.8c-0.1-0.1-0.3,0-0.4,0.1c-0.3,0.8-0.6,0.9-1.5,0.5c-0.2-0.1-0.3-0.3-0.6-0.3
		c-0.1,0-0.2,0.1-0.3,0.1c-0.1,0.1-0.2,0.1-0.2,0.2c-0.4,0.2-0.8,0.3-1.2,0.1c-0.4-0.1-0.6-0.2-1,0.1c-0.4,0.3-0.9,2.4-2,1.2
		c-0.1-0.1-0.1-0.5-0.3-0.6c-0.3-0.2-1.1-0.6-1.5-0.6c-0.5,0.1-0.9,0.6-1.4,0.8c-0.6,0.3-1.1,0.4-1.7,0c-0.2-0.1-0.3-0.4-0.5-0.5
		c-0.4-0.2-0.6-0.1-1-0.4c-0.4-0.3-0.5-0.5-1-0.6c-0.5-0.1-1.4-0.3-1.9-0.1c-0.3,0.1-0.3,0.2-0.5,0.3c-0.1,0.1-0.2,0.2-0.2,0.3
		c-0.5,0.6-0.8,0.6-0.9,0.2c-0.3-0.2-0.3-0.4-0.8-0.5c-0.5-0.1-0.9,0.3-1-0.3c-0.1-0.5,0.1-0.3,0.4-0.6c0.3-0.3,0.2-0.5,0.4-0.8
		c-0.2-0.4,0-0.6,0.7-0.5c0.1,0,0.3,0,0.4,0c0.2-0.1,0.3-0.1,0.4-0.1c0,0.2,0,0.3,0.1,0.5c0,0.1,0.1,0.2,0.1,0.2
		c0.1,0.1,0.2,0.1,0.3,0.1c6.9,0.7,13.7,0.2,20.6-0.3c3.4-0.2,6.8-0.4,10.2-0.4c3.2,0,6.4,0.2,9.5-0.7c0.2,0,0.3-0.2,0.3-0.4
		c0-0.3,0-0.7,0.1-1.1c0.5,0.3,0.2,0.5,0.4,1.1c0.1,0.3,0.4,0.5,0.7,0.7c0.2,0.1,0.7,0.4,0.7,0.5c0.1,0.3-0.8,0.6-1.1,0.7
		c-0.3,0.1-0.7,0.2-1,0.3C45.1,26.1,44.8,25.7,44.4,25.5z M7.9,19.7c1.9-1,3.7-2.1,5.6-3.1c1.8-1,3.7-2,5.6-2.8
		c2.2-1,4.8-2.5,7.3-2.1c2,0.3,4,1.1,5.9,1.7c2,0.7,4,1.4,6,2.1c2,0.8,4,1.6,5.9,2.5c0.3,0.1,0.5,0.3,0.7,0.5
		c-1.6,0.5-3.4,0.5-5.1,0.7c-1.5,0.1-2.9,0.3-4.4,0.3c-2.8,0.1-5.6,0.1-8.4,0.2c-3,0.1-6.1,0.1-9.1,0.3c-3.9,0.3-7.8,0.8-11.7,0.7
		c0.1-0.1,0.3-0.3,0.5-0.4C7,20.1,7.4,19.9,7.9,19.7z M5.7,24.9c-0.1-0.7-0.2-1.4-0.2-2.2c0-0.4,0.1-0.9,0.2-1.2
		c4.2,0.2,8.4-0.4,12.7-0.7c3-0.2,6.1-0.2,9.1-0.3c2.7-0.1,5.5,0,8.2-0.2c1.5-0.1,3.1-0.2,4.6-0.4c1.6-0.2,3.3-0.2,4.9-0.7
		c0.1,0.5,0,1.1,0,1.7c0,0.9,0,1.7-0.1,2.6c-3.1,0.8-6.3,0.6-9.5,0.6c-3.4,0-6.8,0.2-10.2,0.5C18.8,25.1,12.2,25.5,5.7,24.9z"/>
</g>
</svg>
