<?xml version="1.0" encoding="utf-8"?>
<!-- Generator: Adobe Illustrator 25.3.1, SVG Export Plug-In . SVG Version: 6.00 Build 0)  -->
<svg version="1.1" id="圖層_1" xmlns="http://www.w3.org/2000/svg" xmlns:xlink="http://www.w3.org/1999/xlink" x="0px" y="0px"
	 viewBox="0 0 50 50" style="enable-background:new 0 0 50 50;" xml:space="preserve">
<style type="text/css">
	.st0{fill:#FFDFB8;}
	.st1{fill:#C96649;}
	.st2{fill:#FFDBBB;}
	.st3{fill:#A3533B;}
	.st4{fill:#534741;}
</style>
<g>
	<path class="st0" d="M42.5,32.2c-5.8,7.2-15.7,8.7-24.4,7.1c-4.6-0.9-9.5-2.6-13.2-5.6c-1.3-1-2.4-2.4-3.1-3.9
		c0,1.6,0.1,3.2,0.5,4.8c0.5,2.1,2.3,3.6,4,4.8c4.4,3.1,9.5,4.5,14.8,4.8c5.8,0.3,11.2,0,16.3-3c7.6-4.5,10.6-12.8,10.6-21.2
		C47.1,24.3,45.3,28.7,42.5,32.2z"/>
	<path class="st1" d="M7.3,31.9c3.5,2.4,6.3,3.7,10.4,4.7c4.3,1,8.7,1,13-0.1c3.8-1,7.6-3.2,10.1-6.2c2.4-2.9,4-8,4.9-11.9
		c1-4.1,0.2-8.3-3.2-10.1c-7.7-4.3-11.1,3.5-18.1,5.7c-1.3,0.5-4.7,1.1-6.3,1.3c-4.5,0.6-8.9,1.6-12.3,4.9c-1.7,1.6-2.5,3.5-2.5,5.8
		C3.4,28.2,5.2,30.5,7.3,31.9z M38.7,9.3c1.9,2.4,3.2,5.3,4.9,7.9c1.6,2.5,0.4,3.5-1.4,0.8c-1.7-2.6-3.1-5.4-4.9-7.9
		C35.7,8.3,37.3,7.6,38.7,9.3z M34.2,11.6c2.4,4,5.1,7.9,7.4,12c1.7,2.9,0.1,3.4-1.4,0.8c-2.3-4.1-5.1-7.9-7.4-12
		C31.7,10.5,32.9,9.4,34.2,11.6z M29.5,14.2c2.4,5.3,5.6,10.3,8.5,15.3c1.3,2.3-0.3,2.7-1.4,0.8c-2.9-5.1-6.1-10-8.5-15.3
		C27.2,13,28.7,12.4,29.5,14.2z M24.5,16.2c3.2,5.4,5.2,11.3,8.6,16.6c1.2,1.8-0.2,2.7-1.4,0.8c-3.4-5.3-5.5-11.2-8.6-16.6l0,0
		C22,15.2,23.4,14.3,24.5,16.2z M18.9,17.7c2.9,5.5,5.6,11.2,8.4,16.7c1,2-0.4,2.7-1.4,0.8c-2.9-5.5-5.6-11.2-8.4-16.7
		C16.5,16.6,17.9,15.8,18.9,17.7z M13.4,19c2.7,4.9,4.8,10.1,7.6,14.9c1.1,1.8-0.4,2.6-1.4,0.8C16.8,29.9,15,24.5,12,19.8
		C10.9,17.8,12.4,17.1,13.4,19z M8.5,21.9c1.7,3.2,3.2,6.6,4.6,9.9c0.9,2.1-0.6,2.8-1.4,0.8c-1.4-3.3-2.9-6.7-4.6-9.9
		C6,20.8,7.4,20,8.5,21.9z"/>
	<path class="st2" d="M8.7,35c4.1,2.2,8.7,3.5,13.4,3.8c8.2,0.5,16.4-2,21-9.2c2-3.1,3.4-6.9,4.2-10.5c1-4.4,0.4-8.4-3.1-11.4
		c-3.6-3.2-9.4-2.5-13,0.2c-1.5,1.1-2.9,2.5-4.6,3.4c-1.9,1.1-4,1.6-6.1,2C16.9,14.1,13,14.5,9.7,16c-3.4,1.5-7.4,5.1-7.8,9
		C1.4,29.5,5,33,8.7,35z M5.9,20.2c3.3-3.3,7.8-4.4,12.3-4.9c1.6-0.2,4.9-0.8,6.3-1.3c6.9-2.2,10.4-10,18.1-5.7
		c3.4,1.9,4.1,6.1,3.2,10.1c-0.9,3.9-2.5,9-4.9,11.9c-2.5,3.1-6.3,5.2-10.1,6.2c-4.2,1.2-8.7,1.2-13,0.1c-4.1-1-6.9-2.3-10.4-4.7
		c-2.1-1.4-3.9-3.7-3.9-5.9C3.4,23.6,4.3,21.8,5.9,20.2z"/>
	<path class="st3" d="M11.6,32.6c0.8,2,2.3,1.3,1.4-0.8c-1.4-3.3-2.9-6.7-4.6-9.9c-1-1.9-2.4-1.1-1.4,0.8
		C8.7,25.9,10.3,29.3,11.6,32.6z"/>
	<path class="st3" d="M19.6,34.7c1,1.8,2.5,1,1.4-0.8c-2.8-4.9-4.8-10-7.6-14.9c-1-1.9-2.5-1.1-1.4,0.8C15,24.5,16.8,29.9,19.6,34.7
		z"/>
	<path class="st3" d="M26,35.3c1,1.9,2.4,1.2,1.4-0.8c-2.9-5.5-5.5-11.2-8.4-16.7c-1-1.9-2.4-1.2-1.4,0.8
		C20.4,24.1,23.1,29.7,26,35.3z"/>
	<path class="st3" d="M23.1,17.1c3.1,5.4,5.2,11.3,8.6,16.6c1.2,1.9,2.6,1,1.4-0.8c-3.4-5.3-5.4-11.2-8.6-16.6
		C23.4,14.3,22,15.2,23.1,17.1L23.1,17.1z"/>
	<path class="st3" d="M36.6,30.4c1.1,1.9,2.7,1.5,1.4-0.8c-2.9-5.1-6.1-10-8.5-15.3c-0.8-1.8-2.3-1.3-1.4,0.8
		C30.5,20.4,33.8,25.3,36.6,30.4z"/>
	<path class="st3" d="M40.3,24.4c1.5,2.6,3.1,2.1,1.4-0.8c-2.3-4.1-5-8-7.4-12c-1.3-2.1-2.6-1.1-1.4,0.8
		C35.1,16.5,37.9,20.3,40.3,24.4z"/>
	<path class="st3" d="M42.2,18c1.8,2.7,3,1.7,1.4-0.8c-1.7-2.6-3-5.5-4.9-7.9c-1.4-1.7-2.9-1.1-1.4,0.8C39.1,12.7,40.5,15.4,42.2,18
		z"/>
	<path class="st4" d="M48.7,13.8c0-0.1,0-0.1,0-0.1c-0.4-2.5-1.5-4.8-3.7-6.6c-2.9-2.6-7.6-3-11.2-1.7c-1.8,0.6-3.3,2-4.8,3.1
		c-2,1.6-3.9,2.8-6.4,3.4c-4.3,1.1-8.9,1.3-13.1,3c-3.3,1.4-7,4.6-8.2,8c-0.4,1.1-0.5,2.2-0.4,3.2c0,0.1-0.1,0.1-0.1,0.2
		c0.2,4.2-0.4,9,3,12.1c3.8,3.6,9.2,5.7,14.4,6.4c5.9,0.7,12.4,0.8,17.9-1.8c5.4-2.5,8.9-6.6,11.1-12.1
		C49.4,25.7,49.5,19.5,48.7,13.8z M37.6,41.2c-5.1,3-10.6,3.3-16.3,3c-5.3-0.3-10.4-1.7-14.8-4.8c-1.7-1.2-3.5-2.7-4-4.8
		c-0.4-1.5-0.5-3.1-0.5-4.8c0.7,1.5,1.8,2.8,3.1,3.9c3.7,3,8.6,4.8,13.2,5.6c8.7,1.6,18.6,0.1,24.4-7.1c2.8-3.5,4.6-7.9,5.6-12.2
		C48.1,28.3,45.2,36.7,37.6,41.2z M9.7,16c3.4-1.5,7.2-1.9,10.8-2.6c2.1-0.4,4.3-0.9,6.1-2c1.7-1,3.1-2.3,4.6-3.4
		c3.6-2.7,9.4-3.4,13-0.2c3.5,3,4.1,7.1,3.1,11.4c-0.8,3.6-2.2,7.3-4.2,10.5c-4.6,7.2-12.8,9.7-21,9.2c-4.7-0.3-9.3-1.6-13.4-3.8
		C5,33,1.4,29.5,1.9,24.9C2.3,21.1,6.3,17.5,9.7,16z"/>
</g>
</svg>
