<?xml version="1.0" encoding="utf-8"?>
<!-- Generator: Adobe Illustrator 25.4.1, SVG Export Plug-In . SVG Version: 6.00 Build 0)  -->
<svg version="1.1" id="圖層_1" xmlns="http://www.w3.org/2000/svg" xmlns:xlink="http://www.w3.org/1999/xlink" x="0px" y="0px"
	 viewBox="0 0 100 100" style="enable-background:new 0 0 100 100;" xml:space="preserve">
<style type="text/css">
	.st0{fill:#43A047;}
	.st1{fill:#66BB6A;}
	.st2{fill:#EF5350;}
	.st3{fill:#FFCDD2;}
	.st4{opacity:0.2;fill:#FFFFFF;}
</style>
<g>
	<g>
		<g>
			<path class="st0" d="M51.54,28.17c3.7,4.4,4.04,10.27,0.72,13.06c-3.32,2.78-8.55,2-12.73-2.98
				c-7.23-8.62-10.55-24.77-10.55-24.77S44.31,19.55,51.54,28.17z"/>
			<path class="st0" d="M60.47,38.25c-3.7,4.4-9.42,5.76-12.73,2.98c-3.32-2.78-3.46-8.07,0.72-13.06
				c7.23-8.62,22.56-14.7,22.56-14.7S67.7,29.63,60.47,38.25z"/>
		</g>
		<path class="st1" d="M57.84,30.76c0,5.75-3.51,10.47-7.84,10.47s-7.84-3.96-7.84-10.47C42.16,19.51,50,5,50,5
			S57.84,19.51,57.84,30.76z"/>
		<g>
			<path class="st1" d="M45.14,28.74c5.34,2.14,8.41,7.15,6.81,11.17c-1.61,4.02-6.59,5.81-12.63,3.39
				c-10.45-4.18-21.01-16.85-21.01-16.85S34.69,24.56,45.14,28.74z"/>
			<path class="st1" d="M54.86,28.74c-5.34,2.14-8.41,7.15-6.81,11.17c1.61,4.02,6.59,5.81,12.63,3.39
				c10.45-4.18,21.01-16.85,21.01-16.85S65.31,24.56,54.86,28.74z"/>
		</g>
		<path class="st2" d="M79.83,50.54C79.83,66.81,62.19,95,50,95S20.17,66.81,20.17,50.54c0-16.27,13.35-20.82,29.83-20.82
			S79.83,34.27,79.83,50.54z"/>
		<g>
			<g>
				<path class="st3" d="M34.63,43.15c0,1.32-0.51,2.4-1.13,2.4s-1.13-1.07-1.13-2.4s0.51-2.4,1.13-2.4S34.63,41.83,34.63,43.15z"/>
				<path class="st3" d="M42.88,43.15c0,1.32-0.51,2.4-1.13,2.4s-1.13-1.07-1.13-2.4s0.51-2.4,1.13-2.4S42.88,41.83,42.88,43.15z"/>
				<ellipse class="st3" cx="50" cy="43.15" rx="1.13" ry="2.4"/>
				<path class="st3" d="M59.38,43.15c0,1.32-0.51,2.4-1.13,2.4c-0.62,0-1.13-1.07-1.13-2.4s0.51-2.4,1.13-2.4
					C58.87,40.76,59.38,41.83,59.38,43.15z"/>
				<path class="st3" d="M67.63,43.15c0,1.32-0.51,2.4-1.13,2.4c-0.62,0-1.13-1.07-1.13-2.4s0.51-2.4,1.13-2.4
					C67.12,40.76,67.63,41.83,67.63,43.15z"/>
			</g>
			<g>
				<path class="st3" d="M26.38,53.37c0,1.32-0.51,2.4-1.13,2.4c-0.62,0-1.13-1.07-1.13-2.4c0-1.32,0.51-2.4,1.13-2.4
					C25.88,50.98,26.38,52.05,26.38,53.37z"/>
				<path class="st3" d="M34.63,53.37c0,1.32-0.51,2.4-1.13,2.4s-1.13-1.07-1.13-2.4c0-1.32,0.51-2.4,1.13-2.4
					S34.63,52.05,34.63,53.37z"/>
				<path class="st3" d="M42.88,53.37c0,1.32-0.51,2.4-1.13,2.4s-1.13-1.07-1.13-2.4c0-1.32,0.51-2.4,1.13-2.4
					S42.88,52.05,42.88,53.37z"/>
				<path class="st3" d="M51.13,53.37c0,1.32-0.51,2.4-1.13,2.4s-1.13-1.07-1.13-2.4c0-1.32,0.51-2.4,1.13-2.4
					S51.13,52.05,51.13,53.37z"/>
				<path class="st3" d="M59.38,53.37c0,1.32-0.51,2.4-1.13,2.4c-0.62,0-1.13-1.07-1.13-2.4c0-1.32,0.51-2.4,1.13-2.4
					C58.87,50.98,59.38,52.05,59.38,53.37z"/>
				<path class="st3" d="M67.63,53.37c0,1.32-0.51,2.4-1.13,2.4c-0.62,0-1.13-1.07-1.13-2.4c0-1.32,0.51-2.4,1.13-2.4
					C67.12,50.98,67.63,52.05,67.63,53.37z"/>
				<path class="st3" d="M75.88,53.37c0,1.32-0.51,2.4-1.13,2.4c-0.62,0-1.13-1.07-1.13-2.4c0-1.32,0.51-2.4,1.13-2.4
					C75.37,50.98,75.88,52.05,75.88,53.37z"/>
			</g>
			<g>
				<path class="st3" d="M34.63,63.59c0,1.32-0.51,2.4-1.13,2.4s-1.13-1.07-1.13-2.4c0-1.32,0.51-2.4,1.13-2.4
					S34.63,62.27,34.63,63.59z"/>
				<path class="st3" d="M42.88,63.59c0,1.32-0.51,2.4-1.13,2.4s-1.13-1.07-1.13-2.4c0-1.32,0.51-2.4,1.13-2.4
					S42.88,62.27,42.88,63.59z"/>
				<ellipse class="st3" cx="50" cy="63.59" rx="1.13" ry="2.4"/>
				<path class="st3" d="M59.38,63.59c0,1.32-0.51,2.4-1.13,2.4c-0.62,0-1.13-1.07-1.13-2.4c0-1.32,0.51-2.4,1.13-2.4
					C58.87,61.2,59.38,62.27,59.38,63.59z"/>
				<path class="st3" d="M67.63,63.59c0,1.32-0.51,2.4-1.13,2.4c-0.62,0-1.13-1.07-1.13-2.4c0-1.32,0.51-2.4,1.13-2.4
					C67.12,61.2,67.63,62.27,67.63,63.59z"/>
			</g>
			<g>
				<path class="st3" d="M42.88,73.81c0,1.32-0.51,2.4-1.13,2.4s-1.13-1.07-1.13-2.4c0-1.32,0.51-2.4,1.13-2.4
					S42.88,72.49,42.88,73.81z"/>
				<path class="st3" d="M51.13,73.81c0,1.32-0.51,2.4-1.13,2.4s-1.13-1.07-1.13-2.4c0-1.32,0.51-2.4,1.13-2.4
					S51.13,72.49,51.13,73.81z"/>
				<path class="st3" d="M59.38,73.81c0,1.32-0.51,2.4-1.13,2.4c-0.62,0-1.13-1.07-1.13-2.4c0-1.32,0.51-2.4,1.13-2.4
					C58.87,71.42,59.38,72.49,59.38,73.81z"/>
			</g>
			<g>
				<ellipse class="st3" cx="50" cy="84.03" rx="1.13" ry="2.4"/>
			</g>
		</g>
	</g>
	<path class="st4" d="M72.94,35.26c5.12-4.45,8.75-8.81,8.75-8.81s-6.87-0.79-14.56-0.21c2.63-6.69,3.88-12.76,3.88-12.76
		s-7.58,3.01-14.6,7.79C54.17,12.72,50,5,50,5v90c12.19,0,29.83-28.19,29.83-44.46C79.83,43.38,77.24,38.49,72.94,35.26z"/>
</g>
</svg>
