<?xml version="1.0" encoding="utf-8"?>
<!-- Generator: Adobe Illustrator 25.4.1, SVG Export Plug-In . SVG Version: 6.00 Build 0)  -->
<svg version="1.1" id="圖層_1" xmlns="http://www.w3.org/2000/svg" xmlns:xlink="http://www.w3.org/1999/xlink" x="0px" y="0px"
	 viewBox="0 0 50 50" style="enable-background:new 0 0 50 50;" xml:space="preserve">
<style type="text/css">
	.st0{fill:#F7F7F7;}
	.st1{opacity:0.4;}
	.st2{fill:#B29369;}
	.st3{opacity:0.83;}
</style>
<rect x="-1" y="-1.2" class="st0" width="51.8" height="51.8"/>
<g class="st1">
	<rect x="-37.6" y="-49.3" class="st2" width="5" height="148.6"/>
	<rect x="82.6" y="-49.3" class="st2" width="5" height="148.6"/>
	<rect x="72.6" y="-49.3" class="st2" width="5" height="148.6"/>
	<rect x="62.5" y="-49.3" class="st2" width="5" height="148.6"/>
	<rect x="52.5" y="-49.3" class="st2" width="5" height="148.6"/>
	<rect x="42.5" y="-49.3" class="st2" width="5" height="148.6"/>
	<rect x="32.5" y="-49.3" class="st2" width="5" height="148.6"/>
	<rect x="22.5" y="-49.3" class="st2" width="5" height="148.6"/>
	<rect x="12.5" y="-49.3" class="st2" width="5" height="148.6"/>
	<rect x="2.5" y="-49.3" class="st2" width="5" height="148.6"/>
	<rect x="-7.5" y="-49.3" class="st2" width="5" height="148.6"/>
	<rect x="-17.6" y="-49.3" class="st2" width="5" height="148.6"/>
	<rect x="-27.6" y="-49.3" class="st2" width="5" height="148.6"/>
</g>
<g class="st3">
	<rect x="-49.3" y="-40.8" class="st2" width="148.6" height="5"/>
	<rect x="-49.3" y="79.4" class="st2" width="148.6" height="5"/>
	<rect x="-49.3" y="69.4" class="st2" width="148.6" height="5"/>
	<rect x="-49.3" y="59.4" class="st2" width="148.6" height="5"/>
	<rect x="-49.4" y="49.3" class="st2" width="148.6" height="5"/>
	<rect x="-49.3" y="39.3" class="st2" width="148.6" height="5"/>
	<rect x="-49.3" y="29.3" class="st2" width="148.6" height="5"/>
	<rect x="-49.3" y="19.3" class="st2" width="148.6" height="5"/>
	<rect x="-49.3" y="9.3" class="st2" width="148.6" height="5"/>
	<rect x="-49.3" y="-0.7" class="st2" width="148.6" height="5"/>
	<rect x="-49.3" y="-10.7" class="st2" width="148.6" height="5"/>
	<rect x="-49.3" y="-20.7" class="st2" width="148.6" height="5"/>
	<rect x="-49.3" y="-30.8" class="st2" width="148.6" height="5"/>
</g>
</svg>
