<?xml version="1.0" encoding="utf-8"?>
<!-- Generator: Adobe Illustrator 25.3.1, SVG Export Plug-In . SVG Version: 6.00 Build 0)  -->
<svg version="1.1" id="圖層_1" xmlns="http://www.w3.org/2000/svg" xmlns:xlink="http://www.w3.org/1999/xlink" x="0px" y="0px"
	 viewBox="0 0 50 50" style="enable-background:new 0 0 50 50;" xml:space="preserve">
<style type="text/css">
	.st0{fill:#D69C63;}
	.st1{fill:#FFDBBB;}
	.st2{fill:#DEAB71;}
	.st3{fill:#534741;}
</style>
<g>
	<path class="st0" d="M45.8,22.5c0.4-1.4,0.9-2.9,0.8-4.3c-0.1-1.4-0.6-2.7-1.2-3.9c-2.6-5.1-9.1-4.4-13.9-4.5
		c-2.4-0.1-4.8-0.2-7.2-0.2c2.1,0.7,3.9,1.8,5.4,3.5c2.2,2.7,2.2,6.4,0.6,9.4c-0.4,0.8-1,1.6-1.3,2.5c-0.4,1.2-0.4,2.4-0.4,3.7
		c0,1.5-0.1,3.1-0.2,4.6c-0.1,2,0.4,5.7-1.3,7.3c1.9,0,3.8,0,5.7,0c2.5,0,5.2,0.2,7.7-0.3c1.6-0.3,2.9-0.8,3.7-2.3
		c0.7-1.3,0.5-2.9,0.5-4.4c0-1.7-0.1-3.3-0.2-5c0-1.1-0.1-2.2,0.2-3.3C45,24.3,45.5,23.5,45.8,22.5z"/>
	<path class="st1" d="M25.7,40.4c2.1-0.6,1.7-3.7,1.7-5.4c0-1.5,0.1-3,0.2-4.5c0.1-1.5-0.1-3.2,0.2-4.7c0.2-1.3,0.9-2.3,1.5-3.4
		c2-3.5,1.4-7.6-1.7-10.2c-1.4-1.2-3.2-1.7-5-2.1c-1.7-0.4-3.4-0.8-5.2-0.8C14,9.2,9.7,10.1,7,12.4c-2.7,2.3-4.6,5.8-3.1,9.3
		c0.5,1,1.2,1.9,1.3,3c0.2,1.1,0.3,2.3,0.4,3.4c0.3,3.2,0.2,6.3,0.5,9.5c0.1,1.3,0.4,2.4,1.7,2.8c0.8,0.2,1.6,0.2,2.5,0.2
		c1.6,0,3.1,0,4.7,0c1.9,0,3.7,0,5.6,0C22.3,40.6,24.1,40.8,25.7,40.4z M26.3,19.7c1,0,1,1.1,0,1.1C25.7,20.8,25.7,19.7,26.3,19.7z
		 M24.7,30.4c-1.3,0-0.5-1.1,0-1.1C25.3,29.3,25.3,30.4,24.7,30.4z M23.7,15.2C23.7,15.2,23.8,15.1,23.7,15.2
		c0.2-0.4,0.6-0.5,0.8-0.3c0.3,0.2,0.3,0.5,0.2,0.8c0,0,0,0.1,0,0.1c-0.1,0.3-0.5,0.4-0.8,0.2C23.7,15.8,23.6,15.5,23.7,15.2z
		 M23.4,35L23.4,35c0,0.4-0.3,0.6-0.6,0.6c-0.3,0-0.6-0.3-0.6-0.6v0c0-0.3,0.3-0.6,0.6-0.6C23.1,34.4,23.4,34.7,23.4,35z M22.5,24.2
		c1,0,1,1.1,0,1.1C21.8,25.3,21.8,24.2,22.5,24.2z M7.1,20.4C7.1,20.4,7.1,20.4,7.1,20.4c0.3-0.3,0.6-0.3,0.9,0
		c0.2,0.2,0.2,0.6,0,0.8c0,0,0,0,0,0c-0.2,0.2-0.6,0.2-0.8,0C6.9,21,6.9,20.6,7.1,20.4z M7.9,28.3L7.9,28.3c-0.4,0-0.6-0.2-0.6-0.5
		c0-0.3,0.3-0.5,0.6-0.5h0c0.3,0,0.6,0.2,0.6,0.5C8.5,28.1,8.2,28.3,7.9,28.3z M10.3,34.7c0,0.3-0.2,0.6-0.5,0.6
		c-0.3,0-0.5-0.3-0.5-0.6v0c0-0.3,0.2-0.6,0.5-0.6C10.1,34.1,10.3,34.3,10.3,34.7L10.3,34.7z M10.1,14.5L10.1,14.5
		c-0.4,0-0.6-0.2-0.6-0.5c0-0.3,0.3-0.5,0.6-0.5h0c0.3,0,0.6,0.2,0.6,0.5C10.6,14.4,10.4,14.5,10.1,14.5z M11.6,23.7
		c-1,0-1-1.1,0-1.1C12.2,22.6,12.2,23.7,11.6,23.7z M12.6,38.4c-0.6,0-0.6-1.1,0-1.1S13.2,38.4,12.6,38.4z M12.9,29.6
		c-0.6,0-0.6-1.1,0-1.1C13.5,28.5,13.5,29.6,12.9,29.6z M14.5,18.8c-0.6,0-0.6-1.1,0-1.1C15.1,17.6,15.1,18.8,14.5,18.8z M16.4,33.8
		c-1.1,0.2-0.8-1.1,0-1.1C17,32.7,17,33.7,16.4,33.8z M16.7,25.2c-0.4,0.3-1.6-1.1,0-1.1C17.3,24.1,17.2,24.8,16.7,25.2z M17.7,13.4
		c-0.6,0-0.6-1.1,0-1.1C18.3,12.3,18.3,13.4,17.7,13.4z M19.6,37.9c-0.6,0-0.6-1.1,0-1.1C20.2,36.8,20.2,37.9,19.6,37.9z M19.6,28.5
		c-0.6,0-0.6-1.1,0-1.1C20.2,27.4,20.2,28.5,19.6,28.5z M19.9,19.8c-0.6,0-0.6-1.1,0-1.1C20.5,18.7,20.5,19.8,19.9,19.8z"/>
	<path class="st2" d="M10.1,13.6L10.1,13.6c-0.3,0-0.6,0.2-0.6,0.5c0,0.3,0.3,0.5,0.6,0.5h0c0.3,0,0.6-0.2,0.6-0.5
		C10.6,13.7,10.4,13.6,10.1,13.6z"/>
	<path class="st2" d="M17.7,12.3c-0.6,0-0.6,1.1,0,1.1C18.3,13.4,18.3,12.3,17.7,12.3z"/>
	<path class="st2" d="M23.9,16c0.3,0.1,0.6,0.1,0.8-0.2c0,0,0-0.1,0-0.1c0.1-0.3,0.1-0.6-0.2-0.8c-0.3-0.1-0.6-0.1-0.8,0.2
		c0,0,0,0.1,0,0.1C23.6,15.5,23.7,15.8,23.9,16z"/>
	<path class="st2" d="M7.9,21.2C7.9,21.2,7.9,21.2,7.9,21.2c0.3-0.3,0.3-0.6,0-0.9c-0.2-0.2-0.6-0.2-0.8,0c0,0,0,0,0,0
		c-0.2,0.2-0.2,0.6,0,0.8C7.3,21.4,7.7,21.4,7.9,21.2z"/>
	<path class="st2" d="M14.5,17.6c-0.6,0-0.6,1.1,0,1.1C15.1,18.8,15.1,17.6,14.5,17.6z"/>
	<path class="st2" d="M19.9,18.7c-0.6,0-0.6,1.1,0,1.1C20.5,19.8,20.5,18.7,19.9,18.7z"/>
	<path class="st2" d="M26.3,20.8c1,0,1-1.1,0-1.1C25.7,19.7,25.7,20.8,26.3,20.8z"/>
	<path class="st2" d="M11.6,22.6c-1,0-1,1.1,0,1.1C12.2,23.7,12.2,22.6,11.6,22.6z"/>
	<path class="st2" d="M7.9,27.3L7.9,27.3c-0.3,0-0.6,0.2-0.6,0.5c0,0.3,0.3,0.5,0.6,0.5h0c0.3,0,0.6-0.2,0.6-0.5
		C8.5,27.5,8.3,27.3,7.9,27.3z"/>
	<path class="st2" d="M16.7,24.1c-1.6,0-0.4,1.5,0,1.1C17.2,24.8,17.3,24.1,16.7,24.1z"/>
	<path class="st2" d="M22.5,25.3c1,0,1-1.1,0-1.1C21.8,24.2,21.8,25.3,22.5,25.3z"/>
	<path class="st2" d="M12.9,28.5c-0.6,0-0.6,1.1,0,1.1C13.5,29.6,13.5,28.5,12.9,28.5z"/>
	<path class="st2" d="M19.6,27.4c-0.6,0-0.6,1.1,0,1.1C20.2,28.5,20.2,27.4,19.6,27.4z"/>
	<path class="st2" d="M24.7,30.4c0.6,0,0.6-1.1,0-1.1C24.2,29.3,23.4,30.4,24.7,30.4z"/>
	<path class="st2" d="M16.4,32.7c-0.8,0-1.1,1.3,0,1.1C17,33.7,17,32.7,16.4,32.7z"/>
	<path class="st2" d="M22.1,35L22.1,35c0,0.3,0.3,0.6,0.6,0.6c0.3,0,0.6-0.3,0.6-0.6v0c0-0.3-0.3-0.6-0.6-0.6
		C22.5,34.4,22.1,34.7,22.1,35z"/>
	<path class="st2" d="M9.8,34.1c-0.3,0-0.5,0.2-0.5,0.6v0c0,0.3,0.2,0.6,0.5,0.6c0.3,0,0.5-0.3,0.5-0.6v0
		C10.3,34.3,10.1,34.1,9.8,34.1z"/>
	<path class="st2" d="M12.6,37.2c-0.6,0-0.6,1.1,0,1.1S13.2,37.2,12.6,37.2z"/>
	<path class="st2" d="M19.6,36.8c-0.6,0-0.6,1.1,0,1.1C20.2,37.9,20.2,36.8,19.6,36.8z"/>
	<path class="st3" d="M47.2,15.9c-0.7-2.2-1.7-4-3.7-5.2c-2.3-1.4-4.6-1.7-7.3-1.8c-6-0.1-11.9-0.4-17.9-0.6c0,0-0.1,0-0.1,0
		c-3.2-0.2-6.5,0.4-9.3,1.8c-3.1,1.4-5.6,4.2-6.3,7.6c-0.3,1.6-0.1,3,0.5,4.5c0.3,0.8,1,1.5,1.2,2.3c0.2,0.7,0.2,1.5,0.3,2.2
		C4.8,28.8,4.9,30.9,5,33c0,2-0.1,4.3,0.5,6.3c0.5,1.5,1.7,2.1,3.2,2.3c2.1,0.3,4.3,0.1,6.4,0.1c1.9,0,3.7,0,5.6,0
		c0.8,0,1.7,0,2.6,0c0,0,0.1,0,0.1,0c3.3-0.1,6.5,0,9.8-0.1c2.3,0,4.8,0.2,7.1-0.2c2.4-0.4,4.5-1.3,5.3-3.8c0.5-1.7,0.3-3.8,0.2-5.6
		c-0.1-1.4-0.1-2.9-0.2-4.3c0-1.5,0.4-2.6,0.9-4C47.4,21.1,48,18.6,47.2,15.9z M44.6,28.6c0.1,1.7,0.2,3.3,0.2,5
		c0,1.4,0.2,3.1-0.5,4.4c-0.8,1.5-2.1,2-3.7,2.3c-2.5,0.5-5.2,0.3-7.7,0.3c-1.9,0-3.8,0-5.7,0c1.7-1.6,1.2-5.3,1.3-7.3
		c0.1-1.5,0.1-3.1,0.2-4.6c0-1.3,0-2.5,0.4-3.7c0.3-0.9,0.9-1.7,1.3-2.5c1.6-3,1.6-6.7-0.6-9.4c-1.4-1.8-3.3-2.8-5.4-3.5
		c2.4,0.1,4.8,0.2,7.2,0.2c4.8,0.1,11.4-0.6,13.9,4.5c0.6,1.2,1.1,2.5,1.2,3.9c0.1,1.4-0.4,3-0.8,4.3c-0.3,1-0.8,1.8-1.1,2.8
		C44.5,26.4,44.6,27.5,44.6,28.6z M15,40.6c-1.6,0-3.1,0-4.7,0c-0.9,0-1.7,0-2.5-0.2c-1.4-0.4-1.6-1.5-1.7-2.8
		c-0.3-3.2-0.2-6.3-0.5-9.5c-0.1-1.1-0.2-2.3-0.4-3.4c-0.2-1.1-0.9-2-1.3-3c-1.5-3.5,0.4-7,3.1-9.3c2.7-2.2,7-3.2,10.4-3.1
		c1.8,0,3.5,0.4,5.2,0.8c1.8,0.4,3.6,0.9,5,2.1c3.1,2.6,3.7,6.7,1.7,10.2c-0.6,1.1-1.3,2.1-1.5,3.4c-0.3,1.5-0.2,3.2-0.2,4.7
		c0,1.5-0.1,3-0.2,4.5c0,1.7,0.3,4.8-1.7,5.4c-1.6,0.4-3.4,0.2-5.1,0.2C18.8,40.6,16.9,40.6,15,40.6z"/>
</g>
</svg>
