<?xml version="1.0" encoding="utf-8"?>
<!-- Generator: Adobe Illustrator 25.4.1, SVG Export Plug-In . SVG Version: 6.00 Build 0)  -->
<svg version="1.1" id="圖層_1" xmlns="http://www.w3.org/2000/svg" xmlns:xlink="http://www.w3.org/1999/xlink" x="0px" y="0px"
	 viewBox="0 0 50 50" style="enable-background:new 0 0 50 50;" xml:space="preserve">
<style type="text/css">
	.st0{fill:#E95C68;}
	.st1{fill:#E63E42;}
	.st2{fill:#61A256;}
	.st3{fill:#A9CE8B;}
	.st4{fill:#87373C;}
	.st5{fill:#4B8043;}
	.st6{fill:#EAEDBA;}
	.st7{fill:#EE7D83;}
</style>
<g>
	<path class="st0" d="M44.1,41.9c0.3-2.5,0.1-5,0.1-7.5c-0.1-5.3-0.3-10.5-0.6-15.7c-0.2-2.6-0.3-5.1-0.5-7.7
		c-0.1-1.3-0.2-2.6-0.3-3.9c-0.1-1.2-0.1-2.5-0.3-3.7c-0.2-1.3-1-2.4-2.3-2.7c-1.2-0.3-2.4-0.1-3.4,0.5c-0.3,0.2-0.6,0.4-0.9,0.6
		c-0.8,0.4-1.6,0.9-2.3,1.5c-2,1.5-3.9,3.1-5.8,4.7c-4,3.3-7.8,6.8-11.7,10.3c-1.9,1.7-3.8,3.5-5.7,5.3c-0.9,0.9-1.9,1.7-2.8,2.6
		c-0.9,1-1.8,2.1-1.9,3.5c-0.1,1.2,0.4,2.4,0.9,3.5c0.5,1,1.1,2,1.8,2.9c1.3,1.8,2.9,3.4,4.6,4.8c3.8,3.1,8.3,5.2,12.9,6.5
		c2.6,0.7,5.2,1.3,7.8,1.8c1.3,0.2,2.5,0.5,3.8,0.4c1.2-0.1,2.2-0.6,3.2-1.2C42.8,46.8,43.8,44.3,44.1,41.9z"/>
	<path class="st1" d="M41.8,32.6c-2.2,2.6-5.9,3.4-9.2,4c-0.8,0.1-1.6,0.3-2.3,0.1c-0.9-0.2-1.6-0.7-2.4-1.1c-0.9-0.4-2-0.5-2.9-0.9
		c-1.5-0.7-2.4-2.4-3.3-3.9c-0.9-1.8-1.9-3.6-2.4-5.6c-0.4-1.6-0.4-3.3-0.1-4.9c0.1-0.5,0.2-1.1,0.2-1.6c0-0.5-0.2-1-0.2-1.6
		c-0.1-0.8,0.1-1.5,0.3-2.2c-1.2,1.1-2.4,2.1-3.5,3.2c-1.9,1.7-3.8,3.5-5.7,5.3c-0.9,0.9-1.9,1.7-2.8,2.6c-0.9,1-1.8,2.1-1.9,3.5
		c-0.1,1.2,0.4,2.4,0.9,3.5c0.5,1,1.1,2,1.8,2.9c1.3,1.8,2.9,3.4,4.6,4.8c3.8,3.1,8.3,5.2,12.9,6.5c2.6,0.7,5.2,1.3,7.8,1.8
		c1.3,0.2,2.5,0.5,3.8,0.4c1.2-0.1,2.2-0.6,3.2-1.2c2-1.5,2.9-3.9,3.3-6.3c0.3-2.5,0.1-5,0.1-7.5c0-2.1-0.1-4.1-0.2-6.2
		c0,0.1-0.1,0.3-0.1,0.4C43.4,30,42.8,31.5,41.8,32.6z"/>
	<path class="st2" d="M21.3,38.7c-5-2.7-9.6-6.6-11.9-11.8c-0.3-0.6-0.5-1.2-0.7-1.8c-0.4,0.3-0.7,0.7-1,1c-0.9,1-1.8,2.1-1.9,3.5
		c-0.1,1.2,0.4,2.4,0.9,3.5c0.5,1,1.1,2,1.8,2.9c1.3,1.8,2.9,3.4,4.6,4.8c3.8,3.1,8.3,5.2,12.9,6.5c2.6,0.7,5.2,1.3,7.8,1.8
		c1.3,0.2,2.5,0.5,3.8,0.4c1.2-0.1,2.2-0.6,3.2-1.2c2-1.5,2.9-3.9,3.3-6.3c0-0.1,0-0.2,0-0.3c-3,1-6.2,1.3-9.4,1.1
		C30,42.4,25.4,40.9,21.3,38.7z"/>
	<path class="st3" d="M44.1,41.6c-3,1-6.2,1.3-9.4,1.1c-4.7-0.3-9.3-1.8-13.5-4c-5-2.7-9.6-6.6-11.9-11.8c-0.3-0.6-0.5-1.2-0.7-1.8
		c-0.4,0.3-0.7,0.7-1,1c-0.1,0.1-0.2,0.2-0.3,0.3c1.2,4.4,3.8,8.4,7.3,11.2c3,2.4,6.6,3.9,10.2,5.3c4.5,1.7,9.2,3.2,14,2.7
		c1.5-0.2,3-0.6,4.5-1c0,0,0.1,0,0.1,0c0.3-0.9,0.5-1.8,0.6-2.7C44.1,41.8,44.1,41.7,44.1,41.6z"/>
	<path class="st4" d="M36.5,5.6c0.1-0.2,0.1-0.4,0.1-0.5c0,0,0,0,0,0c0-0.2-0.2-0.3-0.3-0.4c0,0,0,0,0,0c-0.1-0.1-0.2-0.1-0.3-0.1
		c-0.1,0-0.1,0-0.2,0c-0.1,0-0.3,0.1-0.4,0.1c0,0,0,0,0,0c-0.2,0.1-0.2,0-0.3,0.1C34.9,4.9,34.8,5,34.7,5c-0.1,0.1-0.2,0.2-0.3,0.2
		c-0.1,0.1-0.2,0.2-0.3,0.3c-0.1,0.1-0.2,0.2-0.3,0.3c-0.2,0.2-0.3,0.6-0.2,0.9c0.1,0.4,0.5,0.8,0.9,0.8c0.3,0,0.6-0.1,0.8-0.2
		c0.1-0.1,0.2-0.2,0.3-0.3c0,0,0.1-0.1,0.1-0.1c0.1-0.1,0.2-0.2,0.2-0.3C35.9,6.6,36,6.5,36,6.4c0.1-0.1,0.1-0.1,0.2-0.2
		c0.1-0.1,0.1-0.2,0.2-0.3C36.4,5.8,36.5,5.7,36.5,5.6z"/>
	<path class="st4" d="M34.4,16.6c0-0.2-0.1-0.4-0.3-0.6c-0.2-0.2-0.4-0.3-0.7-0.2c-0.2,0.1-0.3,0.1-0.5,0.2
		c-0.1,0.1-0.2,0.1-0.3,0.2c-0.1,0.1-0.1,0.1-0.2,0.2c-0.1,0.1-0.2,0.2-0.3,0.4c-0.1,0.1-0.2,0.3-0.3,0.5c0,0.1-0.1,0.2-0.1,0.2
		c-0.1,0.2-0.2,0.3-0.2,0.5c0,0.1,0,0.1,0,0.2c0,0.2,0.1,0.3,0.1,0.4c0,0.1,0.1,0.1,0.1,0.2c0.1,0.1,0.2,0.2,0.3,0.2
		c0.2,0.1,0.4,0.2,0.6,0.1c0.3-0.1,0.6-0.2,0.8-0.5c0.1-0.1,0.1-0.2,0.2-0.3c0.1-0.3,0.3-0.5,0.4-0.8C34.3,17.2,34.5,16.9,34.4,16.6
		z"/>
	<path class="st4" d="M41.3,13.4c0.1-0.4,0-0.7,0-1.1c0-0.2-0.1-0.4-0.2-0.5c-0.1-0.2-0.2-0.3-0.3-0.4c0,0,0,0,0,0
		c-0.1-0.1-0.3-0.2-0.4,0c0,0,0,0,0,0c-0.1,0-0.1,0.1-0.1,0.1c-0.1,0.1-0.1,0.2-0.2,0.3c0,0,0,0.1,0,0.1c0,0.1-0.1,0.1-0.1,0.2
		c-0.1,0.1-0.1,0.2-0.1,0.4c0,0.1-0.1,0.3-0.1,0.4c0,0.1,0,0.2,0,0.2c0,0.1,0,0.3,0,0.4c0,0.2,0.2,0.4,0.4,0.6
		c0.2,0.2,0.6,0.3,0.8,0c0,0,0,0,0.1-0.1c0.1,0,0.1-0.1,0.2-0.1C41.2,13.7,41.3,13.6,41.3,13.4z"/>
	<g>
		<polygon class="st4" points="26,17.2 26,17.2 26,17.2 		"/>
		<path class="st4" d="M25.8,16.7C25.8,16.7,25.7,16.7,25.8,16.7C25.7,16.7,25.7,16.7,25.8,16.7C25.8,16.7,25.8,16.7,25.8,16.7z"/>
		<path class="st4" d="M25.9,17.4C25.9,17.3,25.9,17.3,25.9,17.4c0-0.1,0-0.1,0-0.1c0,0,0,0,0,0c0,0,0,0,0-0.1c0,0,0-0.1,0-0.1
			c0,0,0,0.1,0,0.1c0-0.1,0-0.2,0-0.3c0-0.1-0.1-0.1-0.2-0.2c0,0,0,0,0.1,0.1c0,0-0.1,0-0.1-0.1c0,0,0,0-0.1,0c0,0,0,0,0,0
			c0,0,0,0-0.1,0c0,0-0.1,0-0.1,0c-0.1-0.1-0.3-0.1-0.5-0.1c-0.3,0-0.5,0.1-0.7,0.2c-0.2,0.1-0.3,0.2-0.5,0.3
			c-0.2,0.1-0.2,0.2-0.3,0.4c-0.1,0.2-0.1,0.3-0.1,0.5c0,0.3,0.1,0.5,0.3,0.7c0.2,0.2,0.5,0.3,0.8,0.2c0.2-0.1,0.4-0.1,0.6-0.3
			c0.1-0.1,0.2-0.2,0.3-0.3c0.1-0.1,0.1-0.2,0.2-0.2c0-0.1,0.1-0.1,0.1-0.2C25.8,17.8,25.9,17.6,25.9,17.4z"/>
		<path class="st4" d="M26,17.2C25.9,17.2,25.9,17.2,26,17.2C25.9,17.2,25.9,17.2,26,17.2z"/>
		<path class="st4" d="M26,17.2C26,17.2,26,17.2,26,17.2C26,17.2,26,17.2,26,17.2z"/>
		<path class="st4" d="M25.7,16.7C25.7,16.7,25.7,16.7,25.7,16.7C25.7,16.7,25.6,16.6,25.7,16.7z"/>
		<path class="st4" d="M25.7,16.7C25.7,16.7,25.7,16.7,25.7,16.7C25.7,16.7,25.7,16.7,25.7,16.7z"/>
	</g>
	<path class="st4" d="M27.7,30.8c0-0.1,0-0.1,0-0.2c0,0,0-0.1,0-0.1c0-0.1,0.1-0.3,0.1-0.4c0-0.2,0-0.4,0-0.6c0-0.2-0.1-0.4-0.1-0.5
		c-0.2-0.4-0.7-0.7-1.2-0.6c-0.2,0-0.4,0.1-0.5,0.3c-0.1,0-0.1,0.1-0.2,0.1c-0.1,0.1-0.2,0.2-0.2,0.3c0,0,0,0-0.1,0.1
		c-0.1,0.2-0.3,0.4-0.3,0.6c-0.1,0.2-0.1,0.3-0.1,0.5c0,0.1-0.1,0.2,0,0.4c0,0.1,0,0.1,0,0.2c0,0.1,0.1,0.3,0.1,0.4
		c0,0.1,0.1,0.2,0.2,0.3c0,0,0,0,0.1,0.1c0,0,0,0,0,0c0,0,0.1,0.1,0.1,0.1c0,0,0.1,0.1,0.1,0.1c0.1,0.1,0.3,0.2,0.5,0.2
		c0.2,0,0.3,0.1,0.5,0c0.1,0,0.1,0,0.1,0c0,0,0.1,0,0.1,0c0,0,0,0,0,0c0.1-0.1,0.3-0.1,0.4-0.2c0,0,0,0,0,0c0.1-0.1,0.2-0.2,0.2-0.3
		L27.7,30.8C27.7,30.8,27.7,30.8,27.7,30.8z"/>
	<path class="st4" d="M38.2,26.9c0-0.3,0-0.6,0-0.9c-0.1-0.3-0.2-0.6-0.4-0.9c-0.1-0.2-0.3-0.3-0.4-0.4c-0.3-0.3-0.7-0.3-1.1-0.1
		c-0.2,0.1-0.4,0.3-0.5,0.5c0,0,0,0,0,0c0,0.1-0.1,0.1-0.1,0.2c-0.1,0.1-0.1,0.2-0.1,0.3c0,0,0-0.1,0-0.1c0,0.1-0.1,0.2-0.1,0.3
		c-0.1,0.2-0.1,0.5-0.1,0.7c0,0.2-0.1,0.4,0,0.7c0,0.1,0,0.1,0,0.2c0,0.2,0.1,0.3,0.2,0.5c0.1,0.1,0.1,0.2,0.2,0.2c0,0,0,0,0,0
		c0.2,0.2,0.4,0.3,0.6,0.4c0.3,0.1,0.5,0,0.7-0.1c0,0,0,0,0,0c0.1,0,0.2-0.1,0.3-0.1c0.2-0.1,0.3-0.2,0.4-0.4c0,0,0-0.1,0.1-0.1
		C38.1,27.4,38.2,27.2,38.2,26.9z"/>
	<path class="st4" d="M17.1,26.9c0.1-0.2,0.2-0.4,0.3-0.6c0-0.2,0-0.5-0.1-0.6c-0.2-0.2-0.3-0.3-0.6-0.3c-0.2,0-0.4,0-0.6,0.1
		c-0.1,0-0.3,0.1-0.4,0.1c-0.1,0.1-0.3,0.2-0.4,0.3c-0.1,0.1-0.2,0.2-0.3,0.3c-0.1,0.2-0.3,0.4-0.2,0.7c0,0.2,0,0.4,0.1,0.5
		c0.1,0.1,0.1,0.2,0.2,0.3c0.1,0.1,0.2,0.2,0.3,0.2c0.2,0.1,0.4,0.1,0.5,0c0.2,0,0.4-0.1,0.6-0.3c0.1-0.1,0.1-0.1,0.2-0.2
		c0.1-0.1,0.2-0.2,0.3-0.3C17,27.1,17,27,17.1,26.9z"/>
	<path class="st4" d="M37.2,37.9c0-0.2,0-0.4,0-0.7c0-0.1-0.1-0.2-0.1-0.4c0-0.2-0.1-0.4-0.3-0.6c0,0-0.1-0.1-0.1-0.1
		c-0.2-0.2-0.5-0.3-0.7-0.3c-0.1,0-0.2,0-0.3,0.1c-0.1,0-0.2,0.1-0.3,0.2c-0.2,0.2-0.3,0.4-0.4,0.7c0,0.1,0,0.1,0,0.2
		c0,0.1-0.1,0.3-0.1,0.4c0,0.2,0,0.4,0,0.6c0,0.3,0.1,0.6,0.3,0.8c0.1,0.1,0.3,0.2,0.5,0.3c0.1,0.1,0.3,0.1,0.4,0.1
		c0.1,0,0.3,0,0.4-0.1c0.2-0.1,0.3-0.2,0.4-0.3C37.1,38.5,37.2,38.2,37.2,37.9z"/>
	<path class="st5" d="M8.8,31.8C8.8,31.8,8.8,31.8,8.8,31.8c0.1-0.2,0.1-0.3,0-0.5c0-0.1-0.1-0.2-0.1-0.3c-0.1-0.2-0.3-0.3-0.6-0.3
		c-0.2,0-0.3,0-0.5,0.1C7.6,30.9,7.5,31,7.4,31c-0.1,0.1-0.2,0.2-0.3,0.2c-0.2,0.2-0.4,0.4-0.6,0.7c-0.1,0.2-0.2,0.4-0.1,0.7
		c0,0.2,0.2,0.4,0.4,0.5c0.2,0.1,0.4,0.2,0.7,0.1c0.2-0.1,0.4-0.2,0.5-0.4c0.1-0.1,0.2-0.3,0.3-0.4c0-0.1,0.1-0.1,0.2-0.2
		c0,0,0.1-0.1,0.1-0.1c0.1-0.1,0.1-0.1,0.2-0.2C8.8,31.9,8.8,31.8,8.8,31.8C8.8,31.7,8.8,31.8,8.8,31.8z"/>
	<path class="st5" d="M12.5,36.3c0-0.3-0.1-0.5-0.3-0.7c-0.2-0.2-0.5-0.2-0.8-0.1c-0.3,0.1-0.4,0.3-0.6,0.6
		c-0.1,0.1-0.2,0.3-0.3,0.4c-0.1,0.1-0.2,0.3-0.3,0.4c-0.1,0.2-0.2,0.4-0.2,0.6c0,0.3,0.1,0.6,0.3,0.8c0.3,0.2,0.6,0.2,0.8,0.1
		c0.2-0.1,0.3-0.2,0.5-0.4c0.1-0.1,0.2-0.3,0.3-0.4c0.1-0.1,0.2-0.3,0.3-0.4l0.1-0.2C12.4,36.7,12.5,36.5,12.5,36.3z"/>
	<path class="st5" d="M17.5,40.3c0-0.3-0.2-0.7-0.5-0.8c-0.1,0-0.3-0.1-0.4,0c-0.2,0-0.4,0.2-0.5,0.3c0,0-0.1,0.1-0.1,0.1
		c-0.1,0.1-0.1,0.2-0.2,0.3c0,0.1-0.1,0.2-0.1,0.3c-0.1,0.2-0.2,0.4-0.3,0.6c0,0,0,0,0,0c-0.1,0.1-0.1,0.2-0.1,0.3
		c0,0.2,0,0.3,0.1,0.5c0.1,0.3,0.5,0.5,0.9,0.4c0.2,0,0.4-0.2,0.5-0.3c0.1-0.1,0.2-0.3,0.3-0.4c0.1-0.1,0.1-0.3,0.2-0.4
		C17.4,40.9,17.5,40.6,17.5,40.3z"/>
	<path class="st5" d="M23.4,44.8c0-0.2,0.1-0.4,0.1-0.5c0-0.2,0.1-0.4,0.1-0.5c0-0.1,0-0.3,0-0.4c0-0.1-0.1-0.3-0.1-0.4
		c-0.2-0.4-0.7-0.5-1.1-0.2c-0.1,0.1-0.2,0.2-0.3,0.3c-0.1,0.1-0.2,0.2-0.2,0.4c-0.1,0.2-0.1,0.4-0.1,0.5c0,0.2-0.1,0.3-0.1,0.5
		c0,0.1-0.1,0.3-0.1,0.4c0,0,0,0.1,0,0.1c0,0.2,0,0.3,0.1,0.4c0,0.1,0.1,0.1,0.1,0.2c0.1,0,0.1,0.1,0.2,0.1c0.1,0.1,0.2,0.1,0.3,0.1
		c0.2,0,0.4,0,0.5-0.1c0.2-0.1,0.3-0.2,0.4-0.4c0-0.1,0.1-0.1,0.1-0.2C23.4,45.1,23.4,45,23.4,44.8z"/>
	<path class="st5" d="M30.9,47.1C31,47.1,31,47.1,30.9,47.1l0.1-0.4c0-0.1,0-0.2,0-0.3c0-0.2,0-0.4-0.1-0.6c0,0-0.1-0.1-0.1-0.1
		c-0.1-0.2-0.3-0.4-0.5-0.4c-0.2,0-0.5,0-0.6,0.2c0,0-0.1,0.1-0.1,0.1c-0.1,0.1-0.2,0.2-0.2,0.3c0,0.1-0.1,0.1-0.1,0.2
		c-0.1,0.2-0.1,0.4-0.2,0.6c0,0.1,0,0.2,0,0.3c0,0.1,0,0.2,0,0.3c0,0.2,0.1,0.3,0.1,0.5c0.1,0.3,0.3,0.4,0.6,0.5
		c0.3,0.1,0.6,0,0.7-0.2c0.1-0.1,0.2-0.2,0.2-0.3C30.9,47.5,30.9,47.3,30.9,47.1z"/>
	<path class="st5" d="M37.8,48.6c0,0,0-0.1,0-0.1c0-0.1,0-0.2,0-0.4c0-0.1,0-0.2,0-0.2c0-0.2-0.1-0.3-0.1-0.5
		c-0.1-0.5-0.3-1.1-0.8-1.3c-0.2-0.2-0.5-0.1-0.7,0.1c-0.1,0.1-0.1,0.1-0.2,0.2c0,0.1-0.1,0.1-0.1,0.2c-0.1,0.1-0.1,0.3-0.1,0.4
		c0,0.1,0,0.2,0,0.3c0,0.1,0,0.2,0,0.3c0,0.2,0,0.5,0.1,0.7c0,0.1,0,0.2,0,0.2c0,0.2,0.1,0.3,0.2,0.5c0.1,0.2,0.2,0.3,0.4,0.4
		c0.2,0.1,0.4,0.1,0.6,0.1c0.2,0,0.3-0.1,0.4-0.2c0.1-0.1,0.2-0.2,0.2-0.3C37.8,48.8,37.8,48.7,37.8,48.6z"/>
	<path class="st5" d="M41.5,47.1c0-0.1,0-0.1,0-0.2c0,0,0-0.1,0-0.1c0,0,0,0,0-0.1c0,0,0,0,0,0c0,0,0,0,0,0c0-0.1,0-0.1-0.1-0.2
		c0-0.1-0.1-0.2-0.2-0.2c-0.1-0.1-0.1-0.1-0.2-0.2C41,46,40.9,46,40.9,46c-0.1,0-0.2,0-0.3,0c-0.1,0-0.1,0-0.2,0.1
		c-0.1,0-0.2,0.1-0.3,0.2c0,0,0,0,0,0.1c0,0.1-0.1,0.1-0.1,0.2c0,0.1-0.1,0.1-0.1,0.2c0,0.1,0,0.2,0,0.3c0,0,0,0,0,0c0,0,0,0,0,0.1
		c0,0,0,0,0,0.1c0,0,0,0,0,0c0,0.1,0.1,0.2,0.1,0.3c0,0,0,0.1,0.1,0.1c0.1,0.1,0.2,0.2,0.3,0.2c0.1,0,0.3,0.1,0.4,0
		c0.3-0.1,0.5-0.2,0.6-0.5C41.5,47.2,41.5,47.2,41.5,47.1z"/>
	<path class="st6" d="M44.1,41.6c-0.2-0.3-0.5-0.4-0.8-0.2c-0.1,0-0.2,0.1-0.3,0.1c-1.3,0-2.6,0.3-3.9,0.5c-1.3,0.2-2.7,0.2-4,0.2
		c-2.7-0.1-5.4-0.5-8-1.3c-5.1-1.6-9.7-4.5-13.3-8.4c-1-1.1-1.9-2.3-2.7-3.5c-0.4-0.6-0.8-1.2-1.1-1.8c-0.4-0.6-0.6-1.3-1.2-1.8
		c-0.2-0.2-0.5,0-0.5,0.2c0,0.6,0.3,1.2,0.6,1.7c0.3,0.7,0.7,1.3,1.1,1.9c0.7,1.1,1.5,2.2,2.3,3.3c1.7,2.1,3.7,4,5.9,5.6
		c4.6,3.3,10.1,5.2,15.8,5.5c1.6,0.1,3.1,0,4.7-0.1c0.9-0.1,1.9-0.2,2.9-0.4c0.1,0.1,0.2,0.1,0.3,0.1c0.1,0,0.2,0,0.2,0
		c0.2,0,0.3,0,0.4-0.1c0,0,0,0,0.1,0c0.1,0,0.1,0,0.2,0c0.1,0,0.2-0.1,0.3-0.1c0.1,0,0.2-0.1,0.3-0.1c0.1-0.1,0.3-0.1,0.4-0.2
		c0.1-0.1,0.2-0.1,0.2-0.2C44.2,42.2,44.3,41.8,44.1,41.6z"/>
	<path class="st7" d="M41.4,3.5c-0.1-0.4-0.2-0.7-0.4-1.1c-0.2-0.4-0.5-0.7-0.9-0.9c-0.4-0.2-0.9-0.3-1.2,0.1
		c-0.3,0.5,0,1.1,0.2,1.6c0.2,0.4,0.1,1.1,0.5,1.5c0.3,0.3,1,0.5,1.4,0.1C41.5,4.5,41.6,4,41.4,3.5z"/>
	<path class="st7" d="M41.7,6.9c-0.1-0.2-0.2-0.3-0.3-0.4c-0.1-0.1-0.2-0.2-0.3-0.3c-0.3-0.2-0.6-0.2-0.8,0C40.1,6.5,40,6.8,40,7.1
		c0,0.4,0.1,0.8,0.5,1c0.2,0.1,0.4,0.2,0.7,0.1c0.2-0.1,0.5-0.2,0.5-0.5C41.8,7.4,41.8,7.2,41.7,6.9z"/>
</g>
</svg>
