<?xml version="1.0" encoding="utf-8"?>
<!-- Generator: Adobe Illustrator 25.3.1, SVG Export Plug-In . SVG Version: 6.00 Build 0)  -->
<svg version="1.1" id="圖層_1" xmlns="http://www.w3.org/2000/svg" xmlns:xlink="http://www.w3.org/1999/xlink" x="0px" y="0px"
	 viewBox="0 0 50 50" style="enable-background:new 0 0 50 50;" xml:space="preserve">
<style type="text/css">
	.st0{fill:#E95C68;}
	.st1{fill:#534741;}
	.st2{fill:#E63E42;}
	.st3{fill:#61A256;}
	.st4{fill:#A9CE8B;}
	.st5{fill:#87373C;}
	.st6{fill:#4B8043;}
	.st7{fill:#EAEDBA;}
	.st8{fill:#EE7D83;}
</style>
<g>
	<g>
		<path class="st0" d="M43.5,41.4c0.3-2.4,0.1-4.8,0.1-7.3C43.5,29,43.3,23.9,43,18.9c-0.2-2.5-0.3-4.9-0.5-7.5
			c-0.1-1.3-0.2-2.5-0.3-3.8c-0.1-1.2-0.1-2.4-0.3-3.6c-0.2-1.3-1-2.3-2.2-2.6s-2.3-0.1-3.3,0.5c-0.3,0.2-0.6,0.4-0.9,0.6
			C34.8,2.9,34,3.4,33.3,4c-1.9,1.5-3.8,3-5.6,4.6c-3.9,3.2-7.6,6.6-11.3,10c-1.8,1.6-3.7,3.4-5.5,5.1C10,24.5,9,25.3,8.1,26.2
			c-0.9,1-1.7,2-1.8,3.4c-0.1,1.2,0.4,2.3,0.9,3.4c0.5,1,1.1,1.9,1.7,2.8c1.3,1.7,2.8,3.3,4.5,4.7c3.7,3,8,5,12.5,6.3
			c2.5,0.7,5,1.3,7.6,1.7c1.3,0.2,2.4,0.5,3.7,0.4c1.2-0.1,2.1-0.6,3.1-1.2C42.2,46.1,43.2,43.7,43.5,41.4z"/>
		<path class="st1" d="M36.6,49.4c-0.8,0-1.7-0.1-2.4-0.3c-0.3,0-0.5-0.1-0.8-0.1c-2.5-0.5-5.1-1.1-7.6-1.8
			c-4.9-1.4-9.2-3.5-12.7-6.4c-1.8-1.5-3.4-3.1-4.5-4.7c-0.6-0.8-1.2-1.8-1.8-2.9c-0.5-1.2-1-2.4-0.9-3.7c0.1-1.5,1-2.6,2-3.7
			c0.5-0.5,0.9-0.9,1.4-1.3s0.9-0.8,1.3-1.2c1.8-1.7,3.7-3.5,5.5-5.2l2.2-1.9c3-2.7,6-5.5,9.2-8C29.2,6.6,31.1,5,33,3.6
			c0.6-0.5,1.4-1.1,2.3-1.5l0.8-0.6c1.1-0.7,2.4-0.9,3.7-0.6c1.4,0.3,2.4,1.5,2.6,3c0.1,0.8,0.2,1.6,0.2,2.4c0,0.4,0,0.8,0.1,1.2
			l0.3,3.8c0.1,1.3,0.2,2.5,0.2,3.7c0.1,1.2,0.1,2.5,0.2,3.7C43.8,24,44,29,44.1,34.1c0,0.7,0,1.4,0,2.1c0,1.7,0.1,3.5-0.1,5.3l0,0
			c-0.4,2.8-1.6,5.2-3.5,6.6c-1,0.6-2.1,1.2-3.4,1.3C37,49.4,36.8,49.4,36.6,49.4z M38.7,1.8c-0.7,0-1.4,0.2-2,0.5l-0.9,0.6
			c-0.9,0.4-1.6,0.9-2.2,1.4c-2,1.5-3.8,3-5.6,4.6c-3.1,2.6-6.2,5.3-9.2,8l-2.2,2c-1.8,1.6-3.7,3.4-5.5,5.1
			c-0.4,0.4-0.9,0.9-1.4,1.3s-0.9,0.8-1.3,1.2c-0.8,0.9-1.6,1.9-1.7,3.1c-0.1,1,0.4,2.1,0.8,3.1c0.5,1,1.1,1.9,1.7,2.7
			c1.1,1.6,2.6,3.1,4.4,4.6c3.4,2.8,7.5,4.8,12.3,6.2c2.5,0.7,5,1.3,7.5,1.7c0.3,0,0.5,0.1,0.8,0.1c0.9,0.2,1.8,0.3,2.7,0.2
			c1-0.1,1.9-0.5,2.9-1.1c1.6-1.2,2.7-3.4,3.1-5.9c0.2-1.7,0.2-3.4,0.1-5.1c0-0.7,0-1.4,0-2.1c0-5-0.2-10-0.5-15.1
			c-0.1-1.3-0.2-2.5-0.2-3.7c-0.1-1.2-0.1-2.5-0.2-3.7l-0.3-3.8c0-0.4-0.1-0.8-0.1-1.2c0-0.8-0.1-1.6-0.2-2.3
			c-0.2-1.2-0.9-2-1.8-2.2C39.3,1.9,39,1.8,38.7,1.8z"/>
	</g>
	<g>
		<path class="st2" d="M41.3,32.4c-2.1,2.5-5.7,3.3-8.9,3.9c-0.8,0.1-1.6,0.3-2.2,0.1c-0.9-0.2-1.6-0.7-2.3-1.1
			c-0.9-0.4-1.9-0.5-2.8-0.9c-1.5-0.7-2.3-2.3-3.2-3.8c-0.9-1.7-1.8-3.5-2.3-5.4c-0.4-1.6-0.4-3.2-0.1-4.7c0.1-0.5,0.2-1.1,0.2-1.6
			s-0.2-1-0.2-1.6c-0.1-0.8,0.1-1.5,0.3-2.1c-1.2,1.1-2.3,2-3.4,3.1c-1.8,1.6-3.7,3.4-5.5,5.1c-1,0.9-2,1.7-2.9,2.6
			c-0.9,1-1.7,2-1.8,3.4c-0.1,1.2,0.4,2.3,0.9,3.4c0.5,1,1.1,1.9,1.7,2.8c1.3,1.7,2.8,3.3,4.5,4.7c3.7,3,8,5,12.5,6.3
			c2.5,0.7,5,1.3,7.6,1.7c1.3,0.2,2.4,0.5,3.7,0.4c1.2-0.1,2.1-0.6,3.1-1.2c1.9-1.5,2.8-3.8,3.2-6.1c0.3-2.4,0.1-4.8,0.1-7.3
			c0-2-0.1-4-0.2-6c0,0.1-0.1,0.3-0.1,0.4C42.8,29.8,42.2,31.3,41.3,32.4z"/>
	</g>
	<g>
		<path class="st3" d="M21.4,38.3c-4.8-2.6-9.3-6.4-11.5-11.4c-0.3-0.6-0.5-1.2-0.7-1.7c-0.4,0.3-0.7,0.7-1,1c-0.9,1-1.7,2-1.8,3.4
			c-0.1,1.2,0.4,2.3,0.9,3.4c0.5,1,1.1,1.9,1.7,2.8c1.3,1.7,2.8,3.3,4.5,4.7c3.7,3,8,5,12.5,6.3c2.5,0.7,5,1.3,7.6,1.7
			c1.3,0.2,2.4,0.5,3.7,0.4c1.2-0.1,2.1-0.6,3.1-1.2c1.9-1.5,2.8-3.8,3.2-6.1c0-0.1,0-0.2,0-0.3c-2.9,1-6,1.3-9.1,1.1
			C29.8,41.9,25.4,40.4,21.4,38.3z"/>
	</g>
	<g>
		<path class="st4" d="M43.5,41.1c-2.9,1-6,1.3-9.1,1.1c-4.6-0.3-9-1.7-13.1-3.9c-4.8-2.6-9.3-6.4-11.5-11.4
			c-0.3-0.6-0.5-1.2-0.7-1.7c-0.4,0.3-0.7,0.7-1,1c-0.1,0.1-0.2,0.2-0.3,0.3c1.2,4.3,3.7,8.1,7.1,10.9c2.9,2.3,6.4,3.8,9.9,5.1
			c4.4,1.6,8.9,3.1,13.6,2.6c1.5-0.2,2.9-0.6,4.4-1h0.1c0.3-0.9,0.5-1.7,0.6-2.6C43.5,41.3,43.5,41.2,43.5,41.1z"/>
	</g>
	<g>
		<path class="st5" d="M36.1,6.2c0.1-0.2,0.1-0.4,0.1-0.5l0,0c0-0.2-0.2-0.3-0.3-0.4l0,0c-0.1-0.1-0.2-0.1-0.3-0.1s-0.1,0-0.2,0
			S35.1,5.3,35,5.3l0,0c-0.2,0.1-0.2,0-0.3,0.1c-0.2,0.1-0.3,0.2-0.4,0.2c-0.1,0.1-0.2,0.2-0.3,0.2c0,0.1-0.1,0.2-0.2,0.3
			s-0.2,0.2-0.3,0.3c-0.2,0.2-0.3,0.6-0.2,0.9C33.4,7.7,33.8,8,34.2,8c0.3,0,0.6,0,0.8-0.1c0.1-0.1,0.2-0.2,0.3-0.3l0.1-0.1
			c0.1-0.1,0.2-0.2,0.2-0.3c0,0,0.1-0.1,0.1-0.2c0.1-0.1,0.1-0.1,0.2-0.2C36,6.7,36,6.6,36.1,6.5C36,6.4,36.1,6.3,36.1,6.2z"/>
	</g>
	<g>
		<path class="st5" d="M34.1,16.9c0-0.2-0.1-0.4-0.3-0.6s-0.4-0.3-0.7-0.2c-0.2,0.1-0.3,0.1-0.5,0.2c-0.1,0.1-0.2,0.1-0.3,0.2
			s-0.1,0.1-0.2,0.2c-0.1,0.1-0.2,0.2-0.3,0.4c-0.1,0.1-0.2,0.3-0.3,0.5c0,0.1-0.1,0.2-0.1,0.2c-0.1,0.2-0.2,0.3-0.2,0.5
			c0,0.1,0,0.1,0,0.2c0,0.2,0.1,0.3,0.1,0.4s0.1,0.1,0.1,0.2c0.1,0.1,0.2,0.2,0.3,0.2c0.2,0.1,0.4,0.2,0.6,0.1
			c0.3-0.1,0.6-0.2,0.8-0.5c0.1-0.1,0.1-0.2,0.2-0.3c0.1-0.3,0.3-0.5,0.4-0.8C34,17.4,34.2,17.2,34.1,16.9z"/>
	</g>
	<g>
		<path class="st5" d="M40.8,13.8c0.1-0.4,0-0.7,0-1.1c0-0.2-0.1-0.4-0.2-0.5c-0.1-0.2-0.2-0.3-0.3-0.4l0,0c-0.1-0.1-0.3-0.2-0.4,0
			l0,0c-0.1,0-0.1,0.1-0.1,0.1c-0.1,0.1-0.1,0.2-0.2,0.3v0.1c0,0.1-0.1,0.1-0.1,0.2c-0.1,0.1-0.1,0.2-0.1,0.4c0,0.1-0.1,0.3-0.1,0.4
			c0,0.1,0,0.2,0,0.2c0,0.1,0,0.3,0,0.4c0,0.2,0.2,0.4,0.4,0.6c0.2,0.2,0.6,0.3,0.8,0c0,0,0,0,0.1-0.1c0.1,0,0.1-0.1,0.2-0.1
			C40.7,14.1,40.8,14,40.8,13.8z"/>
	</g>
	<g>
		<g>
			<path class="st5" d="M26,17.4L26,17.4L26,17.4z"/>
		</g>
		<g>
			<path class="st5" d="M25.8,17C25.8,17,25.7,17,25.8,17C25.7,17,25.7,17,25.8,17L25.8,17z"/>
		</g>
		<g>
			<path class="st5" d="M25.9,17.6C25.9,17.5,25.9,17.5,25.9,17.6C25.9,17.5,25.9,17.5,25.9,17.6L25.9,17.6c0-0.1,0-0.1,0-0.2v-0.1
				v0.1c0-0.1,0-0.2,0-0.3c0-0.1-0.1-0.1-0.2-0.2c0,0,0,0,0.1,0.1c0,0-0.1,0-0.1-0.1c0,0,0,0-0.1,0l0,0c0,0,0,0-0.1,0h-0.1
				c-0.1-0.1-0.3-0.1-0.5-0.1c-0.3,0-0.5,0.1-0.7,0.2s-0.3,0.2-0.5,0.3s-0.2,0.2-0.3,0.4c-0.1,0.2-0.1,0.3-0.1,0.5
				c0,0.3,0.1,0.5,0.3,0.7c0.2,0.2,0.5,0.3,0.8,0.2c0.2-0.1,0.4-0.1,0.6-0.3c0.1-0.1,0.2-0.2,0.3-0.3c0.1-0.1,0.1-0.2,0.2-0.2
				c0-0.1,0.1-0.1,0.1-0.2C25.8,18,25.9,17.8,25.9,17.6z"/>
		</g>
		<g>
			<path class="st5" d="M26,17.4C25.9,17.4,25.9,17.4,26,17.4C25.9,17.4,25.9,17.4,26,17.4z"/>
		</g>
		<g>
			<path class="st5" d="M26,17.4L26,17.4L26,17.4z"/>
		</g>
		<g>
			<path class="st5" d="M25.7,17L25.7,17C25.7,17,25.6,16.9,25.7,17z"/>
		</g>
		<g>
			<path class="st5" d="M25.7,17L25.7,17L25.7,17z"/>
		</g>
	</g>
	<g>
		<path class="st5" d="M27.6,30.6c0-0.1,0-0.1,0-0.2v-0.1c0-0.1,0.1-0.3,0.1-0.4c0-0.2,0-0.4,0-0.6s-0.1-0.4-0.1-0.5
			c-0.2-0.4-0.7-0.7-1.2-0.6c-0.2,0-0.4,0.1-0.5,0.3c-0.1,0-0.1,0.1-0.2,0.1c-0.1,0.1-0.2,0.2-0.2,0.3c0,0,0,0-0.1,0.1
			c-0.1,0.2-0.3,0.4-0.3,0.6C25,29.8,25,29.9,25,30.1c0,0.1-0.1,0.2,0,0.4c0,0.1,0,0.1,0,0.2s0.1,0.3,0.1,0.4s0.1,0.2,0.2,0.3
			c0,0,0,0,0.1,0.1l0,0l0.1,0.1l0.1,0.1c0.1,0.1,0.3,0.2,0.5,0.2s0.3,0.1,0.5,0c0.1,0,0.1,0,0.1,0h0.1l0,0c0.1-0.1,0.3-0.1,0.4-0.2
			l0,0c0.1-0.1,0.2-0.2,0.2-0.3L27.6,30.6L27.6,30.6z"/>
	</g>
	<g>
		<path class="st5" d="M37.8,26.8c0-0.3,0-0.6,0-0.9c-0.1-0.3-0.2-0.6-0.4-0.9c-0.1-0.2-0.3-0.3-0.4-0.4c-0.3-0.3-0.7-0.3-1.1-0.1
			c-0.2,0.1-0.4,0.3-0.5,0.5l0,0c0,0.1-0.1,0.1-0.1,0.2c-0.1,0.1-0.1,0.2-0.1,0.3v-0.1c0,0.1-0.1,0.2-0.1,0.3
			C35,25.9,35,26.2,35,26.4s-0.1,0.4,0,0.7c0,0.1,0,0.1,0,0.2c0,0.2,0.1,0.3,0.2,0.5c0.1,0.1,0.1,0.2,0.2,0.2l0,0
			c0.2,0.2,0.4,0.3,0.6,0.4c0.3,0.1,0.5,0,0.7-0.1l0,0c0.1,0,0.2-0.1,0.3-0.1c0.2-0.1,0.3-0.2,0.4-0.4c0,0,0-0.1,0.1-0.1
			C37.7,27.3,37.8,27.1,37.8,26.8z"/>
	</g>
	<g>
		<path class="st5" d="M17.3,26.8c0.1-0.2,0.2-0.4,0.3-0.6c0-0.2,0-0.5-0.1-0.6c-0.2-0.2-0.3-0.3-0.6-0.3c-0.2,0-0.4,0-0.6,0.1
			c-0.1,0-0.3,0.1-0.4,0.1c-0.1,0.1-0.3,0.2-0.4,0.3c-0.1,0.1-0.2,0.2-0.3,0.3c-0.1,0.2-0.3,0.4-0.2,0.7c0,0.2,0,0.4,0.1,0.5
			s0.1,0.2,0.2,0.3c0.1,0.1,0.2,0.2,0.3,0.2c0.2,0.1,0.4,0.1,0.5,0c0.2,0,0.4-0.1,0.6-0.3c0.1-0.1,0.1-0.1,0.2-0.2s0.2-0.2,0.3-0.3
			C17.2,27,17.2,26.9,17.3,26.8z"/>
	</g>
	<g>
		<path class="st5" d="M36.8,37.5c0-0.2,0-0.4,0-0.7c0-0.1-0.1-0.2-0.1-0.4s-0.1-0.4-0.3-0.6l-0.1-0.1c-0.2-0.2-0.5-0.3-0.7-0.3
			c-0.1,0-0.2,0-0.3,0.1c-0.1,0-0.2,0.1-0.3,0.2c-0.2,0.2-0.3,0.4-0.4,0.7c0,0.1,0,0.1,0,0.2s-0.1,0.3-0.1,0.4c0,0.2,0,0.4,0,0.6
			c0,0.3,0.1,0.6,0.3,0.8c0.1,0.1,0.3,0.2,0.5,0.3c0.1,0.1,0.3,0.1,0.4,0.1c0.1,0,0.3,0,0.4-0.1c0.2-0.1,0.3-0.2,0.4-0.3
			C36.7,38.1,36.8,37.8,36.8,37.5z"/>
	</g>
	<g>
		<path class="st6" d="M9.3,31.6L9.3,31.6c0.1-0.2,0.1-0.3,0-0.5c0-0.1-0.1-0.2-0.1-0.3c-0.1-0.2-0.3-0.3-0.6-0.3
			c-0.2,0-0.3,0-0.5,0.1c0,0.1-0.1,0.2-0.2,0.2C7.8,30.9,7.8,31,7.7,31c-0.2,0.2-0.4,0.4-0.6,0.7C7,31.9,6.9,32.1,7,32.4
			c0,0.2,0.2,0.4,0.4,0.5c0.2,0,0.4,0.1,0.6,0s0.4-0.2,0.5-0.4c0.1-0.1,0.2-0.3,0.3-0.4C8.8,32,8.9,32,9,31.9l0.1-0.1
			C9.2,31.8,9.2,31.8,9.3,31.6C9.3,31.7,9.3,31.6,9.3,31.6C9.3,31.5,9.3,31.6,9.3,31.6z"/>
	</g>
	<g>
		<path class="st6" d="M12.9,36c0-0.3-0.1-0.5-0.3-0.7s-0.5-0.2-0.8-0.1c-0.3,0.1-0.4,0.3-0.6,0.6c-0.1,0.1-0.2,0.3-0.3,0.4
			c-0.1,0.1-0.2,0.3-0.3,0.4c-0.1,0.2-0.2,0.4-0.2,0.6c0,0.3,0.1,0.6,0.3,0.8c0.3,0.2,0.6,0.2,0.8,0.1c0.2-0.1,0.3-0.2,0.5-0.4
			c0.1-0.1,0.2-0.3,0.3-0.4c0.1-0.1,0.2-0.3,0.3-0.4l0.1-0.2C12.8,36.3,12.9,36.1,12.9,36z"/>
	</g>
	<g>
		<path class="st6" d="M17.7,39.8c0-0.3-0.2-0.7-0.5-0.8c-0.1,0-0.3-0.1-0.4,0c-0.2,0-0.4,0.2-0.5,0.3l-0.1,0.1
			c-0.1,0.1-0.1,0.2-0.2,0.3c0,0.1-0.1,0.2-0.1,0.3c-0.1,0.2-0.2,0.4-0.3,0.6l0,0c-0.1,0.1-0.1,0.2-0.1,0.3c0,0.2,0,0.3,0.1,0.5
			c0.1,0.3,0.5,0.5,0.9,0.4c0.2,0,0.4-0.2,0.5-0.3s0.2-0.3,0.3-0.4c0.1-0.1,0.1-0.3,0.2-0.4C17.6,40.4,17.7,40.1,17.7,39.8z"/>
	</g>
	<g>
		<path class="st6" d="M23.4,44.2c0-0.2,0.1-0.4,0.1-0.5c0-0.2,0.1-0.4,0.1-0.5s0-0.3,0-0.4s-0.1-0.3-0.1-0.4
			c-0.2-0.4-0.7-0.5-1.1-0.2c-0.1,0.1-0.2,0.2-0.3,0.3c-0.1,0.1-0.2,0.2-0.2,0.4c-0.1,0.2-0.1,0.4-0.1,0.5c0,0.2-0.1,0.3-0.1,0.5
			c0,0.1-0.1,0.3-0.1,0.4v0.1c0,0.2,0,0.3,0.1,0.4c0,0.1,0.1,0.1,0.1,0.2c0.1,0,0.1,0.1,0.2,0.1c0.1,0.1,0.2,0.1,0.3,0.1
			c0.2,0,0.4,0,0.5-0.1c0.2-0.1,0.3-0.2,0.4-0.4c0-0.1,0.1-0.1,0.1-0.2C23.4,44.5,23.4,44.4,23.4,44.2z"/>
	</g>
	<g>
		<path class="st6" d="M30.7,46.4C30.8,46.4,30.8,46.4,30.7,46.4l0.1-0.4c0-0.1,0-0.2,0-0.3c0-0.2,0-0.4-0.1-0.6L30.6,45
			c-0.1-0.2-0.3-0.4-0.5-0.4s-0.5,0-0.6,0.2V45c-0.1,0.1-0.2,0.2-0.2,0.3s-0.1,0.1-0.1,0.2c-0.1,0.2-0.1,0.4-0.2,0.6
			c0,0.1,0,0.2,0,0.3s0,0.2,0,0.3c0,0.2,0.1,0.3,0.1,0.5c0.1,0.3,0.3,0.4,0.6,0.5c0.3,0.1,0.6,0,0.7-0.2c0.1-0.1,0.2-0.2,0.2-0.3
			C30.7,46.8,30.7,46.6,30.7,46.4z"/>
	</g>
	<g>
		<path class="st6" d="M37.4,47.9L37.4,47.9c0-0.2,0-0.3,0-0.5c0-0.1,0-0.2,0-0.2c0-0.2-0.1-0.3-0.1-0.5c-0.1-0.5-0.3-1.1-0.8-1.3
			c-0.2-0.2-0.5-0.1-0.7,0.1c-0.1,0.1-0.1,0.1-0.2,0.2c0,0.1-0.1,0.1-0.1,0.2c-0.1,0.1-0.1,0.3-0.1,0.4c0,0.1,0,0.2,0,0.3
			s0,0.2,0,0.3c0,0.2,0,0.5,0.1,0.7c0,0.1,0,0.2,0,0.2c0,0.2,0.1,0.3,0.2,0.5c0.1,0.2,0.2,0.3,0.4,0.4c0.2,0.1,0.4,0.1,0.6,0.1
			c0.2,0,0.3-0.1,0.4-0.2c0.1-0.1,0.2-0.2,0.2-0.3C37.4,48.1,37.4,48,37.4,47.9z"/>
	</g>
	<g>
		<path class="st6" d="M41,46.4c0-0.1,0-0.1,0-0.2v-0.1c0,0,0,0,0-0.1l0,0l0,0c0-0.1,0-0.1-0.1-0.2c0-0.1-0.1-0.2-0.2-0.2
			c-0.1-0.1-0.1-0.1-0.2-0.2c0-0.1-0.1-0.1-0.1-0.1c-0.1,0-0.2,0-0.3,0s-0.1,0-0.2,0.1c-0.1,0-0.2,0.1-0.3,0.2c0,0,0,0,0,0.1
			s-0.1,0.1-0.1,0.2c0,0.1-0.1,0.1-0.1,0.2c0,0.1,0,0.2,0,0.3l0,0c0,0,0,0,0,0.1c0,0,0,0,0,0.1l0,0c0,0.1,0.1,0.2,0.1,0.3
			c0,0,0,0.1,0.1,0.1c0.1,0.1,0.2,0.2,0.3,0.2s0.3,0.1,0.4,0c0.3-0.1,0.5-0.2,0.6-0.5C41,46.5,41,46.5,41,46.4z"/>
	</g>
	<g>
		<path class="st7" d="M43.5,41.1c-0.2-0.3-0.5-0.4-0.8-0.2c-0.1,0-0.2,0.1-0.3,0.1c-1.3,0-2.5,0.3-3.8,0.5s-2.6,0.2-3.9,0.2
			c-2.6-0.1-5.2-0.5-7.8-1.3C22,38.8,17.5,36,14,32.3c-1-1.1-1.8-2.2-2.6-3.4c-0.4-0.6-0.8-1.2-1.1-1.7c-0.4-0.6-0.6-1.3-1.2-1.7
			c-0.2-0.2-0.5,0-0.5,0.2c0,0.6,0.3,1.2,0.6,1.6c0.3,0.7,0.7,1.3,1.1,1.8c0.7,1.1,1.5,2.1,2.2,3.2c1.6,2,3.6,3.9,5.7,5.4
			c4.5,3.2,9.8,5,15.3,5.3c1.6,0.1,3,0,4.6-0.1c0.9-0.1,1.8-0.2,2.8-0.4c0.1,0.1,0.2,0.1,0.3,0.1s0.2,0,0.2,0c0.2,0,0.3,0,0.4-0.1
			c0,0,0,0,0.1,0s0.1,0,0.2,0s0.2-0.1,0.3-0.1s0.2-0.1,0.3-0.1c0.1-0.1,0.3-0.1,0.4-0.2c0.1-0.1,0.2-0.1,0.2-0.2
			C43.6,41.7,43.7,41.3,43.5,41.1z"/>
	</g>
	<g>
		<path class="st8" d="M40.9,4.2c-0.1-0.4-0.2-0.7-0.4-1.1S40,2.4,39.6,2.2s-0.9-0.3-1.2,0.1c-0.3,0.5,0,1.1,0.2,1.6
			c0.2,0.4,0.1,1.1,0.5,1.5c0.3,0.3,1,0.5,1.4,0.1C41,5.1,41.1,4.7,40.9,4.2z"/>
	</g>
	<g>
		<path class="st8" d="M41.2,7.5c-0.1-0.2-0.2-0.3-0.3-0.4s-0.2-0.2-0.3-0.3c-0.3-0.2-0.6-0.2-0.8,0c-0.2,0.3-0.3,0.6-0.3,0.9
			c0,0.4,0.1,0.8,0.5,1c0.2,0.1,0.4,0.2,0.7,0.1c0.2-0.1,0.5-0.2,0.5-0.5C41.3,8,41.3,7.8,41.2,7.5z"/>
	</g>
	<g>
		<path class="st1" d="M36.6,49.4c-0.8,0-1.7-0.1-2.4-0.3c-0.3,0-0.5-0.1-0.8-0.1c-2.5-0.5-5.1-1.1-7.6-1.8
			c-4.9-1.4-9.2-3.5-12.7-6.4c-1.8-1.5-3.4-3.1-4.5-4.7c-0.6-0.8-1.2-1.8-1.8-2.9c-0.5-1.2-1-2.4-0.9-3.7c0.1-1.5,1-2.6,2-3.7
			c0.5-0.5,0.9-0.9,1.4-1.3s0.9-0.8,1.3-1.2c1.8-1.7,3.7-3.5,5.5-5.2l2.2-1.9c3-2.7,6-5.5,9.2-8C29.2,6.6,31.1,5,33,3.6
			c0.6-0.5,1.4-1.1,2.3-1.5l0.8-0.6c1.1-0.7,2.4-0.9,3.7-0.6c1.4,0.3,2.4,1.5,2.6,3c0.1,0.8,0.2,1.6,0.2,2.4c0,0.4,0,0.8,0.1,1.2
			l0.3,3.8c0.1,1.3,0.2,2.5,0.2,3.7c0.1,1.2,0.1,2.5,0.2,3.7C43.8,24,44,29,44.1,34.1c0,0.7,0,1.4,0,2.1c0,1.7,0.1,3.5-0.1,5.3l0,0
			c-0.4,2.8-1.6,5.2-3.5,6.6c-1,0.6-2.1,1.2-3.4,1.3C37,49.4,36.8,49.4,36.6,49.4z M38.7,1.8c-0.7,0-1.4,0.2-2,0.5l-0.9,0.6
			c-0.9,0.4-1.6,0.9-2.2,1.4c-2,1.5-3.8,3-5.6,4.6c-3.1,2.6-6.2,5.3-9.2,8l-2.2,2c-1.8,1.6-3.7,3.4-5.5,5.1
			c-0.4,0.4-0.9,0.9-1.4,1.3s-0.9,0.8-1.3,1.2c-0.8,0.9-1.6,1.9-1.7,3.1c-0.1,1,0.4,2.1,0.8,3.1c0.5,1,1.1,1.9,1.7,2.7
			c1.1,1.6,2.6,3.1,4.4,4.6c3.4,2.8,7.5,4.8,12.3,6.2c2.5,0.7,5,1.3,7.5,1.7c0.3,0,0.5,0.1,0.8,0.1c0.9,0.2,1.8,0.3,2.7,0.2
			c1-0.1,1.9-0.5,2.9-1.1c1.6-1.2,2.7-3.4,3.1-5.9c0.2-1.7,0.2-3.4,0.1-5.1c0-0.7,0-1.4,0-2.1c0-5-0.2-10-0.5-15.1
			c-0.1-1.3-0.2-2.5-0.2-3.7c-0.1-1.2-0.1-2.5-0.2-3.7l-0.3-3.8c0-0.4-0.1-0.8-0.1-1.2c0-0.8-0.1-1.6-0.2-2.3
			c-0.2-1.2-0.9-2-1.8-2.2C39.3,1.9,39,1.8,38.7,1.8z"/>
	</g>
</g>
</svg>
