<?xml version="1.0" encoding="utf-8"?>
<!-- Generator: Adobe Illustrator 25.3.1, SVG Export Plug-In . SVG Version: 6.00 Build 0)  -->
<svg version="1.1" id="圖層_1" xmlns="http://www.w3.org/2000/svg" xmlns:xlink="http://www.w3.org/1999/xlink" x="0px" y="0px"
	 viewBox="0 0 100 100" style="enable-background:new 0 0 100 100;" xml:space="preserve">
<style type="text/css">
	.st0{font-family:'ComicSansMS';}
	.st1{font-size:9.3019px;}
</style>
<g>
	<g id="_x31_093_x2C__golf_x2C__sign_x2C__sport_x2C__flag">
		<path d="M92.6,23.2l-4.6-5.4c-0.1-0.4,5.9-6.3,4.1-6.3c-0.6,0-17.2,0.2-17.7,0.2c0.3-1.7-1.2-1.7-0.9,0c-1.8-0.3-1.7,1.2,0,0.9
			l0.1,10.7c-1.8-0.3-1.7,1.2,0,0.9c0.2,0.3-0.4,7.2,0.5,6.9c0.9,0.3,0.2-6.7,0.4-6.9C74.9,23.6,93.4,24.9,92.6,23.2z M74.5,12.5
			l0.9,0l0.1,10.7l-1,0L74.5,12.5L74.5,12.5z M76.3,12.5l5.4,0l-3.1,10.7l-2.2,0C76.4,23.2,76.3,12.5,76.3,12.5z M79.5,23.2
			l3.1-10.7l2.6,0L82,23.2L79.5,23.2z M82.9,23.1L86,12.4l5.3,0c-5.1,6.7-5.5,4.1,0.1,10.7L82.9,23.1z"/>
	</g>
	<g id="Layer_1_00000168809125974632365410000004548492027099562410_">
	</g>
</g>
<g>
	<g id="_x31_087_x2C__love_x2C__heart_x2C__favorite_x2C__cack">
		<g>
			<path d="M21,43.6c-1.4,0-2.2,0.7-2.9,1.7c-4.4-4.9-11,2-0.2,9.2C22.3,52.7,28,44.8,21,43.6z M18.2,53.6c-2.8-2.6-5.4-4.2-5.4-6.7
				c0.5-3.4,3.7-3,5.3-0.3c1.5-2.6,4.8-3.2,5.3,0.2C23.5,49.4,20.9,51,18.2,53.6z"/>
			<path d="M24.8,42.4c-8.6-8.6-22.3,4.9-13.3,13.4C20,64.5,33.8,50.9,24.8,42.4z M18.2,57.7C7,57.9,6.8,40.5,18.1,40.6
				C29.3,40.3,29.4,57.7,18.2,57.7z"/>
		</g>
	</g>
	<g id="Layer_1_1_">
	</g>
</g>
<g>
	<g id="_x31_079_x2C__Aid_x2C__band_x2C__bandage_x2C__plus">
		<g>
			<path d="M23.8,14.8c-1.5,0-1.5,2.3,0,2.3C25.3,17.1,25.3,14.8,23.8,14.8z M23.8,16.2c-0.3,0-0.3-0.4,0-0.4
				C24.1,15.8,24.2,16.2,23.8,16.2z"/>
			<path d="M21,14.8c-1.5,0-1.5,2.3,0,2.3C22.5,17.1,22.5,14.8,21,14.8z M21,16.2c-0.3,0-0.3-0.4,0-0.4C21.3,15.8,21.4,16.2,21,16.2
				z"/>
			<path d="M23.8,17.5c-1.5,0-1.5,2.3,0,2.3C25.3,19.8,25.3,17.5,23.8,17.5z M23.8,18.9c-0.3,0-0.3-0.4,0-0.4
				C24.1,18.5,24.2,18.9,23.8,18.9z"/>
			<path d="M21.1,17.6c-1.5,0-1.5,2.3,0,2.3C22.6,19.8,22.5,17.5,21.1,17.6z M21.1,18.9c-0.3,0-0.3-0.4,0-0.4
				C21.3,18.5,21.4,18.9,21.1,18.9z"/>
			<path d="M15.1,16.3l-1.1,0c0.2-1.8-0.4-1.7-1.9-1.6c-0.7,0-0.4,1.2-0.5,1.6c-1.8-0.2-1.7,0.3-1.6,1.9c0,0.7,1.2,0.4,1.6,0.5
				c-0.2,1.8,0.4,1.7,1.9,1.6c0.7,0,0.4-1.2,0.5-1.6c0.4-0.1,1.6,0.2,1.6-0.5C15.5,17.7,15.8,16.2,15.1,16.3z M14.6,17.6
				c-1.5-0.1-1.8,0.1-1.6,1.6l-0.4,0c0.1-1.5-0.1-1.7-1.6-1.6l0-0.5c1.5,0.1,1.8,0,1.6-1.6l0.5,0c-0.1,1.5,0.1,1.7,1.6,1.6
				L14.6,17.6L14.6,17.6z"/>
			<path d="M22.2,11.8c-4.5,0.3-14.5-1.6-14.3,5.6c-0.1,7.2,9.9,5.2,14.4,5.4C29.5,22.9,29.4,11.7,22.2,11.8z M22.3,21.9
				c-3.9-0.4-13.5,2-13.5-4.4c-0.2-6.5,9.5-4.3,13.4-4.7C28.2,12.6,28.3,21.9,22.3,21.9z"/>
		</g>
	</g>
	<g id="Layer_1_00000055678549952305545850000013399797384984367490_">
	</g>
</g>
<g>
	<g id="_x31_083_x2C__Friends_x2C__group_x2C__users_x2C__team">
		<path d="M56.3,15.2c2.1-1.5,0.9-5-1.7-4.9c-2.6-0.1-3.8,3.5-1.7,5c-0.8,0.3-1.5,0.9-2.1,1.6c-0.6-0.4-1.1-0.7-1.8-0.9
			c3.1-1.8,1.6-6.8-2-6.7c-3.6-0.1-5,5-1.9,6.7c-3.9,0.8-6.7,8.5-1.9,10c0.1,0-0.4,0,7.9-0.1c1.6-0.2,2.6-1.7,2.4-3.2
			c4.3,0,4,0,4.1,0C61,21.5,59.1,15.9,56.3,15.2z M52.7,13c-0.1-2.5,3.9-2.5,3.9,0C56.6,15.5,52.6,15.4,52.7,13z M44.3,12.9
			c-0.1-3.6,5.6-3.7,5.6,0C50,16.4,44.3,16.4,44.3,12.9z M52.6,23c0.4,3.4-7.7,1.6-9.3,2c-1.5-0.2-1.7-1.9-1.6-3.1
			C41.9,14,53.7,15.2,52.6,23z M58.5,20.4c0.2,2.1-4,1.1-5,1.3c0-1.7-0.8-3.3-2-4.4C53.9,14,59.2,16.4,58.5,20.4z"/>
	</g>
	<g id="Layer_1_00000107547892620374011940000010164274931547612293_">
	</g>
</g>
<g>
	<g id="_x31_093_x2C__golf_x2C__sign_x2C__sport_x2C__flag_1_">
		<path d="M92.3,82.8l-4.6-5.4c-0.1-0.4,5.9-6.3,4.1-6.3c-0.6,0-17.2,0.2-17.7,0.2c0.3-1.7-1.2-1.7-0.9,0c-1.8-0.3-1.7,1.2,0,0.9
			l0.1,10.7c-1.8-0.3-1.7,1.2,0,0.9c0.2,0.3-0.4,7.2,0.5,6.9c0.9,0.3,0.2-6.7,0.4-6.9C74.6,83.3,93.1,84.5,92.3,82.8z M74.1,72.1
			l0.9,0l0.1,10.7l-1,0L74.1,72.1L74.1,72.1z M75.9,72.1l5.4,0l-3.1,10.7l-2.2,0C76,82.8,75.9,72.1,75.9,72.1z M79.1,82.8l3.1-10.7
			l2.6,0l-3.1,10.7L79.1,82.8z M82.5,82.8L85.7,72l5.3,0c-5.1,6.7-5.5,4.1,0.1,10.7L82.5,82.8z"/>
	</g>
	<g id="Layer_1_4_">
	</g>
</g>
<g>
	<g id="_x31_079_x2C__Aid_x2C__band_x2C__bandage_x2C__plus_1_">
		<g>
			<path d="M23.4,74.4c-1.5,0-1.5,2.3,0,2.3C24.9,76.7,24.9,74.4,23.4,74.4z M23.4,75.8c-0.3,0-0.3-0.4,0-0.4
				C23.7,75.4,23.8,75.8,23.4,75.8z"/>
			<path d="M20.7,74.4c-1.5,0-1.5,2.3,0,2.3C22.2,76.7,22.1,74.4,20.7,74.4z M20.7,75.8c-0.3,0-0.3-0.4,0-0.4
				C20.9,75.4,21,75.8,20.7,75.8z"/>
			<path d="M23.5,77.2c-1.5,0-1.5,2.3,0,2.3C25,79.4,24.9,77.1,23.5,77.2z M23.5,78.6c-0.3,0-0.3-0.4,0-0.4
				C23.7,78.1,23.8,78.5,23.5,78.6z"/>
			<path d="M20.7,77.2c-1.5,0-1.5,2.3,0,2.3C22.2,79.5,22.2,77.2,20.7,77.2z M20.7,78.6c-0.3,0-0.3-0.4,0-0.4
				C21,78.1,21,78.6,20.7,78.6z"/>
			<path d="M14.7,75.9l-1.1,0c0.2-1.8-0.4-1.7-1.9-1.6c-0.7,0-0.4,1.2-0.5,1.6c-1.8-0.2-1.7,0.3-1.6,1.9c0,0.7,1.2,0.4,1.6,0.5
				c-0.2,1.8,0.4,1.7,1.9,1.6c0.7,0,0.4-1.2,0.5-1.6c0.4-0.1,1.6,0.2,1.6-0.5C15.1,77.3,15.4,75.8,14.7,75.9z M14.2,77.2
				c-1.5-0.1-1.8,0.1-1.6,1.6l-0.4,0c0.1-1.5-0.1-1.7-1.6-1.6l0-0.5c1.5,0.1,1.8,0,1.6-1.6l0.5,0c-0.1,1.5,0.1,1.7,1.6,1.6
				L14.2,77.2L14.2,77.2z"/>
			<path d="M21.8,71.5c-4.5,0.3-14.5-1.6-14.3,5.6c-0.1,7.2,9.9,5.2,14.4,5.4C29.1,82.5,29,71.3,21.8,71.5z M21.9,81.5
				c-3.9-0.4-13.5,2-13.5-4.4c-0.2-6.5,9.5-4.3,13.4-4.7C27.8,72.3,27.9,81.6,21.9,81.5z"/>
		</g>
	</g>
	<g id="Layer_1_3_">
	</g>
</g>
<g>
	<g id="_x31_083_x2C__Friends_x2C__group_x2C__users_x2C__team_1_">
		<path d="M55.9,74.8c2.1-1.5,0.9-5-1.7-4.9c-2.6-0.1-3.8,3.5-1.7,5c-0.8,0.3-1.5,0.9-2.1,1.6c-0.6-0.4-1.1-0.7-1.8-0.9
			c3.1-1.8,1.6-6.8-2-6.7c-3.6-0.1-5,5-1.9,6.7c-3.9,0.8-6.7,8.5-1.9,10c0.1,0-0.4,0,7.9-0.1c1.6-0.2,2.6-1.7,2.4-3.2
			c4.3,0,4,0,4.1,0C60.6,81.1,58.8,75.5,55.9,74.8z M52.3,72.6c-0.1-2.5,3.9-2.5,3.9,0C56.2,75.1,52.3,75.1,52.3,72.6z M43.9,72.5
			c-0.1-3.6,5.6-3.7,5.6,0C49.6,76,43.9,76.1,43.9,72.5z M52.3,82.6c0.4,3.4-7.7,1.6-9.3,2c-1.5-0.2-1.7-1.9-1.6-3.1
			C41.5,73.7,53.4,74.9,52.3,82.6z M58.2,80c0.2,2.1-4,1.1-5,1.3c0-1.7-0.8-3.3-2-4.4C53.5,73.7,58.9,76.1,58.2,80z"/>
	</g>
	<g id="Layer_1_2_">
	</g>
</g>
<g>
	<g>
		<g>
			<path d="M56.2,42.9c-4.5-3.4-16.5-1.1-14.4,5.8c-2.5,9.7,19.5,9.5,16.7-0.2C59.3,46.7,58.7,44.5,56.2,42.9z M44.6,43.7
				c3.1-2,8-2.1,11.1-0.1c5.4,3.7,0.1,8.6-5.5,8.4C44.7,52.3,39.3,47.5,44.6,43.7z M45.1,51.7c1.5,0.7,3.1,1.1,4.8,1.1l0,2.2
				c-1.7-0.1-3.4-0.4-4.8-1.2C45.1,53.7,45.1,53.7,45.1,51.7z M50.7,52.8c1.6-0.1,3.3-0.4,4.8-1.2c0,0.5,0,2,0,2
				c-1.3,0.8-3,1.2-4.8,1.3L50.7,52.8z M42.5,49.7c0.5,0.6,1,1.1,1.7,1.6l0,1.9C42.8,52.1,42.3,50.8,42.5,49.7z M56.3,53.1l0-1.9
				c0.7-0.4,1.2-0.9,1.7-1.6C58.1,50.7,57.7,52,56.3,53.1z"/>
		</g>
	</g>
	<g>
		<path d="M50.2,49.9c-6.2,0.1-6.3-6.2-0.1-6.2C56.4,43.6,56.5,49.9,50.2,49.9z M50.2,44.8c-4.9,0-4.8,4.2,0,4.1
			C55.1,48.8,55.1,44.7,50.2,44.8z"/>
	</g>
</g>
<g>
	<path d="M90.6,41.6L86.7,41c-0.8-2.3,0.6-1-11.1-0.6c-2.2-0.6,0.4,14.1,0,14.8c0,1.7,3.1,0.7,4,0.8c3.4,0,9.4,2.4,10,0.3
		C89.3,55.6,92.9,41.2,90.6,41.6z M76.7,55.4c-0.5,0.1-1-13.7-1.2-13.9c-0.1-0.5,10-0.7,10.1-0.9c0.1,0,0.2,0.1,0.2,0.2
		C86.1,57.7,91,54.1,76.7,55.4z M90.6,42.6l-1.9,13.6c0.1,0.5-4.8-0.6-4.9-0.5c3.8-0.5,3.2,0.4,3.9-1.3c0,0-0.9-12.5-0.9-12.5
		C86.9,42.1,90.8,42.2,90.6,42.6z"/>
	<text transform="matrix(0.9964 -8.471026e-02 8.471026e-02 0.9964 78.0958 51.6655)" class="st0 st1">A</text>
</g>
</svg>
