<?xml version="1.0" encoding="utf-8"?>
<!-- Generator: Adobe Illustrator 25.4.1, SVG Export Plug-In . SVG Version: 6.00 Build 0)  -->
<svg version="1.1" id="圖層_1" xmlns="http://www.w3.org/2000/svg" xmlns:xlink="http://www.w3.org/1999/xlink" x="0px" y="0px"
	 viewBox="0 0 50 50" style="enable-background:new 0 0 50 50;" xml:space="preserve">
<style type="text/css">
	.st0{fill:#FFCB00;}
	.st1{fill:#FFD97B;}
	.st2{fill:#E69500;}
	.st3{fill:#3245B7;}
	.st4{fill:#213589;}
</style>
<g>
	<rect x="6.1" y="10" class="st0" width="11.5" height="2.6"/>
	<rect x="6.1" y="10" class="st1" width="11.5" height="0.6"/>
	<path class="st2" d="M8.8,11.8c-0.3,0-0.5-0.2-0.5-0.5c0,0,0,0,0,0c0-0.5-0.1-0.9-0.3-1.3H6.1v2.6h11.5v-0.8H8.8z"/>
	<circle class="st0" cx="4.9" cy="11.3" r="2.9"/>
	<path class="st2" d="M7.5,10.1c0,0.1,0,0.1,0,0.2c0,1.4-1.2,2.6-2.6,2.6c-1.4,0-2.6-1.2-2.6-2.6c0-0.1,0-0.1,0-0.2
		C2.1,10.5,2,10.9,2,11.3c0,1.6,1.3,2.9,2.9,2.9c1.6,0,2.9-1.3,2.9-2.9C7.7,10.9,7.7,10.5,7.5,10.1z"/>
	
		<rect x="32.4" y="10" transform="matrix(-1 -1.224647e-16 1.224647e-16 -1 76.2455 22.5749)" class="st0" width="11.5" height="2.6"/>
	
		<rect x="32.4" y="10" transform="matrix(-1 -1.224647e-16 1.224647e-16 -1 76.2455 20.622)" class="st1" width="11.5" height="0.6"/>
	<path class="st2" d="M41.2,11.8c0.3,0,0.5-0.2,0.5-0.5c0,0,0,0,0,0c0-0.5,0.1-0.9,0.3-1.3h1.9v2.6H32.4v-0.8H41.2z"/>
	<circle class="st0" cx="45.1" cy="11.3" r="2.9"/>
	<path class="st2" d="M42.5,10.1c0,0.1,0,0.1,0,0.2c0,1.4,1.2,2.6,2.6,2.6c1.4,0,2.6-1.2,2.6-2.6c0-0.1,0-0.1,0-0.2
		c0.2,0.4,0.3,0.8,0.3,1.2c0,1.6-1.3,2.9-2.9,2.9s-2.9-1.3-2.9-2.9C42.3,10.9,42.3,10.5,42.5,10.1z"/>
	<path class="st3" d="M36.8,8.4c-7.9,0-15.8,0-23.6,0c-0.8,0-1.7,0.6-2.1,1.3C7.8,17,7.3,25.2,9.4,33c0.3,1.2,1.4,2.2,2.7,2.8
		c4.2,1.8,8.1,3.7,11.3,5.4c1,0.6,2.2,0.6,3.2,0c3.2-1.7,7-3.6,11.3-5.4c1.3-0.6,2.4-1.6,2.7-2.8c2.1-7.7,1.6-16-1.7-23.3
		C38.5,9,37.6,8.4,36.8,8.4z"/>
	<path class="st0" d="M32.9,8.4c2.8,9.1,2.9,19.9,0.4,29.4c1-0.4,1.9-0.9,2.9-1.3c2.8-9.2,2.6-19.4-0.9-28
		C34.5,8.4,33.7,8.4,32.9,8.4z"/>
	<path class="st0" d="M17.1,8.4c-0.8,0-1.6,0-2.4,0c-3.4,8.7-3.7,18.9-0.9,28c1,0.4,2,0.9,2.9,1.3C14.3,28.3,14.3,17.5,17.1,8.4z"/>
	<path class="st4" d="M38.3,34.3C34,36.2,30,38,26.7,39.8c-1.1,0.6-2.3,0.6-3.4,0C20,38,16,36.2,11.7,34.3c-1.3-0.6-2.4-1.6-2.7-2.8
		c0.1,0.5,0.2,1,0.4,1.4c0.3,1.2,1.4,2.2,2.7,2.8c4.2,1.8,8.1,3.7,11.3,5.4c1,0.6,2.2,0.6,3.2,0c3.2-1.7,7-3.6,11.3-5.4
		c1.3-0.6,2.4-1.6,2.7-2.8c0.1-0.5,0.3-1,0.4-1.4C40.7,32.7,39.6,33.8,38.3,34.3z"/>
	<path class="st1" d="M33.3,37.8c1-0.4,1.9-0.9,2.9-1.3c0.1-0.5,0.3-0.9,0.4-1.4c-1,0.5-2,0.9-3,1.3C33.6,36.9,33.4,37.3,33.3,37.8z
		"/>
	<path class="st1" d="M16.7,37.8c-0.1-0.5-0.2-0.9-0.3-1.4c-1-0.4-2-0.9-3-1.3c0.1,0.5,0.3,0.9,0.4,1.4c0.6,0.3,1.1,0.5,1.7,0.8
		C15.9,37.4,16.3,37.6,16.7,37.8z"/>
</g>
</svg>
