<?xml version="1.0" encoding="utf-8"?>
<!-- Generator: Adobe Illustrator 25.4.1, SVG Export Plug-In . SVG Version: 6.00 Build 0)  -->
<svg version="1.1" id="圖層_1" xmlns="http://www.w3.org/2000/svg" xmlns:xlink="http://www.w3.org/1999/xlink" x="0px" y="0px"
	 viewBox="0 0 50 50" style="enable-background:new 0 0 50 50;" xml:space="preserve">
<style type="text/css">
	.st0{fill:#C7B299;}
	.st1{fill:#FFFFFF;}
	.st2{fill:#FBB03B;}
	.st3{fill:#546E7A;}
	.st4{fill:#37474F;}
</style>
<circle class="st0" cx="25" cy="25" r="20.4"/>
<circle class="st1" cx="25" cy="25" r="18.1"/>
<path class="st2" d="M25,1.6C12.1,1.6,1.6,12.1,1.6,25c0,12.9,10.5,23.4,23.4,23.4S48.4,37.9,48.4,25C48.4,12.1,37.9,1.6,25,1.6z
	 M25,45.4C13.7,45.4,4.6,36.3,4.6,25S13.7,4.6,25,4.6S45.4,13.7,45.4,25S36.3,45.4,25,45.4z"/>
<circle class="st3" cx="25" cy="25" r="3"/>
<path class="st4" d="M25,49.2c-6.5,0-12.5-2.5-17.1-7.1C3.3,37.5,0.8,31.5,0.8,25S3.3,12.5,7.9,7.9C12.5,3.3,18.5,0.8,25,0.8
	s12.5,2.5,17.1,7.1c4.6,4.6,7.1,10.6,7.1,17.1s-2.5,12.5-7.1,17.1C37.5,46.7,31.5,49.2,25,49.2z M25,2.3C18.9,2.3,13.2,4.7,9,9
	c-4.3,4.3-6.6,10-6.6,16S4.7,36.8,9,41c4.3,4.3,10,6.6,16,6.6s11.8-2.4,16-6.6c4.3-4.3,6.6-10,6.6-16S45.3,13.2,41,9
	C36.8,4.7,31.1,2.3,25,2.3z"/>
<rect x="8.2" y="28.5" transform="matrix(0.9659 -0.2588 0.2588 0.9659 -7.2378 3.4117)" class="st4" width="2.3" height="1.5"/>
<rect x="9.8" y="32.4" transform="matrix(0.866 -0.5 0.5 0.866 -15.0855 9.9147)" class="st4" width="2.3" height="1.5"/>
<rect x="15.8" y="38.3" transform="matrix(0.5 -0.866 0.866 0.5 -25.364 34.1502)" class="st4" width="2.3" height="1.5"/>
<rect x="19.7" y="39.9" transform="matrix(0.2588 -0.9659 0.9659 0.2588 -23.8557 50.2328)" class="st4" width="2.3" height="1.5"/>
<rect x="28.5" y="39.5" transform="matrix(0.9659 -0.2588 0.2588 0.9659 -9.5285 8.9414)" class="st4" width="1.5" height="2.3"/>
<rect x="32.4" y="37.9" transform="matrix(0.866 -0.5 0.5 0.866 -15.0859 21.7851)" class="st4" width="1.5" height="2.3"/>
<rect x="38.3" y="32" transform="matrix(0.5 -0.866 0.866 0.5 -9.1512 50.3626)" class="st4" width="1.5" height="2.3"/>
<rect x="39.9" y="28.1" transform="matrix(0.2588 -0.9659 0.9659 0.2588 1.9365 60.9163)" class="st4" width="1.5" height="2.3"/>
<rect x="39.5" y="20.1" transform="matrix(0.9659 -0.2588 0.2588 0.9659 -3.9988 11.2316)" class="st4" width="2.3" height="1.5"/>
<rect x="37.9" y="16.2" transform="matrix(0.866 -0.5 0.5 0.866 -3.2164 21.7843)" class="st4" width="2.3" height="1.5"/>
<rect x="32" y="10.2" transform="matrix(0.5 -0.866 0.866 0.5 7.0617 34.1497)" class="st4" width="2.3" height="1.5"/>
<rect x="28.1" y="8.6" transform="matrix(0.2588 -0.9659 0.9659 0.2588 12.6173 35.124)" class="st4" width="2.3" height="1.5"/>
<rect x="20.1" y="8.2" transform="matrix(0.9659 -0.2588 0.2588 0.9659 -1.708 5.7025)" class="st4" width="1.5" height="2.3"/>
<rect x="16.2" y="9.8" transform="matrix(0.866 -0.5 0.5 0.866 -3.2158 9.9154)" class="st4" width="1.5" height="2.3"/>
<rect x="10.2" y="15.8" transform="matrix(0.5 -0.866 0.866 0.5 -9.1512 17.9371)" class="st4" width="1.5" height="2.3"/>
<rect x="8.6" y="19.7" transform="matrix(0.2588 -0.9659 0.9659 0.2588 -13.1724 24.4413)" class="st4" width="1.5" height="2.3"/>
<g>
	<rect x="37.8" y="24.3" class="st3" width="4.5" height="1.5"/>
	<rect x="24.2" y="7.6" class="st3" width="1.5" height="4.5"/>
</g>
<path class="st4" d="M46.9,24.3h-0.8C46,18.9,43.8,13.9,40,10c-3.8-3.8-8.9-6-14.3-6.2V3.1h-1.5v0.8C18.9,4.1,13.9,6.2,10,10
	c-3.8,3.8-6,8.9-6.2,14.3H3.1v1.5h0.8C4.1,31.1,6.2,36.1,10,40c3.8,3.8,8.8,6,14.2,6.2v0.8h1.5v-0.8C31.1,46,36.1,43.8,40,40
	c3.8-3.8,6-8.8,6.2-14.2h0.8V24.3z M25,44.7C14.2,44.7,5.3,35.8,5.3,25S14.2,5.3,25,5.3S44.7,14.2,44.7,25
	C44.7,35.8,35.8,44.7,25,44.7z"/>
<g>
	<rect x="13.6" y="12.1" transform="matrix(0.7071 -0.7071 0.7071 0.7071 -5.9378 14.3352)" class="st3" width="1.5" height="4.5"/>
	<rect x="7.6" y="24.3" class="st3" width="4.5" height="1.5"/>
	
		<rect x="34.9" y="33.4" transform="matrix(0.7071 -0.7071 0.7071 0.7071 -14.7729 35.6638)" class="st3" width="1.5" height="4.5"/>
	<rect x="24.2" y="37.8" class="st3" width="1.5" height="4.5"/>
	
		<rect x="12.1" y="34.9" transform="matrix(0.7071 -0.7071 0.7071 0.7071 -21.0199 20.5821)" class="st3" width="4.5" height="1.5"/>
	<rect x="33.4" y="13.6" transform="matrix(0.7071 -0.7071 0.7071 0.7071 0.3093 29.4179)" class="st3" width="4.5" height="1.5"/>
</g>
<rect x="24.6" y="14.6" class="st2" width="0.6" height="10.4"/>
<rect x="29.7" y="22.6" transform="matrix(-0.7071 0.7071 -0.7071 -0.7071 72.4474 29.9025)" class="st2" width="0.6" height="14.6"/>
<rect x="24.2" y="24.3" transform="matrix(0.9108 -0.4128 0.4128 0.9108 -8.0905 12.5497)" class="st1" width="1.5" height="1.5"/>
</svg>
