<?xml version="1.0" encoding="utf-8"?>
<!-- Generator: Adobe Illustrator 25.3.1, SVG Export Plug-In . SVG Version: 6.00 Build 0)  -->
<svg version="1.1" id="圖層_1" xmlns="http://www.w3.org/2000/svg" xmlns:xlink="http://www.w3.org/1999/xlink" x="0px" y="0px"
	 viewBox="0 0 100 100" style="enable-background:new 0 0 100 100;" xml:space="preserve">
<style type="text/css">
	.st0{fill:#262626;}
	.st1{fill:#E53E3E;}
	.st2{fill:#EFD729;}
	.st3{fill:#2F8919;}
	.st4{fill:#424242;}
	.st5{fill:none;stroke:#A89A48;stroke-miterlimit:10;}
</style>
<g>
	<g>
		<path class="st0" d="M79.5,35.9C57.8,19.6,0,30.6,10.1,63.9c-12,46.7,93.9,45.7,80.4-1C94.4,54.2,91.5,43.6,79.5,35.9z M21.7,85.5
			C15,80.2,12.5,74,13.5,68.7c2.4,2.9,4.8,5.3,8.2,7.7V85.5z M49.1,94.2c-8.2-0.5-16.4-1.9-23.1-5.8c0-0.5,0-0.5,0-10.1
			c7.2,3.4,14.9,5.3,23.1,5.3V94.2z M50.6,79.7c-26.5,1.4-52.5-21.7-27-40c14.9-9.6,38.5-10.1,53.4-0.5
			C103,57.1,77.5,80.7,50.6,79.7z M76.1,87.4c-6.3,3.9-14.4,5.8-23.1,6.3V83.6c7.7-0.5,15.9-1.9,23.1-5.8
			C76.1,80.2,76.1,87.4,76.1,87.4z M79.9,85v-9.1c3.4-1.9,5.8-4.3,8.2-7.7C88.6,73.5,86.7,79.7,79.9,85z"/>
		<path class="st1" d="M26,88.4c6.7,3.9,14.9,5.3,23.1,5.8V83.6c-8.2,0-15.9-1.9-23.1-5.3C26,87.9,26,87.9,26,88.4z"/>
		<path class="st1" d="M13.5,68.7c-1,5.3,1.4,11.6,8.2,16.8v-9.1C18.3,74,15.9,71.6,13.5,68.7z"/>
		<path class="st1" d="M53,93.7c8.7-0.5,16.8-2.4,23.1-6.3c0,0,0-7.2,0-9.6c-7.2,3.9-15.4,5.3-23.1,5.8V93.7z"/>
		<path class="st1" d="M79.9,75.9V85c6.7-5.3,8.7-11.6,8.2-16.8C85.7,71.6,83.3,74,79.9,75.9z"/>
		<path class="st1" d="M77,39.3c-14.9-9.6-38.5-9.1-53.4,0.5c-25.5,18.3,0.5,41.4,27,40C77.5,80.7,103,57.1,77,39.3z"/>
		<rect x="35.6" y="84.9" transform="matrix(0.593 0.8052 -0.8052 0.593 85.2868 5.1221)" class="st2" width="4" height="4"/>
		<rect x="16.5" y="76" transform="matrix(0.3639 0.9314 -0.9314 0.3639 83.367 32.556)" class="st2" width="2.6" height="2.6"/>
		<rect x="83" y="74.9" transform="matrix(-0.2001 0.9798 -0.9798 -0.2001 175.83 8.8972)" class="st2" width="2.6" height="2.6"/>
		<rect x="63.6" y="84.2" transform="matrix(0.8994 0.437 -0.437 0.8994 44.2852 -19.9977)" class="st2" width="4" height="4"/>
	</g>
	<g>
		<path class="st0" d="M86.1,32.5C69,11.4,10.3,8.2,12.1,42.9c-23,42.4,80,67,78.2,18.5C96.1,53.9,95.9,42.9,86.1,32.5z M18.1,66.7
			c-5.3-6.8-6.1-13.4-3.9-18.3c1.6,3.4,3.4,6.3,6.1,9.4L18.1,66.7z M42.6,81.7c-7.8-2.4-15.4-5.8-21-11.2c0.1-0.5,0.1-0.5,2.4-9.8
			c6.2,5,13.2,8.7,21.1,10.7L42.6,81.7z M47.5,68c-26-5-45.7-33.7-16.5-45.3c16.8-5.7,39.8-0.5,52,12.4
			C103.9,58.8,73.4,75.5,47.5,68z M70.4,81.7c-7,2.2-15.4,2.1-23.9,0.5l2.4-9.8c7.6,1.4,15.9,2,23.8,0
			C72.1,74.7,70.4,81.7,70.4,81.7z M74.7,80.3l2.2-8.9c3.7-1.1,6.7-2.8,9.8-5.5C85.9,71.2,82.5,76.8,74.7,80.3z"/>
		<path class="st3" d="M21.6,70.5c5.6,5.4,13.2,8.7,21,11.2l2.6-10.3c-7.9-2-14.9-5.7-21.1-10.7C21.7,70.1,21.7,70.1,21.6,70.5z"/>
		<path class="st3" d="M14.2,48.4c-2.2,4.9-1.4,11.6,3.9,18.3l2.2-8.9C17.6,54.7,15.8,51.7,14.2,48.4z"/>
		<path class="st3" d="M46.4,82.2c8.5,1.6,16.9,1.7,23.9-0.5c0,0,1.7-7,2.3-9.3c-7.9,2-16.2,1.4-23.8,0L46.4,82.2z"/>
		<path class="st3" d="M76.9,71.4l-2.2,8.9c7.8-3.5,11.2-9.1,12-14.4C83.6,68.6,80.6,70.3,76.9,71.4z"/>
		<path class="st3" d="M82.9,35.2C70.8,22.3,47.8,17,31,22.8C1.8,34.4,21.4,63.1,47.5,68C73.4,75.5,103.9,58.8,82.9,35.2z"/>
		<rect x="31.1" y="69.9" transform="matrix(0.381 0.9246 -0.9246 0.381 86.9681 13.8584)" class="st2" width="4" height="4"/>
		<rect x="15" y="56.5" transform="matrix(0.1282 0.9917 -0.9917 0.1282 71.5303 34.2065)" class="st2" width="2.6" height="2.6"/>
		
			<rect x="79.7" y="71.5" transform="matrix(-0.4308 0.9025 -0.9025 -0.4308 181.6292 30.9873)" class="st2" width="2.6" height="2.6"/>
		<rect x="58.5" y="76" transform="matrix(0.7673 0.6413 -0.6413 0.7673 64.0876 -20.6482)" class="st2" width="4" height="4"/>
	</g>
	<g>
		<g>
			<path class="st0" d="M73.6,10.3C50.5-3.8-5.9,12.8,7.3,44.9c-7.4,47.6,97.9,36.4,79.9-8.8C90.2,27.1,86.3,16.8,73.6,10.3z
				 M20.9,65.3c-7.2-4.6-10.2-10.6-9.8-16c2.7,2.6,5.3,4.8,8.9,6.9L20.9,65.3z M49.1,71.2c-8.2,0.3-16.5-0.3-23.6-3.5
				c0-0.5,0-0.5-1-10.1c7.5,2.7,15.4,3.8,23.5,3L49.1,71.2z M49.1,56.7c-26.2,4-54.3-16.5-30.7-37.1c13.9-11,37.3-13.8,53.1-5.7
				C99.1,29.1,76,55.1,49.1,56.7z M75.3,61.9c-5.9,4.4-13.8,7.2-22.4,8.5l-1-10.1c7.6-1.2,15.6-3.5,22.4-8
				C74.6,54.7,75.3,61.9,75.3,61.9z M78.9,59.2L78,50c3.2-2.2,5.3-4.9,7.4-8.5C86.4,46.8,85.1,53.2,78.9,59.2z"/>
			<path class="st4" d="M25.5,67.7c7.1,3.2,15.4,3.8,23.6,3.5l-1-10.5c-8.1,0.8-16-0.4-23.5-3C25.5,67.3,25.5,67.3,25.5,67.7z"/>
			<path class="st4" d="M11.2,49.3c-0.4,5.4,2.6,11.4,9.8,16l-0.9-9.1C16.5,54.1,13.8,52,11.2,49.3z"/>
			<path class="st4" d="M52.9,70.4c8.6-1.3,16.5-4,22.4-8.5c0,0-0.7-7.2-0.9-9.6c-6.8,4.5-14.8,6.8-22.4,8L52.9,70.4z"/>
			<path class="st4" d="M78,50l0.9,9.1c6.2-5.9,7.5-12.3,6.5-17.6C83.3,45.2,81.1,47.8,78,50z"/>
			<path class="st4" d="M71.5,13.9c-15.8-8.1-39.2-5.4-53.1,5.7c-23.6,20.7,4.5,41.2,30.7,37.1C76,55.1,99.1,29.1,71.5,13.9z"/>
			<rect x="34.9" y="63.2" transform="matrix(0.6684 0.7438 -0.7438 0.6684 60.6871 -5.8355)" class="st2" width="4" height="4"/>
			<rect x="15" y="56.2" transform="matrix(0.4527 0.8916 -0.8916 0.4527 60.2049 16.9206)" class="st2" width="2.6" height="2.6"/>
			
				<rect x="81" y="48.7" transform="matrix(-0.1039 0.9946 -0.9946 -0.1039 140.5803 -26.7352)" class="st2" width="2.6" height="2.6"/>
			<rect x="62.7" y="59.8" transform="matrix(0.9377 0.3476 -0.3476 0.9377 25.4928 -18.6419)" class="st2" width="4" height="4"/>
		</g>
		<path class="st2" d="M46.1,26C46.1,26,46.1,26,46.1,26c-1.1-1.6-3.2-2-4.7-0.9c-1.5,1.1-1.9,3.2-0.9,4.7c-1.5,1.1-1.9,3.2-0.9,4.7
			c1.1,1.5,3.2,1.9,4.7,0.9c0.8-0.6,1.3-1.4,1.4-2.3l1.6,5l3.8-2.6l-3.9-3.4c0.9,0.2,1.8,0,2.6-0.5c1.5-1.1,1.9-3.2,0.9-4.7
			C49.6,25.4,47.6,25,46.1,26z"/>
		<path class="st5" d="M80.9,30.3c0.6,10.3-11.2,21.6-29.6,24.4c-19.5,3-39-6.1-38.6-17.9c0.4-10.3,15.5-23.1,34.1-24.3
			C64,11.3,80.3,20.3,80.9,30.3z"/>
	</g>
	<path class="st4" d="M31.9,50.4"/>
</g>
</svg>
