<?xml version="1.0" encoding="utf-8"?>
<!-- Generator: Adobe Illustrator 25.3.1, SVG Export Plug-In . SVG Version: 6.00 Build 0)  -->
<svg version="1.1" id="圖層_1" xmlns="http://www.w3.org/2000/svg" xmlns:xlink="http://www.w3.org/1999/xlink" x="0px" y="0px"
	 viewBox="0 0 180 250" style="enable-background:new 0 0 180 250;" xml:space="preserve">
<style type="text/css">
	.st0{clip-path:url(#SVGID_2_);fill:#211053;}
	.st1{opacity:0.28;clip-path:url(#SVGID_4_);fill:url(#SVGID_5_);enable-background:new    ;}
	.st2{opacity:0.28;clip-path:url(#SVGID_7_);fill:url(#SVGID_8_);enable-background:new    ;}
	.st3{opacity:0.14;clip-path:url(#SVGID_10_);fill:url(#SVGID_11_);enable-background:new    ;}
	.st4{opacity:0.14;clip-path:url(#SVGID_13_);fill:url(#SVGID_14_);enable-background:new    ;}
	.st5{clip-path:url(#SVGID_16_);}
	.st6{fill:#D3FFD9;}
	.st7{fill:none;}
	.st8{opacity:0.33;fill:url(#SVGID_17_);}
	.st9{opacity:0.45;fill-rule:evenodd;clip-rule:evenodd;fill:url(#SVGID_18_);}
</style>
<g>
	<defs>
		<path id="SVGID_1_" d="M172,250H8c-4.4,0-8-3.6-8-8V8c0-4.4,3.6-8,8-8H172c4.4,0,8,3.6,8,8V242C180,246.4,176.4,250,172,250z"/>
	</defs>
	<clipPath id="SVGID_2_">
		<use xlink:href="#SVGID_1_"  style="overflow:visible;"/>
	</clipPath>
	<path class="st0" d="M172,250H8c-4.4,0-8-3.6-8-8V8c0-4.4,3.6-8,8-8H172c4.4,0,8,3.6,8,8V242C180,246.4,176.4,250,172,250z"/>
</g>
<g>
	<defs>
		<path id="SVGID_3_" d="M172,250H8c-4.4,0-8-3.6-8-8V8c0-4.4,3.6-8,8-8H172c4.4,0,8,3.6,8,8V242C180,246.4,176.4,250,172,250z"/>
	</defs>
	<clipPath id="SVGID_4_">
		<use xlink:href="#SVGID_3_"  style="overflow:visible;"/>
	</clipPath>
	
		<linearGradient id="SVGID_5_" gradientUnits="userSpaceOnUse" x1="17.1389" y1="176.6945" x2="294.4135" y2="176.6945" gradientTransform="matrix(1 0 0 -1 0 250)">
		<stop  offset="0" style="stop-color:#190B83"/>
		<stop  offset="0.201" style="stop-color:#331796"/>
		<stop  offset="0.7441" style="stop-color:#7437C8"/>
		<stop  offset="1" style="stop-color:#8E43DB"/>
	</linearGradient>
	<path class="st1" d="M17.3,133.2c0.2-12.6,10-27.7,16.8-37.8c10.6-15.8,33.6-50.5,56.3-49c11.8,0.8,10.1,16.1,20.4,20.6
		c12.1,5.4,20.8-3,26.4-13.2c6.3-11.3,10.8-23.4,17.6-34.4c9.4-15.3,22.6-27.9,37.5-37.9c4.8-3.2,34.1-18.9,29.5-3
		c-3.9,13.6-28.3,21-26.7,36.5c1.6,15.4,20.2,11.7,29.1,6.5c11.2-6.6,23.4-12.9,36.9-12.8c19.3,0.2,34.7,14.3,33.2,34.2
		c-1.8,23.3-30.6,35.2-51.6,36.6c-13.2,0.8-24.6-1.8-37.3,3.7c-11.9,5.2-21.9,12.9-35.8,10c-6.6-1.4-6.5-1.9-9.3-7.4
		c-2.6-5.2-6.5-5.3-14.3-4.2c-14.7,2.2-21.9,9.7-34.6,17.1c-32.6,18.9-51.8,40.3-65.7,76.4c-2.5-2.8-7.5-1.1-11-2.6
		c-6.6-2.9-13.2-8.4-15.7-15.3C16.4,150,17.2,140.7,17.3,133.2z"/>
</g>
<g>
	<defs>
		<path id="SVGID_6_" d="M172,250H8c-4.4,0-8-3.6-8-8V8c0-4.4,3.6-8,8-8H172c4.4,0,8,3.6,8,8V242C180,246.4,176.4,250,172,250z"/>
	</defs>
	<clipPath id="SVGID_7_">
		<use xlink:href="#SVGID_6_"  style="overflow:visible;"/>
	</clipPath>
	
		<linearGradient id="SVGID_8_" gradientUnits="userSpaceOnUse" x1="-44.5475" y1="86.0386" x2="153.8227" y2="86.0386" gradientTransform="matrix(1 0 0 -1 0 250)">
		<stop  offset="0" style="stop-color:#190B83"/>
		<stop  offset="0.201" style="stop-color:#331796"/>
		<stop  offset="0.7441" style="stop-color:#7437C8"/>
		<stop  offset="1" style="stop-color:#8E43DB"/>
	</linearGradient>
	<path class="st2" d="M-36.4,229.1c15.7,0,27.9,0.4,42.9-5.6c10.5-4.2,21.5-7.4,30-15.2c5.1-4.7,21.8-19.2,20.1-27.5
		c-1.1-5.6-8.2-3.6-11.2-7.1c-4.2-4.9,1.9-10.8,5.4-14.1c3.4-3.1,28.8-24.4,32.6-15.2c1.9,4.6-24.8,29.8-3.8,25.8
		c7-1.3,13-7.6,18.2-12c7.2-6.2,15.2-11.4,22.3-17.7c8.8-7.9,17.9-15.1,25.2-24.4c1.9-2.4,9.5-10.1,8.4-13.3
		c-1-3.1-8.8-3.6-11.5-3.8c-7.9-0.5-16.3,1.2-24.2,1.7c-9.1,0.6-18.9,3.6-27.9,2.7c-7.1-0.7-13.3-3.3-20.6-3.3
		c-8.8,0-17.2,2.5-25.6,5c-11.4,3.4-23.7,6.7-33.5,13.7c-9.2,6.4-16.7,15.1-23.3,24c-5.8,7.9-9.9,16.4-15.4,24.4
		c-4.2,6.1-8.7,11.5-11.2,18.6C-43.5,197.2-49.9,223.3-36.4,229.1z"/>
</g>
<g>
	<defs>
		<path id="SVGID_9_" d="M172,250H8c-4.4,0-8-3.6-8-8V8c0-4.4,3.6-8,8-8H172c4.4,0,8,3.6,8,8V242C180,246.4,176.4,250,172,250z"/>
	</defs>
	<clipPath id="SVGID_10_">
		<use xlink:href="#SVGID_9_"  style="overflow:visible;"/>
	</clipPath>
	
		<linearGradient id="SVGID_11_" gradientUnits="userSpaceOnUse" x1="-92.8666" y1="169.6817" x2="127.1509" y2="169.6817" gradientTransform="matrix(1 0 0 -1 0 250)">
		<stop  offset="0" style="stop-color:#190B83"/>
		<stop  offset="0.201" style="stop-color:#331796"/>
		<stop  offset="0.7441" style="stop-color:#7437C8"/>
		<stop  offset="1" style="stop-color:#8E43DB"/>
	</linearGradient>
	<path class="st3" d="M-80.5,158.9c5.5-4.7,9-11.6,14.2-16.7c7.8-7.6,16-14.9,23.8-22.5C-27.5,104.7-11,89.2,9,81
		c4.1-1.7,11.5-5,15.6-1.9c3.1,2.4,2.1,5.8,2.1,9.4c0,7.8,3.8,14.1,12.1,7.5c6.3-5,14.3-20.8,24.1-20c5.7,0.5,1,2.2,2.9,6.2
		c2.8,5.8,10-0.3,13.4-2.6c14.6-10,29.3-20.6,40.2-34.8c7.3-9.6,12.2-20,1.7-30.2C103.5-2.5,75.1,1.1,53.2,5
		c-31,5.6-59.9,24.1-84.9,42.4c-23.1,16.9-45.4,38.7-56.2,65.7c-4.4,11-8.5,26.7-0.1,37.1C-84.3,154.8-78.7,155-80.5,158.9z"/>
</g>
<g>
	<defs>
		<path id="SVGID_12_" d="M172,250H8c-4.4,0-8-3.6-8-8V8c0-4.4,3.6-8,8-8H172c4.4,0,8,3.6,8,8V242C180,246.4,176.4,250,172,250z"/>
	</defs>
	<clipPath id="SVGID_13_">
		<use xlink:href="#SVGID_12_"  style="overflow:visible;"/>
	</clipPath>
	
		<linearGradient id="SVGID_14_" gradientUnits="userSpaceOnUse" x1="25.0897" y1="89.3597" x2="277.2172" y2="89.3597" gradientTransform="matrix(1 0 0 -1 0 250)">
		<stop  offset="0" style="stop-color:#190B83"/>
		<stop  offset="0.201" style="stop-color:#331796"/>
		<stop  offset="0.7441" style="stop-color:#7437C8"/>
		<stop  offset="1" style="stop-color:#8E43DB"/>
	</linearGradient>
	<path class="st4" d="M29.9,192.8c5.2-12.1,20.9-22.8,33-26.9c11.4-3.9,12.5,2.1,20.9,7.5c8.5,5.5,16.5,1.3,22.9-5
		c4.1-4,8-8.5,11.7-12.8c2.6-3.1,4.3-7.3,8.1-9.1c6.3-3,11.8,1.1,18.3-4.4c8.1-6.9,14.4-16.6,20.9-24.9c9.5-12.2,21-23.7,34-32.3
		c4.4-2.9,24.4-18.4,25.9-5.2c1.3,11.3-18.1,22.4-24.6,30.1c-6.4,7.6-9,15.8,3.7,15.8c22,0.1,43.1-27.7,66-15.4
		c11.8,6.3,5,21.7,0.5,30.7c-7.7,15.4-22.9,26.1-38.2,33.2c-6.7,3.1-13.8,5.8-19.4,10.6c-5.5,4.7-9.2,10.4-15.5,14.2
		c-9.4,5.9-30,16.7-40.9,10.7c-5.6-3.1-5.2-11-10.5-14.2c-5-3-13,0-17.6,2.6c-15.2,8.4-26.6,24.2-40.4,34.6
		c-8.2,6.1-18.2,16.2-29.1,14.1c-9.8-1.9-22.9-8.3-29.5-15.7c-11.6-13.1,0.2-34.8,6-48.2"/>
</g>
<g>
	<defs>
		<path id="SVGID_15_" d="M172,250H8c-4.4,0-8-3.6-8-8V8c0-4.4,3.6-8,8-8H172c4.4,0,8,3.6,8,8V242C180,246.4,176.4,250,172,250z"/>
	</defs>
	<clipPath id="SVGID_16_">
		<use xlink:href="#SVGID_15_"  style="overflow:visible;"/>
	</clipPath>
	<g class="st5">
		<g>
			<circle class="st6" cx="82.7" cy="126.8" r="0.2"/>
		</g>
		<g>
			<g>
				<path class="st6" d="M79.6,127.6c0,0.1-0.1,0.2-0.2,0.2s-0.2-0.1-0.2-0.2c0-0.1,0.1-0.2,0.2-0.2S79.6,127.5,79.6,127.6z"/>
			</g>
			<g>
				<circle class="st6" cx="84" cy="126.1" r="0.2"/>
			</g>
			<g>
				<circle class="st6" cx="79.9" cy="132.1" r="0.2"/>
			</g>
			<g>
				<path class="st6" d="M75.4,135c0,0.1-0.1,0.2-0.2,0.2c-0.1,0-0.2-0.1-0.2-0.2c0-0.1,0.1-0.2,0.2-0.2
					C75.3,134.7,75.4,134.8,75.4,135z"/>
			</g>
			<g>
				<path class="st6" d="M84.4,134.7c0,0.1-0.1,0.2-0.2,0.2c-0.1,0-0.2-0.1-0.2-0.2s0.1-0.2,0.2-0.2
					C84.3,134.5,84.4,134.6,84.4,134.7z"/>
			</g>
			<g>
				<circle class="st6" cx="81.8" cy="130.4" r="0.2"/>
			</g>
			<g>
				<circle class="st6" cx="89.8" cy="129.9" r="0.2"/>
			</g>
			<g>
				<path class="st6" d="M89.9,124.8c0,0.1-0.1,0.2-0.2,0.2c-0.1,0-0.2-0.1-0.2-0.2s0.1-0.2,0.2-0.2
					C89.8,124.6,89.9,124.7,89.9,124.8z"/>
			</g>
			<g>
				<path class="st6" d="M96.9,126.1c0,0.1-0.1,0.2-0.2,0.2s-0.2-0.1-0.2-0.2s0.1-0.2,0.2-0.2S96.9,126,96.9,126.1z"/>
			</g>
			<g>
				<path class="st6" d="M96.1,133.8c0,0.1-0.1,0.2-0.2,0.2c-0.1,0-0.2-0.1-0.2-0.2s0.1-0.2,0.2-0.2C96,133.6,96.1,133.7,96.1,133.8
					z"/>
			</g>
			<g>
				<path class="st6" d="M90.9,133.7c0,0.1-0.1,0.2-0.2,0.2c-0.1,0-0.2-0.1-0.2-0.2c0-0.1,0.1-0.2,0.2-0.2
					C90.8,133.4,90.9,133.5,90.9,133.7z"/>
			</g>
			<g>
				<path class="st6" d="M88,133.9c0,0.1-0.1,0.2-0.2,0.2c-0.1,0-0.2-0.1-0.2-0.2c0-0.1,0.1-0.2,0.2-0.2
					C87.9,133.7,88,133.8,88,133.9z"/>
			</g>
			<g>
				<circle class="st6" cx="72.3" cy="145.1" r="0.2"/>
			</g>
			<g>
				<circle class="st6" cx="64.7" cy="146.5" r="0.2"/>
			</g>
			<g>
				<path class="st6" d="M69.6,152.7c0,0.1-0.1,0.2-0.2,0.2s-0.2-0.1-0.2-0.2s0.1-0.2,0.2-0.2S69.6,152.6,69.6,152.7z"/>
			</g>
			<g>
				<path class="st6" d="M70,151.2c0,0.1-0.1,0.2-0.2,0.2c-0.1,0-0.2-0.1-0.2-0.2s0.1-0.2,0.2-0.2C69.9,151,70,151.1,70,151.2z"/>
			</g>
			<g>
				<circle class="st6" cx="87.1" cy="151.4" r="0.2"/>
			</g>
		</g>
		<g>
			<g>
				<path class="st6" d="M88.7,177.2c0,0.1-0.1,0.2-0.2,0.2s-0.2-0.1-0.2-0.2c0-0.1,0.1-0.2,0.2-0.2S88.7,177.1,88.7,177.2z"/>
			</g>
			<g>
				<path class="st6" d="M97.8,181c0,0.1-0.1,0.2-0.2,0.2c-0.1,0-0.2-0.1-0.2-0.2c0-0.1,0.1-0.2,0.2-0.2
					C97.7,180.8,97.8,180.9,97.8,181z"/>
			</g>
			<g>
				<path class="st6" d="M91.4,179.9c0,0.1-0.1,0.2-0.2,0.2c-0.1,0-0.2-0.1-0.2-0.2c0-0.1,0.1-0.2,0.2-0.2S91.4,179.8,91.4,179.9z"
					/>
			</g>
			<g>
				<path class="st6" d="M83.8,184.9c0,0.1-0.1,0.2-0.2,0.2c-0.1,0-0.2-0.1-0.2-0.2c0-0.1,0.1-0.2,0.2-0.2
					C83.7,184.7,83.8,184.8,83.8,184.9z"/>
			</g>
			<g>
				<circle class="st6" cx="74.3" cy="188.9" r="0.2"/>
			</g>
			<g>
				<path class="st6" d="M92.4,188.5c0,0.1-0.1,0.2-0.2,0.2c-0.1,0-0.2-0.1-0.2-0.2c0-0.1,0.1-0.2,0.2-0.2
					C92.3,188.3,92.4,188.4,92.4,188.5z"/>
			</g>
			<g>
				<path class="st6" d="M94.4,184.9c0,0.1-0.1,0.2-0.2,0.2c-0.1,0-0.2-0.1-0.2-0.2s0.1-0.2,0.2-0.2
					C94.3,184.7,94.4,184.8,94.4,184.9z"/>
			</g>
			<g>
				<path class="st6" d="M98.2,191.2c0,0.1-0.1,0.2-0.2,0.2c-0.1,0-0.2-0.1-0.2-0.2s0.1-0.2,0.2-0.2C98.1,191,98.2,191.1,98.2,191.2
					z"/>
			</g>
			<g>
				<circle class="st6" cx="100.1" cy="189.6" r="0.2"/>
			</g>
			<g>
				<circle class="st6" cx="102.7" cy="193.2" r="0.2"/>
			</g>
			<g>
				<path class="st6" d="M64.3,200.8c0,0.1-0.1,0.2-0.2,0.2s-0.2-0.1-0.2-0.2c0-0.1,0.1-0.2,0.2-0.2S64.3,200.7,64.3,200.8z"/>
			</g>
			<g>
				<path class="st6" d="M46.8,197.2c0,0.1-0.1,0.2-0.2,0.2c-0.1,0-0.2-0.1-0.2-0.2s0.1-0.2,0.2-0.2C46.7,196.9,46.8,197,46.8,197.2
					z"/>
			</g>
			<g>
				<circle class="st6" cx="35.3" cy="204.1" r="0.2"/>
			</g>
			<g>
				<path class="st6" d="M33.8,189.6c0,0.1-0.1,0.2-0.2,0.2c-0.1,0-0.2-0.1-0.2-0.2c0-0.1,0.1-0.2,0.2-0.2
					C33.7,189.4,33.8,189.5,33.8,189.6z"/>
			</g>
			<g>
				<circle class="st6" cx="52.2" cy="201.4" r="0.2"/>
			</g>
			<g>
				<circle class="st6" cx="63" cy="198" r="0.2"/>
			</g>
			<g>
				<circle class="st6" cx="72.6" cy="196.4" r="0.2"/>
			</g>
			<g>
				<path class="st6" d="M71.5,185.1c0,0.1-0.1,0.2-0.2,0.2s-0.2-0.1-0.2-0.2c0-0.1,0.1-0.2,0.2-0.2S71.5,185,71.5,185.1z"/>
			</g>
			<g>
				<path class="st6" d="M72.4,180c0,0.1-0.1,0.2-0.2,0.2c-0.1,0-0.2-0.1-0.2-0.2c0-0.1,0.1-0.2,0.2-0.2
					C72.3,179.8,72.4,179.8,72.4,180z"/>
			</g>
			<g>
				<path class="st6" d="M80.7,180.5c0,0.1-0.1,0.2-0.2,0.2s-0.2-0.1-0.2-0.2c0-0.1,0.1-0.2,0.2-0.2S80.7,180.4,80.7,180.5z"/>
			</g>
			<g>
				<circle class="st6" cx="76.8" cy="181.1" r="0.2"/>
			</g>
			<g>
				<circle class="st6" cx="79.2" cy="189" r="0.2"/>
			</g>
			<g>
				<path class="st6" d="M80.4,186.3c0,0.1-0.1,0.2-0.2,0.2c-0.1,0-0.2-0.1-0.2-0.2s0.1-0.2,0.2-0.2
					C80.3,186.1,80.4,186.2,80.4,186.3z"/>
			</g>
			<g>
				<path class="st6" d="M75.2,170.9c0,0.1-0.1,0.2-0.2,0.2c-0.1,0-0.2-0.1-0.2-0.2c0-0.1,0.1-0.2,0.2-0.2
					C75.1,170.7,75.2,170.8,75.2,170.9z"/>
			</g>
			<g>
				<path class="st6" d="M75.1,198.4c0,0.1-0.1,0.2-0.2,0.2c-0.1,0-0.2-0.1-0.2-0.2s0.1-0.2,0.2-0.2C75,198.1,75.1,198.2,75.1,198.4
					z"/>
			</g>
			<g>
				<path class="st6" d="M82.3,197.9c0,0.1-0.1,0.2-0.2,0.2c-0.1,0-0.2-0.1-0.2-0.2c0-0.1,0.1-0.2,0.2-0.2
					C82.2,197.7,82.3,197.8,82.3,197.9z"/>
			</g>
			<g>
				<path class="st6" d="M81.6,192.2c0,0.1-0.1,0.2-0.2,0.2s-0.2-0.1-0.2-0.2c0-0.1,0.1-0.2,0.2-0.2S81.6,192.1,81.6,192.2z"/>
			</g>
			<g>
				<path class="st6" d="M87,189.6c0,0.1-0.1,0.2-0.2,0.2c-0.1,0-0.2-0.1-0.2-0.2s0.1-0.2,0.2-0.2S87,189.5,87,189.6z"/>
			</g>
			<g>
				<path class="st6" d="M83.1,189.2c0,0.1-0.1,0.2-0.2,0.2c-0.1,0-0.2-0.1-0.2-0.2s0.1-0.2,0.2-0.2C83,189,83.1,189.1,83.1,189.2z"
					/>
			</g>
			<g>
				<path class="st6" d="M86.8,185.6c0,0.1-0.1,0.2-0.2,0.2c-0.1,0-0.2-0.1-0.2-0.2s0.1-0.2,0.2-0.2
					C86.7,185.4,86.8,185.5,86.8,185.6z"/>
			</g>
			<g>
				<path class="st6" d="M76.9,184.7c0,0.1-0.1,0.2-0.2,0.2c-0.1,0-0.2-0.1-0.2-0.2c0-0.1,0.1-0.2,0.2-0.2
					C76.8,184.5,76.9,184.6,76.9,184.7z"/>
			</g>
			<g>
				<path class="st6" d="M76.6,187.2c0,0.1-0.1,0.2-0.2,0.2c-0.1,0-0.2-0.1-0.2-0.2c0-0.1,0.1-0.2,0.2-0.2
					C76.5,187,76.6,187.1,76.6,187.2z"/>
			</g>
			<g>
				<path class="st6" d="M84.4,193.1c0,0.1-0.1,0.2-0.2,0.2c-0.1,0-0.2-0.1-0.2-0.2s0.1-0.2,0.2-0.2
					C84.3,192.8,84.4,192.9,84.4,193.1z"/>
			</g>
			<g>
				<path class="st6" d="M94.8,206.1c0,0.1-0.1,0.2-0.2,0.2c-0.1,0-0.2-0.1-0.2-0.2c0-0.1,0.1-0.2,0.2-0.2S94.8,206,94.8,206.1z"/>
			</g>
			<g>
				<path class="st6" d="M97.2,211.2c0,0.1-0.1,0.2-0.2,0.2s-0.2-0.1-0.2-0.2c0-0.1,0.1-0.2,0.2-0.2S97.2,211.1,97.2,211.2z"/>
			</g>
			<g>
				<circle class="st6" cx="87.9" cy="202.7" r="0.2"/>
			</g>
			<g>
				<path class="st6" d="M76.7,216.9c0,0.1-0.1,0.2-0.2,0.2c-0.1,0-0.2-0.1-0.2-0.2c0-0.1,0.1-0.2,0.2-0.2
					C76.6,216.7,76.7,216.8,76.7,216.9z"/>
			</g>
			<g>
				<path class="st6" d="M95,217.4c0,0.1-0.1,0.2-0.2,0.2s-0.2-0.1-0.2-0.2s0.1-0.2,0.2-0.2S95,217.3,95,217.4z"/>
			</g>
			<g>
				<path class="st6" d="M101.3,217c0,0.1-0.1,0.2-0.2,0.2s-0.2-0.1-0.2-0.2c0-0.1,0.1-0.2,0.2-0.2S101.3,216.9,101.3,217z"/>
			</g>
		</g>
		<g>
			<g>
				<path class="st6" d="M181.1,108.1c0,0.1-0.1,0.2-0.2,0.2s-0.2-0.1-0.2-0.2c0-0.1,0.1-0.2,0.2-0.2S181.1,108,181.1,108.1z"/>
			</g>
			<g>
				<circle class="st6" cx="174.1" cy="117.1" r="0.2"/>
			</g>
			<g>
				<path class="st6" d="M172.6,108.1c0,0.1-0.1,0.2-0.2,0.2s-0.2-0.1-0.2-0.2s0.1-0.2,0.2-0.2S172.6,108,172.6,108.1z"/>
			</g>
			<g>
				<path class="st6" d="M154.6,106.9c0,0.1-0.1,0.2-0.2,0.2c-0.1,0-0.2-0.1-0.2-0.2s0.1-0.2,0.2-0.2
					C154.5,106.7,154.6,106.8,154.6,106.9z"/>
			</g>
			<g>
				<circle class="st6" cx="154.9" cy="120.4" r="0.2"/>
			</g>
			<g>
				<path class="st6" d="M165.7,114.4c0,0.1-0.1,0.2-0.2,0.2s-0.2-0.1-0.2-0.2c0-0.1,0.1-0.2,0.2-0.2S165.7,114.3,165.7,114.4z"/>
			</g>
			<g>
				<path class="st6" d="M175.9,121.6c0,0.1-0.1,0.2-0.2,0.2c-0.1,0-0.2-0.1-0.2-0.2s0.1-0.2,0.2-0.2
					C175.8,121.3,175.9,121.4,175.9,121.6z"/>
			</g>
			<g>
				<path class="st6" d="M176.6,114.6c0,0.1-0.1,0.2-0.2,0.2s-0.2-0.1-0.2-0.2c0-0.1,0.1-0.2,0.2-0.2S176.6,114.5,176.6,114.6z"/>
			</g>
			<g>
				<circle class="st6" cx="160.9" cy="116.9" r="0.2"/>
			</g>
			<g>
				<path class="st6" d="M170.6,118.2c0,0.1-0.1,0.2-0.2,0.2c-0.1,0-0.2-0.1-0.2-0.2c0-0.1,0.1-0.2,0.2-0.2
					C170.5,118,170.6,118.1,170.6,118.2z"/>
			</g>
			<g>
				<circle class="st6" cx="169.9" cy="122.5" r="0.2"/>
			</g>
			<g>
				<path class="st6" d="M160.9,119.5c0,0.1-0.1,0.2-0.2,0.2s-0.2-0.1-0.2-0.2s0.1-0.2,0.2-0.2S160.9,119.4,160.9,119.5z"/>
			</g>
			<g>
				<path class="st6" d="M154.2,129.9c0,0.1-0.1,0.2-0.2,0.2c-0.1,0-0.2-0.1-0.2-0.2c0-0.1,0.1-0.2,0.2-0.2
					C154.1,129.6,154.2,129.7,154.2,129.9z"/>
			</g>
			<g>
				<path class="st6" d="M134.4,130.3c0,0.1-0.1,0.2-0.2,0.2s-0.2-0.1-0.2-0.2c0-0.1,0.1-0.2,0.2-0.2S134.4,130.2,134.4,130.3z"/>
			</g>
			<g>
				<circle class="st6" cx="149.4" cy="140.8" r="0.2"/>
			</g>
			<g>
				<circle class="st6" cx="164.3" cy="144.1" r="0.2"/>
			</g>
			<g>
				<circle class="st6" cx="184.7" cy="130.7" r="0.2"/>
			</g>
			<g>
				<circle class="st6" cx="184.5" cy="115.2" r="0.2"/>
			</g>
			<g>
				<path class="st6" d="M190.5,109.8c0,0.1-0.1,0.2-0.2,0.2s-0.2-0.1-0.2-0.2s0.1-0.2,0.2-0.2S190.5,109.7,190.5,109.8z"/>
			</g>
			<g>
				<path class="st6" d="M183.3,93.2c0,0.1-0.1,0.2-0.2,0.2c-0.1,0-0.2-0.1-0.2-0.2c0-0.1,0.1-0.2,0.2-0.2
					C183.2,93,183.3,93.1,183.3,93.2z"/>
			</g>
		</g>
		<g>
			<g>
				<path class="st6" d="M8.8,228.8c0,0.1-0.1,0.2-0.2,0.2c-0.1,0-0.2-0.1-0.2-0.2s0.1-0.2,0.2-0.2S8.8,228.6,8.8,228.8z"/>
			</g>
			<g>
				<path class="st6" d="M5.8,241.6c0,0.1-0.1,0.2-0.2,0.2c-0.1,0-0.2-0.1-0.2-0.2s0.1-0.2,0.2-0.2C5.7,241.4,5.8,241.5,5.8,241.6z"
					/>
			</g>
			<g>
				<path class="st6" d="M22.7,241.1c0,0.1-0.1,0.2-0.2,0.2c-0.1,0-0.2-0.1-0.2-0.2s0.1-0.2,0.2-0.2C22.6,240.9,22.7,241,22.7,241.1
					z"/>
			</g>
			<g>
				<path class="st6" d="M11.7,232.2c0,0.1-0.1,0.2-0.2,0.2c-0.1,0-0.2-0.1-0.2-0.2c0-0.1,0.1-0.2,0.2-0.2
					C11.6,232,11.7,232.1,11.7,232.2z"/>
			</g>
			<g>
				<path class="st6" d="M16,232c0,0.1-0.1,0.2-0.2,0.2c-0.1,0-0.2-0.1-0.2-0.2s0.1-0.2,0.2-0.2C15.9,231.8,16,231.9,16,232z"/>
			</g>
			<g>
				<circle class="st6" cx="22.5" cy="227.7" r="0.2"/>
			</g>
			<g>
				<circle class="st6" cx="23" cy="229.7" r="0.2"/>
			</g>
			<g>
				<circle class="st6" cx="38.1" cy="238" r="0.2"/>
			</g>
			<g>
				<circle class="st6" cx="20.4" cy="244.1" r="0.2"/>
			</g>
			<g>
				<circle class="st6" cx="7.4" cy="251.7" r="0.2"/>
			</g>
			<g>
				<circle class="st6" cx="4.5" cy="236.8" r="0.2"/>
			</g>
			<g>
				<path class="st6" d="M10.7,225.2c0,0.1-0.1,0.2-0.2,0.2c-0.1,0-0.2-0.1-0.2-0.2c0-0.1,0.1-0.2,0.2-0.2
					C10.6,225,10.7,225.1,10.7,225.2z"/>
			</g>
			<g>
				<circle class="st6" cx="11" cy="217" r="0.2"/>
			</g>
			<g>
				<path class="st6" d="M10.2,209.4c0,0.1-0.1,0.2-0.2,0.2c-0.1,0-0.2-0.1-0.2-0.2s0.1-0.2,0.2-0.2
					C10.1,209.1,10.2,209.2,10.2,209.4z"/>
			</g>
			<g>
				<circle class="st6" cx="39.7" cy="223.7" r="0.2"/>
			</g>
			<g>
				<circle class="st6" cx="10.6" cy="251.8" r="0.2"/>
			</g>
			<g>
				<path class="st6" d="M13.6,81.4c0,0.1-0.1,0.2-0.2,0.2c-0.1,0-0.2-0.1-0.2-0.2c0-0.1,0.1-0.2,0.2-0.2
					C13.5,81.2,13.6,81.3,13.6,81.4z"/>
			</g>
			<g>
				<path class="st6" d="M21.9,79.3c0,0.1-0.1,0.2-0.2,0.2c-0.1,0-0.2-0.1-0.2-0.2s0.1-0.2,0.2-0.2C21.8,79.1,21.9,79.2,21.9,79.3z"
					/>
			</g>
			<g>
				<path class="st6" d="M10.3,88.8c0,0.1-0.1,0.2-0.2,0.2c-0.1,0-0.2-0.1-0.2-0.2s0.1-0.2,0.2-0.2C10.2,88.6,10.3,88.7,10.3,88.8z"
					/>
			</g>
			<g>
				<path class="st6" d="M29.4,74.9c0,0.1-0.1,0.2-0.2,0.2c-0.1,0-0.2-0.1-0.2-0.2s0.1-0.2,0.2-0.2S29.4,74.8,29.4,74.9z"/>
			</g>
			<g>
				<path class="st6" d="M36.7,70.6c0,0.1-0.1,0.2-0.2,0.2c-0.1,0-0.2-0.1-0.2-0.2c0-0.1,0.1-0.2,0.2-0.2
					C36.6,70.3,36.7,70.4,36.7,70.6z"/>
			</g>
			<g>
				<path class="st6" d="M17.5,79.7c0,0.1-0.1,0.2-0.2,0.2c-0.1,0-0.2-0.1-0.2-0.2c0-0.1,0.1-0.2,0.2-0.2
					C17.4,79.4,17.5,79.6,17.5,79.7z"/>
			</g>
			<g>
				<circle class="st6" cx="21.2" cy="85.6" r="0.2"/>
			</g>
			<g>
				<path class="st6" d="M27,78.2c0,0.1-0.1,0.2-0.2,0.2s-0.2-0.1-0.2-0.2s0.1-0.2,0.2-0.2S27,78.1,27,78.2z"/>
			</g>
			<g>
				<path class="st6" d="M35.7,79c0,0.1-0.1,0.2-0.2,0.2c-0.1,0-0.2-0.1-0.2-0.2c0-0.1,0.1-0.2,0.2-0.2C35.6,78.8,35.7,78.9,35.7,79
					z"/>
			</g>
			<g>
				<path class="st6" d="M29.3,84.5c0,0.1-0.1,0.2-0.2,0.2c-0.1,0-0.2-0.1-0.2-0.2c0-0.1,0.1-0.2,0.2-0.2
					C29.2,84.3,29.3,84.4,29.3,84.5z"/>
			</g>
			<g>
				<circle class="st6" cx="27.7" cy="87.8" r="0.2"/>
			</g>
			<g>
				<path class="st6" d="M17,88.4c0,0.1-0.1,0.2-0.2,0.2c-0.1,0-0.2-0.1-0.2-0.2s0.1-0.2,0.2-0.2C16.9,88.2,17,88.3,17,88.4z"/>
			</g>
			<g>
				<path class="st6" d="M14.2,96.3c0,0.1-0.1,0.2-0.2,0.2c-0.1,0-0.2-0.1-0.2-0.2c0-0.1,0.1-0.2,0.2-0.2
					C14.1,96.1,14.2,96.2,14.2,96.3z"/>
			</g>
			<g>
				<path class="st6" d="M24.2,93.2c0,0.1-0.1,0.2-0.2,0.2c-0.1,0-0.2-0.1-0.2-0.2c0-0.1,0.1-0.2,0.2-0.2S24.2,93.1,24.2,93.2z"/>
			</g>
			<g>
				<path class="st6" d="M34.3,92.6c0,0.1-0.1,0.2-0.2,0.2c-0.1,0-0.2-0.1-0.2-0.2s0.1-0.2,0.2-0.2C34.2,92.3,34.3,92.4,34.3,92.6z"
					/>
			</g>
			<g>
				<circle class="st6" cx="16.8" cy="70.2" r="0.2"/>
			</g>
			<g>
				<path class="st6" d="M25.3,70.9c0,0.1-0.1,0.2-0.2,0.2c-0.1,0-0.2-0.1-0.2-0.2s0.1-0.2,0.2-0.2C25.2,70.7,25.3,70.8,25.3,70.9z"
					/>
			</g>
			<g>
				<circle class="st6" cx="24.5" cy="72.6" r="0.2"/>
			</g>
			<g>
				<circle class="st6" cx="13.5" cy="84.4" r="0.2"/>
			</g>
			<g>
				<path class="st6" d="M19.9,83.1c0,0.1-0.1,0.2-0.2,0.2c-0.1,0-0.2-0.1-0.2-0.2c0-0.1,0.1-0.2,0.2-0.2
					C19.8,82.9,19.9,83,19.9,83.1z"/>
			</g>
			<g>
				<circle class="st6" cx="49" cy="69.3" r="0.2"/>
			</g>
			<g>
				<path class="st6" d="M62.1,69.9c0,0.1-0.1,0.2-0.2,0.2s-0.2-0.1-0.2-0.2c0-0.1,0.1-0.2,0.2-0.2S62.1,69.8,62.1,69.9z"/>
			</g>
			<g>
				<path class="st6" d="M-1.1,102c0,0.1-0.1,0.2-0.2,0.2s-0.2-0.1-0.2-0.2c0-0.1,0.1-0.2,0.2-0.2S-1.1,101.8-1.1,102z"/>
			</g>
			<g>
				<circle class="st6" cx="5.9" cy="98" r="0.2"/>
			</g>
		</g>
		<g>
			<g>
				<path class="st6" d="M131.8,40.1c0,0.1-0.1,0.2-0.2,0.2c-0.1,0-0.2-0.1-0.2-0.2s0.1-0.2,0.2-0.2C131.7,39.9,131.8,40,131.8,40.1
					z"/>
			</g>
			<g>
				<path class="st6" d="M118.1,42.7c0,0.1-0.1,0.2-0.2,0.2s-0.2-0.1-0.2-0.2c0-0.1,0.1-0.2,0.2-0.2S118.1,42.6,118.1,42.7z"/>
			</g>
			<g>
				<path class="st6" d="M132.1,53.9c0,0.1-0.1,0.2-0.2,0.2s-0.2-0.1-0.2-0.2c0-0.1,0.1-0.2,0.2-0.2S132.1,53.7,132.1,53.9z"/>
			</g>
			<g>
				<path class="st6" d="M149.1,58.9c0,0.1-0.1,0.2-0.2,0.2c-0.1,0-0.2-0.1-0.2-0.2s0.1-0.2,0.2-0.2C149,58.7,149.1,58.8,149.1,58.9
					z"/>
			</g>
			<g>
				<path class="st6" d="M120.8,58.7c0,0.1-0.1,0.2-0.2,0.2s-0.2-0.1-0.2-0.2s0.1-0.2,0.2-0.2S120.8,58.5,120.8,58.7z"/>
			</g>
			<g>
				<circle class="st6" cx="129.9" cy="43.4" r="0.2"/>
			</g>
			<g>
				<path class="st6" d="M134.8,48.8c0,0.1-0.1,0.2-0.2,0.2c-0.1,0-0.2-0.1-0.2-0.2s0.1-0.2,0.2-0.2S134.8,48.7,134.8,48.8z"/>
			</g>
			<g>
				<circle class="st6" cx="132" cy="50.2" r="0.2"/>
			</g>
			<g>
				<path class="st6" d="M125,45.5c0,0.1-0.1,0.2-0.2,0.2s-0.2-0.1-0.2-0.2s0.1-0.2,0.2-0.2S125,45.4,125,45.5z"/>
			</g>
			<g>
				<circle class="st6" cx="127.6" cy="44.8" r="0.2"/>
			</g>
			<g>
				<circle class="st6" cx="123.8" cy="33.3" r="0.2"/>
			</g>
		</g>
		<g>
			<g>
				<path class="st6" d="M55.2,101.2c-0.1,0.1-0.2,0.1-0.3,0s-0.1-0.2,0-0.3c0.1-0.1,0.2-0.1,0.3,0C55.3,101,55.3,101.1,55.2,101.2z
					"/>
			</g>
			<g>
				<path class="st6" d="M57.3,107.7c-0.1,0.1-0.2,0.1-0.3,0s-0.1-0.2,0-0.3c0.1-0.1,0.2-0.1,0.3,0
					C57.4,107.4,57.4,107.6,57.3,107.7z"/>
			</g>
			<g>
				<path class="st6" d="M66.3,100.4c-0.1,0.1-0.2,0.1-0.3,0c-0.1-0.1-0.1-0.2,0-0.3c0.1-0.1,0.2-0.1,0.3,0
					C66.4,100.2,66.4,100.3,66.3,100.4z"/>
			</g>
			<g>
				<path class="st6" d="M63.9,95.4c-0.1,0.1-0.2,0.1-0.3,0s-0.1-0.2,0-0.3c0.1-0.1,0.2-0.1,0.3,0C64,95.2,64,95.3,63.9,95.4z"/>
			</g>
			<g>
				<path class="st6" d="M69.1,105.6c-0.1,0.1-0.2,0.1-0.3,0c-0.1-0.1-0.1-0.2,0-0.3c0.1-0.1,0.2-0.1,0.3,0
					C69.2,105.4,69.2,105.5,69.1,105.6z"/>
			</g>
			<g>
				<path class="st6" d="M65.4,110.3c-0.1,0.1-0.2,0.1-0.3,0c-0.1-0.1-0.1-0.2,0-0.3c0.1-0.1,0.2-0.1,0.3,0
					C65.5,110.1,65.5,110.2,65.4,110.3z"/>
			</g>
			<g>
				<path class="st6" d="M82.3,83.7c-0.1,0.1-0.2,0.1-0.3,0c-0.1-0.1-0.1-0.2,0-0.3c0.1-0.1,0.2-0.1,0.3,0
					C82.4,83.4,82.4,83.6,82.3,83.7z"/>
			</g>
		</g>
		<g>
			<g>
				<circle class="st6" cx="61.5" cy="100.4" r="0.2"/>
			</g>
			<g>
				<path class="st6" d="M65.5,101.4c0,0.1-0.1,0.2-0.2,0.2c-0.1,0-0.2-0.1-0.2-0.2c0-0.1,0.1-0.2,0.2-0.2
					C65.4,101.2,65.5,101.3,65.5,101.4z"/>
			</g>
			<g>
				<path class="st6" d="M60.7,104.9c0,0.1-0.1,0.2-0.2,0.2c-0.1,0-0.2-0.1-0.2-0.2c0-0.1,0.1-0.2,0.2-0.2
					C60.6,104.7,60.7,104.8,60.7,104.9z"/>
			</g>
			<g>
				<circle class="st6" cx="37.9" cy="112.2" r="0.2"/>
			</g>
			<g>
				<circle class="st6" cx="152.6" cy="76" r="0.2"/>
			</g>
			<g>
				<path class="st6" d="M66.4,81c0,0.1-0.1,0.2-0.2,0.2c-0.1,0-0.2-0.1-0.2-0.2s0.1-0.2,0.2-0.2S66.4,80.9,66.4,81z"/>
			</g>
			<g>
				<path class="st6" d="M27.6,114.5c0,0.1-0.1,0.2-0.2,0.2s-0.2-0.1-0.2-0.2c0-0.1,0.1-0.2,0.2-0.2S27.6,114.4,27.6,114.5z"/>
			</g>
		</g>
	</g>
</g>
<path class="st7" d="M172,250H8c-4.4,0-8-3.6-8-8V8c0-4.4,3.6-8,8-8H172c4.4,0,8,3.6,8,8V242C180,246.4,176.4,250,172,250z"/>
<g>
	<radialGradient id="SVGID_17_" cx="90" cy="101.0081" r="85.4113" gradientUnits="userSpaceOnUse">
		<stop  offset="0" style="stop-color:#FFB808"/>
		<stop  offset="8.838677e-02" style="stop-color:#F3AF08"/>
		<stop  offset="0.2496" style="stop-color:#D29707"/>
		<stop  offset="0.4655" style="stop-color:#9D7105"/>
		<stop  offset="0.7282" style="stop-color:#533C03"/>
		<stop  offset="1" style="stop-color:#000000"/>
	</radialGradient>
	<circle class="st8" cx="90" cy="101" r="85.4"/>
	<linearGradient id="SVGID_18_" gradientUnits="userSpaceOnUse" x1="90" y1="29.2983" x2="90" y2="183.8201">
		<stop  offset="5.586590e-03" style="stop-color:#D8AE2A"/>
		<stop  offset="0.1828" style="stop-color:#A2821F"/>
		<stop  offset="0.3926" style="stop-color:#695414"/>
		<stop  offset="0.5869" style="stop-color:#3C300C"/>
		<stop  offset="0.7589" style="stop-color:#1B1605"/>
		<stop  offset="0.9025" style="stop-color:#070601"/>
		<stop  offset="1" style="stop-color:#000000"/>
	</linearGradient>
	<path class="st9" d="M90,25.5c-41.7,0-75.5,33.8-75.5,75.5c0,41.7,33.8,75.5,75.5,75.5c41.7,0,75.5-33.8,75.5-75.5
		C165.5,59.3,131.7,25.5,90,25.5z M90,173.6c-40.1,0-72.6-32.5-72.6-72.6S49.9,28.4,90,28.4c40.1,0,72.6,32.5,72.6,72.6
		S130.1,173.6,90,173.6z"/>
</g>
</svg>
